<?xml version="1.0" encoding="utf-8"?>
<!-- Generator: Adobe Illustrator 22.1.0, SVG Export Plug-In . SVG Version: 6.00 Build 0)  -->
<svg version="1.1" id="图层_1" xmlns="http://www.w3.org/2000/svg" xmlns:xlink="http://www.w3.org/1999/xlink" x="0px" y="0px"
	 viewBox="0 0 24 24" style="enable-background:new 0 0 24 24;" xml:space="preserve">
<style type="text/css">
	.st0{opacity:0.5;}
	.st1{fill:#FFFFFF;}
</style>
<g>
	<g>
		<path d="M15,19l-6-2.11V5l6,2.11 M20.5,3c-0.06,0-0.11,0-0.16,0L15,5.1L9,3L3.36,4.9C3.15,4.97,3,5.15,3,5.38V20.5
			C3,20.776,3.224,21,3.5,21c0.05,0,0.11,0,0.16-0.03L9,18.9l6,2.1l5.64-1.9C20.85,19,21,18.85,21,18.62V3.5
			C21,3.224,20.776,3,20.5,3z"/>
	</g>
</g>
</svg>
