<?xml version="1.0" encoding="utf-8"?>
<!-- Generator: Adobe Illustrator 22.1.0, SVG Export Plug-In . SVG Version: 6.00 Build 0)  -->
<svg version="1.1" id="图层_1" xmlns="http://www.w3.org/2000/svg" xmlns:xlink="http://www.w3.org/1999/xlink" x="0px" y="0px"
	 viewBox="0 0 24 24" style="enable-background:new 0 0 24 24;" xml:space="preserve">
<style type="text/css">
	.st0{opacity:0.5;}
	.st1{fill:#FFFFFF;}
</style>
<g>
	<path d="M14.2,17.8c0-0.497-0.403-0.9-0.9-0.9h-0.9v-1.8H16c0.994,0,1.8-0.806,1.8-1.8v-9c0-0.994-0.806-1.8-1.8-1.8H7
		c-0.994,0-1.8,0.806-1.8,1.8v9c0,0.994,0.806,1.8,1.8,1.8h3.6v1.8H9.7c-0.497,0-0.9,0.403-0.9,0.9H2.5v1.8h6.3
		c0,0.497,0.403,0.9,0.9,0.9h3.6c0.497,0,0.9-0.403,0.9-0.9h6.3v-1.8H14.2 M7,13.3v-9h9v9H7 M11.5,12.4l3.6-3.6h-2.7V5.2h-1.8v3.6
		H7.9L11.5,12.4z"/>
</g>
</svg>
