<svg id="图层_1" data-name="图层 1" xmlns="http://www.w3.org/2000/svg" width="23.55mm" height="26.43mm" viewBox="0 0 66.75 74.92"><path d="M32.79,74.92c-1.09-.15-2.19-.26-3.28-.44-1.4-.25-2.8-.48-4.16-.85s-2.61-.89-4-1.37L61.68,3.12l.16.08L36,64.08c1.26-.2,2.31-.31,3.33-.54A22.53,22.53,0,0,0,56.43,45.25,22.09,22.09,0,0,0,55.26,33.8a3.64,3.64,0,0,1,.1-3.06c1.37-3,2.64-6.13,4-9.35.28.32.5.54.69.79A32.74,32.74,0,0,1,40.8,74.07c-1.59.31-3.21.43-4.81.65a5,5,0,0,0-.76.2Z" fill="#29377c"/><path d="M4.18,58.83c.64.91,1.24,1.84,1.91,2.71.86,1.13,1.71,2.27,2.67,3.3s2,1.91,3,2.89L54.58.11,54.45,0,12.32,51c-.41-1.21-.79-2.19-1.06-3.2a22.55,22.55,0,0,1,8.36-23.6,22,22,0,0,1,10.7-4.24A3.65,3.65,0,0,0,33,18.45c2.06-2.62,4.22-5.17,6.45-7.87-.41-.1-.71-.19-1-.25a32.74,32.74,0,0,0-37.17,41c.46,1.55,1.1,3.05,1.65,4.57.08.25.11.51.17.77Z" fill="#94c23d"/></svg>