<?xml version="1.0" encoding="UTF-8"?>
<svg width="26px" height="27px" viewBox="0 0 26 27" version="1.1" xmlns="http://www.w3.org/2000/svg" xmlns:xlink="http://www.w3.org/1999/xlink">
    <title>Group 38 Copy</title>
    <g id="Page-1" stroke="none" stroke-width="1" fill="none" fill-rule="evenodd">
        <g id="Group-38-Copy" transform="translate(0.007715, 0.566304)">
            <g id="Group-15-Copy">
                <polygon id="Path" points="0 0 19.7809094 0 19.7809094 20.3390159 0 20.3390159"></polygon>
                <ellipse id="Oval" stroke="#556485" stroke-width="2" stroke-linecap="round" stroke-linejoin="round" cx="9.89045471" cy="5.08475398" rx="6.59363647" ry="2.54237699"></ellipse>
                <path d="M3.29681824,5.08475398 L3.29681824,10.169508 C3.29681824,11.573624 6.24888984,12.7118849 9.89045471,12.7118849 C13.5320196,12.7118849 16.4840912,11.573624 16.4840912,10.169508 L16.4840912,5.08475398" id="Path" stroke="#556485" stroke-width="2" stroke-linecap="round" stroke-linejoin="round"></path>
                <path d="M3.29681824,10.169508 L3.29681824,15.2542619 C3.29681824,16.658378 6.24888984,17.7966389 9.89045471,17.7966389 C13.5320196,17.7966389 16.4840912,16.658378 16.4840912,15.2542619 L16.4840912,10.169508" id="Path" stroke="#556485" stroke-width="2" stroke-linecap="round" stroke-linejoin="round"></path>
            </g>
            <g id="Group-41" transform="translate(8.535648, 9.099330)">
                <rect id="Rectangle" fill="#FFFFFF" x="0" y="0" width="15.4643524" height="15.9006698" rx="7.37314153"></rect>
                <g id="Group-42" transform="translate(1.489210, 0.816122)" fill="#556485" fill-rule="nonzero" stroke="#556485" stroke-width="0.3">
                    <path d="M6.2429663,4.75614173 C4.96563321,4.75614173 3.93015015,5.82084033 3.93015015,7.1342126 C3.93015015,8.44758487 4.96563321,9.51228346 6.2429663,9.51228346 C7.52029938,9.51228346 8.55578244,8.44758487 8.55578244,7.1342126 C8.55578244,5.82084033 7.52029938,4.75614173 6.2429663,4.75614173 L6.2429663,4.75614173 Z M6.2429663,8.32324803 C5.60429975,8.32324803 5.08655822,7.79089874 5.08655822,7.1342126 C5.08655822,6.47752646 5.60429975,5.94517717 6.2429663,5.94517717 C6.88163284,5.94517717 7.39937437,6.47752646 7.39937437,7.1342126 C7.39937437,7.79089874 6.88163284,8.32324803 6.2429663,8.32324803 Z" id="Shape"></path>
                    <path d="M6.2429663,-0.15 C6.76385417,-0.15 7.23563072,0.0667545113 7.57705338,0.417810204 C7.9020895,0.752017025 8.10887237,1.20804761 8.12639222,1.71374079 C8.41701452,1.96190477 8.69699635,2.16632641 8.96292674,2.36064032 C9.20109238,2.53466669 9.42822742,2.7008356 9.64233397,2.88174212 C10.0138611,2.67540148 10.3576927,2.56901134 10.6736838,2.54487542 C11.0511249,2.51604584 11.3909443,2.60330101 11.6943702,2.78356005 C12.2760678,3.12913458 12.6352794,3.7671884 12.635064,4.45831245 C12.6348561,5.12547875 12.2997396,5.74296934 11.753106,6.09557583 C11.6877093,6.48341787 11.6549545,6.83907305 11.6237204,7.17691127 C11.5962632,7.47389783 11.5699011,7.75743259 11.5249305,8.03690102 C12.0382597,8.36448994 12.3680466,8.79048952 12.5231948,9.24015541 C12.6999041,9.75231197 12.6517426,10.2973208 12.3842122,10.7741236 C12.1240735,11.2377528 11.7055404,11.5486258 11.2396934,11.6771355 C10.7945099,11.7999448 10.3058472,11.7563807 9.86963265,11.5197267 C9.51416603,11.654307 9.20128832,11.8014548 8.90404783,11.9411062 C8.63855393,12.0658421 8.38519508,12.1846906 8.12593016,12.2845409 C8.10626232,12.9048523 7.91184656,13.4108229 7.61088428,13.7731933 C7.26606525,14.1883688 6.78059012,14.4184252 6.2429663,14.4184252 C5.72207843,14.4184252 5.25030188,14.2016707 4.90887922,13.850615 C4.5838431,13.5164082 4.37706023,13.0603776 4.359512,12.5546806 C4.06891998,12.3066597 3.78896013,12.1023247 3.52304166,11.9080867 C3.28455232,11.7338841 3.05711683,11.5675526 2.84272893,11.3864457 C2.3094022,11.6782332 1.7853529,11.7574722 1.32898584,11.6704377 C0.807279896,11.5709423 0.370355025,11.2546781 0.10172039,10.7759072 C-0.15745314,10.3139982 -0.210127858,9.78780201 -0.0855677713,9.31043351 C0.0336495039,8.85354099 0.315093235,8.44162699 0.73223574,8.17292439 C0.797640878,7.7850532 0.830397898,7.42937393 0.861633982,7.09151393 C0.889094961,6.79448674 0.915460529,6.51091502 0.960384148,6.23142469 C0.447300876,5.90354237 0.117653752,5.47737058 -0.0373945491,5.02759976 C-0.213962651,4.51540338 -0.16578115,3.97045854 0.10172039,3.49370705 C0.361859111,3.03007786 0.780392155,2.7192049 1.24623924,2.59069521 C1.69145115,2.46787798 2.180148,2.51145556 2.61637776,2.74812632 C2.97253687,2.61355651 3.28593827,2.46623072 3.5836945,2.32640345 C3.84852397,2.20203869 4.10131514,2.08351241 4.36000244,1.98388431 C4.37967027,1.36357291 4.57408603,0.857602283 4.87504832,0.495231938 C5.21986734,0.0800563619 5.70534248,-0.15 6.2429663,-0.15 Z M6.5442872,1.46774606 C6.46019672,1.38128302 6.32234807,1.37362587 5.81476226,1.78355315 L5.81476226,1.78355315 L5.81476226,2.52788933 L5.80857484,2.62808941 C5.79165619,2.75961977 5.74075934,2.88193938 5.66424671,2.98386649 C5.56768223,3.11250588 5.43039502,3.20867519 5.26886534,3.25137397 C4.58350697,3.43334244 3.95943892,3.80451647 3.46401959,4.32454132 C3.3465237,4.44667572 3.19685328,4.51965918 3.04062869,4.54096216 C2.88398014,4.56232294 2.72058138,4.53176849 2.5764435,4.44550231 L2.5764435,4.44550231 L1.94888572,4.07236698 L1.87045595,4.03606106 C1.79013069,4.00852496 1.70529031,4.00699393 1.62647684,4.02872837 C1.52034131,4.05799743 1.42543061,4.12926376 1.36623916,4.23473674 C1.30608229,4.34193001 1.29400218,4.46404536 1.32289129,4.57479784 C1.35151601,4.68453674 1.420499,4.78339411 1.52388131,4.84473236 L1.52388131,4.84473236 L2.15069928,5.21692704 L2.23181348,5.27278363 C2.33391944,5.35378103 2.41140101,5.45983964 2.45898897,5.57864108 C2.51806912,5.72613233 2.53099579,5.89318529 2.48797593,6.05553516 C2.29887797,6.76006237 2.29887797,7.50360669 2.48785242,8.20767076 C2.53163747,8.37027843 2.51913995,8.53793472 2.46016466,8.68600425 C2.40078596,8.83508662 2.29437181,8.96423148 2.15122512,9.04915117 L2.15122512,9.04915117 L1.52450431,9.42128818 L1.44951486,9.47675257 C1.35869515,9.56042079 1.30577003,9.68053875 1.30549635,9.8081508 C1.30515631,9.96767911 1.3871459,10.1158669 1.52199231,10.1955066 C1.58812247,10.2345627 1.66188014,10.2539856 1.735581,10.2536495 C1.80929169,10.2533134 1.88288781,10.2332136 1.94868685,10.1935508 L1.94868685,10.1935508 L2.57622296,9.82033143 L2.66500863,9.77538528 C2.78591271,9.72431752 2.91579205,9.70852729 3.04123794,9.72604381 C3.19761066,9.74787877 3.3472546,9.82151463 3.46393725,9.94379752 C3.95913639,10.46478 4.58302765,10.8367553 5.26858994,11.0195097 C5.42929429,11.0619918 5.56624827,11.1576946 5.66277909,11.2857605 C5.75838758,11.4126028 5.81426584,11.5712047 5.81418404,11.7406083 L5.81418404,11.7406083 L5.81418406,12.484872 L5.82295582,12.5748423 C5.84021881,12.6620507 5.88211396,12.7400626 5.94106719,12.8006791 C6.01818193,12.8799696 6.12460942,12.9293898 6.24238809,12.9293898 C6.36016677,12.9293898 6.46659425,12.8799696 6.543709,12.8006791 C6.6223133,12.7198571 6.67059213,12.6081099 6.67059213,12.484872 L6.67059213,12.484872 L6.67059213,11.7399413 L6.67712843,11.6397984 C6.69445086,11.5084398 6.7455103,11.3866398 6.8219971,11.285166 C6.91852791,11.1571001 7.0554819,11.0613973 7.21648752,11.0188352 C7.90184742,10.8368663 8.52591547,10.4656923 9.0213348,9.94566743 C9.13809979,9.82329818 9.28774373,9.74966232 9.44411645,9.72782736 C9.60092382,9.70593171 9.76465845,9.73607786 9.90920672,9.82215979 L9.90920672,9.82215979 L10.5370469,10.1954637 L10.6154766,10.2317696 C10.6958019,10.2593057 10.7806423,10.2608367 10.8594557,10.2391023 C10.9655913,10.2098332 11.060502,10.1385669 11.1196934,10.0330939 C11.1798503,9.92590066 11.1919304,9.80378531 11.1630413,9.69303283 C11.1344166,9.58329394 11.0654336,9.48443656 10.9620513,9.42309832 L10.9620513,9.42309832 L10.3352333,9.05090364 L10.2538612,8.99485428 C10.1514547,8.91355959 10.0738491,8.8070537 10.0263461,8.6877878 C9.96737085,8.53971827 9.95487333,8.37206198 9.99868971,8.20933778 C10.1880561,7.5038134 10.1870662,6.75867053 9.98060138,5.95897067 C9.97970666,5.95550518 9.97880907,5.95204244 9.97790859,5.94858247 C9.97739467,5.94438843 9.97695108,5.94018874 9.97654223,5.93598135 C9.9625868,5.7923691 9.99007556,5.64976401 10.0523468,5.52469961 C10.114282,5.40031033 10.2105378,5.29329219 10.3344339,5.21943674 L10.3344339,5.21943674 L10.9614283,4.84713702 L11.0364177,4.79167262 C11.1272374,4.70800441 11.1801626,4.58788645 11.1804362,4.4602744 C11.1807763,4.30074608 11.0987867,4.15255826 10.9639403,4.07291863 C10.8978101,4.03386249 10.8240525,4.0144396 10.7503516,4.01477568 C10.6766409,4.0151118 10.6030448,4.03521158 10.5372457,4.07487435 L10.5372457,4.07487435 L9.90970964,4.44809376 L9.82092396,4.49303992 C9.70001989,4.54410768 9.57014055,4.55989791 9.44469466,4.54238139 C9.28832193,4.52054643 9.138678,4.44691057 9.02199534,4.32462768 C8.52664971,3.80356347 7.90255546,3.43158182 7.21679386,3.24892335 C7.0560601,3.20643343 6.91910612,3.11073058 6.8225753,2.98266469 C6.72696681,2.85582242 6.67108855,2.69722055 6.67117035,2.5278169 L6.67117035,2.5278169 L6.67117033,1.78355315 L6.66239857,1.69358293 C6.64513558,1.60637454 6.60324043,1.52836262 6.5442872,1.46774606 Z" id="Shape"></path>
                </g>
            </g>
        </g>
    </g>
</svg>