<svg xmlns="http://www.w3.org/2000/svg" width="150.39" height="19.32" viewBox="0 0 150.39 19.32"><title>Edge_white</title><g id="Layer_2" data-name="Layer 2"><g id="Layer_1-2" data-name="Layer 1"><path d="M29.17,16.75,23.9,9.44v8.38H21.34V1.74l7.83,10.77L37,1.69V17.82H34.28V9.57l-.09,0Z" fill="#fff"/><path d="M74.18,11.83l3.8,6-.35,0H75.21a.51.51,0,0,1-.51-.28c-1-1.59-2-3.16-3-4.75a.59.59,0,0,0-.59-.33c-.55,0-1.09,0-1.64,0-.3,0-.41.07-.4.39,0,1.51,0,3,0,4.51v.42H66.48V2.36l.23,0c1.59,0,3.19,0,4.79,0A5.74,5.74,0,0,1,74,3a4.4,4.4,0,0,1,2.45,3.74,5.73,5.73,0,0,1-.7,3.46A4.65,4.65,0,0,1,74.18,11.83ZM69,7.42C69,8.2,69,9,69,9.76c0,.19,0,.33.26.32.82,0,1.64,0,2.45-.06a2.56,2.56,0,0,0,2.2-2.58,2.5,2.5,0,0,0-2.17-2.61c-.82-.09-1.66,0-2.48-.08-.22,0-.26.1-.26.28C69,5.83,69,6.62,69,7.42Z" fill="#fff"/><path d="M49.46,8.88v2.41H42.65v4.14h8c0,.77,0,1.51,0,2.24,0,.06-.11.14-.19.18a.49.49,0,0,1-.21,0H40.05V2.35H50.3V4.68H42.65v4.2Z" fill="#fff"/><path d="M63.53,2.35V4.67H55.87v4.2h6.8v2.41h-6.8v4.15h8v2.39H53.27V2.35Z" fill="#fff"/><path d="M93.33,17.86c-.86,0-1.63,0-2.4,0-.1,0-.24-.16-.29-.27-.49-1.15-1-2.31-1.45-3.47a.42.42,0,0,0-.45-.33c-1.58,0-3.16,0-4.73,0a.41.41,0,0,0-.45.3c-.47,1.17-1,2.33-1.45,3.51a.37.37,0,0,1-.41.28H79.42l7-16.24Zm-7-10.57L84.6,11.57h3.53Z" fill="#fff"/><path d="M9.61,4.45a5.21,5.21,0,1,0,5.21,5.21A5.21,5.21,0,0,0,9.61,4.45m0,7.92a2.71,2.71,0,1,1,2.71-2.71,2.71,2.71,0,0,1-2.71,2.71" fill="#fff"/><path d="M2.85,9.66a6.81,6.81,0,0,1,11.42-5L17,3.35a9.66,9.66,0,1,0-7.31,16l-.72-2.89A6.82,6.82,0,0,1,2.85,9.66" fill="#fff"/><path d="M9.61,8.1a1.56,1.56,0,1,0,1.56,1.56A1.56,1.56,0,0,0,9.61,8.1" fill="#fff"/><path d="M107.34,10.17H100v6.38h8.41v1.11H98.7V2h9.68V3.15H100v5.9h7.32Z" fill="#fff"/><path d="M111.22,17.66V2h4.37a7,7,0,0,1,2.69.51A5.83,5.83,0,0,1,120.39,4a6.31,6.31,0,0,1,1.38,2.24,8.25,8.25,0,0,1,.5,2.92v1.43a8.17,8.17,0,0,1-.5,2.92,6.16,6.16,0,0,1-3.52,3.68,7.2,7.2,0,0,1-2.75.5Zm1.32-14.51v13.4h3a5.71,5.71,0,0,0,2.27-.44,5,5,0,0,0,1.72-1.22A5.68,5.68,0,0,0,120.58,13a7.57,7.57,0,0,0,.38-2.44V9.1a7.28,7.28,0,0,0-.39-2.45,5.44,5.44,0,0,0-1.09-1.88,4.84,4.84,0,0,0-1.69-1.19,5.4,5.4,0,0,0-2.2-.43Z" fill="#fff"/><path d="M136.91,15.81a4,4,0,0,1-.62.65,4.59,4.59,0,0,1-1.07.68,7.61,7.61,0,0,1-1.59.52,9.27,9.27,0,0,1-2.16.22,6.35,6.35,0,0,1-2.53-.5A5.53,5.53,0,0,1,127,16a6.55,6.55,0,0,1-1.3-2.25,9.17,9.17,0,0,1-.46-3V8.83a9.47,9.47,0,0,1,.42-2.91,6.29,6.29,0,0,1,1.21-2.21,5.35,5.35,0,0,1,1.91-1.41,6.13,6.13,0,0,1,2.52-.49,6.78,6.78,0,0,1,2.3.35,5,5,0,0,1,1.7,1,4.58,4.58,0,0,1,1.1,1.47,6.07,6.07,0,0,1,.54,1.83h-1.32a5.41,5.41,0,0,0-.41-1.33A3.32,3.32,0,0,0,134.36,4a3.87,3.87,0,0,0-1.27-.76,5.16,5.16,0,0,0-1.82-.28,4.66,4.66,0,0,0-2,.42,4.2,4.2,0,0,0-1.49,1.19,5.4,5.4,0,0,0-.92,1.86,9,9,0,0,0-.31,2.4v1.92a8,8,0,0,0,.36,2.49,5.54,5.54,0,0,0,1,1.9,4.48,4.48,0,0,0,1.56,1.21,4.68,4.68,0,0,0,2,.43,8.23,8.23,0,0,0,1.59-.13,7.27,7.27,0,0,0,1.2-.34,4.24,4.24,0,0,0,.83-.44,2.88,2.88,0,0,0,.5-.45v-4h-4.2V10.24h5.52Z" fill="#fff"/><path d="M149.3,10.17H142v6.38h8.41v1.11h-9.73V2h9.68V3.15H142v5.9h7.32Z" fill="#fff"/></g></g></svg>