<svg xmlns="http://www.w3.org/2000/svg" width="154.97" height="19.32" viewBox="0 0 154.97 19.32"><title>Folio</title><g id="Layer_2" data-name="Layer 2"><g id="Layer_1-2" data-name="Layer 1"><path d="M29.17,16.75,23.9,9.44v8.38H21.34V1.74l7.83,10.77L37,1.69V17.82H34.28V9.57l-.09,0Z" fill="#666"/><path d="M74.18,11.83l3.8,6-.35,0H75.21a.51.51,0,0,1-.51-.28c-1-1.59-2-3.16-3-4.75a.59.59,0,0,0-.59-.33c-.55,0-1.09,0-1.64,0-.3,0-.41.07-.4.39,0,1.51,0,3,0,4.51v.42H66.48V2.36l.23,0c1.59,0,3.19,0,4.79,0A5.74,5.74,0,0,1,74,3a4.4,4.4,0,0,1,2.45,3.74,5.73,5.73,0,0,1-.7,3.46A4.65,4.65,0,0,1,74.18,11.83ZM69,7.42C69,8.2,69,9,69,9.76c0,.19,0,.33.26.32.82,0,1.64,0,2.45-.06a2.56,2.56,0,0,0,2.2-2.58,2.5,2.5,0,0,0-2.17-2.61c-.82-.09-1.66,0-2.48-.08-.22,0-.26.1-.26.28C69,5.83,69,6.62,69,7.42Z" fill="#666"/><path d="M49.46,8.88v2.41H42.65v4.14h8c0,.77,0,1.51,0,2.24,0,.06-.11.14-.19.18a.49.49,0,0,1-.21,0H40.05V2.35H50.3V4.68H42.65v4.2Z" fill="#666"/><path d="M63.53,2.35V4.67H55.87v4.2h6.8v2.41h-6.8v4.15h8v2.39H53.27V2.35Z" fill="#666"/><path d="M93.33,17.86c-.86,0-1.63,0-2.4,0-.1,0-.24-.16-.29-.27-.49-1.15-1-2.31-1.45-3.47a.42.42,0,0,0-.45-.33c-1.58,0-3.16,0-4.73,0a.41.41,0,0,0-.45.3c-.47,1.17-1,2.33-1.45,3.51a.37.37,0,0,1-.41.28H79.42l7-16.24Zm-7-10.57L84.6,11.57h3.53Z" fill="#666"/><path d="M9.61,4.45a5.21,5.21,0,1,0,5.21,5.21A5.21,5.21,0,0,0,9.61,4.45m0,7.92a2.71,2.71,0,1,1,2.71-2.71,2.71,2.71,0,0,1-2.71,2.71" fill="#1565c0"/><path d="M2.85,9.66a6.81,6.81,0,0,1,11.42-5L17,3.35a9.66,9.66,0,1,0-7.31,16l-.72-2.89A6.82,6.82,0,0,1,2.85,9.66" fill="#1565c0"/><path d="M9.61,8.1a1.56,1.56,0,1,0,1.56,1.56A1.56,1.56,0,0,0,9.61,8.1" fill="#1565c0"/><path d="M107.32,10.36H100v7.3H98.7V2h9.69V3.15H100V9.23h7.3Z" fill="gray"/><path d="M122.63,10.69a9.47,9.47,0,0,1-.43,3A6.52,6.52,0,0,1,121,15.92a5.37,5.37,0,0,1-1.92,1.45,6,6,0,0,1-2.52.51,5.93,5.93,0,0,1-2.49-.51,5.49,5.49,0,0,1-1.93-1.45,6.58,6.58,0,0,1-1.25-2.26,9.46,9.46,0,0,1-.44-3V9a9.57,9.57,0,0,1,.44-3,6.88,6.88,0,0,1,1.24-2.27A5.37,5.37,0,0,1,114,2.32a5.93,5.93,0,0,1,2.49-.51,6.07,6.07,0,0,1,2.52.51A5.37,5.37,0,0,1,121,3.77,6.36,6.36,0,0,1,122.2,6a9.58,9.58,0,0,1,.43,3ZM121.31,9a8.86,8.86,0,0,0-.32-2.5,5.57,5.57,0,0,0-.93-1.89,4.24,4.24,0,0,0-1.51-1.21,4.68,4.68,0,0,0-2-.42,4.57,4.57,0,0,0-2,.42A4.29,4.29,0,0,0,113,4.6a5.42,5.42,0,0,0-1,1.89,8.85,8.85,0,0,0-.33,2.5v1.7a8.58,8.58,0,0,0,.34,2.52,5.74,5.74,0,0,0,1,1.9,4.28,4.28,0,0,0,1.51,1.2,4.61,4.61,0,0,0,2,.42,4.69,4.69,0,0,0,2-.42,4,4,0,0,0,1.49-1.2,5.71,5.71,0,0,0,.93-1.9,9.35,9.35,0,0,0,.31-2.52Z" fill="gray"/><path d="M127.3,16.55H135v1.11H126V2h1.34Z" fill="gray"/><path d="M139.17,17.66h-1.32V2h1.32Z" fill="gray"/><path d="M155,10.69a9.77,9.77,0,0,1-.43,3,6.53,6.53,0,0,1-1.22,2.26,5.37,5.37,0,0,1-1.92,1.45,6.41,6.41,0,0,1-5,0,5.49,5.49,0,0,1-1.93-1.45,6.57,6.57,0,0,1-1.24-2.26,9.18,9.18,0,0,1-.44-3V9a9.28,9.28,0,0,1,.44-3,6.69,6.69,0,0,1,1.23-2.27,5.37,5.37,0,0,1,1.92-1.45,6.41,6.41,0,0,1,5,0,5.49,5.49,0,0,1,1.93,1.45A6.69,6.69,0,0,1,154.54,6,9.88,9.88,0,0,1,155,9ZM153.65,9a8.85,8.85,0,0,0-.33-2.5,5.39,5.39,0,0,0-.93-1.89,4.29,4.29,0,0,0-1.5-1.21,4.71,4.71,0,0,0-2-.42,4.62,4.62,0,0,0-2,.42,4.29,4.29,0,0,0-1.5,1.21,5.6,5.6,0,0,0-1,1.89A9.24,9.24,0,0,0,144.1,9v1.7a8.94,8.94,0,0,0,.33,2.52,5.57,5.57,0,0,0,1,1.9,4.11,4.11,0,0,0,1.51,1.2,4.57,4.57,0,0,0,2,.42,4.65,4.65,0,0,0,2-.42,4.16,4.16,0,0,0,1.5-1.2,5.7,5.7,0,0,0,.92-1.9,9.34,9.34,0,0,0,.32-2.52Z" fill="gray"/></g></g></svg>