<svg xmlns="http://www.w3.org/2000/svg" width="184" height="19.32" viewBox="0 0 184 19.32"><title>Insight_white</title><g id="Layer_2" data-name="Layer 2"><g id="Layer_1-2" data-name="Layer 1"><path d="M29.17,16.75,23.9,9.44v8.38H21.34V1.74l7.83,10.77L37,1.69V17.82H34.28V9.57l-.09,0Z" fill="#fff"/><path d="M74.18,11.83l3.8,6-.35,0H75.21a.51.51,0,0,1-.51-.28c-1-1.59-2-3.16-3-4.75a.59.59,0,0,0-.59-.33c-.55,0-1.09,0-1.64,0-.3,0-.41.07-.4.39,0,1.51,0,3,0,4.51v.42H66.48V2.36l.23,0c1.59,0,3.19,0,4.79,0A5.74,5.74,0,0,1,74,3a4.4,4.4,0,0,1,2.45,3.74,5.73,5.73,0,0,1-.7,3.46A4.65,4.65,0,0,1,74.18,11.83ZM69,7.42C69,8.2,69,9,69,9.76c0,.19,0,.33.26.32.82,0,1.64,0,2.45-.06a2.56,2.56,0,0,0,2.2-2.58,2.5,2.5,0,0,0-2.17-2.61c-.82-.09-1.66,0-2.48-.08-.22,0-.26.1-.26.28C69,5.83,69,6.62,69,7.42Z" fill="#fff"/><path d="M49.46,8.88v2.41H42.65v4.14h8c0,.77,0,1.51,0,2.24,0,.06-.11.14-.19.18a.49.49,0,0,1-.21,0H40.05V2.35H50.3V4.68H42.65v4.2Z" fill="#fff"/><path d="M63.53,2.35V4.67H55.87v4.2h6.8v2.41h-6.8v4.15h8v2.39H53.27V2.35Z" fill="#fff"/><path d="M93.33,17.86c-.86,0-1.63,0-2.4,0-.1,0-.24-.16-.29-.27-.49-1.15-1-2.31-1.45-3.47a.42.42,0,0,0-.45-.33c-1.58,0-3.16,0-4.73,0a.41.41,0,0,0-.45.3c-.47,1.17-1,2.33-1.45,3.51a.37.37,0,0,1-.41.28H79.42l7-16.24Zm-7-10.57L84.6,11.57h3.53Z" fill="#fff"/><path d="M104.4,17.76h-1.32V2.13h1.32Z" fill="#fff"/><path d="M120.28,17.76H119L110,4.39V17.76h-1.33V2.13H110l9,13.39V2.13h1.31Z" fill="#fff"/><path d="M133.1,13.92a2.9,2.9,0,0,0-.21-1.14,2.44,2.44,0,0,0-.71-.92,5.34,5.34,0,0,0-1.32-.75,17.1,17.1,0,0,0-2-.69,17.42,17.42,0,0,1-2.12-.73,6.65,6.65,0,0,1-1.61-.91,3.8,3.8,0,0,1-1-1.22A3.39,3.39,0,0,1,123.71,6a3.45,3.45,0,0,1,.39-1.64A3.86,3.86,0,0,1,125.18,3a5.22,5.22,0,0,1,1.67-.83A7.42,7.42,0,0,1,129,1.92a6.48,6.48,0,0,1,2.23.36,5,5,0,0,1,1.69,1,4.42,4.42,0,0,1,1.45,3.31H133a3.7,3.7,0,0,0-.27-1.42A3.23,3.23,0,0,0,132,4.05a3.87,3.87,0,0,0-1.27-.74A5,5,0,0,0,129,3a5.83,5.83,0,0,0-1.7.23A3.79,3.79,0,0,0,126,3.9a2.46,2.46,0,0,0-.74.91A2.59,2.59,0,0,0,125,5.93a2.5,2.5,0,0,0,.21,1,2.4,2.4,0,0,0,.71.88,5.37,5.37,0,0,0,1.3.75,14.26,14.26,0,0,0,2,.66,18.13,18.13,0,0,1,2.2.75,6.21,6.21,0,0,1,1.63,1,3.69,3.69,0,0,1,1,1.27,3.83,3.83,0,0,1,.35,1.67,3.6,3.6,0,0,1-.41,1.71,3.77,3.77,0,0,1-1.11,1.28,5.47,5.47,0,0,1-1.7.81,8.16,8.16,0,0,1-2.15.28,8.27,8.27,0,0,1-1.4-.12,7.44,7.44,0,0,1-1.35-.36,5.83,5.83,0,0,1-1.22-.62,4.34,4.34,0,0,1-1-.89,4.1,4.1,0,0,1-.66-1.2,4.35,4.35,0,0,1-.24-1.49h1.32A3.25,3.25,0,0,0,125,15a3.35,3.35,0,0,0,1,1.1,4.36,4.36,0,0,0,1.45.6,6.81,6.81,0,0,0,1.61.19,6.13,6.13,0,0,0,1.66-.21,4.2,4.2,0,0,0,1.28-.59,2.76,2.76,0,0,0,.81-.93A2.57,2.57,0,0,0,133.1,13.92Z" fill="#fff"/><path d="M138.88,17.76h-1.32V2.13h1.32Z" fill="#fff"/><path d="M154.41,15.9a4,4,0,0,1-.62.66,4.82,4.82,0,0,1-1.07.68,8.24,8.24,0,0,1-1.59.52A9.27,9.27,0,0,1,149,18a6.35,6.35,0,0,1-2.53-.5,5.66,5.66,0,0,1-2-1.43,6.38,6.38,0,0,1-1.29-2.25,8.88,8.88,0,0,1-.47-3V8.94A9.38,9.38,0,0,1,143.12,6a6.21,6.21,0,0,1,1.21-2.21,5.35,5.35,0,0,1,1.91-1.41,6.13,6.13,0,0,1,2.52-.49,6.78,6.78,0,0,1,2.3.35,4.83,4.83,0,0,1,1.69,1,4.53,4.53,0,0,1,1.11,1.46,6.07,6.07,0,0,1,.54,1.83h-1.33a5.11,5.11,0,0,0-.4-1.33,3.53,3.53,0,0,0-.81-1.11,3.8,3.8,0,0,0-1.27-.76A5.15,5.15,0,0,0,148.77,3a4.52,4.52,0,0,0-2,.43,4.2,4.2,0,0,0-1.49,1.19,5.25,5.25,0,0,0-.91,1.85A8.62,8.62,0,0,0,144,8.92v1.92a8,8,0,0,0,.36,2.48,5.72,5.72,0,0,0,1,1.9A4.57,4.57,0,0,0,149,16.86a8.38,8.38,0,0,0,1.59-.13,6.86,6.86,0,0,0,1.19-.34,4.07,4.07,0,0,0,.84-.44,3.31,3.31,0,0,0,.5-.45v-4h-4.2V10.34h5.52Z" fill="#fff"/><path d="M169.74,17.76h-1.33V10.27h-8.94v7.49h-1.32V2.13h1.32v7h8.94v-7h1.33Z" fill="#fff"/><path d="M184,3.26h-5.35v14.5h-1.32V3.26H172V2.13h12Z" fill="#fff"/><path d="M9.61,4.45a5.21,5.21,0,1,0,5.21,5.21A5.21,5.21,0,0,0,9.61,4.45m0,7.92a2.71,2.71,0,1,1,2.71-2.71,2.71,2.71,0,0,1-2.71,2.71" fill="#fff"/><path d="M2.85,9.66a6.81,6.81,0,0,1,11.42-5L17,3.35a9.66,9.66,0,1,0-7.31,16l-.72-2.89A6.82,6.82,0,0,1,2.85,9.66" fill="#fff"/><path d="M9.61,8.1a1.56,1.56,0,1,0,1.56,1.56A1.56,1.56,0,0,0,9.61,8.1" fill="#fff"/></g></g></svg>