<svg xmlns="http://www.w3.org/2000/svg" width="165.11" height="19.32" viewBox="0 0 165.11 19.32"><title>Pulse</title><g id="Layer_2" data-name="Layer 2"><g id="Layer_1-2" data-name="Layer 1"><path d="M29.17,16.75,23.9,9.44v8.38H21.34V1.74l7.83,10.77L37,1.69V17.82H34.28V9.57l-.09,0Z" fill="#666"/><path d="M74.18,11.83l3.8,6-.35,0H75.21a.51.51,0,0,1-.51-.28c-1-1.59-2-3.16-3-4.75a.59.59,0,0,0-.59-.33c-.55,0-1.09,0-1.64,0-.3,0-.41.07-.4.39,0,1.51,0,3,0,4.51v.42H66.48V2.36l.23,0c1.59,0,3.19,0,4.79,0A5.74,5.74,0,0,1,74,3a4.4,4.4,0,0,1,2.45,3.74,5.73,5.73,0,0,1-.7,3.46A4.65,4.65,0,0,1,74.18,11.83ZM69,7.42C69,8.2,69,9,69,9.76c0,.19,0,.33.26.32.82,0,1.64,0,2.45-.06a2.56,2.56,0,0,0,2.2-2.58,2.5,2.5,0,0,0-2.17-2.61c-.82-.09-1.66,0-2.48-.08-.22,0-.26.1-.26.28C69,5.83,69,6.62,69,7.42Z" fill="#666"/><path d="M49.46,8.88v2.41H42.65v4.14h8c0,.77,0,1.51,0,2.24,0,.06-.11.14-.19.18a.49.49,0,0,1-.21,0H40.05V2.35H50.3V4.68H42.65v4.2Z" fill="#666"/><path d="M63.53,2.35V4.67H55.87v4.2h6.8v2.41h-6.8v4.15h8v2.39H53.27V2.35Z" fill="#666"/><path d="M93.33,17.86c-.86,0-1.63,0-2.4,0-.1,0-.24-.16-.29-.27-.49-1.15-1-2.31-1.45-3.47a.42.42,0,0,0-.45-.33c-1.58,0-3.16,0-4.73,0a.41.41,0,0,0-.45.3c-.47,1.17-1,2.33-1.45,3.51a.37.37,0,0,1-.41.28H79.42l7-16.24Zm-7-10.57L84.6,11.57h3.53Z" fill="#666"/><path d="M104.11,11.4v6.36h-1.32V2.13h5.32a7.09,7.09,0,0,1,2.27.34,4.48,4.48,0,0,1,1.65,1,4,4,0,0,1,1,1.47,5.21,5.21,0,0,1,.33,1.89A5.37,5.37,0,0,1,113,8.74a3.77,3.77,0,0,1-1,1.44,4.24,4.24,0,0,1-1.65.9,7.52,7.52,0,0,1-2.28.32Zm0-1.12h4a5.61,5.61,0,0,0,1.8-.26,3.25,3.25,0,0,0,1.22-.73,2.91,2.91,0,0,0,.7-1.1,4.1,4.1,0,0,0,.22-1.37,4.18,4.18,0,0,0-.22-1.37,3,3,0,0,0-.7-1.13,3.21,3.21,0,0,0-1.22-.78,5.08,5.08,0,0,0-1.8-.28h-4Z" fill="gray"/><path d="M127.09,2.13v10.6a5.65,5.65,0,0,1-.43,2.3,4.7,4.7,0,0,1-1.18,1.64,5.08,5.08,0,0,1-1.75,1,6.8,6.8,0,0,1-2.14.33,7,7,0,0,1-2.18-.33,5,5,0,0,1-1.74-1A4.53,4.53,0,0,1,116.51,15a5.83,5.83,0,0,1-.42-2.3V2.13h1.31v10.6a4.75,4.75,0,0,0,.31,1.8,3.5,3.5,0,0,0,.87,1.29,3.83,3.83,0,0,0,1.33.78,5.56,5.56,0,0,0,3.36,0,3.79,3.79,0,0,0,1.32-.78,3.48,3.48,0,0,0,.86-1.29,4.75,4.75,0,0,0,.31-1.8V2.13Z" fill="gray"/><path d="M132.11,16.65h7.72v1.11h-9.05V2.13h1.33Z" fill="gray"/><path d="M151.21,13.92a2.9,2.9,0,0,0-.21-1.14,2.44,2.44,0,0,0-.71-.92,5.34,5.34,0,0,0-1.32-.75,17.1,17.1,0,0,0-2-.69,17.42,17.42,0,0,1-2.12-.73,6.65,6.65,0,0,1-1.61-.91,3.8,3.8,0,0,1-1-1.22A3.39,3.39,0,0,1,141.82,6a3.45,3.45,0,0,1,.39-1.64A3.86,3.86,0,0,1,143.29,3,5.22,5.22,0,0,1,145,2.21a7.08,7.08,0,0,1,2.11-.29,6.48,6.48,0,0,1,2.23.36,5,5,0,0,1,1.69,1,4.33,4.33,0,0,1,1.45,3.31h-1.33a3.7,3.7,0,0,0-.27-1.42,3.23,3.23,0,0,0-.78-1.12,3.87,3.87,0,0,0-1.27-.74A5,5,0,0,0,147.07,3a5.83,5.83,0,0,0-1.7.23,3.79,3.79,0,0,0-1.22.63,2.46,2.46,0,0,0-.74.91,2.59,2.59,0,0,0-.26,1.12,2.5,2.5,0,0,0,.21,1,2.4,2.4,0,0,0,.71.88,5.37,5.37,0,0,0,1.3.75,14.73,14.73,0,0,0,2,.66,18.13,18.13,0,0,1,2.2.75,6.21,6.21,0,0,1,1.63,1,3.58,3.58,0,0,1,1,1.27,3.83,3.83,0,0,1,.35,1.67,3.6,3.6,0,0,1-.41,1.71A3.77,3.77,0,0,1,151,16.89a5.36,5.36,0,0,1-1.7.81,8.16,8.16,0,0,1-2.15.28,8.27,8.27,0,0,1-1.4-.12,7.44,7.44,0,0,1-1.35-.36,5.83,5.83,0,0,1-1.22-.62,4.34,4.34,0,0,1-1-.89,4.1,4.1,0,0,1-.66-1.2,4.35,4.35,0,0,1-.24-1.49h1.32a3.25,3.25,0,0,0,.41,1.67,3.35,3.35,0,0,0,1.05,1.1,4.58,4.58,0,0,0,1.45.6,6.81,6.81,0,0,0,1.61.19,6.13,6.13,0,0,0,1.66-.21,4,4,0,0,0,1.28-.6,2.63,2.63,0,0,0,.81-.92A2.6,2.6,0,0,0,151.21,13.92Z" fill="gray"/><path d="M164,10.27H156.7v6.38h8.41v1.11h-9.73V2.13h9.67V3.26H156.7V9.15H164Z" fill="gray"/><path d="M9.61,4.45a5.21,5.21,0,1,0,5.21,5.21A5.21,5.21,0,0,0,9.61,4.45m0,7.92a2.71,2.71,0,1,1,2.71-2.71,2.71,2.71,0,0,1-2.71,2.71" fill="#1565c0"/><path d="M2.85,9.66a6.81,6.81,0,0,1,11.42-5L17,3.35a9.66,9.66,0,1,0-7.31,16l-.72-2.89A6.82,6.82,0,0,1,2.85,9.66" fill="#1565c0"/><path d="M9.61,8.1a1.56,1.56,0,1,0,1.56,1.56A1.56,1.56,0,0,0,9.61,8.1" fill="#1565c0"/></g></g></svg>