<svg xmlns="http://www.w3.org/2000/svg" width="168.73" height="19.35" viewBox="0 0 168.73 19.35"><title>Reach</title><g id="Layer_2" data-name="Layer 2"><g id="Layer_1-2" data-name="Layer 1"><path d="M29.17,18.12,23.9,10.81V19.2H21.34V3.11l7.83,10.78L37,3.06V19.2H34.28V10.94l-.09,0Z" fill="#666"/><path d="M74.18,13.2c1.27,2,2.52,4,3.8,6l-.35,0c-.8,0-1.61,0-2.42,0A.55.55,0,0,1,74.7,19c-1-1.59-2-3.17-3-4.76a.6.6,0,0,0-.59-.33,15,15,0,0,1-1.64,0c-.3,0-.41.07-.4.39,0,1.51,0,3,0,4.52v.42H66.48V3.73l.23,0c1.59,0,3.19,0,4.79,0A5.74,5.74,0,0,1,74,4.39a4.43,4.43,0,0,1,2.45,3.75,5.74,5.74,0,0,1-.7,3.46A4.54,4.54,0,0,1,74.18,13.2ZM69,8.79c0,.78,0,1.56,0,2.35,0,.18,0,.32.26.32.82,0,1.64,0,2.45-.07a2.55,2.55,0,0,0,2.2-2.57A2.5,2.5,0,0,0,71.76,6.2c-.82-.08-1.66,0-2.48-.08-.22,0-.26.1-.26.29C69,7.2,69,8,69,8.79Z" fill="#666"/><path d="M49.46,10.25v2.41H42.65v4.15h8c0,.77,0,1.5,0,2.23,0,.06-.11.14-.19.18a.49.49,0,0,1-.21,0H40.05V3.73H50.3V6.06H42.65v4.19Z" fill="#666"/><path d="M63.53,3.72V6.05H55.87v4.19h6.8v2.42h-6.8V16.8h8v2.4H53.27V3.72Z" fill="#666"/><path d="M93.33,19.23c-.86,0-1.63,0-2.4,0-.1,0-.24-.16-.29-.28-.49-1.15-1-2.31-1.45-3.47-.09-.22-.19-.33-.45-.32H84a.4.4,0,0,0-.45.29c-.47,1.17-1,2.34-1.45,3.51a.38.38,0,0,1-.41.29c-.73,0-1.47,0-2.28,0L86.37,3Zm-7-10.57L84.6,12.94h3.53Z" fill="#666"/><path d="M108.63,12.63h-4.54v6.51h-1.33V3.51h5.08a7.5,7.5,0,0,1,2.2.3,4.72,4.72,0,0,1,1.68.88,3.87,3.87,0,0,1,1.06,1.45,4.88,4.88,0,0,1,.37,2,4.38,4.38,0,0,1-.24,1.46,4.11,4.11,0,0,1-.66,1.22,4.45,4.45,0,0,1-1,1,4.91,4.91,0,0,1-1.31.61L113.82,19v.14h-1.41Zm-4.54-1.13h4a4.19,4.19,0,0,0,1.6-.28,3.21,3.21,0,0,0,1.15-.74,3,3,0,0,0,.7-1.09,3.71,3.71,0,0,0,.23-1.28,3.9,3.9,0,0,0-.26-1.45,2.82,2.82,0,0,0-.77-1.09,3.6,3.6,0,0,0-1.25-.7,5.49,5.49,0,0,0-1.7-.24h-3.75Z" fill="gray"/><path d="M125.38,11.64h-7.31V18h8.4v1.12h-9.72V3.51h9.67V4.63h-8.35v5.9h7.31Z" fill="gray"/><path d="M137.69,14.76h-7.1L129,19.14H127.6l5.91-15.63h1.26l5.92,15.63h-1.38ZM131,13.63h6.27l-3.13-8.51Z" fill="gray"/><path d="M153.93,14.26a6.93,6.93,0,0,1-.55,2.14,5,5,0,0,1-1.16,1.6,4.82,4.82,0,0,1-1.74,1,7.08,7.08,0,0,1-2.3.35,5.79,5.79,0,0,1-2.42-.5,5.3,5.3,0,0,1-1.85-1.44,6.39,6.39,0,0,1-1.19-2.22,9.36,9.36,0,0,1-.42-2.88v-2a9.36,9.36,0,0,1,.42-2.88,6.35,6.35,0,0,1,1.19-2.23A5.44,5.44,0,0,1,145.8,3.8a5.82,5.82,0,0,1,2.48-.51,7.12,7.12,0,0,1,2.24.34,4.7,4.7,0,0,1,1.71,1,4.87,4.87,0,0,1,1.15,1.61,6.72,6.72,0,0,1,.55,2.15H152.6a6.43,6.43,0,0,0-.43-1.69,3.58,3.58,0,0,0-.84-1.25A3.47,3.47,0,0,0,150,4.69a5.21,5.21,0,0,0-1.76-.27,4.41,4.41,0,0,0-2,.42A4.11,4.11,0,0,0,144.86,6a5.49,5.49,0,0,0-.92,1.86,8.76,8.76,0,0,0-.31,2.42v2a9,9,0,0,0,.3,2.38,5.73,5.73,0,0,0,.88,1.88,4,4,0,0,0,3.37,1.66,4.39,4.39,0,0,0,3.12-1,4.73,4.73,0,0,0,1.3-3Z" fill="gray"/><path d="M168.73,19.14H167.4v-7.5h-8.94v7.5h-1.32V3.51h1.32v7h8.94v-7h1.33Z" fill="gray"/><path d="M9.61,4.45a5.21,5.21,0,1,0,5.21,5.21A5.21,5.21,0,0,0,9.61,4.45m0,7.92a2.71,2.71,0,1,1,2.71-2.71,2.71,2.71,0,0,1-2.71,2.71" fill="#1565c0"/><path d="M2.85,9.66a6.81,6.81,0,0,1,11.42-5L17,3.35a9.66,9.66,0,1,0-7.31,16l-.72-2.89A6.82,6.82,0,0,1,2.85,9.66" fill="#1565c0"/><path d="M9.61,8.1a1.56,1.56,0,1,0,1.56,1.56A1.56,1.56,0,0,0,9.61,8.1" fill="#1565c0"/></g></g></svg>