<svg xmlns="http://www.w3.org/2000/svg" width="622.85" height="155.64" viewBox="0 0 622.85 155.64"><title>Asset 2</title><g id="Layer_2" data-name="Layer 2"><g id="Layer_1-2" data-name="Layer 1"><path d="M68.12,155.64c-2.27-.3-4.56-.53-6.82-.92-2.89-.5-5.81-1-8.64-1.76s-5.42-1.85-8.23-2.83L128.14,6.49l.33.15L74.81,133.12c2.62-.41,4.79-.65,6.91-1.11,18.11-3.92,32.65-19.6,35.51-38a45.62,45.62,0,0,0-2.43-23.78,7.58,7.58,0,0,1,.21-6.35c2.85-6.32,5.48-12.75,8.32-19.44.58.66,1,1.14,1.44,1.66,10,13.17,14.4,28,13.87,44.5-1,30.27-24.07,57.52-53.88,63.29-3.29.63-6.66.89-10,1.34a14.13,14.13,0,0,0-1.58.42Z" fill="#fff"/><path d="M8.69,122.23c1.32,1.88,2.57,3.8,4,5.62,1.78,2.34,3.56,4.71,5.55,6.86s4.13,4,6.3,6L113.4.22,113.11,0,25.59,105.92c-.84-2.52-1.63-4.56-2.2-6.65-4.86-17.88,2.35-38,17.37-49A45.86,45.86,0,0,1,63,41.43a7.59,7.59,0,0,0,5.55-3.11C72.82,32.88,77.31,27.59,81.94,22c-.86-.2-1.49-.4-2.13-.5-16.28-2.77-31.51.13-45.89,8.2C7.51,44.49-6,77.54,2.58,106.64c1,3.22,2.29,6.33,3.42,9.5a14.09,14.09,0,0,1,.36,1.59Z" fill="#fff"/><path d="M622.85,57.69h-23v77.14H584.6V57.67H562.23V42.92h60.62Z" fill="#fff"/><path d="M368.77,99.29,391.34,135H385c-3.44,0-6.89,0-10.33,0A2.75,2.75,0,0,1,372,133.5c-6.05-9.48-12.19-18.89-18.23-28.37a3.57,3.57,0,0,0-3.53-1.94c-3.92.13-7.84,0-12,0v31.55H323.06V43.07c.59-.06,1.07-.15,1.55-.15,9.42,0,18.86-.33,28.26.17,10.52.57,19.77,4.21,25.62,13.75,7.41,12.09,4.82,33.68-9,41.81A6.56,6.56,0,0,0,368.77,99.29ZM338.35,88.8c.68,0,1.16.13,1.64.12,4.63-.1,9.29,0,13.9-.38,7.28-.58,12.76-6.77,13.23-14.54.49-8-4.12-15-11.46-16.15C350,57,344.22,57.24,338.35,57Z" fill="#fff"/><path d="M471.16,48.49l-7.22,12c-4.36-1.2-8.53-2.57-12.79-3.46-18.44-3.88-36.9,9.22-39.5,27.91A31.73,31.73,0,0,0,439,121.15a41.08,41.08,0,0,0,16.87-1.31c.61-.17,1.47-1,1.48-1.55.12-4.77.07-9.55.07-14.53h-17.1V90.44h31.21c0,.67.1,1.35.1,2,0,11.68,0,23.36.05,35a2.92,2.92,0,0,1-1.92,3,55,55,0,0,1-18.37,5.06c-9.68,1.09-19.24.52-28.35-3.26-16.76-7-25.63-19.64-26.88-37.68-1-15.11,3.43-28.35,14.29-39,10.44-10.28,23.2-14.61,37.82-13.58a57.39,57.39,0,0,1,21.05,5.43C469.87,47.74,470.4,48.07,471.16,48.49Z" fill="#fff"/><path d="M489.18,134.75V43.07H550V56.75H504.39c-.07.83-.16,1.45-.16,2.06,0,7,0,13.92,0,20.89,0,1.65.47,2.16,2.15,2.15,12-.07,23.91,0,35.87,0h2.71V95.93H504.41v24.61h47.32v14.21Z" fill="#fff"/><path d="M229.59,134.94C243.36,102.8,257,71,270.8,38.71c13.85,32.28,27.5,64.11,41.27,96.23-5,0-9.67.06-14.3-.07-.55,0-1.3-.93-1.58-1.58-2.94-6.9-5.86-13.82-8.66-20.78a2.36,2.36,0,0,0-2.62-1.74q-14,.09-28.07,0a2.48,2.48,0,0,0-2.77,1.83c-2.82,7-5.73,13.87-8.68,20.77-.27.64-1,1.49-1.59,1.51C239.24,135,234.67,134.94,229.59,134.94Zm51.72-37.19c-3.59-8.75-7.05-17.16-10.52-25.59L260.24,97.75Z" fill="#fff"/><path d="M194.5,57.66H172.22V43.12h60.21V57.63H209.75v77.21H194.5Z" fill="#fff"/></g></g></svg>