<svg xmlns="http://www.w3.org/2000/svg" width="164.76" height="19.32" viewBox="0 0 164.76 19.32"><title>Trove_white</title><g id="Layer_2" data-name="Layer 2"><g id="Layer_1-2" data-name="Layer 1"><path d="M29.17,16.75,23.9,9.44v8.38H21.34V1.74l7.83,10.77L37,1.69V17.82H34.28V9.57l-.09,0Z" fill="#fff"/><path d="M74.18,11.83l3.8,6-.35,0H75.21a.51.51,0,0,1-.51-.28c-1-1.59-2-3.16-3-4.75a.59.59,0,0,0-.59-.33c-.55,0-1.09,0-1.64,0-.3,0-.41.07-.4.39,0,1.51,0,3,0,4.51v.42H66.48V2.36l.23,0c1.59,0,3.19,0,4.79,0A5.74,5.74,0,0,1,74,3a4.4,4.4,0,0,1,2.45,3.74,5.73,5.73,0,0,1-.7,3.46A4.65,4.65,0,0,1,74.18,11.83ZM69,7.42C69,8.2,69,9,69,9.76c0,.19,0,.33.26.32.82,0,1.64,0,2.45-.06a2.56,2.56,0,0,0,2.2-2.58,2.5,2.5,0,0,0-2.17-2.61c-.82-.09-1.66,0-2.48-.08-.22,0-.26.1-.26.28C69,5.83,69,6.62,69,7.42Z" fill="#fff"/><path d="M49.46,8.88v2.41H42.65v4.14h8c0,.77,0,1.51,0,2.24,0,.06-.11.14-.19.18a.49.49,0,0,1-.21,0H40.05V2.35H50.3V4.68H42.65v4.2Z" fill="#fff"/><path d="M63.53,2.35V4.67H55.87v4.2h6.8v2.41h-6.8v4.15h8v2.39H53.27V2.35Z" fill="#fff"/><path d="M93.33,17.86c-.86,0-1.63,0-2.4,0-.1,0-.24-.16-.29-.27-.49-1.15-1-2.31-1.45-3.47a.42.42,0,0,0-.45-.33c-1.58,0-3.16,0-4.73,0a.41.41,0,0,0-.45.3c-.47,1.17-1,2.33-1.45,3.51a.37.37,0,0,1-.41.28H79.42l7-16.24Zm-7-10.57L84.6,11.57h3.53Z" fill="#fff"/><path d="M9.61,4.45a5.21,5.21,0,1,0,5.21,5.21A5.21,5.21,0,0,0,9.61,4.45m0,7.92a2.71,2.71,0,1,1,2.71-2.71,2.71,2.71,0,0,1-2.71,2.71" fill="#fff"/><path d="M2.85,9.66a6.81,6.81,0,0,1,11.42-5L17,3.35a9.66,9.66,0,1,0-7.31,16l-.72-2.89A6.82,6.82,0,0,1,2.85,9.66" fill="#fff"/><path d="M9.61,8.1a1.56,1.56,0,1,0,1.56,1.56A1.56,1.56,0,0,0,9.61,8.1" fill="#fff"/><path d="M110.31,3H105V17.49h-1.32V3H98.28V1.85h12Z" fill="#fff"/><path d="M118.68,11h-4.54v6.51h-1.33V1.85h5.08a7.5,7.5,0,0,1,2.2.3,4.81,4.81,0,0,1,1.68.89,3.77,3.77,0,0,1,1.06,1.45,4.88,4.88,0,0,1,.37,2A4.38,4.38,0,0,1,123,7.92a4.28,4.28,0,0,1-1.69,2.17,5,5,0,0,1-1.32.62l3.91,6.64v.14h-1.41Zm-4.54-1.12h4a4.35,4.35,0,0,0,1.6-.28A3.42,3.42,0,0,0,121,8.83a2.94,2.94,0,0,0,.69-1.08,3.55,3.55,0,0,0,.23-1.29A3.75,3.75,0,0,0,121.61,5a2.79,2.79,0,0,0-.76-1.09,3.53,3.53,0,0,0-1.25-.7A5.61,5.61,0,0,0,117.89,3h-3.75Z" fill="#fff"/><path d="M138.36,10.52a9.47,9.47,0,0,1-.43,3,6.37,6.37,0,0,1-1.22,2.26,5.25,5.25,0,0,1-1.91,1.45,6.07,6.07,0,0,1-2.52.51,6,6,0,0,1-2.5-.51,5.46,5.46,0,0,1-1.92-1.45,6.42,6.42,0,0,1-1.25-2.26,9.46,9.46,0,0,1-.44-3V8.85a9.57,9.57,0,0,1,.44-3,6.54,6.54,0,0,1,1.24-2.27,5.25,5.25,0,0,1,1.91-1.45,6.41,6.41,0,0,1,5,0A5.32,5.32,0,0,1,136.7,3.6a6.36,6.36,0,0,1,1.23,2.27,9.58,9.58,0,0,1,.43,3ZM137,8.83a9.26,9.26,0,0,0-.32-2.51,5.58,5.58,0,0,0-.94-1.89,4.21,4.21,0,0,0-1.5-1.21,4.71,4.71,0,0,0-2-.42,4.57,4.57,0,0,0-2,.42,4.42,4.42,0,0,0-1.51,1.21,5.58,5.58,0,0,0-.94,1.89,8.87,8.87,0,0,0-.33,2.51v1.69a8.94,8.94,0,0,0,.33,2.52,5.66,5.66,0,0,0,1,1.9,4.19,4.19,0,0,0,1.51,1.2,4.57,4.57,0,0,0,2,.42,4.69,4.69,0,0,0,2-.42,4.13,4.13,0,0,0,1.49-1.2,5.61,5.61,0,0,0,.92-1.9,9.34,9.34,0,0,0,.32-2.52Z" fill="#fff"/><path d="M146.17,15.56l.09.33.09-.33,4.92-13.71h1.45L146.9,17.49h-1.27L139.81,1.85h1.44Z" fill="#fff"/><path d="M163.66,10h-7.32v6.38h8.42v1.11H155V1.85h9.68V3h-8.36v5.9h7.32Z" fill="#fff"/></g></g></svg>