<svg id="Layer_1" data-name="Layer 1" xmlns="http://www.w3.org/2000/svg" xmlns:xlink="http://www.w3.org/1999/xlink" width="24.25" height="25.78" viewBox="0 0 24.25 25.78"><defs><clipPath id="clip-path"><path d="M14.7,16.44a3.86,3.86,0,0,1-2.9,1c-.17,0-2.22,0-2.94-1.44a3.78,3.78,0,0,1,.59-3.82,7.33,7.33,0,0,0,1.07-2.51,2.85,2.85,0,0,1,.4,2.25,5.8,5.8,0,0,0,1.24-4.28C14.9,9.61,15.88,15.29,14.7,16.44ZM15.52,5a2.6,2.6,0,0,1-.29,2.78C14,3.08,11,2.13,11,2.13,11.31,4.55,9.64,7.19,8,9.19a5.37,5.37,0,0,0-.62-2.55C7.32,8.4,6,9.84,5.62,11.57a4.17,4.17,0,0,0,1.67,4.7,8.2,8.2,0,0,0,4.54,1.67c.82,0,3.92.13,6.21-3.66S16.6,5.79,15.52,5Z" fill="#fff"/></clipPath></defs><title>Flaring_icon</title><circle cx="12.12" cy="12.91" r="12" fill="red"/><path d="M12.12,25A12.13,12.13,0,1,1,24.25,12.91,12.14,12.14,0,0,1,12.12,25Zm0-24A11.88,11.88,0,1,0,24,12.91,11.89,11.89,0,0,0,12.12,1Z" fill="gray"/><path d="M9.54,18.9h5.13a1.5,1.5,0,0,1,1.5,1.5v.43a.08.08,0,0,1-.08.08h-8A.08.08,0,0,1,8,20.82V20.4a1.5,1.5,0,0,1,1.5-1.5Z" fill="#fff"/><rect x="9.64" y="21.76" width="4.98" height="2.38" fill="#fff"/><path d="M14.7,16.44a3.86,3.86,0,0,1-2.9,1c-.17,0-2.22,0-2.94-1.44a3.78,3.78,0,0,1,.59-3.82,7.33,7.33,0,0,0,1.07-2.51,2.85,2.85,0,0,1,.4,2.25,5.8,5.8,0,0,0,1.24-4.28C14.9,9.61,15.88,15.29,14.7,16.44ZM15.52,5a2.6,2.6,0,0,1-.29,2.78C14,3.08,11,2.13,11,2.13,11.31,4.55,9.64,7.19,8,9.19a5.37,5.37,0,0,0-.62-2.55C7.32,8.4,6,9.84,5.62,11.57a4.17,4.17,0,0,0,1.67,4.7,8.2,8.2,0,0,0,4.54,1.67c.82,0,3.92.13,6.21-3.66S16.6,5.79,15.52,5Z" fill="#fff"/><g clip-path="url(#clip-path)"><rect x="2.62" y="-0.74" width="19.04" height="21.52" fill="#fff"/></g></svg>