<svg fill="#32cd32" xmlns="http://www.w3.org/2000/svg" viewBox="0 0 312711 333334" shape-rendering="geometricPrecision" text-rendering="geometricPrecision" image-rendering="optimizeQuality" fill-rule="evenodd" clip-rule="evenodd"><path fill="#32cd32" d="M68837 154613h175991v-53325h-56043c-5874 0-14081-3184-17956-7059-3875-3874-6250-10868-6250-16743V20725H22099c-500 0-875 250-1125 500-375 250-500 625-500 1125v288760c0 375 250 875 500 1125 250 375 750 500 1125 500h221103c500 0 470-250 720-500 375-250 905-750 905-1125v-30272H68836c-11242 0-20498-9224-20498-20498v-85227c0-11274 9224-20499 20498-20499zm55629 68778l17068 5146c-1144 4780-2947 8783-5425 11980-2463 3211-5513 5631-9179 7258-3651 1628-8299 2449-13945 2449-6862 0-12449-997-16804-2977-4340-1994-8079-5498-11232-10498-3152-5000-4736-11422-4736-19223 0-10411 2771-18417 8314-24018 5557-5587 13402-8387 23548-8387 7933 0 14179 1598 18724 4809 4531 3211 7918 8138 10117 14795l-17156 3798c-601-1906-1231-3299-1891-4179-1100-1481-2434-2625-4003-3417-1583-806-3343-1202-5293-1202-4428 0-7815 1774-10161 5308-1774 2624-2669 6759-2669 12375 0 6980 1056 11745 3182 14341 2126 2580 5103 3871 8944 3871 3724 0 6539-1041 8446-3138 1906-2082 3285-5117 4150-9091zm23283 4941l18475-1158c396 2991 1217 5278 2449 6833 2009 2537 4868 3812 8593 3812 2771 0 4912-645 6407-1950 1510-1305 2258-2815 2258-4531 0-1628-704-3094-2126-4384-1422-1291-4736-2493-9941-3651-8534-1906-14604-4457-18241-7639-3666-3167-5498-7214-5498-12141 0-3226 938-6276 2815-9150 1877-2889 4692-5146 8461-6789s8930-2463 15484-2463c8050 0 14179 1496 18402 4501 4223 2991 6730 7757 7537 14296l-18299 1085c-484-2859-1510-4941-3065-6232-1569-1305-3724-1950-6466-1950-2258 0-3974 484-5117 1437-1144 953-1716 2126-1716 3504 0 997 469 1892 1393 2698 894 836 3064 1598 6495 2317 8505 1833 14590 3695 18256 5572 3680 1877 6364 4194 8035 6980 1672 2771 2507 5880 2507 9326 0 4032-1115 7757-3343 11173-2243 3402-5352 5997-9369 7757-4003 1759-9047 2639-15147 2639-10704 0-18123-2068-22244-6188-4120-4120-6452-9355-6994-15704zm60878-42156h20337l14194 45338 13989-45338h19751l-23387 62992h-21085l-23798-62992zm56643-31564h26942c11275 0 20498 9254 20498 20499v85227c0 11244-9254 20498-20498 20498h-26942v36748c0 4374-1750 8249-4624 11124-2875 2875-6749 4624-11124 4624H15748c-4374 0-8249-1750-11124-4624C1749 325833 0 321959 0 317584V15871c0-4374 1750-8249 4624-11124C7499 1872 11498 123 15748 123h159282c375-125 750-125 1125-125 1750 0 3500 750 4749 1875h250c250 125 375 250 625 500l81367 82367c1375 1375 2375 3250 2375 5374 0 625-125 1125-250 1750v62747zm-82116-78746V24246l58119 58869h-50870c-2000 0-3750-875-5125-2125-1250-1250-2124-3125-2124-5124z"/></svg>