<svg xmlns="http://www.w3.org/2000/svg" width="168.88" height="19.32" viewBox="0 0 168.88 19.32"><title>CADRE</title><g id="Layer_2" data-name="Layer 2"><g id="Layer_1-2" data-name="Layer 1"><path d="M29.17,16.75,23.9,9.44v8.38H21.34V1.74l7.83,10.77L37,1.69V17.82H34.28V9.57l-.09,0Z" fill="#666"/><path d="M74.18,11.83l3.8,6-.35,0H75.21a.51.51,0,0,1-.51-.28c-1-1.59-2-3.16-3-4.75a.59.59,0,0,0-.59-.33c-.55,0-1.09,0-1.64,0-.3,0-.41.07-.4.39,0,1.51,0,3,0,4.51v.42H66.48V2.36l.23,0c1.59,0,3.19,0,4.79,0A5.74,5.74,0,0,1,74,3a4.4,4.4,0,0,1,2.45,3.74,5.73,5.73,0,0,1-.7,3.46A4.65,4.65,0,0,1,74.18,11.83ZM69,7.42C69,8.2,69,9,69,9.76c0,.19,0,.33.26.32.82,0,1.64,0,2.45-.06a2.56,2.56,0,0,0,2.2-2.58,2.5,2.5,0,0,0-2.17-2.61c-.82-.09-1.66,0-2.48-.08-.22,0-.26.1-.26.28C69,5.83,69,6.62,69,7.42Z" fill="#666"/><path d="M49.46,8.88v2.41H42.65v4.14h8c0,.77,0,1.51,0,2.24,0,.06-.11.14-.19.18a.49.49,0,0,1-.21,0H40.05V2.35H50.3V4.68H42.65v4.2Z" fill="#666"/><path d="M63.53,2.35V4.67H55.87v4.2h6.8v2.41h-6.8v4.15h8v2.39H53.27V2.35Z" fill="#666"/><path d="M93.33,17.86c-.86,0-1.63,0-2.4,0-.1,0-.24-.16-.29-.27-.49-1.15-1-2.31-1.45-3.47a.42.42,0,0,0-.45-.33c-1.58,0-3.16,0-4.73,0a.41.41,0,0,0-.45.3c-.47,1.17-1,2.33-1.45,3.51a.37.37,0,0,1-.41.28H79.42l7-16.24Zm-7-10.57L84.6,11.57h3.53Z" fill="#666"/><path d="M113.86,12.89A6.87,6.87,0,0,1,113.3,15a4.82,4.82,0,0,1-1.15,1.6,5,5,0,0,1-1.74,1,7.19,7.19,0,0,1-2.31.35,5.6,5.6,0,0,1-2.41-.51A5.28,5.28,0,0,1,103.83,16a6.7,6.7,0,0,1-1.19-2.23,9.27,9.27,0,0,1-.42-2.88V9a9.36,9.36,0,0,1,.42-2.88,6.54,6.54,0,0,1,1.2-2.23,5.29,5.29,0,0,1,1.88-1.43,5.85,5.85,0,0,1,2.48-.51,6.8,6.8,0,0,1,2.24.34,4.81,4.81,0,0,1,1.72,1,5,5,0,0,1,1.14,1.61A6.86,6.86,0,0,1,113.86,7h-1.33a6.74,6.74,0,0,0-.43-1.69,3.49,3.49,0,0,0-2.13-2A5.31,5.31,0,0,0,108.2,3a4.37,4.37,0,0,0-2,.43,4,4,0,0,0-1.46,1.2,5.4,5.4,0,0,0-.92,1.86A8.65,8.65,0,0,0,103.55,9v2a8.91,8.91,0,0,0,.3,2.38,5.74,5.74,0,0,0,.88,1.88,4,4,0,0,0,1.43,1.23,4.2,4.2,0,0,0,1.94.44,4.42,4.42,0,0,0,3.13-1,4.8,4.8,0,0,0,1.3-3Z" fill="gray"/><path d="M125.51,13.38h-7.1l-1.61,4.38h-1.39l5.92-15.63h1.26l5.91,15.63h-1.37Zm-6.69-1.13h6.27L122,3.74Z" fill="gray"/><path d="M130.8,17.76V2.13h4.37a7,7,0,0,1,2.69.51A5.94,5.94,0,0,1,140,4.07a6.65,6.65,0,0,1,1.38,2.25,8.17,8.17,0,0,1,.5,2.92v1.43a8.25,8.25,0,0,1-.5,2.92A6.47,6.47,0,0,1,140,15.82a6.22,6.22,0,0,1-2.14,1.44,7.39,7.39,0,0,1-2.75.5Zm1.32-14.5V16.65h3a5.71,5.71,0,0,0,2.27-.44A5,5,0,0,0,139.07,15a5.49,5.49,0,0,0,1.08-1.89,7.29,7.29,0,0,0,.39-2.43V9.21a7.34,7.34,0,0,0-.39-2.46,5.49,5.49,0,0,0-1.09-1.87,4.87,4.87,0,0,0-1.69-1.2,5.57,5.57,0,0,0-2.2-.42Z" fill="gray"/><path d="M151,11.26h-4.55v6.5h-1.33V2.13h5.08a7.57,7.57,0,0,1,2.21.3,4.69,4.69,0,0,1,1.67.89,3.81,3.81,0,0,1,1.06,1.44,4.89,4.89,0,0,1,.37,2,4.32,4.32,0,0,1-.23,1.45,4.07,4.07,0,0,1-.67,1.23,4.21,4.21,0,0,1-1,.95,5.31,5.31,0,0,1-1.32.61l3.91,6.64v.14h-1.41Zm-4.55-1.13h4a4.25,4.25,0,0,0,1.61-.28,3.33,3.33,0,0,0,1.15-.75A2.94,2.94,0,0,0,154,8a3.49,3.49,0,0,0,.23-1.28A3.9,3.9,0,0,0,154,5.29a3,3,0,0,0-.77-1.1A3.52,3.52,0,0,0,152,3.5a5.61,5.61,0,0,0-1.71-.24h-3.75Z" fill="gray"/><path d="M167.78,10.27h-7.31v6.38h8.41v1.11h-9.73V2.13h9.67V3.26h-8.35V9.15h7.31Z" fill="gray"/><path d="M9.61,4.45a5.21,5.21,0,1,0,5.21,5.21A5.21,5.21,0,0,0,9.61,4.45m0,7.92a2.71,2.71,0,1,1,2.71-2.71,2.71,2.71,0,0,1-2.71,2.71" fill="#1565c0"/><path d="M2.85,9.66a6.81,6.81,0,0,1,11.42-5L17,3.35a9.66,9.66,0,1,0-7.31,16l-.72-2.89A6.82,6.82,0,0,1,2.85,9.66" fill="#1565c0"/><path d="M9.61,8.1a1.56,1.56,0,1,0,1.56,1.56A1.56,1.56,0,0,0,9.61,8.1" fill="#1565c0"/></g></g></svg>