<svg xmlns="http://www.w3.org/2000/svg" width="15" height="15" viewBox="0 0 15 15">
  <title>catalog</title>
  <g id="Layer_2" data-name="Layer 2">
    <g id="图层_1" data-name="图层 1">
      <g>
        <path d="M.5,3.6A.5.5,0,0,1,0,3.1V.5A.5.5,0,0,1,.5,0H3.1a.5.5,0,0,1,.5.5V3.1a.5.5,0,0,1-.5.5Zm.6-1.1H2.5V1.1H1.1Z" fill="#606368"/>
        <path d="M8.8,3.6a.6.6,0,0,1-.6-.5V.5A.6.6,0,0,1,8.8,0h2.5a.5.5,0,0,1,.5.5V3.1a.5.5,0,0,1-.5.5Zm.5-1.1h1.5V1.1H9.3Z" fill="#606368"/>
        <path d="M.5,9.3A.5.5,0,0,1,0,8.8V6.2a.5.5,0,0,1,.5-.5H3.1a.5.5,0,0,1,.5.5V8.8a.5.5,0,0,1-.5.5Zm.6-1.1H2.5V6.8H1.1Z" fill="#606368"/>
        <path d="M8.8,9.3a.6.6,0,0,1-.6-.5V6.2a.6.6,0,0,1,.6-.5h2.5a.5.5,0,0,1,.5.5V8.8a.5.5,0,0,1-.5.5Zm.5-1.1h1.5V6.8H9.3Z" fill="#606368"/>
        <path d="M.5,15a.5.5,0,0,1-.5-.5V11.9a.5.5,0,0,1,.5-.5H3.1a.5.5,0,0,1,.5.5v2.6a.5.5,0,0,1-.5.5Zm.6-1.1H2.5V12.5H1.1Z" fill="#606368"/>
        <path d="M8.8,15a.6.6,0,0,1-.6-.5V11.9a.6.6,0,0,1,.6-.5h2.5a.5.5,0,0,1,.5.5v2.6a.5.5,0,0,1-.5.5Zm.5-1.1h1.5V12.5H9.3Z" fill="#606368"/>
        <rect x="5.1" width="1.7" height="1.08" fill="#606368"/>
        <rect x="5.1" y="2.5" width="1.7" height="1.08" fill="#606368"/>
        <rect x="13.3" width="1.7" height="1.08" fill="#606368"/>
        <rect x="13.3" y="2.5" width="1.7" height="1.08" fill="#606368"/>
        <rect x="5.1" y="5.7" width="1.7" height="1.08" fill="#606368"/>
        <rect x="5.1" y="8.2" width="1.7" height="1.08" fill="#606368"/>
        <rect x="13.3" y="5.7" width="1.7" height="1.08" fill="#606368"/>
        <rect x="13.3" y="8.2" width="1.7" height="1.08" fill="#606368"/>
        <rect x="5.1" y="11.4" width="1.7" height="1.08" fill="#606368"/>
        <rect x="5.1" y="13.9" width="1.7" height="1.08" fill="#606368"/>
        <rect x="13.3" y="11.4" width="1.7" height="1.08" fill="#606368"/>
        <rect x="13.3" y="13.9" width="1.7" height="1.08" fill="#606368"/>
      </g>
    </g>
  </g>
</svg>
