<svg xmlns="http://www.w3.org/2000/svg" width="11" height="17" viewBox="0 0 11 17">
  <title>assign </title>
  <g id="Layer_2" data-name="Layer 2">
    <g id="图层_1" data-name="图层 1">
      <g>
        <g opacity="0.54">
          <path d="M2.5,4.6l.7-.8-.8-.9H7.3A2.6,2.6,0,0,1,9.9,5.5V7.2H11V5.5A3.8,3.8,0,0,0,7.3,1.8H2.4L3.2,1,2.5.2,1.1,1.6l-.8.8.8.8Z"/>
          <path d="M10.7,14.6l-.8-.8L8.5,12.4l-.7.8.8.9H3.7a2.6,2.6,0,0,1-2.6-2.6V9.8H0v1.7a3.8,3.8,0,0,0,3.7,3.7H8.6l-.8.8.7.8,1.4-1.4Z"/>
          <g>
            <path d="M8.3,5.9c0,.4-1.3.7-2.9.7s-3-.3-3-.7,1.3-.8,3-.8,2.9.4,2.9.8Z"/>
            <path d="M5.4,7.1c-1.7,0-3-.3-3-.7V7.8c0,.4,1.3.8,3,.8s2.9-.4,2.9-.8V6.4c0,.4-1.3.7-2.9.7Z"/>
            <path d="M5.4,9.1c-1.7,0-3-.4-3-.8V9.8c0,.4,1.3.7,3,.7s2.9-.3,2.9-.7V8.3c0,.4-1.3.8-2.9.8Z"/>
            <path d="M5.4,11c-1.7,0-3-.3-3-.7v1.4c0,.4,1.3.8,3,.8s2.9-.4,2.9-.8V10.3c0,.4-1.3.7-2.9.7Z"/>
          </g>
        </g>
        <rect width="11" height="17" fill="none"/>
      </g>
    </g>
  </g>
</svg>
