<?xml version="1.0" encoding="utf-8"?>
<!-- Generator: Adobe Illustrator 22.0.1, SVG Export Plug-In . SVG Version: 6.00 Build 0)  -->
<svg version="1.1" id="图层_1" xmlns="http://www.w3.org/2000/svg" xmlns:xlink="http://www.w3.org/1999/xlink" x="0px" y="0px"
	 viewBox="0 0 21 17" style="enable-background:new 0 0 21 17;" xml:space="preserve">
<style type="text/css">
	.st0{opacity:0.38;}
</style>
<g class="st0">
	<path d="M18.1,6.1c-0.5-0.3-1.1-0.4-1.6-0.5c-0.2-1.7-0.9-3.1-2.3-4.2C12.8,0.4,11.3,0,9.6,0.2C8.2,0.4,7.1,1.1,6.1,2.1
		c-1.2,1.4-1.7,3-1.5,4.8C4.3,7,3.9,7,3.6,7c-2.1,0.4-3.4,2.4-3.1,4.5c0.3,1.6,1.7,3,3.3,3.2c0.5,0.1,1.1,0,1.7,0c0.8,0,1.5,0,2.3,0
		c0.4,0,0.6-0.3,0.5-0.7c-0.1-0.3-0.3-0.4-0.6-0.4c-1.1,0-2.2,0-3.4,0c-0.5,0-1-0.1-1.5-0.4c-1.2-0.7-1.6-2.2-1.1-3.5
		c0.6-1.3,1.9-2,3.3-1.7c0.1,0,0.2,0,0.3,0c0.4,0,0.5-0.4,0.4-0.7c-0.2-0.7-0.2-1.3-0.1-2C6.1,2.8,8.5,1,11.1,1.3
		c2,0.2,3.7,1.8,4.1,3.8c0.1,0.4,0.1,0.7,0.1,1.1c0,0.3,0.2,0.5,0.5,0.5c0.1,0,0.2,0,0.3,0c2.1,0.1,3.6,2.2,3.2,4.2
		c-0.4,1.7-1.8,2.8-3.5,2.8c-0.9,0-1.7,0-2.6,0c-0.4,0-0.6,0.2-0.6,0.5c0,0.3,0.2,0.5,0.6,0.5c0.9,0,1.8,0,2.7,0
		c1.3,0,2.4-0.5,3.3-1.4C21.3,11.2,20.8,7.6,18.1,6.1z"/>
	<path d="M13.4,12c0.4-0.2,0.4-0.6,0.1-0.9c-0.9-0.9-1.7-1.7-2.6-2.6c-0.3-0.3-0.6-0.3-0.9,0C9.5,9,9,9.5,8.5,10
		c-0.4,0.4-0.7,0.7-1.1,1.1c-0.2,0.2-0.2,0.4-0.1,0.6c0.1,0.2,0.3,0.3,0.6,0.3C8,12,8.1,12,8.2,11.9c0.5-0.5,1-1,1.6-1.6
		c0,0,0.1-0.1,0.1-0.1c0,0.1,0,0.1,0,0.2c0,1.9,0,3.9,0,5.8c0,0.1,0,0.2,0,0.3c0.1,0.2,0.3,0.4,0.5,0.4c0.3,0,0.5-0.2,0.5-0.4
		c0-0.1,0-0.2,0-0.3c0-1.9,0-3.8,0-5.7c0-0.1,0-0.1,0-0.2c0,0,0.1,0,0.1-0.1c0,0.1,0.1,0.1,0.1,0.2c0.5,0.5,1,1,1.5,1.5
		C13,12.1,13.2,12.1,13.4,12z"/>
</g>
</svg>
