<?xml version="1.0" encoding="utf-8"?>
<!-- Generator: Adobe Illustrator 22.0.1, SVG Export Plug-In . SVG Version: 6.00 Build 0)  -->
<svg version="1.1" id="图层_1" xmlns="http://www.w3.org/2000/svg" xmlns:xlink="http://www.w3.org/1999/xlink" x="0px" y="0px"
	 viewBox="0 0 38 36" style="enable-background:new 0 0 38 36;" xml:space="preserve">
<style type="text/css">
	.st0{fill:#A5A5A5;}
	.st1{fill:#D1D1D1;}
</style>
<g>
	<path class="st0" d="M32.3,25.1H5.7c-3,0-5.4,2.4-5.4,5.4S2.7,36,5.7,36h26.6c3,0,5.4-2.4,5.4-5.4S35.3,25.1,32.3,25.1z M31,32.4
		c-1,0-1.8-0.8-1.8-1.8s0.8-1.8,1.8-1.8c1,0,1.8,0.8,1.8,1.8S32,32.4,31,32.4z"/>
	<path class="st1" d="M5.7,25.1h26.6c2.2,0,4.1,1.3,4.9,3.1L32.8,2.9c-0.2-1.6-1.6-2.8-3.3-2.9H8.5C6.8,0.1,5.4,1.3,5.2,3L0.8,28.3
		C1.7,26.4,3.5,25.1,5.7,25.1z"/>
	<path class="st0" d="M21.3,17c-0.1,0.1-0.3,0.1-0.4,0c-0.5-0.4-0.6-0.6-0.9-1.1c-0.9,0.9-1.5,1.2-2.7,1.2c-1.4,0-2.4-0.8-2.4-2.5
		c0-1.3,0.7-2.2,1.7-2.6c0.9-0.4,2.1-0.5,3-0.6v-0.2c0-0.4,0-0.8-0.2-1.2c-0.2-0.3-0.6-0.4-0.9-0.4c-0.6,0-1.2,0.3-1.3,1
		c0,0.1-0.1,0.3-0.3,0.3l-1.6-0.2c-0.1,0-0.3-0.1-0.2-0.3C15.6,8.5,17.3,8,18.8,8c0.8,0,1.8,0.2,2.4,0.8c0.8,0.7,0.7,1.7,0.7,2.8V14
		c0,0.8,0.3,1.1,0.6,1.5c0.1,0.2,0.1,0.3,0,0.4L21.3,17L21.3,17 M19.7,13.1v-0.3c-1.2,0-2.4,0.2-2.4,1.6c0,0.7,0.4,1.2,1,1.2
		c0.5,0,0.9-0.3,1.1-0.7C19.7,14.2,19.7,13.7,19.7,13.1 M23.8,18.5c-1.3,1-3.2,1.5-4.8,1.5c-2.3,0-4.4-0.8-5.9-2.3
		c-0.1-0.1,0-0.3,0.1-0.2c1.7,1,3.8,1.6,5.9,1.6c1.4,0,3-0.3,4.5-0.9C23.9,18.1,24,18.3,23.8,18.5 M24.4,17.9
		c-0.2-0.2-1.1-0.1-1.5,0c-0.1,0-0.1-0.1,0-0.2c0.7-0.5,2-0.4,2.1-0.2c0.1,0.2,0,1.4-0.7,2c-0.1,0.1-0.2,0-0.2-0.1
		C24.2,19,24.5,18.1,24.4,17.9z"/>
</g>
</svg>
