<?xml version="1.0" encoding="utf-8"?>
<!-- Generator: Adobe Illustrator 22.0.1, SVG Export Plug-In . SVG Version: 6.00 Build 0)  -->
<svg version="1.1" id="图层_1" xmlns="http://www.w3.org/2000/svg" xmlns:xlink="http://www.w3.org/1999/xlink" x="0px" y="0px"
	 viewBox="0 0 38 36" style="enable-background:new 0 0 38 36;" xml:space="preserve">
<style type="text/css">
	.st0{fill:#A5A5A5;}
	.st1{fill:#D1D1D1;}
</style>
<g>
	<path class="st0" d="M32.3,25.1H5.7c-3,0-5.4,2.4-5.4,5.4S2.7,36,5.7,36h26.6c3,0,5.4-2.4,5.4-5.4S35.3,25.1,32.3,25.1z M31,32.4
		c-1,0-1.8-0.8-1.8-1.8s0.8-1.8,1.8-1.8c1,0,1.8,0.8,1.8,1.8S32,32.4,31,32.4z"/>
	<path class="st1" d="M5.7,25.1h26.6c2.2,0,4.1,1.3,4.9,3.1L32.8,2.9c-0.2-1.6-1.6-2.8-3.3-2.9H8.5C6.8,0.1,5.4,1.3,5.2,3L0.8,28.3
		C1.7,26.4,3.5,25.1,5.7,25.1z"/>
	<path class="st0" d="M19,15.4l2.7,2.2l1.1-0.7v0.8L19,20l-3.8-2.3v-0.8l1.1,0.7L19,15.4 M16.3,8l2.7,2.2L21.7,8l3.8,2.5l-2.6,2.1
		l2.6,2.1l-3.8,2.5L19,14.9l-2.7,2.2l-3.8-2.5l2.6-2.1l-2.6-2.1L16.3,8 M19,14.8l3.8-2.3L19,10.2l-3.8,2.3L19,14.8z"/>
</g>
</svg>
