<svg xmlns="http://www.w3.org/2000/svg" width="122.77" height="19.32" viewBox="0 0 122.77 19.32"><title>DX</title><g id="Layer_2" data-name="Layer 2"><g id="Layer_1-2" data-name="Layer 1"><path d="M29.17,16.75,23.9,9.44v8.38H21.34V1.74l7.83,10.77L37,1.69V17.82H34.28V9.57l-.09,0Z" fill="#666"/><path d="M74.18,11.83l3.8,6-.35,0H75.21a.51.51,0,0,1-.51-.28c-1-1.59-2-3.16-3-4.75a.59.59,0,0,0-.59-.33c-.55,0-1.09,0-1.64,0-.3,0-.41.07-.4.39,0,1.51,0,3,0,4.51v.42H66.48V2.36l.23,0c1.59,0,3.19,0,4.79,0A5.74,5.74,0,0,1,74,3a4.4,4.4,0,0,1,2.45,3.74,5.73,5.73,0,0,1-.7,3.46A4.65,4.65,0,0,1,74.18,11.83ZM69,7.42C69,8.2,69,9,69,9.76c0,.19,0,.33.26.32.82,0,1.64,0,2.45-.06a2.56,2.56,0,0,0,2.2-2.58,2.5,2.5,0,0,0-2.17-2.61c-.82-.09-1.66,0-2.48-.08-.22,0-.26.1-.26.28C69,5.83,69,6.62,69,7.42Z" fill="#666"/><path d="M49.46,8.88v2.41H42.65v4.14h8c0,.77,0,1.51,0,2.24,0,.06-.11.14-.19.18a.49.49,0,0,1-.21,0H40.05V2.35H50.3V4.68H42.65v4.2Z" fill="#666"/><path d="M63.53,2.35V4.67H55.87v4.2h6.8v2.41h-6.8v4.15h8v2.39H53.27V2.35Z" fill="#666"/><path d="M93.33,17.86c-.86,0-1.63,0-2.4,0-.1,0-.24-.16-.29-.27-.49-1.15-1-2.31-1.45-3.47a.42.42,0,0,0-.45-.33c-1.58,0-3.16,0-4.73,0a.41.41,0,0,0-.45.3c-.47,1.17-1,2.33-1.45,3.51a.37.37,0,0,1-.41.28H79.42l7-16.24Zm-7-10.57L84.6,11.57h3.53Z" fill="#666"/><path d="M9.61,4.45a5.21,5.21,0,1,0,5.21,5.21A5.21,5.21,0,0,0,9.61,4.45m0,7.92a2.71,2.71,0,1,1,2.71-2.71,2.71,2.71,0,0,1-2.71,2.71" fill="#1565c0"/><path d="M2.85,9.66a6.81,6.81,0,0,1,11.42-5L17,3.35a9.66,9.66,0,1,0-7.31,16l-.72-2.89A6.82,6.82,0,0,1,2.85,9.66" fill="#1565c0"/><path d="M9.61,8.1a1.56,1.56,0,1,0,1.56,1.56A1.56,1.56,0,0,0,9.61,8.1" fill="#1565c0"/><path d="M97.7,17.66V2h4.37a6.93,6.93,0,0,1,2.69.51A5.87,5.87,0,0,1,106.88,4a6.61,6.61,0,0,1,1.38,2.24,8.25,8.25,0,0,1,.49,2.92v1.43a8.17,8.17,0,0,1-.49,2.92,6.3,6.3,0,0,1-1.39,2.24,6.08,6.08,0,0,1-2.13,1.44,7.2,7.2,0,0,1-2.75.5ZM99,3.15v13.4h3a5.66,5.66,0,0,0,2.26-.44A4.85,4.85,0,0,0,106,14.89,5.51,5.51,0,0,0,107.06,13a7.3,7.3,0,0,0,.38-2.44V9.1a7.54,7.54,0,0,0-.38-2.45A5.44,5.44,0,0,0,106,4.77a4.88,4.88,0,0,0-1.7-1.19,5.37,5.37,0,0,0-2.2-.43Z" fill="gray"/><path d="M116.63,8.64,121,2h1.58l-5.18,7.72,5.34,7.92h-1.59l-4.55-6.83-4.58,6.83h-1.57l5.35-7.92L110.64,2h1.58Z" fill="gray"/></g></g></svg>