<svg xmlns="http://www.w3.org/2000/svg" width="47" height="47" viewBox="0 0 47 47">
  <title>file_doc</title>
  <g id="Layer_2" data-name="Layer 2">
    <g id="图层_1" data-name="图层 1">
      <g>
        <path d="M44.2,9.1H27.1v-4a1.1,1.1,0,0,0-.5-1,1.7,1.7,0,0,0-1-.3l-21,4A1.2,1.2,0,0,0,3.5,9.1V37.9a1.2,1.2,0,0,0,1.1,1.3l21,4h.2a1.1,1.1,0,0,0,.8-.3,1.1,1.1,0,0,0,.5-1v-4H44.2a1.3,1.3,0,0,0,1.3-1.3V10.4A1.3,1.3,0,0,0,44.2,9.1ZM21.9,18.4,20.6,30.2a1.5,1.5,0,0,1-1.2,1.2h-.1a1.4,1.4,0,0,1-1.3-.9l-2.7-7.2-2.7,7.2a1.4,1.4,0,0,1-1.4.9,1.4,1.4,0,0,1-1.1-1.2L8.8,21.1a1.3,1.3,0,0,1,1.1-1.5,1.3,1.3,0,0,1,1.5,1.1l.5,4.1,2.2-5.7a1.3,1.3,0,0,1,2.4,0l2.1,5.4.7-6.4a1.3,1.3,0,0,1,1.4-1.2A1.5,1.5,0,0,1,21.9,18.4Zm21,16.9H27.1V32.7H38.9a1.3,1.3,0,1,0,0-2.6H27.1V27.4H38.9a1.2,1.2,0,0,0,1.3-1.3,1.3,1.3,0,0,0-1.3-1.3H27.1V22.2H38.9a1.3,1.3,0,0,0,0-2.6H27.1V16.9H38.9a1.2,1.2,0,0,0,1.3-1.3,1.3,1.3,0,0,0-1.3-1.3H27.1V11.7H42.9Z" fill="#3263a1"/>
        <rect width="47" height="47" fill="none"/>
      </g>
    </g>
  </g>
</svg>
