<svg xmlns="http://www.w3.org/2000/svg" width="47" height="47" viewBox="0 0 47 47">
  <title>file_ppt</title>
  <g id="Layer_2" data-name="Layer 2">
    <g id="图层_1" data-name="图层 1">
      <g>
        <g>
          <path d="M15.6,19.3H13v5.6h2.6a2.8,2.8,0,0,0,0-5.6Z" fill="#d8512b"/>
          <path d="M43.2,8.2H26.1V4a1.3,1.3,0,0,0-.5-1.1,1.2,1.2,0,0,0-1-.3L3.6,6.8A1.3,1.3,0,0,0,2.5,8.2V38.8a1.3,1.3,0,0,0,1.1,1.4l21,4.2h.2a1.1,1.1,0,0,0,.8-.3,1.3,1.3,0,0,0,.5-1.1V38.8H43.2a1.3,1.3,0,0,0,1.3-1.4V9.6A1.3,1.3,0,0,0,43.2,8.2ZM15.6,27.7H13v4.2a1.4,1.4,0,0,1-1.3,1.4,1.4,1.4,0,0,1-1.3-1.4v-14a1.4,1.4,0,0,1,1.3-1.4h3.9a5.5,5.5,0,0,1,5.3,5.6A5.5,5.5,0,0,1,15.6,27.7ZM41.9,36H26.1V33.3H37.9a1.4,1.4,0,0,0,1.4-1.4,1.4,1.4,0,0,0-1.4-1.4H26.1V11H41.9Z" fill="#d8512b"/>
          <path d="M31.4,22.1V13.9a6.8,6.8,0,0,0-5.3,6.8,6.8,6.8,0,0,0,6.6,7,6.6,6.6,0,0,0,6.4-5.6Z" fill="#d8512b"/>
          <path d="M34,13.9v5.4h5.1A6.6,6.6,0,0,0,34,13.9Z" fill="#d8512b"/>
        </g>
        <rect width="47" height="47" fill="none"/>
      </g>
    </g>
  </g>
</svg>
