<svg xmlns="http://www.w3.org/2000/svg" viewBox="0 0 42 42"><defs><style>.cls-1,.cls-2{fill:#d65b53;}.cls-1{opacity:0.3;}.cls-3{fill:none;stroke:#d65b53;stroke-linejoin:round;stroke-width:2px;}.cls-4{font-size:10.79px;fill:#fff;font-family:Roboto-Medium, Roboto;font-weight:500;}</style></defs><title>file-pdf</title><g id="Layer_2" data-name="Layer 2"><g id="图层_1" data-name="图层 1"><path class="cls-1" d="M29.85,9.86a2.32,2.32,0,0,0,2.3,2.31H42L29.85,0Z"/><path class="cls-2" d="M30.24,2,40,11.78V39.93a.08.08,0,0,1-.07.07H10.27a.08.08,0,0,1-.07-.07V2.07A.08.08,0,0,1,10.27,2h20m.83-2H10.27A2.07,2.07,0,0,0,8.2,2.07V39.93A2.07,2.07,0,0,0,10.27,42H39.93A2.07,2.07,0,0,0,42,39.93V11L31.07,0Z"/><path class="cls-3" d="M29.85,0V9.86a2.32,2.32,0,0,0,2.3,2.31H42"/><rect class="cls-2" y="14.53" width="30.15" height="12.94" rx="0.49"/><text class="cls-4" transform="translate(6.18 24.83)">PDF</text></g></g></svg>