<svg xmlns="http://www.w3.org/2000/svg" width="47" height="47" viewBox="0 0 47 47">
  <title>file_tif</title>
  <g id="Layer_2" data-name="Layer 2">
    <g id="图层_1" data-name="图层 1">
      <g>
        <path d="M25.6,17.2V5.6L37.2,17.2M10.9,2.5A4.2,4.2,0,0,0,6.7,6.7V40.3a4.2,4.2,0,0,0,4.2,4.2H36.1a4.2,4.2,0,0,0,4.2-4.2V15.1L27.7,2.5Z" fill="#185692"/>
        <g>
          <g>
            <path d="M31.7,26.7V37.5H17.8V26.7H31.7m.1-1.1h-14a1.1,1.1,0,0,0-1.1,1.1V37.5a1.1,1.1,0,0,0,1.1,1.1h14a1.1,1.1,0,0,0,1.1-1.1V26.7a1.1,1.1,0,0,0-1.1-1.1Z" fill="#fff"/>
            <path d="M22.2,28.4a1.1,1.1,0,0,0-1.1,1.2,1.1,1.1,0,0,0,1.1,1.1,1.1,1.1,0,0,0,1.2-1.1A1.2,1.2,0,0,0,22.2,28.4Zm-4.7,7.2,3.8-3.1,2.8,2.6,3.7-4.7,4.3,5.4v1.8H17.5Z" fill="#fff"/>
          </g>
          <path d="M17.5,34.9H15.3V24.2H29.2v1.9h1.1v-2A1.1,1.1,0,0,0,29.2,23h-14a1.1,1.1,0,0,0-1.1,1.1V35a1.1,1.1,0,0,0,1.1,1.1h2.3Z" fill="#fff"/>
        </g>
        <rect width="47" height="47" fill="none"/>
      </g>
    </g>
  </g>
</svg>
