<svg xmlns="http://www.w3.org/2000/svg" width="47" height="47" viewBox="0 0 47 47">
  <title>file_cgm</title>
  <g id="Layer_2" data-name="Layer 2">
    <g id="图层_1" data-name="图层 1">
      <g>
        <path d="M25.6,17.2V5.6L37.2,17.2M10.9,2.5A4.2,4.2,0,0,0,6.7,6.7V40.3a4.2,4.2,0,0,0,4.2,4.2H36.1a4.2,4.2,0,0,0,4.2-4.2V15.1L27.7,2.5Z" fill="#f09236"/>
        <path d="M34.6,32.3A2.1,2.1,0,0,0,32,32l-4.2-4.2a2.1,2.1,0,0,0-2.9-2.9l-4.2-4.2a2.3,2.3,0,0,0-.2-2.6A2.1,2.1,0,0,0,17.6,21a2,2,0,0,0,2.4.4l2.8,2.8a8.2,8.2,0,0,0-3.8-.6,9.2,9.2,0,0,0-5.8,2.7c-.2.1-.2.5,0,.7a.5.5,0,0,0,.7,0,7.9,7.9,0,0,1,10.2-1,2.1,2.1,0,0,0,2.6,2.6,8,8,0,0,1-.9,10.2.5.5,0,1,0,.7.7,8.9,8.9,0,0,0,2.6-5.8,7.6,7.6,0,0,0-.6-3.7l2.8,2.8a2.2,2.2,0,0,0,.4,2.4,2.2,2.2,0,0,0,2.9,0A2.1,2.1,0,0,0,34.6,32.3Z" fill="#fff"/>
        <rect width="47" height="47" fill="none"/>
      </g>
    </g>
  </g>
</svg>
