<svg xmlns="http://www.w3.org/2000/svg" viewBox="0 0 41 39"><defs><style>.cls-1{fill:#fbebb9;}.cls-2{fill:#f5c144;}</style></defs><title>file-file</title><g id="Layer_2" data-name="Layer 2"><g id="图层_1" data-name="图层 1"><path class="cls-1" d="M7.83,35.3H7.37a3.64,3.64,0,0,1-3.64-3.62V3a3.64,3.64,0,0,1,.21-1.22,3.64,3.64,0,0,0-2.41,3.4V33.86a3.64,3.64,0,0,0,3.65,3.61h.46a3.63,3.63,0,0,0,3.43-2.39A3.77,3.77,0,0,1,7.83,35.3Z"/><path class="cls-1" d="M40.17,14.35c1-1-4.59-4.56-18.37-2.74a78.88,78.88,0,0,0-8.57.45,3.62,3.62,0,0,0-2.41,3.4v18.4a5.11,5.11,0,0,1-1.5,3.61H40.06a11.36,11.36,0,0,1-.48-2.17Z"/><path class="cls-2" d="M5.64,39H30.21V37.47H9.32a5.11,5.11,0,0,0,1.5-3.61V15.46a3.63,3.63,0,0,1,3.64-3.61H35.82a3.64,3.64,0,0,1,3.65,3.61V26.11H41V15.46a5.16,5.16,0,0,0-5.18-5.14h-.23v-.13a5.16,5.16,0,0,0-5.17-5.14H22.14a.36.36,0,0,1-.25-.11l-3-3.27A5.21,5.21,0,0,0,15.07,0H5.18A5.16,5.16,0,0,0,0,5.14V33.86A5.16,5.16,0,0,0,5.18,39ZM1.53,33.86V5.14A3.64,3.64,0,0,1,5.18,1.53h9.89A3.65,3.65,0,0,1,17.76,2.7l3,3.27a1.87,1.87,0,0,0,1.38.6h8.28a3.63,3.63,0,0,1,3.64,3.62v.13H14.46a5.17,5.17,0,0,0-5.18,5.14v18.4a3.64,3.64,0,0,1-3.64,3.62H5.18A3.66,3.66,0,0,1,1.53,33.86Z"/><path class="cls-2" d="M39.46,23.19V35.78a1.7,1.7,0,0,1-1.7,1.69H24.33L22.71,39h15A3.23,3.23,0,0,0,41,35.78V21.66"/></g></g></svg>