<?xml version="1.0" encoding="utf-8"?>
<!-- Generator: Adobe Illustrator 22.0.1, SVG Export Plug-In . SVG Version: 6.00 Build 0)  -->
<svg version="1.1" id="图层_1" xmlns="http://www.w3.org/2000/svg" xmlns:xlink="http://www.w3.org/1999/xlink" x="0px" y="0px"
	 viewBox="0 0 167 23" style="enable-background:new 0 0 167 23;" xml:space="preserve">
<style type="text/css">
	.st0{opacity:0.54;}
</style>
<g class="st0">
	<g>
		<path d="M30.2,5h-4.4v12.3h-2.4V5h-4.3V3.1h11.1V5z"/>
		<path d="M38.3,14h-5l-1.1,3.3h-2.5l5-14.2h2.3l4.9,14.2h-2.5L38.3,14z M33.9,12h3.7l-1.8-5.6h-0.1L33.9,12z"/>
		<path d="M51,13.7c0-0.6-0.2-1.1-0.6-1.5c-0.4-0.4-1.2-0.7-2.2-1c-1.5-0.4-2.7-1-3.5-1.7S43.4,8,43.4,6.9c0-1.1,0.5-2.1,1.4-2.8
			s2.1-1.1,3.5-1.1c1.5,0,2.8,0.4,3.7,1.2s1.4,1.8,1.3,3.1l0,0.1H51c0-0.7-0.2-1.3-0.7-1.8s-1.2-0.7-2-0.7c-0.8,0-1.4,0.2-1.9,0.6
			s-0.6,0.9-0.6,1.5c0,0.5,0.2,1,0.7,1.4s1.3,0.7,2.4,1c1.5,0.4,2.6,1,3.4,1.7s1.2,1.6,1.2,2.8c0,1.2-0.5,2.1-1.4,2.8
			s-2.1,1.1-3.6,1.1c-1.4,0-2.7-0.4-3.8-1.2S43,14.5,43,13.1l0-0.1h2.3c0,0.9,0.3,1.5,0.9,1.9s1.3,0.6,2.2,0.6c0.8,0,1.5-0.2,2-0.5
			S51,14.3,51,13.7z"/>
		<path d="M59.4,11.2h-1.2v6.2h-2.4V3.1h2.4v6h0.9l4.6-6h2.8l0,0l-5.3,6.7l5.8,7.5h-3L59.4,11.2z"/>
	</g>
	<g>
		<path d="M81.4,15.6L81.4,15.6l5.4-12.5h1.4v14.2H87V5.4l-0.1,0l-5.1,12H81L75.8,5.1l-0.1,0v12.2h-1.2V3.1h1.6L81.4,15.6z"/>
		<path d="M99.4,13.4h-6.2l-1.4,4h-1.2l5.2-14.2h1.1l5.2,14.2h-1.2L99.4,13.4z M93.5,12.3H99l-2.7-7.5h-0.1L93.5,12.3z"/>
		<path d="M114.7,17.3h-1.2l-8.1-12.2l-0.1,0v12.2h-1.2V3.1h1.2l8.1,12.1l0.1,0V3.1h1.2V17.3z"/>
		<path d="M125.9,13.4h-6.2l-1.4,4H117l5.2-14.2h1.1l5.2,14.2h-1.2L125.9,13.4z M120,12.3h5.5l-2.7-7.5h-0.1L120,12.3z"/>
		<path d="M140.7,15.4c-0.3,0.5-0.9,1-1.7,1.4s-1.9,0.7-3.2,0.7c-1.6,0-3-0.6-4-1.7s-1.6-2.6-1.6-4.4V8.9c0-1.8,0.5-3.2,1.5-4.3
			s2.3-1.7,3.9-1.7c1.5,0,2.8,0.4,3.7,1.2s1.3,1.8,1.3,3.1l0,0.1h-1.1c0-1-0.3-1.8-1-2.4s-1.6-1-2.9-1c-1.3,0-2.3,0.5-3.1,1.4
			s-1.2,2.1-1.2,3.6v2.6c0,1.5,0.4,2.7,1.2,3.7s1.9,1.4,3.2,1.4c1,0,1.8-0.1,2.4-0.4s1.1-0.6,1.3-1v-3.6h-3.8v-1h5V15.4z"/>
		<path d="M151.9,10.5h-6.4v5.9h7.4v1h-8.5V3.1h8.5v1h-7.3v5.3h6.4V10.5z"/>
		<path d="M156.6,10.9v6.4h-1.2V3.1h4.7c1.5,0,2.7,0.3,3.5,1s1.2,1.6,1.2,2.9c0,0.8-0.2,1.4-0.6,2s-1,1-1.8,1.3
			c0.9,0.2,1.5,0.6,1.9,1.2c0.4,0.6,0.6,1.3,0.6,2.1v1.3c0,0.4,0.1,0.8,0.2,1.2s0.3,0.6,0.5,0.9v0.2h-1.2c-0.2-0.2-0.4-0.6-0.5-1
			s-0.1-0.9-0.1-1.3v-1.3c0-0.9-0.3-1.6-0.8-2.1c-0.6-0.5-1.3-0.8-2.4-0.8H156.6z M156.6,9.9h3.4c1.3,0,2.2-0.3,2.8-0.8
			s0.9-1.2,0.9-2.1c0-0.9-0.3-1.7-0.9-2.2s-1.5-0.8-2.7-0.8h-3.6V9.9z"/>
	</g>
	<path d="M2.6,18.1V3.3h11.9v12.4l2.3-1.9V2.2c0-0.6-0.5-1.1-1.1-1.1H1.5c-0.6,0-1.1,0.5-1.1,1.1v17c0,0.6,0.5,1.1,1.1,1.1h9.9
		l-1.6-2.3H2.6z"/>
	<path d="M20.1,13.3c-0.2-0.2-0.5-0.2-0.8,0l-5.2,4.3l-3.5-2.1c-0.2-0.1-0.5-0.1-0.7,0.1c-0.2,0.2-0.2,0.5,0,0.7l3.8,5.3
		c0.1,0.1,0.3,0.2,0.5,0.2h0c0.2,0,0.4-0.1,0.5-0.2l5.6-7.6C20.3,13.8,20.3,13.5,20.1,13.3"/>
	<path d="M12,5H5.2C4.5,5,4,5.5,4,6.2c0,0.6,0.5,1.1,1.1,1.1H12c0.6,0,1.1-0.5,1.1-1.1C13.1,5.5,12.6,5,12,5"/>
	<path d="M12,8.4H5.2C4.5,8.4,4,8.9,4,9.6c0,0.6,0.5,1.1,1.1,1.1H12c0.6,0,1.1-0.5,1.1-1.1C13.1,8.9,12.6,8.4,12,8.4"/>
	<path d="M12,11.8H5.2C4.5,11.8,4,12.4,4,13c0,0.6,0.5,1.1,1.1,1.1H12c0.6,0,1.1-0.5,1.1-1.1C13.1,12.4,12.6,11.8,12,11.8"/>
</g>
</svg>
