<svg xmlns="http://www.w3.org/2000/svg" width="22" height="22" viewBox="0 0 22 22">
  <title>Wells</title>
  <g id="Layer_2" data-name="Layer 2">
    <g id="Layer_1-2" data-name="Layer 1">
      <g>
        <path d="M13.4,16.5c-.5-1.7-.9-3.4-1.2-5h.4c.2,0,.3-.1.3-.2a.3.3,0,0,0-.3-.3h-.4a25.1,25.1,0,0,1-.4-2.7h.6c.1,0,.2-.1.2-.3a.2.2,0,0,0-.2-.2h-.6v-3a.8.8,0,1,0-1.6,0v3H9.6a.2.2,0,0,0-.2.2c0,.2.1.3.2.3h.6A25.1,25.1,0,0,1,9.8,11H9.4a.3.3,0,0,0-.3.3c0,.1.1.2.3.2h.4c-.3,1.6-.7,3.3-1.2,5H8.1V18h5.8V16.5ZM11.3,8.3h0a1.7,1.7,0,0,0,.1.7h-.1Zm0,1.7.2-.2c0,.4.1.8.1,1.2h-.3Zm0,1.5h.4c.1.4.1.7.2,1l-.6-.5Zm0,1.2.5.5-.5.2Zm0,1.3.8-.4c.2.9.5,1.9.8,2.9h-.3l-1.3-1Zm.4,2.5h-.4v-.3Zm-1-1.3-.8-.6.8-.4Zm0-4.2h-.1v0Zm0-2.7h0V9.9l-.2.3C10.6,9.6,10.6,8.9,10.7,8.3Zm-.4,3.5.4.4v1.5l-.9.4C10,13.3,10.1,12.5,10.3,11.8ZM9.5,15l1.2.8v.7H9.1A8.3,8.3,0,0,0,9.5,15Z" opacity="0.54"/>
        <rect width="22" height="22" fill="none"/>
      </g>
    </g>
  </g>
</svg>
