<?xml version="1.0" encoding="UTF-8"?>
<svg width="56px" height="56px" viewBox="0 0 56 56" version="1.1" xmlns="http://www.w3.org/2000/svg" xmlns:xlink="http://www.w3.org/1999/xlink">
    <title>agricultural</title>
    <g id="Page-1" stroke="none" stroke-width="1" fill="none" fill-rule="evenodd">
        <g id="agricultural">
            <circle id="Oval-Copy-3" fill="#E9F5EA" cx="28" cy="28" r="28"></circle>
            <path d="M14.6693455,20.894558 C15.4599879,20.9761954 16.1297439,21.3528293 16.7028909,21.9334314 C17.2510095,21.38889 17.8798444,20.9951023 18.6344461,20.917096 C19.2938154,20.8489813 19.9650731,20.8518612 20.6284469,20.882663 C21.0100026,20.900443 21.3278614,21.1717746 21.360273,21.5497857 C21.4526272,22.6273492 21.5537413,23.7240699 20.9750882,24.7197455 C20.3174709,25.8514 19.3256013,26.4479038 18.0127444,26.4976125 C17.9191387,26.5012436 17.8255331,26.5019949 17.7320525,26.5068781 C17.7135316,26.5078798 17.6956364,26.5220286 17.6587198,26.5384312 L17.6587198,29.2299608 C18.2686582,29.3348874 18.8812247,29.4346803 19.4917889,29.5462431 C22.3527682,30.0692482 25.0908589,30.9665083 27.6916696,32.2710787 C27.9228055,32.3870239 28.0928725,32.3836432 28.3216307,32.267698 C30.2113888,31.309836 32.1892463,30.5817357 34.2415629,30.059607 C34.5054858,29.9924941 34.6088525,29.8905725 34.6005932,29.6025879 C34.5780678,28.8135099 34.5928344,28.0234303 34.5928344,27.234728 C34.1973881,27.1871479 33.8310996,27.1770059 33.4815801,27.095118 C31.9482243,26.7358885 30.8979137,25.4369525 30.829962,23.8316259 C30.8114411,23.3947657 30.8154456,22.956403 30.8264581,22.5191671 C30.8408493,21.9459525 31.230414,21.5625572 31.7974291,21.554669 C32.2450593,21.5482832 32.6931902,21.5446521 33.1406953,21.5566723 C34.0701194,21.5818397 34.85025,21.9572214 35.5124975,22.6091936 C35.7546458,22.426386 35.9811515,22.230932 36.2308083,22.0719144 C36.759405,21.7348472 37.3429387,21.5598026 37.9723992,21.5542933 C38.4097679,21.550537 38.8472617,21.5479076 39.2845052,21.5550446 C39.7696779,21.5631833 40.1678774,21.8475368 40.203918,22.3205829 C40.2739971,23.242259 40.3579669,24.1844697 39.9685273,25.0618212 C39.3851188,26.3761581 38.362965,27.0954937 36.9164573,27.1847689 C36.7839327,27.1930328 36.650407,27.1858958 36.4942307,27.1858958 L36.4942307,29.5250825 C37.2122912,29.4195298 37.9065749,29.2789182 38.6076162,29.2224482 C40.0801533,29.1038736 41.5554436,29.0153496 43.0309841,28.9443551 C43.5968729,28.9170592 43.9966992,29.3392698 43.9971998,29.9065995 C44.000954,34.2822133 44.000954,38.6578271 43.9970746,43.0334408 C43.9965741,43.6012714 43.5977489,43.9849171 43.0286065,43.9990659 L13.1931792,43.9995667 L13.1931792,43.9995667 C12.3318319,43.9994415 12.0038367,43.672892 12.0038367,42.8149481 L12.0039619,30.0942904 L12.0039619,30.0942904 C12.0039619,29.2799199 12.3539819,28.9219424 13.1602671,28.9395971 C14.012479,28.9582535 14.8641904,28.9953159 15.7496899,29.0253665 L15.7496899,26.5255345 L15.173966,26.4795126 C15.0785713,26.4703305 14.9836169,26.4590476 14.8893438,26.4436467 C13.2428603,26.1744436 12.0415042,24.7891122 12.0068401,23.1244357 C11.9978299,22.6870747 11.9979551,22.249338 12.005839,21.8118518 C12.0157251,21.2577943 12.3986574,20.8676377 12.9530331,20.8623789 C13.5254292,20.8568696 14.1020801,20.8359594 14.6693455,20.894558 Z M13.8962228,35.2259265 L13.8962228,37.3627726 C13.9392714,37.3751685 13.9774395,37.3900685 14.0168589,37.3967047 C14.08869,37.4087249 14.1611468,37.4186166 14.2336036,37.4247519 C15.4236969,37.5244196 16.5754971,37.7922454 17.6824966,38.2383712 C19.5856448,39.005412 21.176065,40.1589784 22.2447713,41.9571295 C22.2994581,42.0491594 22.474781,42.1150202 22.5945412,42.1158967 C24.166941,42.1262892 25.7395912,42.1229085 27.3121162,42.1222824 C27.3892032,42.1222824 27.4661651,42.1153959 27.5764145,42.1100118 C27.496199,41.9765372 27.4420128,41.8779963 27.3800679,41.7845891 C26.2200085,40.035771 24.6578702,38.7306997 22.8490785,37.70585 C20.7323141,36.5065817 18.4488616,35.7950092 16.0492781,35.4488016 C15.3426054,35.34688 14.6279237,35.3000512 13.8962228,35.2259265 Z M13.8977245,30.8262722 L13.8977245,33.3500195 C14.4379593,33.3969735 14.9651794,33.4361645 15.4910229,33.4897547 C18.4781447,33.7945175 21.3015817,34.6313008 23.9057712,36.1427194 C26.3403943,37.5558475 28.3368979,39.4110948 29.6426218,41.9486152 C29.6900503,42.0407703 29.8666246,42.114895 29.9835066,42.1155211 C31.81595,42.1259136 33.6486437,42.1227833 35.4812122,42.1227833 L35.7558973,42.1227833 C35.7083436,42.0269971 35.6836908,41.9727808 35.6552837,41.920568 C34.9870294,40.6982609 34.1613474,39.5900209 33.2041419,38.5813233 C30.6666527,35.9070728 27.5814202,34.0856325 24.1583063,32.7972142 C21.4937987,31.7944015 18.734434,31.2071633 15.9036137,30.9482275 C15.2434935,30.8877507 14.5796192,30.8665901 13.8977245,30.8262722 Z M42.1004338,38.8391322 C40.2576036,38.9892598 38.552554,39.4802111 37.002179,40.4414538 C37.2736104,40.9720968 37.5240181,41.4740666 37.7899432,41.9678976 C37.828737,42.0397686 37.9409887,42.1156463 38.0197026,42.1161471 C39.3718538,42.1251623 40.7241302,42.1226581 42.1004338,42.1226581 L42.1004338,38.8391322 Z M13.8929691,39.2659755 L13.8929691,42.0954873 L20.0690655,42.0954873 C18.380034,40.253262 16.2608919,39.5190264 13.8929691,39.2659755 Z M42.1071914,34.7798007 C39.2793744,34.8977492 36.5858341,35.4978842 34.0070482,36.6550816 C34.6785562,37.4181157 35.3154,38.1415833 35.9620049,38.8761946 C37.8358701,37.6923272 39.9072081,37.1131024 42.1071914,36.9465722 L42.1071914,34.7798007 Z M42.1109456,30.8331588 C37.8983156,30.9638788 33.8860366,31.8204454 30.0136656,33.5506071 C30.1603312,33.6535303 30.2599436,33.7221457 30.3583046,33.7925142 C30.9758767,34.2342576 31.6010824,34.6659841 32.205765,35.124631 C32.3884712,35.2632393 32.5154896,35.2866537 32.7246006,35.18348 C35.0702483,34.0266582 37.5536765,33.3401278 40.1484805,33.0495138 C40.7980887,32.9767663 41.4512009,32.9345703 42.1109456,32.8775995 L42.1109456,30.8331588 Z M36.5029906,25.2848215 C37.7093523,25.4922956 38.5606882,24.379548 38.3134091,23.4489819 C37.1415864,23.3460587 36.3498177,24.1410216 36.5029906,25.2848215 Z M32.7237246,23.4765283 C32.6025879,24.6223316 33.4185089,25.4323197 34.5699336,25.2840702 C34.6929474,24.1093432 33.7790408,23.2234774 32.7237246,23.4765283 Z M17.6921325,24.605929 C18.8675843,24.6937017 19.671742,23.8802076 19.4992973,22.7590709 C18.2194777,22.5659959 17.4388466,23.7504893 17.6921325,24.605929 Z M13.9103637,22.7678356 C13.7454276,23.8952329 14.6252957,24.7727096 15.7341724,24.5868969 C15.8962303,23.4483559 15.0422664,22.5966726 13.9103637,22.7678356 Z M28.6684597,13.6257878 C28.7634419,13.8161081 28.8559213,13.8780874 29.060277,13.8763345 C29.4857572,13.8725782 29.916994,13.8629369 30.3362172,13.9229129 C31.7862289,14.1302618 32.7755957,15.4124196 32.6903745,16.9349819 C32.6142886,18.2962729 31.447847,19.4503401 30.0482672,19.4972941 C29.2998599,19.5224614 28.5503263,19.5135402 27.8008808,19.5075066 L27.0515095,19.503805 C27.0515095,19.5034294 27.0515095,19.503179 27.0515095,19.5028033 C26.0525069,19.5028033 25.0527534,19.5278455 24.054877,19.4962924 C22.8574004,19.4584788 21.8000819,18.5677297 21.5065005,17.4076524 C21.157857,16.0297084 21.8601497,14.6364888 23.1697529,14.0757952 C23.301777,14.0191999 23.4361787,13.887353 23.4963716,13.756633 C23.9949344,12.6754385 24.8224935,12.0462546 26.0134628,12.0024309 C27.2328392,11.9574802 28.1250964,12.5373311 28.6684597,13.6257878 Z M26.134975,13.8680706 C25.6364122,13.859431 25.2343334,14.2341867 25.1827752,14.7558146 C25.118828,15.401401 24.8350076,15.6635923 24.2025437,15.7601298 C23.9720335,15.795314 23.7220013,15.9170188 23.5504326,16.0749095 C23.2664871,16.3362243 23.2226877,16.6965807 23.3732326,17.0551842 C23.5287832,17.4255575 23.821864,17.6280233 24.2246937,17.6312787 C25.1721382,17.6387914 26.1197077,17.6336577 27.0672773,17.6336577 L27.0672773,17.6371636 C27.9627882,17.6371636 28.858299,17.6404191 29.7538098,17.6360367 C30.4149311,17.6327813 30.829524,17.255897 30.8210144,16.6784252 C30.8127551,16.1181072 30.3896525,15.7488608 29.7531841,15.7477339 L28.1600108,15.7472331 L28.1600108,15.7472331 C27.4572175,15.7453549 27.1302234,15.4487307 27.0612706,14.7535608 C27.0117146,14.2532188 26.6175197,13.8764597 26.134975,13.8680706 Z" id="Combined-Shape" fill="#4CAF50"></path>
        </g>
    </g>
</svg>