<?xml version="1.0" encoding="UTF-8"?>
<svg width="56px" height="56px" viewBox="0 0 56 56" version="1.1" xmlns="http://www.w3.org/2000/svg" xmlns:xlink="http://www.w3.org/1999/xlink">
    <title>commercial</title>
    <g id="Page-1" stroke="none" stroke-width="1" fill="none" fill-rule="evenodd">
        <g id="commercial">
            <circle id="Oval-Copy" fill="#F3E5F5" cx="28" cy="28" r="28"></circle>
            <path d="M40.0322581,41.9354839 L37.9677419,41.9354839 L37.9677419,16.6451613 C37.9677419,16.0750968 37.5056129,15.6129032 36.9354839,15.6129032 L29.1935484,15.6129032 L29.1935484,13.0322581 C29.1935484,12.4621935 28.7314194,12 28.1612903,12 L21,12 C20.4299355,12 19.9677419,12.4621935 19.9677419,13.0322581 L19.9677419,15.6129032 L19.1290323,15.6129032 C18.5589677,15.6129032 18.0967742,16.0750968 18.0967742,16.6451613 L18.0967742,41.9354839 L16.0322581,41.9354839 C15.4621935,41.9354839 15,42.3976774 15,42.9677419 C15,43.5378065 15.4621935,44 16.0322581,44 L40.0322581,44 C40.6023871,44 41.0645161,43.5378065 41.0645161,42.9677419 C41.0645161,42.3976774 40.6023871,41.9354839 40.0322581,41.9354839 Z M22.0322581,14.0645161 L27.1290323,14.0645161 L27.1290323,15.6129032 L22.0322581,15.6129032 L22.0322581,14.0645161 Z M25.9677419,41.9354839 L25.9677419,37.5483871 L30.0967742,37.5483871 L30.0967742,41.9354839 L25.9677419,41.9354839 Z M32.1612903,41.9354839 L32.1612903,37.5483871 L32.6129032,37.5483871 C33.1830323,37.5483871 33.6451613,37.0861935 33.6451613,36.516129 C33.6451613,35.9460645 33.1830323,35.483871 32.6129032,35.483871 C29.0223226,35.483871 26.7772903,35.483871 23.4516129,35.483871 C22.8815484,35.483871 22.4193548,35.9460645 22.4193548,36.516129 C22.4193548,37.0861935 22.8815484,37.5483871 23.4516129,37.5483871 L23.9032258,37.5483871 L23.9032258,41.9354839 L20.1612903,41.9354839 L20.1612903,17.6774194 L35.9032258,17.6774194 L35.9032258,41.9354839 L32.1612903,41.9354839 Z M26.5483871,20.7096774 C26.5483871,21.2797419 26.0861935,21.7419355 25.516129,21.7419355 L24.3548387,21.7419355 C23.7847742,21.7419355 23.3225806,21.2797419 23.3225806,20.7096774 C23.3225806,20.1396129 23.7847742,19.6774194 24.3548387,19.6774194 L25.516129,19.6774194 C26.0861935,19.6774194 26.5483871,20.1396129 26.5483871,20.7096774 Z M32.6774194,20.7096774 C32.6774194,21.2797419 32.2152903,21.7419355 31.6451613,21.7419355 L30.483871,21.7419355 C29.9137419,21.7419355 29.4516129,21.2797419 29.4516129,20.7096774 C29.4516129,20.1396129 29.9137419,19.6774194 30.483871,19.6774194 L31.6451613,19.6774194 C32.2152903,19.6774194 32.6774194,20.1396129 32.6774194,20.7096774 Z M26.5483871,24.5806452 C26.5483871,25.1507097 26.0861935,25.6129032 25.516129,25.6129032 L24.3548387,25.6129032 C23.7847742,25.6129032 23.3225806,25.1507097 23.3225806,24.5806452 C23.3225806,24.0105806 23.7847742,23.5483871 24.3548387,23.5483871 L25.516129,23.5483871 C26.0861935,23.5483871 26.5483871,24.0105806 26.5483871,24.5806452 Z M32.6774194,24.5806452 C32.6774194,25.1507097 32.2152903,25.6129032 31.6451613,25.6129032 L30.483871,25.6129032 C29.9137419,25.6129032 29.4516129,25.1507097 29.4516129,24.5806452 C29.4516129,24.0105806 29.9137419,23.5483871 30.483871,23.5483871 L31.6451613,23.5483871 C32.2152903,23.5483871 32.6774194,24.0105806 32.6774194,24.5806452 Z M26.5483871,28.4516129 C26.5483871,29.0216774 26.0861935,29.483871 25.516129,29.483871 L24.3548387,29.483871 C23.7847742,29.483871 23.3225806,29.0216774 23.3225806,28.4516129 C23.3225806,27.8815484 23.7847742,27.4193548 24.3548387,27.4193548 L25.516129,27.4193548 C26.0861935,27.4193548 26.5483871,27.8815484 26.5483871,28.4516129 Z M32.6774194,28.4516129 C32.6774194,29.0216774 32.2152903,29.483871 31.6451613,29.483871 L30.483871,29.483871 C29.9137419,29.483871 29.4516129,29.0216774 29.4516129,28.4516129 C29.4516129,27.8815484 29.9137419,27.4193548 30.483871,27.4193548 L31.6451613,27.4193548 C32.2152903,27.4193548 32.6774194,27.8815484 32.6774194,28.4516129 Z M26.5483871,32.3225806 C26.5483871,32.8926452 26.0861935,33.3548387 25.516129,33.3548387 L24.3548387,33.3548387 C23.7847742,33.3548387 23.3225806,32.8926452 23.3225806,32.3225806 C23.3225806,31.7525161 23.7847742,31.2903226 24.3548387,31.2903226 L25.516129,31.2903226 C26.0861935,31.2903226 26.5483871,31.7525161 26.5483871,32.3225806 Z M32.6774194,32.3225806 C32.6774194,32.8926452 32.2152903,33.3548387 31.6451613,33.3548387 L30.483871,33.3548387 C29.9137419,33.3548387 29.4516129,32.8926452 29.4516129,32.3225806 C29.4516129,31.7525161 29.9137419,31.2903226 30.483871,31.2903226 L31.6451613,31.2903226 C32.2152903,31.2903226 32.6774194,31.7525161 32.6774194,32.3225806 Z" id="Shape-Copy" fill="#9C27B0" fill-rule="nonzero"></path>
        </g>
    </g>
</svg>