<?xml version="1.0" encoding="UTF-8"?>
<svg width="56px" height="56px" viewBox="0 0 56 56" version="1.1" xmlns="http://www.w3.org/2000/svg" xmlns:xlink="http://www.w3.org/1999/xlink">
    <title>government </title>
    <g id="Page-1" stroke="none" stroke-width="1" fill="none" fill-rule="evenodd">
        <g id="government-">
            <circle id="Oval" fill="#FDE8E6" cx="28" cy="28" r="28"></circle>
            <path d="M26.9423904,37.0860533 L29.045329,37.0860533 L29.045329,26.9574457 L26.9423904,26.9574457 L26.9423904,37.0860533 Z M17.9099448,37.0879312 L20.0133842,37.0879312 L20.0133842,26.945803 L17.9099448,26.945803 L17.9099448,37.0879312 Z M35.9923625,37.0850518 L38.0924217,37.0850518 L38.0924217,26.9481816 L35.9923625,26.9481816 L35.9923625,37.0850518 Z M30.9627362,37.0900594 L34.065566,37.0900594 L34.065566,26.9498091 L30.9627362,26.9498091 L30.9627362,37.0900594 Z M21.9395547,37.0955677 L25.0333708,37.0955677 L25.0333708,26.9598243 L21.9395547,26.9598243 L21.9395547,37.0955677 Z M28.0320425,22.922077 C25.2311707,22.922077 22.4301736,22.9218266 19.6293018,22.9222022 C18.3902981,22.9224526 17.1511693,22.9144404 15.9121656,22.9289625 C15.3312849,22.9358479 14.8897404,23.4036823 14.8787895,23.9719189 C14.8684581,24.5302655 15.3086255,25.0082402 15.8798667,25.0545604 C15.9833986,25.0630733 16.0880573,25.0585665 16.1920901,25.0585665 C24.0637756,25.0586917 31.9354612,25.0586917 39.8071467,25.0585665 C39.9113046,25.0585665 40.0159633,25.0629481 40.1193701,25.0545604 C40.6420376,25.0124966 41.057167,24.6113885 41.1157559,24.0963575 C41.1718409,23.60336 40.8523565,23.1066068 40.364617,22.9712766 C40.1882245,22.9223274 39.9943055,22.9240801 39.8082734,22.9239549 C35.8828214,22.9215763 31.9574946,22.922077 28.0320425,22.922077 L28.0320425,22.922077 Z M14.902009,41.0995138 L41.0963515,41.0995138 L41.0963515,38.9959492 L14.902009,38.9959492 L14.902009,41.0995138 Z M20.9780969,21.0118055 L35.0016102,21.0118055 C34.6845044,17.9777051 31.8709884,14.726901 27.6870194,14.893779 C25.6891151,14.9735249 24.0104448,15.8000281 22.679677,17.2957961 C21.7378739,18.3544012 21.1691366,19.5909011 20.9780969,21.0118055 L20.9780969,21.0118055 Z M27.0616962,13.0523619 C27.0616962,12.6810489 27.0585665,12.3385296 27.0623222,11.9961354 C27.0688321,11.4156302 27.4621785,11 27.9997436,11 C28.5354308,11 28.9300291,11.4173829 28.9370398,11.9972621 C28.9412962,12.3396563 28.9377909,12.6820505 28.9377909,13.0493574 C31.0372242,13.2989859 32.8429622,14.146521 34.3290905,15.6300204 C35.816596,17.1147716 36.6725188,18.918131 36.9250266,21.0299581 C37.0533462,21.0355916 37.1637636,21.0443549 37.2741811,21.0446053 C38.2530403,21.0478602 39.2331514,21.02132 40.2107587,21.0578754 C41.8418568,21.1190932 43.0975107,22.5466327 42.9916002,24.1739752 C42.8967063,25.6319359 41.754224,26.788815 40.2734788,26.926023 C40.191855,26.9336596 40.1101061,26.9384168 40.0093283,26.9459282 L40.0093283,37.1093386 C40.1255044,37.1093386 40.236047,37.1092134 40.3465896,37.1093386 C40.9194582,37.1104653 41.4924521,37.1037051 42.0650703,37.1150974 C42.5893653,37.1256133 42.9872185,37.4984286 42.9924765,38.0184671 C43.0058718,39.3722698 43.0052458,40.7263229 42.9928521,42.0800004 C42.9880948,42.5975352 42.5889897,42.9731046 42.0725817,42.9975166 C41.9790649,43.0020235 41.8851725,42.9990189 41.7914053,42.9990189 C32.5948359,42.9991441 23.3982665,42.9991441 14.2016971,42.9991441 C13.325118,42.9991441 13,42.6727742 13,41.7931906 C13,40.5851088 12.9994993,39.377027 13.0017527,38.1689453 C13.0030046,37.4792745 13.3701863,37.114847 14.0654906,37.1120928 C14.6987007,37.1094638 15.332036,37.1114668 15.9875299,37.1114668 L15.9875299,26.9580716 C15.8108871,26.9335344 15.6279847,26.9131285 15.4468351,26.8822066 C13.966841,26.629198 12.9143702,25.2973035 13.0076366,23.7980302 C13.1005275,22.305392 14.3223801,21.0990629 15.821403,21.0561227 C16.7788548,21.0287062 17.7375584,21.0472343 18.6957613,21.0453564 C18.8093085,21.045106 18.9229808,21.0452312 19.0697033,21.0452312 C19.3192066,18.9464239 20.1647387,17.1393088 21.6493647,15.6514278 C23.1356183,14.1619193 24.9373502,13.3064973 27.0616962,13.0523619 L27.0616962,13.0523619 Z" id="Fill-1-Copy" fill="#F44336"></path>
        </g>
    </g>
</svg>