<?xml version="1.0" encoding="UTF-8"?>
<svg width="56px" height="56px" viewBox="0 0 56 56" version="1.1" xmlns="http://www.w3.org/2000/svg" xmlns:xlink="http://www.w3.org/1999/xlink">
    <title>industrial</title>
    <g id="Page-1" stroke="none" stroke-width="1" fill="none" fill-rule="evenodd">
        <g id="industrial">
            <circle id="Oval-Copy-3" fill="#ECEFF1" cx="28" cy="28" r="28"></circle>
            <path d="M42.8345784,20.4375385 C43.3744177,20.4375385 43.8271431,20.8451952 43.8834614,21.3821518 L43.8834614,21.3821518 L45.9869224,41.4339702 C45.9955002,41.4883198 46,41.5440052 46,41.6008156 C46,42.1832627 45.5277988,42.655464 44.9453516,42.655464 L44.9453516,42.655464 L11.0546484,42.655464 C10.4722012,42.655464 10,42.1832627 10,41.6008156 L10,41.6008156 L10,28.9448243 C10,28.3623772 10.4722012,27.890176 11.0546484,27.890176 L11.0546484,27.890176 L12.1094373,27.890176 L12.1094373,24.7262309 C12.1094373,24.1437837 12.5816386,23.6715825 13.1640857,23.6715825 L13.1640857,23.6715825 L27.366754,23.6715825 C27.9492011,23.6715825 28.4214023,24.1437837 28.4214023,24.7262309 L28.4214023,24.7262309 L28.4214023,27.890176 L29.6163189,27.890176 C30.1987661,27.890176 30.6709673,28.3623772 30.6709673,28.9448243 L30.6709673,28.9448243 L30.6709673,35.2729957 L35.0554218,35.2729957 L36.5125943,21.3821518 C36.5689125,20.8451952 37.0216379,20.4375385 37.5614772,20.4375385 L37.5614772,20.4375385 Z M19.2808353,38.4368705 L16.3281011,38.4368705 L16.3281011,40.5461672 L19.2808353,40.5461672 L19.2808353,38.4368705 Z M24.3429365,38.4368705 L21.3902023,38.4368705 L21.3902023,40.5461672 L24.3429365,40.5461672 L24.3429365,38.4368705 Z M28.5616706,29.9994727 L12.1092967,29.9994727 L12.1092967,40.5461672 L14.2188044,40.5461672 L14.2188044,37.3822221 C14.2188044,36.799775 14.6910056,36.3275738 15.2734527,36.3275738 L15.2734527,36.3275738 L25.3975145,36.3275738 C25.9799617,36.3275738 26.4521629,36.799775 26.4521629,37.3822221 L26.4521629,37.3822221 L26.4521629,40.5461672 L28.5616706,40.5461672 L28.5616706,29.9994727 Z M34.8341565,37.3822925 L30.6709673,37.3822925 L30.6709673,40.5461672 L34.5022939,40.5461672 L34.8341565,37.3822925 Z M41.8846918,22.5468352 L38.5112232,22.5468352 L36.6231214,40.5461672 L43.7727936,40.5461672 L41.8846918,22.5468352 Z M16.0466506,32.1088397 C16.6291168,32.1088397 17.101299,32.5810219 17.101299,33.1634881 C17.101299,33.7459543 16.6291168,34.2181364 16.0466506,34.2181364 C15.4641844,34.2181364 14.9920022,33.7459543 14.9920022,33.1634881 C14.9920022,32.5810219 15.4641844,32.1088397 16.0466506,32.1088397 Z M20.2652441,32.1088397 C20.8477103,32.1088397 21.3198924,32.5810219 21.3198924,33.1634881 C21.3198924,33.7459543 20.8477103,34.2181364 20.2652441,34.2181364 C19.6827779,34.2181364 19.2105957,33.7459543 19.2105957,33.1634881 C19.2105957,32.5810219 19.6827779,32.1088397 20.2652441,32.1088397 Z M24.4838375,32.1088397 C25.0663037,32.1088397 25.5384859,32.5810219 25.5384859,33.1634881 C25.5384859,33.7459543 25.0663037,34.2181364 24.4838375,34.2181364 C23.9013713,34.2181364 23.4291892,33.7459543 23.4291892,33.1634881 C23.4291892,32.5810219 23.9013713,32.1088397 24.4838375,32.1088397 Z M26.3121759,25.7808792 L14.2187341,25.7808792 L14.2187341,27.890176 L26.3121759,27.890176 L26.3121759,25.7808792 Z M38.0885905,12 C38.6710376,12 39.1432388,12.4722012 39.1432388,13.0546484 L39.1432388,13.0546484 L39.1432388,17.2734527 C39.1432388,17.8558999 38.6710376,18.3281011 38.0885905,18.3281011 C37.5061433,18.3281011 37.0339421,17.8558999 37.0339421,17.2734527 L37.0339421,17.2734527 L37.0339421,13.0546484 C37.0339421,12.4722012 37.5061433,12 38.0885905,12 Z M42.3074652,14.1094373 C42.8899123,14.1094373 43.3621135,14.5816386 43.3621135,15.1640857 L43.3621135,15.1640857 L43.3621135,17.2734527 C43.3621135,17.8558999 42.8899123,18.3281011 42.3074652,18.3281011 C41.7249477,18.3281011 41.2528168,17.8558999 41.2528168,17.2735231 L41.2528168,17.2735231 L41.2528168,15.1640857 C41.2528168,14.5816386 41.725018,14.1094373 42.3074652,14.1094373 Z" id="Combined-Shape" fill="#607D8B"></path>
        </g>
    </g>
</svg>