<?xml version="1.0" encoding="UTF-8"?>
<svg width="56px" height="56px" viewBox="0 0 56 56" version="1.1" xmlns="http://www.w3.org/2000/svg" xmlns:xlink="http://www.w3.org/1999/xlink">
    <title>residential</title>
    <g id="Page-1" stroke="none" stroke-width="1" fill="none" fill-rule="evenodd">
        <g id="residential">
            <circle id="Oval-Copy-2" fill="#E4F2FD" cx="28" cy="28" r="28"></circle>
            <path d="M20.8307256,13 L28.6753301,21.000528 L28.6753301,23.4605392 L34.9824199,23.4605392 L34.9824199,19.4447997 L40.5203524,19.4447997 L40.5203524,24.2169592 L43.5046827,28.3950216 L43.5046827,42.667812 L12,42.667812 L12,20.9979437 L19.917459,13 L20.8307256,13 Z M21.8668728,35.2531357 L18.8084573,35.2531357 L18.8084573,40.8218345 L21.8668728,40.8218345 L21.8668728,35.2531357 Z M37.8961108,35.2531357 L32.4379245,35.2531357 L32.4379245,40.8218345 L37.8961108,40.8218345 L37.8961108,35.2531357 Z M26.8293526,22.3005269 L13.8459775,22.3005269 L13.8459775,40.8218345 L16.9624798,40.8218345 L16.9624798,33.4071582 L23.7128503,33.4071582 L23.7128503,40.8218345 L30.591947,40.8218345 L30.591947,33.4071582 L39.7420883,33.4071582 L39.7420883,40.8218345 L41.6587052,40.8218345 L41.6587052,29.6753301 L26.8293526,29.6753301 L26.8293526,22.3005269 Z M23.7128503,24.1465044 L23.7128503,30.330529 L16.9624798,30.330529 L16.9624798,24.1465044 L23.7128503,24.1465044 Z M21.8668728,25.9924819 L18.8084573,25.9924819 L18.8084573,28.4845515 L21.8668728,28.4845515 L21.8668728,25.9924819 Z M39.0300947,25.3065167 L28.6753301,25.3065167 L28.6753301,27.8293526 L40.832138,27.8293526 L39.0300947,25.3065167 Z M38.6743749,21.2907772 L36.8283974,21.2907772 L36.8283974,23.4605392 L38.6743749,23.4605392 L38.6743749,21.2907772 Z M20.3699697,15.1667469 L15.1354543,20.4545494 L25.5547051,20.4545494 L20.3699697,15.1667469 Z" id="Combined-Shape-Copy" fill="#2196F3" fill-rule="nonzero"></path>
        </g>
    </g>
</svg>