<?xml version="1.0" encoding="UTF-8"?>
<svg width="56px" height="56px" viewBox="0 0 56 56" version="1.1" xmlns="http://www.w3.org/2000/svg" xmlns:xlink="http://www.w3.org/1999/xlink">
    <title>residential-and-commercial</title>
    <g id="Page-1" stroke="none" stroke-width="1" fill="none" fill-rule="evenodd">
        <g id="residential-and-commercial">
            <circle id="Oval-Copy-3" fill="#FFF2E0" cx="28" cy="28" r="28"></circle>
            <path d="M26.5220884,12 C27.0543936,12 27.4859438,12.4315502 27.4859438,12.9638554 L27.4859438,12.9638554 L27.4859438,13.7991968 L29.4136546,13.7991968 L29.4136546,12.9638554 C29.4136546,12.4315502 29.8452048,12 30.37751,12 L30.37751,12 L34.6827309,12 C35.2150361,12 35.6465863,12.4315502 35.6465863,12.9638554 L35.6465863,12.9638554 L35.6465863,25.1726908 L42.0062329,25.1726908 C42.3712129,25.1726908 42.7048353,25.3788273 42.8681767,25.7051888 L42.8681767,25.7051888 L44.7976867,29.5606104 C44.8634859,29.6920161 44.8981205,29.8391004 44.8995984,29.9859277 L44.8995984,29.9859277 L44.8995984,43.0361446 C44.8995984,43.5684498 44.4680482,44 43.935743,44 L43.935743,44 L12.9638554,44 C12.4315502,44 12,43.5684498 12,43.0361446 L12,43.0361446 L12,29.9919679 C12,29.8434056 12.0352129,29.6940723 12.1016546,29.5611888 L12.1016546,29.5611888 L14.0280803,25.7057671 C14.1912932,25.3790843 14.5251084,25.172755 14.8902811,25.172755 L14.8902811,25.172755 L21.253012,25.172755 L21.253012,12.9638554 C21.253012,12.4315502 21.6845622,12 22.2168675,12 L22.2168675,12 Z M21.253012,30.9558876 L13.9277108,30.9558876 L13.9277108,42.0723534 L21.253012,42.0723534 L21.253012,30.9558876 Z M25.5582329,13.9277108 L23.1807229,13.9277108 L23.1807229,42.0723534 L25.5582329,42.0723534 L25.5582329,34.9398233 C25.5582329,34.4075181 25.9897831,33.9759679 26.5220884,33.9759679 L26.5220884,33.9759679 L30.37751,33.9759679 C30.9098153,33.9759679 31.3413655,34.4075181 31.3413655,34.9398233 L31.3413655,34.9398233 L31.3413655,42.0723534 L33.7188755,42.0723534 L33.7188755,13.9277108 L31.3413655,13.9277108 L31.3413655,14.7630522 C31.3413655,15.2953574 30.9098153,15.7269076 30.37751,15.7269076 L30.37751,15.7269076 L26.5220884,15.7269076 C25.9897831,15.7269076 25.5582329,15.2953574 25.5582329,14.7630522 L25.5582329,14.7630522 L25.5582329,13.9277108 Z M29.4136546,35.9036787 L27.4859438,35.9036787 L27.4859438,42.0723534 L29.4136546,42.0723534 L29.4136546,35.9036787 Z M42.9718876,30.9558233 L35.6465863,30.9558233 L35.6465863,42.0722892 L42.9718876,42.0722892 L42.9718876,30.9558233 Z M17.5903614,37.4679518 C18.1226667,37.4679518 18.5542169,37.899502 18.5542169,38.4318072 L18.5542169,38.4318072 L18.5542169,39.4599197 C18.5037751,40.7377992 16.6774618,40.7387631 16.626506,39.4599197 L16.626506,39.4599197 L16.626506,38.4318072 C16.626506,37.899502 17.0580562,37.4679518 17.5903614,37.4679518 Z M39.3092369,37.4679518 C39.8415422,37.4679518 40.2730924,37.899502 40.2730924,38.4318072 L40.2730924,38.4318072 L40.2730924,39.4599197 C40.2226506,40.7377992 38.3963373,40.7387631 38.3453815,39.4599197 L38.3453815,39.4599197 L38.3453815,38.4318072 C38.3453815,37.899502 38.7769317,37.4679518 39.3092369,37.4679518 Z M17.5903614,32.6044016 C18.1226667,32.6044016 18.5542169,33.0358876 18.5542169,33.568257 L18.5542169,33.568257 L18.5542169,34.5963695 C18.5037751,35.874249 16.6774618,35.8752129 16.626506,34.5963695 L16.626506,34.5963695 L16.626506,33.568257 C16.626506,33.0359518 17.0580562,32.6044016 17.5903614,32.6044016 Z M39.3092369,32.6044016 C39.8415422,32.6044016 40.2730924,33.0358876 40.2730924,33.568257 L40.2730924,33.568257 L40.2730924,34.5963695 C40.2226506,35.874249 38.3963373,35.8752129 38.3453815,34.5963695 L38.3453815,34.5963695 L38.3453815,33.568257 C38.3453815,33.0359518 38.7769317,32.6044016 39.3092369,32.6044016 Z M30.37751,26.0722892 C30.9098153,26.0722892 31.3413655,26.5038394 31.3413655,27.0361446 L31.3413655,27.0361446 L31.3413655,30.8915663 C31.3413655,31.4238715 30.9098153,31.8554217 30.37751,31.8554217 L30.37751,31.8554217 L26.5220884,31.8554217 C25.9897831,31.8554217 25.5582329,31.4238715 25.5582329,30.8915663 L25.5582329,30.8915663 L25.5582329,27.0361446 C25.5582329,26.5038394 25.9897831,26.0722892 26.5220884,26.0722892 L26.5220884,26.0722892 Z M29.4136546,28 L27.4859438,28 L27.4859438,29.9277108 L29.4136546,29.9277108 L29.4136546,28 Z M41.4107631,27.1004659 L35.6465863,27.1004659 L35.6465863,29.0281767 L42.3755181,29.0281767 L41.4107631,27.1004659 Z M21.253012,27.1004659 L15.4862008,27.1004659 L14.522988,29.0281767 L21.253012,29.0281767 L21.253012,27.1004659 Z M30.37751,17.7188755 C30.9098153,17.7188755 31.3413655,18.1504257 31.3413655,18.6827309 L31.3413655,18.6827309 L31.3413655,22.5381526 C31.3413655,23.0704578 30.9098153,23.502008 30.37751,23.502008 L30.37751,23.502008 L26.5220884,23.502008 C25.9897831,23.502008 25.5582329,23.0704578 25.5582329,22.5381526 L25.5582329,22.5381526 L25.5582329,18.6827309 C25.5582329,18.1504257 25.9897831,17.7188755 26.5220884,17.7188755 L26.5220884,17.7188755 Z M29.4136546,19.6465863 L27.4859438,19.6465863 L27.4859438,21.5742972 L29.4136546,21.5742972 L29.4136546,19.6465863 Z" id="Combined-Shape-Copy-2" fill="#FF9800" fill-rule="nonzero"></path>
        </g>
    </g>
</svg>