<?xml version="1.0" encoding="UTF-8"?>
<svg width="56px" height="56px" viewBox="0 0 56 56" version="1.1" xmlns="http://www.w3.org/2000/svg" xmlns:xlink="http://www.w3.org/1999/xlink">
    <title>tourist</title>
    <g id="Page-1" stroke="none" stroke-width="1" fill="none" fill-rule="evenodd">
        <g id="tourist">
            <circle id="Oval-Copy-3" fill="#E8EAF6" cx="28" cy="28" r="28"></circle>
            <g id="mountain-(1)" transform="translate(10.000000, 13.000000)" fill="#3F51B5" fill-rule="nonzero">
                <path d="M34.9453125,24.6538696 L34.1600647,24.6538696 L33.338562,23.2193299 L33.3347168,23.2127381 C32.6991577,22.1209717 31.6777039,20.3510742 31.0926819,19.3312683 C30.602417,18.4897156 29.8611145,18.0071411 29.0580139,18.0071411 C29.0574646,18.0071411 29.0569153,18.0071411 29.056366,18.0071411 C28.25354,18.0079651 27.5127869,18.4910889 27.0244446,19.3329162 L27.0178528,19.3441773 C27.0032959,19.3699951 26.988739,19.3960877 26.9736328,19.4224549 L21.0852356,9.22274782 C20.4856567,8.18371582 19.5883484,7.5871582 18.6234742,7.58605957 C18.6226502,7.58605957 18.6218262,7.58605957 18.6207275,7.58605957 C17.6558533,7.58605957 16.7568969,8.1817932 16.1534729,9.22274782 C16.1534729,9.22274782 14.2322387,12.5524292 12.9981994,14.690094 C12.8062133,14.3580322 12.6600952,14.1047973 12.65625,14.0984802 C12.0572205,13.0588989 11.1596375,12.4620666 10.1942139,12.4612426 C10.1936645,12.4612426 10.1931152,12.4612426 10.1922912,12.4612426 C9.22686764,12.4612426 8.328186,13.0575256 7.72640993,14.0979309 L1.63531491,24.6538696 L1.0546875,24.6538696 C0.472137469,24.6538696 -3.55271368e-15,25.1262817 -3.55271368e-15,25.7088318 C-3.55271368e-15,26.2911072 0.472137469,26.7635193 1.0546875,26.7635193 L34.9453125,26.7635193 C35.5278625,26.7635193 36,26.2911072 36,25.7088318 C36,25.1262817 35.5278625,24.6538696 34.9453125,24.6538696 L34.9453125,24.6538696 Z M9.55288695,15.1531677 C9.80145267,14.7233277 10.0527649,14.5706176 10.1922912,14.5706176 L10.192566,14.5706176 C10.331543,14.5708924 10.5817566,14.723053 10.8292236,15.1523437 C10.869873,15.2229309 11.8284301,16.8832398 12.0566711,17.2727051 C12.2522278,17.6064148 12.6134033,17.8132324 12.9998474,17.8132324 L13.002594,17.8132324 C13.3898621,17.8121338 13.7513123,17.6033936 13.9460449,17.2672119 C14.6640015,16.0254822 17.97995,10.2782593 17.9794006,10.2788086 C18.2290649,9.84814453 18.4809265,9.69543457 18.6210022,9.69543457 L18.6212769,9.69543457 C18.7605285,9.69570921 19.0107422,9.84786989 19.2582092,10.2771606 L26.0293579,22.0056152 C26.2240906,22.3426209 26.5866394,22.5519104 26.9758301,22.5519104 L26.9763794,22.5519104 C27.3658447,22.5519104 27.7286682,22.3420715 27.9234008,22.004242 L28.1645508,21.5859375 C28.4169617,21.148407 28.655365,20.7347717 28.8517456,20.3865051 C28.9421082,20.2321472 29.0181885,20.1615601 29.0585632,20.1316223 C29.0994873,20.1615601 29.1763916,20.2324219 29.2664795,20.3870545 C29.8490295,21.4024658 30.8721313,23.1751098 31.5101623,24.2707215 L31.7293396,24.6538696 L4.06988522,24.6538696 L9.55288695,15.1531677 Z" id="Shape"></path>
                <path d="M8.76956175,8.55999759 C11.1296997,8.55999759 13.0495605,6.63986208 13.0495605,4.2799988 C13.0495605,1.91986087 11.1296997,0 8.76956175,0 C6.40969847,0 4.48956295,1.91986087 4.48956295,4.2799988 C4.48956295,6.63986208 6.40969847,8.55999759 8.76956175,8.55999759 Z M8.76956175,2.109375 C9.96652223,2.109375 10.9401855,3.08303831 10.9401855,4.2799988 C10.9401855,5.47668457 9.96652223,6.45034788 8.76956175,6.45034788 C7.57287598,6.45034788 6.59921266,5.47668457 6.59921266,4.2799988 C6.59921266,3.08303831 7.57287598,2.109375 8.76956175,2.109375 Z" id="Shape"></path>
            </g>
        </g>
    </g>
</svg>