<?xml version="1.0" encoding="UTF-8"?>
<svg width="27px" height="26px" viewBox="0 0 27 26" version="1.1" xmlns="http://www.w3.org/2000/svg" xmlns:xlink="http://www.w3.org/1999/xlink">
    <!-- Generator: Sketch 63.1 (92452) - https://sketch.com -->
    <title>Shape</title>
    <desc>Created with Sketch.</desc>
    <g id="Page-1-Copy" stroke="none" stroke-width="1" fill="none" fill-rule="evenodd">
        <g id="Artboard-Copy-46" transform="translate(-1114.000000, -256.000000)" fill="#9C27B0" fill-rule="nonzero" stroke="#9C27B0" stroke-width="0.2">
            <g id="Group-34" transform="translate(1082.000000, 109.000000)">
                <g id="Group-32" transform="translate(14.000000, 50.000000)">
                    <g id="Group-31" transform="translate(0.000000, 77.000000)">
                        <g id="坐标" transform="translate(19.000000, 20.200000)">
                            <path d="M24.6364179,17.4589333 L22.113539,19.9944267 C21.8688715,20.2319159 21.4799604,20.2285195 21.2394365,19.986793 C20.9989126,19.7450665 20.9955331,19.3542108 21.2318408,19.10832 L22.7844776,17.5466667 L12.42733,17.5466667 C12.1504175,19.4720351 10.6454744,20.9845029 8.72968491,21.2628 L8.72968491,24.44 C8.72968491,24.7860984 8.45051255,25.0666667 8.10613599,25.0666667 C7.76175943,25.0666667 7.48258706,24.7860984 7.48258706,24.44 L7.48258706,21.2628 C5.56679761,20.9845029 4.06185451,19.4720351 3.78494196,17.5466667 L0.623548922,17.5466667 C0.279172362,17.5466667 -2.67164069e-14,17.2660984 -2.67164069e-14,16.92 C-2.67164069e-14,16.5739016 0.279172362,16.2933333 0.623548922,16.2933333 L3.78494196,16.2933333 C4.06185451,14.3679649 5.56679761,12.8554971 7.48258706,12.5772 L7.48258706,2.18456 L5.93618574,3.73744 C5.69002967,3.96481239 5.30924601,3.956614 5.07300496,3.71885545 C4.83676391,3.4810969 4.82914529,3.0983981 5.05573466,2.85133333 L7.54993035,0.344666667 C7.68474942,0.0774686123 7.9888923,-0.056456156 8.27574129,0.0250666667 C8.3879801,0.0501333333 8.49398342,0.106533333 8.58128027,0.194266667 L11.2263748,2.85133333 C11.4701934,3.09602493 11.4704726,3.49302897 11.2269983,3.73806667 C10.9835241,3.98310436 10.5884952,3.98338493 10.3446766,3.73869333 L8.72968491,2.11312 L8.72968491,12.5784533 C10.6450829,12.8566098 12.1499113,14.3684523 12.42733,16.2933333 L22.840597,16.2933333 L21.2318408,14.6765333 C21.0055996,14.4291465 21.0137572,14.0464589 21.2503329,13.8090367 C21.4869086,13.5716144 21.8677034,13.5639577 22.113539,13.79168 L24.7586335,16.4487467 C24.8831972,16.5727782 24.9497851,16.7439501 24.9419569,16.92 C24.9419185,17.1412555 24.8257894,17.346093 24.6364179,17.4589333 Z M8.10613599,20.0533333 C9.82801879,20.0533333 11.2238806,18.6504922 11.2238806,16.92 C11.2238806,15.1895078 9.82801879,13.7866667 8.10613599,13.7866667 C6.38425318,13.7866667 4.98839138,15.1895078 4.98839138,16.92 C4.98839138,18.6504922 6.38425318,20.0533333 8.10613599,20.0533333 Z M8.10613599,18.8 C7.07300631,18.8 6.23548922,17.9582953 6.23548922,16.92 C6.23548922,15.8817047 7.07300631,15.04 8.10613599,15.04 C9.13926567,15.04 9.97678275,15.8817047 9.97678275,16.92 C9.97678275,17.9582953 9.13926567,18.8 8.10613599,18.8 Z" id="Shape"></path>
                        </g>
                    </g>
                </g>
            </g>
        </g>
    </g>
</svg>