<?xml version="1.0" encoding="UTF-8"?>
<svg width="30px" height="31px" viewBox="0 0 30 31" version="1.1" xmlns="http://www.w3.org/2000/svg" xmlns:xlink="http://www.w3.org/1999/xlink">
    <!-- Generator: Sketch 60.1 (88133) - https://sketch.com -->
    <title>2d_seismic</title>
    <desc>Created with Sketch.</desc>
    <g id="Page-1" stroke="none" stroke-width="1" fill="none" fill-rule="evenodd">
        <g id="2d_seismic" transform="translate(0.000000, 0.500000)">
            <g id="Group-86">
                <circle id="Oval-Copy-4" fill="#F6E1E1" cx="15" cy="15" r="15"></circle>
                <g id="Group-85" transform="translate(7.000000, 10.000000)" fill-rule="nonzero">
                    <path d="M0.963807943,2.556183 C1.22666465,2.64380191 1.57714027,2.73142081 1.83999698,2.73142081 C2.1904726,2.73142081 2.54094821,2.64380191 2.71618602,2.556183 C2.89142383,2.4685641 3.15428054,2.3809452 3.32951835,2.20570739 C3.41713725,2.20570739 3.50475616,2.11808848 3.59237506,2.03046958 C3.67999396,1.94285068 3.85523177,1.85523177 3.94285068,1.76761287 C4.03046958,1.67999396 4.3809452,1.67999396 4.64380191,1.76761287 C4.73142081,1.85523177 4.81903971,1.85523177 4.99427752,2.03046958 C5.25713423,2.29332629 5.51999095,2.4685641 5.78284766,2.556183 C6.04570437,2.64380191 6.39617999,2.73142081 6.6590367,2.73142081 C7.00951231,2.73142081 7.35998793,2.64380191 7.53522574,2.556183 C7.79808245,2.4685641 7.97332026,2.29332629 8.14855806,2.11808848 C8.23617697,2.11808848 8.23617697,2.03046958 8.32379587,2.03046958 C8.41141478,1.94285068 8.58665258,1.85523177 8.67427149,1.76761287 C8.76189039,1.76761287 9.11236601,1.67999396 9.37522272,1.76761287 C9.46284162,1.85523177 9.55046053,1.85523177 9.72569833,2.03046958 C9.98855505,2.29332629 10.2514118,2.4685641 10.5142685,2.556183 C10.7771252,2.64380191 11.1276008,2.73142081 11.3904575,2.73142081 C11.7409331,2.73142081 12.0914087,2.64380191 12.2666465,2.556183 C12.4418844,2.4685641 12.7047411,2.3809452 12.8799789,2.20570739 C12.9675978,2.20570739 13.0552167,2.11808848 13.1428356,2.03046958 C13.2304545,1.94285068 13.4056923,1.85523177 13.4933112,1.76761287 C13.5809301,1.76761287 13.9314057,1.67999396 14.1942624,1.76761287 C14.2818813,1.85523177 14.3695002,1.85523177 14.544738,2.03046958 C14.8075948,2.29332629 15.2456893,2.29332629 15.4209271,2.03046958 C15.508546,1.94285068 15.5961649,1.76761287 15.5961649,1.59237506 C15.5961649,1.41713725 15.508546,1.24189944 15.4209271,1.15428054 C15.1580704,0.891423829 14.8952137,0.716186021 14.632357,0.628567117 C14.3695002,0.540948213 14.0190246,0.453329309 13.7561679,0.453329309 C13.4056923,0.453329309 13.0552167,0.540948213 12.8799789,0.628567117 C12.7047411,0.716186021 12.4418844,0.803804925 12.2666465,0.979042733 C12.1790276,0.979042733 12.0914087,1.06666164 12.0037898,1.15428054 C11.9161709,1.24189944 11.7409331,1.32951835 11.6533142,1.41713725 C11.5656953,1.41713725 11.2152197,1.50475616 10.952363,1.41713725 C10.8647441,1.32951835 10.7771252,1.32951835 10.6018874,1.15428054 C10.3390307,0.891423829 10.0761739,0.716186021 9.81331724,0.628567117 C9.55046053,0.540948213 9.19998491,0.453329309 8.9371282,0.453329309 C8.58665258,0.453329309 8.23617697,0.540948213 8.06093916,0.628567117 C7.79808245,0.716186021 7.62284464,0.891423829 7.44760683,1.06666164 C7.35998793,1.06666164 7.35998793,1.15428054 7.27236902,1.15428054 C7.18475012,1.24189944 7.00951231,1.32951835 6.92189341,1.41713725 C6.8342745,1.50475616 6.48379889,1.50475616 6.22094218,1.41713725 C6.13332327,1.32951835 6.04570437,1.32951835 5.87046656,1.15428054 C5.69522875,0.803804925 5.43237204,0.716186021 5.16951533,0.540948213 C4.90665862,0.453329309 4.556183,0.365710406 4.29332629,0.365710406 C3.94285068,0.365710406 3.59237506,0.453329309 3.41713725,0.540948213 C3.15428054,0.628567117 2.97904273,0.803804925 2.80380493,0.891423829 C2.71618602,0.891423829 2.62856712,0.979042733 2.54094821,1.06666164 C2.45332931,1.24189944 2.36571041,1.24189944 2.1904726,1.32951835 C2.10285369,1.41713725 1.75237808,1.41713725 1.40190246,1.32951835 C1.31428356,1.24189944 1.22666465,1.24189944 1.05142685,1.06666164 C0.788570135,0.803804925 0.350475616,0.803804925 0.175237808,1.06666164 C0.0876189039,1.24189944 0,1.41713725 0,1.59237506 C0,1.76761287 0.0876189039,1.94285068 0.175237808,2.03046958 C0.43809452,2.29332629 0.700951231,2.4685641 0.963807943,2.556183 Z" id="Path" fill="#1565C0"></path>
                    <path d="M0.963807943,4.92189341 C1.22666465,5.00951231 1.57714027,5.09713122 1.83999698,5.09713122 C2.1904726,5.09713122 2.54094821,5.00951231 2.71618602,4.92189341 C2.89142383,4.8342745 3.15428054,4.7466556 3.32951835,4.57141779 C3.41713725,4.57141779 3.50475616,4.48379889 3.59237506,4.39617999 C3.67999396,4.30856108 3.85523177,4.22094218 3.94285068,4.13332327 C4.03046958,4.04570437 4.3809452,4.04570437 4.64380191,4.13332327 C4.73142081,4.22094218 4.81903971,4.22094218 4.99427752,4.39617999 C5.25713423,4.6590367 5.51999095,4.8342745 5.78284766,4.92189341 C6.04570437,5.00951231 6.39617999,5.09713122 6.6590367,5.09713122 C7.00951231,5.09713122 7.35998793,5.00951231 7.53522574,4.92189341 C7.79808245,4.8342745 7.97332026,4.6590367 8.14855806,4.48379889 C8.23617697,4.48379889 8.23617697,4.39617999 8.32379587,4.39617999 C8.41141478,4.30856108 8.58665258,4.22094218 8.67427149,4.13332327 C8.76189039,4.04570437 9.11236601,4.04570437 9.37522272,4.13332327 C9.46284162,4.22094218 9.55046053,4.22094218 9.72569833,4.39617999 C9.98855505,4.6590367 10.2514118,4.8342745 10.5142685,4.92189341 C10.7771252,5.00951231 11.1276008,5.09713122 11.3904575,5.09713122 C11.7409331,5.09713122 12.0914087,5.00951231 12.2666465,4.92189341 C12.4418844,4.8342745 12.7047411,4.7466556 12.8799789,4.57141779 C12.9675978,4.57141779 13.0552167,4.48379889 13.1428356,4.39617999 C13.2304545,4.30856108 13.4056923,4.22094218 13.4933112,4.13332327 C13.5809301,4.04570437 13.9314057,4.04570437 14.1942624,4.13332327 C14.2818813,4.22094218 14.3695002,4.22094218 14.544738,4.39617999 C14.8075948,4.6590367 15.2456893,4.6590367 15.4209271,4.39617999 C15.508546,4.30856108 15.5961649,4.13332327 15.5961649,3.95808547 C15.5961649,3.78284766 15.508546,3.60760985 15.4209271,3.51999095 C15.1580704,3.25713423 14.8952137,3.08189643 14.632357,2.99427752 C14.3695002,2.90665862 14.0190246,2.81903971 13.7561679,2.81903971 C13.4056923,2.81903971 13.0552167,2.90665862 12.8799789,2.99427752 C12.7047411,3.08189643 12.4418844,3.16951533 12.2666465,3.34475314 C12.1790276,3.34475314 12.0914087,3.43237204 12.0037898,3.51999095 C11.9161709,3.60760985 11.7409331,3.69522875 11.6533142,3.78284766 C11.5656953,3.78284766 11.2152197,3.87046656 10.952363,3.78284766 C10.8647441,3.69522875 10.7771252,3.69522875 10.6018874,3.51999095 C10.3390307,3.25713423 10.0761739,3.08189643 9.81331724,2.99427752 C9.55046053,2.90665862 9.19998491,2.81903971 8.9371282,2.81903971 C8.58665258,2.81903971 8.23617697,2.90665862 8.06093916,2.99427752 C7.79808245,3.08189643 7.62284464,3.25713423 7.44760683,3.43237204 C7.35998793,3.43237204 7.35998793,3.51999095 7.27236902,3.51999095 C7.18475012,3.60760985 7.00951231,3.69522875 6.92189341,3.78284766 C6.8342745,3.78284766 6.48379889,3.87046656 6.22094218,3.78284766 C6.13332327,3.69522875 6.04570437,3.69522875 5.87046656,3.51999095 C5.60760985,3.25713423 5.34475314,3.08189643 5.08189643,2.99427752 C4.81903971,2.90665862 4.4685641,2.81903971 4.20570739,2.81903971 C3.85523177,2.81903971 3.50475616,2.90665862 3.32951835,2.99427752 C3.15428054,2.99427752 2.97904273,3.16951533 2.80380493,3.34475314 C2.71618602,3.34475314 2.62856712,3.43237204 2.54094821,3.51999095 C2.45332931,3.60760985 2.2780915,3.69522875 2.1904726,3.78284766 C2.10285369,3.78284766 1.75237808,3.87046656 1.48952137,3.78284766 C1.40190246,3.69522875 1.31428356,3.69522875 1.13904575,3.51999095 C0.876189039,3.25713423 0.43809452,3.25713423 0.262856712,3.51999095 C0.175237808,3.60760985 0.0876189039,3.78284766 0.0876189039,3.95808547 C0.0876189039,4.13332327 0.175237808,4.30856108 0.262856712,4.39617999 C0.43809452,4.6590367 0.700951231,4.8342745 0.963807943,4.92189341 Z" id="Path" fill="#E7343F"></path>
                    <path d="M0.963807943,7.28760381 C1.22666465,7.37522272 1.57714027,7.46284162 1.83999698,7.46284162 C2.01523479,7.46284162 2.45332931,7.46284162 2.71618602,7.28760381 C2.89142383,7.19998491 3.15428054,7.11236601 3.32951835,6.9371282 C3.41713725,6.9371282 3.50475616,6.84950929 3.59237506,6.76189039 C3.67999396,6.67427149 3.85523177,6.58665258 3.94285068,6.49903368 C4.03046958,6.41141478 4.3809452,6.41141478 4.64380191,6.49903368 C4.81903971,6.58665258 4.90665862,6.67427149 4.99427752,6.84950929 C5.25713423,7.11236601 5.51999095,7.28760381 5.78284766,7.37522272 C6.04570437,7.46284162 6.39617999,7.55046053 6.6590367,7.55046053 C6.8342745,7.55046053 7.27236902,7.55046053 7.53522574,7.37522272 C7.79808245,7.28760381 7.97332026,7.11236601 8.14855806,6.9371282 C8.23617697,6.9371282 8.23617697,6.84950929 8.32379587,6.84950929 C8.41141478,6.76189039 8.58665258,6.67427149 8.67427149,6.58665258 C8.76189039,6.49903368 9.11236601,6.49903368 9.37522272,6.58665258 C9.46284162,6.67427149 9.55046053,6.67427149 9.72569833,6.84950929 C9.98855505,7.11236601 10.2514118,7.28760381 10.5142685,7.37522272 C10.7771252,7.46284162 11.1276008,7.55046053 11.3904575,7.55046053 C11.5656953,7.55046053 12.0037898,7.55046053 12.2666465,7.37522272 C12.4418844,7.28760381 12.7047411,7.19998491 12.8799789,7.0247471 C12.9675978,7.0247471 13.0552167,6.9371282 13.1428356,6.84950929 C13.2304545,6.76189039 13.4056923,6.67427149 13.4933112,6.58665258 C13.5809301,6.49903368 13.9314057,6.49903368 14.1942624,6.58665258 C14.2818813,6.67427149 14.3695002,6.67427149 14.544738,6.84950929 C14.8075948,7.11236601 15.2456893,7.11236601 15.4209271,6.84950929 C15.508546,6.76189039 15.5961649,6.58665258 15.5961649,6.41141478 C15.5961649,6.23617697 15.508546,6.06093916 15.4209271,5.97332026 C15.1580704,5.71046354 14.8952137,5.53522574 14.632357,5.44760683 C14.3695002,5.35998793 14.0190246,5.27236902 13.7561679,5.27236902 C13.4056923,5.27236902 13.0552167,5.35998793 12.8799789,5.44760683 C12.7047411,5.53522574 12.4418844,5.62284464 12.2666465,5.79808245 C12.1790276,5.79808245 12.0914087,5.88570135 12.0037898,5.97332026 C11.9161709,6.06093916 11.7409331,6.14855806 11.6533142,6.23617697 C11.5656953,6.23617697 11.2152197,6.32379587 10.952363,6.23617697 C10.8647441,6.14855806 10.7771252,6.14855806 10.6018874,5.97332026 C10.3390307,5.71046354 10.0761739,5.53522574 9.81331724,5.44760683 C9.55046053,5.35998793 9.19998491,5.27236902 8.9371282,5.27236902 C8.58665258,5.27236902 8.23617697,5.35998793 8.06093916,5.44760683 C7.79808245,5.53522574 7.62284464,5.71046354 7.44760683,5.88570135 C7.35998793,5.88570135 7.35998793,5.97332026 7.27236902,5.97332026 C7.18475012,6.06093916 7.00951231,6.14855806 6.92189341,6.23617697 C6.8342745,6.23617697 6.48379889,6.32379587 6.22094218,6.23617697 C6.13332327,6.14855806 6.04570437,6.14855806 5.87046656,5.97332026 C5.60760985,5.71046354 5.34475314,5.53522574 5.08189643,5.44760683 C4.81903971,5.35998793 4.4685641,5.27236902 4.20570739,5.27236902 C3.85523177,5.27236902 3.50475616,5.35998793 3.32951835,5.44760683 C3.15428054,5.53522574 2.89142383,5.62284464 2.71618602,5.79808245 C2.62856712,5.79808245 2.54094821,5.88570135 2.45332931,5.97332026 C2.36571041,6.06093916 2.1904726,6.14855806 2.10285369,6.23617697 C2.01523479,6.23617697 1.66475917,6.32379587 1.40190246,6.23617697 C1.31428356,6.14855806 1.22666465,6.14855806 1.05142685,5.97332026 C0.788570135,5.71046354 0.350475616,5.71046354 0.175237808,5.97332026 C0.0876189039,6.06093916 0,6.23617697 0,6.41141478 C0,6.58665258 0.0876189039,6.76189039 0.175237808,6.84950929 C0.43809452,7.0247471 0.700951231,7.19998491 0.963807943,7.28760381 Z" id="Path" fill="#1565C0"></path>
                    <path d="M14.8075948,7.81331724 C14.544738,7.72569833 14.1942624,7.63807943 13.9314057,7.63807943 C13.5809301,7.63807943 13.2304545,7.72569833 13.0552167,7.81331724 C12.8799789,7.90093614 12.6171222,7.98855505 12.4418844,8.16379285 C12.3542655,8.16379285 12.2666465,8.25141176 12.1790276,8.33903066 C12.0914087,8.42664957 11.9161709,8.51426847 11.828552,8.60188737 C11.7409331,8.60188737 11.3904575,8.68950628 11.1276008,8.60188737 C11.0399819,8.51426847 10.952363,8.51426847 10.7771252,8.33903066 C10.5142685,8.07617395 10.2514118,7.90093614 9.98855505,7.81331724 C9.72569833,7.72569833 9.37522272,7.63807943 9.11236601,7.63807943 C8.76189039,7.63807943 8.41141478,7.72569833 8.23617697,7.81331724 C7.97332026,7.90093614 7.79808245,8.07617395 7.62284464,8.25141176 C7.53522574,8.25141176 7.53522574,8.33903066 7.44760683,8.33903066 C7.35998793,8.42664957 7.18475012,8.51426847 7.09713122,8.60188737 C7.00951231,8.68950628 6.6590367,8.68950628 6.39617999,8.60188737 C6.30856108,8.51426847 6.22094218,8.51426847 6.04570437,8.33903066 C5.78284766,8.07617395 5.51999095,7.90093614 5.25713423,7.81331724 C4.99427752,7.72569833 4.64380191,7.63807943 4.3809452,7.63807943 C4.03046958,7.63807943 3.67999396,7.72569833 3.50475616,7.81331724 C3.32951835,7.90093614 3.06666164,7.98855505 2.89142383,8.16379285 C2.80380493,8.16379285 2.71618602,8.25141176 2.62856712,8.33903066 C2.54094821,8.42664957 2.36571041,8.51426847 2.2780915,8.60188737 C2.1904726,8.68950628 1.83999698,8.68950628 1.57714027,8.60188737 C1.48952137,8.51426847 1.40190246,8.51426847 1.22666465,8.33903066 C0.963807943,8.07617395 0.525713423,8.07617395 0.350475616,8.33903066 C0.262856712,8.42664957 0.175237808,8.60188737 0.175237808,8.77712518 C0.175237808,8.95236299 0.262856712,9.1276008 0.350475616,9.2152197 C0.613332327,9.47807641 0.876189039,9.65331422 1.13904575,9.74093312 C1.40190246,9.82855203 1.75237808,9.91617093 2.01523479,9.91617093 C2.36571041,9.91617093 2.71618602,9.82855203 2.89142383,9.74093312 C3.06666164,9.65331422 3.32951835,9.56569532 3.50475616,9.39045751 C3.59237506,9.39045751 3.67999396,9.3028386 3.76761287,9.2152197 C3.85523177,9.1276008 4.03046958,9.03998189 4.11808848,8.95236299 C4.20570739,8.86474408 4.556183,8.86474408 4.81903971,8.95236299 C4.90665862,9.03998189 4.99427752,9.03998189 5.16951533,9.2152197 C5.43237204,9.47807641 5.69522875,9.65331422 5.95808547,9.74093312 C6.22094218,9.82855203 6.57141779,9.91617093 6.8342745,9.91617093 C7.18475012,9.91617093 7.53522574,9.82855203 7.71046354,9.74093312 C7.97332026,9.65331422 8.14855806,9.47807641 8.32379587,9.3028386 C8.41141478,9.3028386 8.41141478,9.2152197 8.49903368,9.2152197 C8.58665258,9.1276008 8.76189039,9.03998189 8.84950929,8.95236299 C8.9371282,8.95236299 9.28760381,8.86474408 9.55046053,8.95236299 C9.63807943,8.95236299 9.72569833,9.03998189 9.90093614,9.2152197 C10.1637929,9.47807641 10.4266496,9.65331422 10.6895063,9.74093312 C10.952363,9.82855203 11.3028386,9.91617093 11.5656953,9.91617093 C11.9161709,9.91617093 12.2666465,9.82855203 12.4418844,9.74093312 C12.6171222,9.65331422 12.8799789,9.56569532 13.0552167,9.39045751 C13.1428356,9.39045751 13.2304545,9.3028386 13.3180734,9.2152197 C13.4056923,9.1276008 13.5809301,9.03998189 13.668549,8.95236299 C13.7561679,8.95236299 14.1066435,8.86474408 14.3695002,8.95236299 C14.4571191,9.03998189 14.544738,9.03998189 14.7199759,9.2152197 C14.9828326,9.47807641 15.4209271,9.47807641 15.5961649,9.2152197 C15.6837838,9.1276008 15.7714027,8.95236299 15.7714027,8.77712518 C15.7714027,8.60188737 15.6837838,8.42664957 15.5961649,8.33903066 C15.3333082,8.07617395 15.0704515,7.90093614 14.8075948,7.81331724 Z" id="Path" fill="#E7343F"></path>
                </g>
            </g>
        </g>
    </g>
</svg>