<?xml version="1.0" encoding="UTF-8"?>
<svg width="22px" height="31px" viewBox="0 0 22 31" version="1.1" xmlns="http://www.w3.org/2000/svg" xmlns:xlink="http://www.w3.org/1999/xlink">
    <!-- Generator: Sketch 60.1 (88133) - https://sketch.com -->
    <title>2d_seismic_pin</title>
    <desc>Created with Sketch.</desc>
    <g id="Page-1" stroke="none" stroke-width="1" fill="none" fill-rule="evenodd">
        <g id="2d_seismic_pin" transform="translate(0.387855, 0.428645)">
            <g id="Group-16-Copy" fill="#704BF3" stroke="#FFFFFF" stroke-width="0.5">
                <g id="Group-28">
                    <g id="Group-3">
                        <path d="M19.5415477,5.6739196 C18.220794,3.08050251 16.2040101,1.32180905 13.3996884,0.508190955 C10.1182312,-0.629849246 6.26225126,0.185125628 3.55079397,2.53809045 C3.55034171,2.53839196 3.5500402,2.53854271 3.54973869,2.53884422 C2.97762814,3.01040201 2.49174874,3.57105528 2.1159196,4.07155779 C2.05094472,4.13819095 1.99923618,4.22110553 1.94722613,4.30190955 C1.49978894,4.92949749 1.24878392,5.41266332 1.24878392,5.41266332 L1.25526633,5.40934673 C0.62481407,6.55869347 0.220643216,7.79668342 0.0647638191,9.13085427 C-0.025839196,10.0778894 -0.0186030151,11.0249246 0.0688341709,11.9716583 C0.204060302,13.151005 0.477226131,14.291005 1.01978894,15.3548744 C1.14129648,15.6257789 1.24667337,15.9058794 1.38777889,16.1663819 C2.56697487,18.3431156 4.17777889,20.2029648 5.72858291,22.1065327 C7.25466332,24.1887437 8.67265327,26.3276382 9.33114573,28.8777889 C9.46064322,29.3790452 9.69536683,29.8564824 10.2997387,29.8738191 C10.9422513,29.8923618 11.2137588,29.4082915 11.3545628,28.880201 C12.1559698,25.8767337 13.9211457,23.4345226 15.8102412,21.0566834 C17.1311457,19.3940201 18.5405427,17.7850251 19.4596884,15.8443719 C21.0554171,12.4750251 21.2658693,9.07824121 19.5415477,5.6739196" id="Fill-1"></path>
                    </g>
                </g>
            </g>
            <g id="Group-85" transform="translate(3.584348, 7.048567)" fill="#FFFFFF" fill-rule="nonzero">
                <g id="Group-18" transform="translate(0.000000, 0.063756)">
                    <path d="M0.84111524,1.91162555 C1.07051031,1.98809057 1.37637039,2.06455559 1.60576546,2.06455559 C1.91162555,2.06455559 2.21748563,1.98809057 2.37041568,1.91162555 C2.52334572,1.83516052 2.75274079,1.7586955 2.90567083,1.60576546 C2.98213585,1.60576546 3.05860087,1.52930044 3.1350659,1.45283541 C3.21153092,1.37637039 3.36446096,1.29990537 3.44092598,1.22344035 C3.517391,1.14697533 3.82325109,1.14697533 4.05264616,1.22344035 C4.12911118,1.29990537 4.2055762,1.29990537 4.35850624,1.45283541 C4.58790131,1.68223048 4.81729638,1.83516052 5.04669144,1.91162555 C5.27608651,1.98809057 5.58194659,2.06455559 5.81134166,2.06455559 C6.11720175,2.06455559 6.42306183,1.98809057 6.57599188,1.91162555 C6.80538694,1.83516052 6.95831699,1.68223048 7.11124703,1.52930044 C7.18771205,1.52930044 7.18771205,1.45283541 7.26417707,1.45283541 C7.3406421,1.37637039 7.49357214,1.29990537 7.57003716,1.22344035 C7.64650218,1.22344035 7.95236227,1.14697533 8.18175734,1.22344035 C8.25822236,1.29990537 8.33468738,1.29990537 8.48761742,1.45283541 C8.71701249,1.68223048 8.94640755,1.83516052 9.17580262,1.91162555 C9.40519769,1.98809057 9.71105777,2.06455559 9.94045284,2.06455559 C10.2463129,2.06455559 10.552173,1.98809057 10.7051031,1.91162555 C10.8580331,1.83516052 11.0874282,1.7586955 11.2403582,1.60576546 C11.3168232,1.60576546 11.3932883,1.52930044 11.4697533,1.45283541 C11.5462183,1.37637039 11.6991483,1.29990537 11.7756134,1.22344035 C11.8520784,1.22344035 12.1579385,1.14697533 12.3873335,1.22344035 C12.4637986,1.29990537 12.5402636,1.29990537 12.6931936,1.45283541 C12.9225887,1.68223048 13.3049138,1.68223048 13.4578438,1.45283541 C13.5343089,1.37637039 13.6107739,1.22344035 13.6107739,1.07051031 C13.6107739,0.917580262 13.5343089,0.764650218 13.4578438,0.688185197 C13.2284488,0.458790131 12.9990537,0.305860087 12.7696586,0.229395066 C12.5402636,0.152930044 12.2344035,0.0764650218 12.0050084,0.0764650218 C11.6991483,0.0764650218 11.3932883,0.152930044 11.2403582,0.229395066 C11.0874282,0.305860087 10.8580331,0.382325109 10.7051031,0.535255153 C10.628638,0.535255153 10.552173,0.611720175 10.475708,0.688185197 C10.399243,0.764650218 10.2463129,0.84111524 10.1698479,0.917580262 C10.0933829,0.917580262 9.78752279,0.994045284 9.55812773,0.917580262 C9.48166271,0.84111524 9.40519769,0.84111524 9.25226764,0.688185197 C9.02287258,0.458790131 8.79347751,0.305860087 8.56408245,0.229395066 C8.33468738,0.152930044 8.02882729,0.0764650218 7.79943223,0.0764650218 C7.49357214,0.0764650218 7.18771205,0.152930044 7.03478201,0.229395066 C6.80538694,0.305860087 6.6524569,0.458790131 6.49952686,0.611720175 C6.42306183,0.611720175 6.42306183,0.688185197 6.34659681,0.688185197 C6.27013179,0.764650218 6.11720175,0.84111524 6.04073672,0.917580262 C5.9642717,0.994045284 5.65841162,0.994045284 5.42901655,0.917580262 C5.35255153,0.84111524 5.27608651,0.84111524 5.12315646,0.688185197 C4.97022642,0.382325109 4.74083135,0.305860087 4.51143629,0.152930044 C4.28204122,0.0764650218 3.97618114,-3.15385155e-14 3.74678607,-3.15385155e-14 C3.44092598,-3.15385155e-14 3.1350659,0.0764650218 2.98213585,0.152930044 C2.75274079,0.229395066 2.59981074,0.382325109 2.4468807,0.458790131 C2.37041568,0.458790131 2.29395066,0.535255153 2.21748563,0.611720175 C2.14102061,0.764650218 2.06455559,0.764650218 1.91162555,0.84111524 C1.83516052,0.917580262 1.52930044,0.917580262 1.22344035,0.84111524 C1.14697533,0.764650218 1.07051031,0.764650218 0.917580262,0.611720175 C0.688185197,0.382325109 0.305860087,0.382325109 0.152930044,0.611720175 C0.0764650218,0.764650218 -2.03169463e-13,0.917580262 -2.03169463e-13,1.07051031 C-2.03169463e-13,1.22344035 0.0764650218,1.37637039 0.152930044,1.45283541 C0.382325109,1.68223048 0.611720175,1.83516052 0.84111524,1.91162555 Z" id="Path"></path>
                    <path d="M0.84111524,3.97618114 C1.07051031,4.05264616 1.37637039,4.12911118 1.60576546,4.12911118 C1.91162555,4.12911118 2.21748563,4.05264616 2.37041568,3.97618114 C2.52334572,3.89971611 2.75274079,3.82325109 2.90567083,3.67032105 C2.98213585,3.67032105 3.05860087,3.59385603 3.1350659,3.517391 C3.21153092,3.44092598 3.36446096,3.36446096 3.44092598,3.28799594 C3.517391,3.21153092 3.82325109,3.21153092 4.05264616,3.28799594 C4.12911118,3.36446096 4.2055762,3.36446096 4.35850624,3.517391 C4.58790131,3.74678607 4.81729638,3.89971611 5.04669144,3.97618114 C5.27608651,4.05264616 5.58194659,4.12911118 5.81134166,4.12911118 C6.11720175,4.12911118 6.42306183,4.05264616 6.57599188,3.97618114 C6.80538694,3.89971611 6.95831699,3.74678607 7.11124703,3.59385603 C7.18771205,3.59385603 7.18771205,3.517391 7.26417707,3.517391 C7.3406421,3.44092598 7.49357214,3.36446096 7.57003716,3.28799594 C7.64650218,3.21153092 7.95236227,3.21153092 8.18175734,3.28799594 C8.25822236,3.36446096 8.33468738,3.36446096 8.48761742,3.517391 C8.71701249,3.74678607 8.94640755,3.89971611 9.17580262,3.97618114 C9.40519769,4.05264616 9.71105777,4.12911118 9.94045284,4.12911118 C10.2463129,4.12911118 10.552173,4.05264616 10.7051031,3.97618114 C10.8580331,3.89971611 11.0874282,3.82325109 11.2403582,3.67032105 C11.3168232,3.67032105 11.3932883,3.59385603 11.4697533,3.517391 C11.5462183,3.44092598 11.6991483,3.36446096 11.7756134,3.28799594 C11.8520784,3.21153092 12.1579385,3.21153092 12.3873335,3.28799594 C12.4637986,3.36446096 12.5402636,3.36446096 12.6931936,3.517391 C12.9225887,3.74678607 13.3049138,3.74678607 13.4578438,3.517391 C13.5343089,3.44092598 13.6107739,3.28799594 13.6107739,3.1350659 C13.6107739,2.98213585 13.5343089,2.82920581 13.4578438,2.75274079 C13.2284488,2.52334572 12.9990537,2.37041568 12.7696586,2.29395066 C12.5402636,2.21748563 12.2344035,2.14102061 12.0050084,2.14102061 C11.6991483,2.14102061 11.3932883,2.21748563 11.2403582,2.29395066 C11.0874282,2.37041568 10.8580331,2.4468807 10.7051031,2.59981074 C10.628638,2.59981074 10.552173,2.67627576 10.475708,2.75274079 C10.399243,2.82920581 10.2463129,2.90567083 10.1698479,2.98213585 C10.0933829,2.98213585 9.78752279,3.05860087 9.55812773,2.98213585 C9.48166271,2.90567083 9.40519769,2.90567083 9.25226764,2.75274079 C9.02287258,2.52334572 8.79347751,2.37041568 8.56408245,2.29395066 C8.33468738,2.21748563 8.02882729,2.14102061 7.79943223,2.14102061 C7.49357214,2.14102061 7.18771205,2.21748563 7.03478201,2.29395066 C6.80538694,2.37041568 6.6524569,2.52334572 6.49952686,2.67627576 C6.42306183,2.67627576 6.42306183,2.75274079 6.34659681,2.75274079 C6.27013179,2.82920581 6.11720175,2.90567083 6.04073672,2.98213585 C5.9642717,2.98213585 5.65841162,3.05860087 5.42901655,2.98213585 C5.35255153,2.90567083 5.27608651,2.90567083 5.12315646,2.75274079 C4.8937614,2.52334572 4.66436633,2.37041568 4.43497127,2.29395066 C4.2055762,2.21748563 3.89971611,2.14102061 3.67032105,2.14102061 C3.36446096,2.14102061 3.05860087,2.21748563 2.90567083,2.29395066 C2.75274079,2.29395066 2.59981074,2.4468807 2.4468807,2.59981074 C2.37041568,2.59981074 2.29395066,2.67627576 2.21748563,2.75274079 C2.14102061,2.82920581 1.98809057,2.90567083 1.91162555,2.98213585 C1.83516052,2.98213585 1.52930044,3.05860087 1.29990537,2.98213585 C1.22344035,2.90567083 1.14697533,2.90567083 0.994045284,2.75274079 C0.764650218,2.52334572 0.382325109,2.52334572 0.229395066,2.75274079 C0.152930044,2.82920581 0.0764650218,2.98213585 0.0764650218,3.1350659 C0.0764650218,3.28799594 0.152930044,3.44092598 0.229395066,3.517391 C0.382325109,3.74678607 0.611720175,3.89971611 0.84111524,3.97618114 Z" id="Path"></path>
                    <path d="M0.84111524,6.04073672 C1.07051031,6.11720175 1.37637039,6.19366677 1.60576546,6.19366677 C1.7586955,6.19366677 2.14102061,6.19366677 2.37041568,6.04073672 C2.52334572,5.9642717 2.75274079,5.88780668 2.90567083,5.73487664 C2.98213585,5.73487664 3.05860087,5.65841162 3.1350659,5.58194659 C3.21153092,5.50548157 3.36446096,5.42901655 3.44092598,5.35255153 C3.517391,5.27608651 3.82325109,5.27608651 4.05264616,5.35255153 C4.2055762,5.42901655 4.28204122,5.50548157 4.35850624,5.65841162 C4.58790131,5.88780668 4.81729638,6.04073672 5.04669144,6.11720175 C5.27608651,6.19366677 5.58194659,6.27013179 5.81134166,6.27013179 C5.9642717,6.27013179 6.34659681,6.27013179 6.57599188,6.11720175 C6.80538694,6.04073672 6.95831699,5.88780668 7.11124703,5.73487664 C7.18771205,5.73487664 7.18771205,5.65841162 7.26417707,5.65841162 C7.3406421,5.58194659 7.49357214,5.50548157 7.57003716,5.42901655 C7.64650218,5.35255153 7.95236227,5.35255153 8.18175734,5.42901655 C8.25822236,5.50548157 8.33468738,5.50548157 8.48761742,5.65841162 C8.71701249,5.88780668 8.94640755,6.04073672 9.17580262,6.11720175 C9.40519769,6.19366677 9.71105777,6.27013179 9.94045284,6.27013179 C10.0933829,6.27013179 10.475708,6.27013179 10.7051031,6.11720175 C10.8580331,6.04073672 11.0874282,5.9642717 11.2403582,5.81134166 C11.3168232,5.81134166 11.3932883,5.73487664 11.4697533,5.65841162 C11.5462183,5.58194659 11.6991483,5.50548157 11.7756134,5.42901655 C11.8520784,5.35255153 12.1579385,5.35255153 12.3873335,5.42901655 C12.4637986,5.50548157 12.5402636,5.50548157 12.6931936,5.65841162 C12.9225887,5.88780668 13.3049138,5.88780668 13.4578438,5.65841162 C13.5343089,5.58194659 13.6107739,5.42901655 13.6107739,5.27608651 C13.6107739,5.12315646 13.5343089,4.97022642 13.4578438,4.8937614 C13.2284488,4.66436633 12.9990537,4.51143629 12.7696586,4.43497127 C12.5402636,4.35850624 12.2344035,4.28204122 12.0050084,4.28204122 C11.6991483,4.28204122 11.3932883,4.35850624 11.2403582,4.43497127 C11.0874282,4.51143629 10.8580331,4.58790131 10.7051031,4.74083135 C10.628638,4.74083135 10.552173,4.81729638 10.475708,4.8937614 C10.399243,4.97022642 10.2463129,5.04669144 10.1698479,5.12315646 C10.0933829,5.12315646 9.78752279,5.19962148 9.55812773,5.12315646 C9.48166271,5.04669144 9.40519769,5.04669144 9.25226764,4.8937614 C9.02287258,4.66436633 8.79347751,4.51143629 8.56408245,4.43497127 C8.33468738,4.35850624 8.02882729,4.28204122 7.79943223,4.28204122 C7.49357214,4.28204122 7.18771205,4.35850624 7.03478201,4.43497127 C6.80538694,4.51143629 6.6524569,4.66436633 6.49952686,4.81729638 C6.42306183,4.81729638 6.42306183,4.8937614 6.34659681,4.8937614 C6.27013179,4.97022642 6.11720175,5.04669144 6.04073672,5.12315646 C5.9642717,5.12315646 5.65841162,5.19962148 5.42901655,5.12315646 C5.35255153,5.04669144 5.27608651,5.04669144 5.12315646,4.8937614 C4.8937614,4.66436633 4.66436633,4.51143629 4.43497127,4.43497127 C4.2055762,4.35850624 3.89971611,4.28204122 3.67032105,4.28204122 C3.36446096,4.28204122 3.05860087,4.35850624 2.90567083,4.43497127 C2.75274079,4.51143629 2.52334572,4.58790131 2.37041568,4.74083135 C2.29395066,4.74083135 2.21748563,4.81729638 2.14102061,4.8937614 C2.06455559,4.97022642 1.91162555,5.04669144 1.83516052,5.12315646 C1.7586955,5.12315646 1.45283541,5.19962148 1.22344035,5.12315646 C1.14697533,5.04669144 1.07051031,5.04669144 0.917580262,4.8937614 C0.688185197,4.66436633 0.305860087,4.66436633 0.152930044,4.8937614 C0.0764650218,4.97022642 -1.98444592e-13,5.12315646 -1.98444592e-13,5.27608651 C-1.98444592e-13,5.42901655 0.0764650218,5.58194659 0.152930044,5.65841162 C0.382325109,5.81134166 0.611720175,5.9642717 0.84111524,6.04073672 Z" id="Path"></path>
                    <path d="M12.9225887,6.49952686 C12.6931936,6.42306183 12.3873335,6.34659681 12.1579385,6.34659681 C11.8520784,6.34659681 11.5462183,6.42306183 11.3932883,6.49952686 C11.2403582,6.57599188 11.0109631,6.6524569 10.8580331,6.80538694 C10.7815681,6.80538694 10.7051031,6.88185197 10.628638,6.95831699 C10.552173,7.03478201 10.399243,7.11124703 10.3227779,7.18771205 C10.2463129,7.18771205 9.94045284,7.26417707 9.71105777,7.18771205 C9.63459275,7.11124703 9.55812773,7.11124703 9.40519769,6.95831699 C9.17580262,6.72892192 8.94640755,6.57599188 8.71701249,6.49952686 C8.48761742,6.42306183 8.18175734,6.34659681 7.95236227,6.34659681 C7.64650218,6.34659681 7.3406421,6.42306183 7.18771205,6.49952686 C6.95831699,6.57599188 6.80538694,6.72892192 6.6524569,6.88185197 C6.57599188,6.88185197 6.57599188,6.95831699 6.49952686,6.95831699 C6.42306183,7.03478201 6.27013179,7.11124703 6.19366677,7.18771205 C6.11720175,7.26417707 5.81134166,7.26417707 5.58194659,7.18771205 C5.50548157,7.11124703 5.42901655,7.11124703 5.27608651,6.95831699 C5.04669144,6.72892192 4.81729638,6.57599188 4.58790131,6.49952686 C4.35850624,6.42306183 4.05264616,6.34659681 3.82325109,6.34659681 C3.517391,6.34659681 3.21153092,6.42306183 3.05860087,6.49952686 C2.90567083,6.57599188 2.67627576,6.6524569 2.52334572,6.80538694 C2.4468807,6.80538694 2.37041568,6.88185197 2.29395066,6.95831699 C2.21748563,7.03478201 2.06455559,7.11124703 1.98809057,7.18771205 C1.91162555,7.26417707 1.60576546,7.26417707 1.37637039,7.18771205 C1.29990537,7.11124703 1.22344035,7.11124703 1.07051031,6.95831699 C0.84111524,6.72892192 0.458790131,6.72892192 0.305860087,6.95831699 C0.229395066,7.03478201 0.152930044,7.18771205 0.152930044,7.3406421 C0.152930044,7.49357214 0.229395066,7.64650218 0.305860087,7.72296721 C0.535255153,7.95236227 0.764650218,8.10529231 0.994045284,8.18175734 C1.22344035,8.25822236 1.52930044,8.33468738 1.7586955,8.33468738 C2.06455559,8.33468738 2.37041568,8.25822236 2.52334572,8.18175734 C2.67627576,8.10529231 2.90567083,8.02882729 3.05860087,7.87589725 C3.1350659,7.87589725 3.21153092,7.79943223 3.28799594,7.72296721 C3.36446096,7.64650218 3.517391,7.57003716 3.59385603,7.49357214 C3.67032105,7.41710712 3.97618114,7.41710712 4.2055762,7.49357214 C4.28204122,7.57003716 4.35850624,7.57003716 4.51143629,7.72296721 C4.74083135,7.95236227 4.97022642,8.10529231 5.19962148,8.18175734 C5.42901655,8.25822236 5.73487664,8.33468738 5.9642717,8.33468738 C6.27013179,8.33468738 6.57599188,8.25822236 6.72892192,8.18175734 C6.95831699,8.10529231 7.11124703,7.95236227 7.26417707,7.79943223 C7.3406421,7.79943223 7.3406421,7.72296721 7.41710712,7.72296721 C7.49357214,7.64650218 7.64650218,7.57003716 7.72296721,7.49357214 C7.79943223,7.49357214 8.10529231,7.41710712 8.33468738,7.49357214 C8.4111524,7.49357214 8.48761742,7.57003716 8.64054747,7.72296721 C8.86994253,7.95236227 9.0993376,8.10529231 9.32873266,8.18175734 C9.55812773,8.25822236 9.86398782,8.33468738 10.0933829,8.33468738 C10.399243,8.33468738 10.7051031,8.25822236 10.8580331,8.18175734 C11.0109631,8.10529231 11.2403582,8.02882729 11.3932883,7.87589725 C11.4697533,7.87589725 11.5462183,7.79943223 11.6226833,7.72296721 C11.6991483,7.64650218 11.8520784,7.57003716 11.9285434,7.49357214 C12.0050084,7.49357214 12.3108685,7.41710712 12.5402636,7.49357214 C12.6167286,7.57003716 12.6931936,7.57003716 12.8461237,7.72296721 C13.0755187,7.95236227 13.4578438,7.95236227 13.6107739,7.72296721 C13.6872389,7.64650218 13.7637039,7.49357214 13.7637039,7.3406421 C13.7637039,7.18771205 13.6872389,7.03478201 13.6107739,6.95831699 C13.3813788,6.72892192 13.1519838,6.57599188 12.9225887,6.49952686 Z" id="Path"></path>
                </g>
            </g>
        </g>
    </g>
</svg>