<?xml version="1.0" encoding="UTF-8"?>
<svg width="22px" height="32px" viewBox="0 0 22 32" version="1.1" xmlns="http://www.w3.org/2000/svg" xmlns:xlink="http://www.w3.org/1999/xlink">
    <!-- Generator: Sketch 60.1 (88133) - https://sketch.com -->
    <title>3d_seismic_pin</title>
    <desc>Created with Sketch.</desc>
    <g id="Page-1" stroke="none" stroke-width="1" fill="none" fill-rule="evenodd">
        <g id="3d_seismic_pin" transform="translate(0.199967, 0.988569)">
            <g id="Group-16-Copy">
                <g id="Group-28">
                    <g id="Group-3">
                        <path d="M19.5415477,5.6739196 C18.220794,3.08050251 16.2040101,1.32180905 13.3996884,0.508190955 C10.1182312,-0.629849246 6.26225126,0.185125628 3.55079397,2.53809045 C3.55034171,2.53839196 3.5500402,2.53854271 3.54973869,2.53884422 C2.97762814,3.01040201 2.49174874,3.57105528 2.1159196,4.07155779 C2.05094472,4.13819095 1.99923618,4.22110553 1.94722613,4.30190955 C1.49978894,4.92949749 1.24878392,5.41266332 1.24878392,5.41266332 L1.25526633,5.40934673 C0.62481407,6.55869347 0.220643216,7.79668342 0.0647638191,9.13085427 C-0.025839196,10.0778894 -0.0186030151,11.0249246 0.0688341709,11.9716583 C0.204060302,13.151005 0.477226131,14.291005 1.01978894,15.3548744 C1.14129648,15.6257789 1.24667337,15.9058794 1.38777889,16.1663819 C2.56697487,18.3431156 4.17777889,20.2029648 5.72858291,22.1065327 C7.25466332,24.1887437 8.67265327,26.3276382 9.33114573,28.8777889 C9.46064322,29.3790452 9.69536683,29.8564824 10.2997387,29.8738191 C10.9422513,29.8923618 11.2137588,29.4082915 11.3545628,28.880201 C12.1559698,25.8767337 13.9211457,23.4345226 15.8102412,21.0566834 C17.1311457,19.3940201 18.5405427,17.7850251 19.4596884,15.8443719 C21.0554171,12.4750251 21.2658693,9.07824121 19.5415477,5.6739196" id="Fill-1" stroke="#FFFFFF" stroke-width="0.5" fill="#4B96F3"></path>
                        <g id="Group-20" transform="translate(3.874005, 3.536131)" fill="#FFFFFF" fill-rule="nonzero">
                            <path d="M11.4704395,10.3009758 C10.8443017,10.3009758 10.8443017,9.89701593 10.218164,9.89701593 C9.59202626,9.89701593 9.59202626,10.3009758 8.96386871,10.3009758 C8.33571117,10.3009758 8.33975077,9.89701593 7.71361303,9.89701593 C7.08747529,9.89701593 7.08747529,10.3009758 6.46133754,10.3009758 C5.8351998,10.3009758 5.8351998,9.89701593 5.20906206,9.89701593 C4.58292432,9.89701593 4.58292432,10.3009758 3.95678657,10.3009758 C3.33064883,10.3009758 3.33064883,9.89701593 2.70451109,9.89701593 C2.07837335,9.89701593 2.07837335,10.3009758 1.4522356,10.3009758 C0.82609786,10.3009758 0.82811766,9.89701593 0.201979917,9.89701593 L-1.88471248e-13,9.89701593 L-1.88471248e-13,12.9267147 L12.9267147,12.9267147 L12.9267147,9.89701593 L12.7247348,9.89701593 C12.098597,9.89701593 12.098597,10.3009758 11.4704395,10.3009758 Z" id="Path"></path>
                            <polygon id="Path" points="2.12078913 7.67523684 10.8059256 7.67523684 10.8059256 8.48315651 2.12078913 8.48315651"></polygon>
                            <polygon id="Path" points="5.3524678 0.201979917 7.47325693 0.201979917 7.47325693 1.00989958 5.3524678 1.00989958"></polygon>
                            <path d="M11.4704395,10.3009758 C10.8443017,10.3009758 10.8443017,9.89701593 10.218164,9.89701593 C9.59202626,9.89701593 9.59202626,10.3009758 8.96386871,10.3009758 C8.33571117,10.3009758 8.33975077,9.89701593 7.71361303,9.89701593 C7.08747529,9.89701593 7.08747529,10.3009758 6.46133754,10.3009758 C5.8351998,10.3009758 5.8351998,9.89701593 5.20906206,9.89701593 C4.58292432,9.89701593 4.58292432,10.3009758 3.95678657,10.3009758 C3.33064883,10.3009758 3.33064883,9.89701593 2.70451109,9.89701593 C2.07837335,9.89701593 2.07837335,10.3009758 1.4522356,10.3009758 C0.82609786,10.3009758 0.82811766,9.89701593 0.201979917,9.89701593 L-1.88471248e-13,9.89701593 L-1.88471248e-13,11.1957468 C1.05029557,10.9937669 2.74288727,10.8200642 3.83761842,11.4118653 C5.52011113,12.3207749 8.54980988,11.2098854 8.54980988,11.2098854 C8.54980988,11.2098854 10.7049356,10.3595499 12.9267147,11.3351129 L12.9267147,9.89701593 L12.7247348,9.89701593 C12.098597,9.89701593 12.098597,10.3009758 11.4704395,10.3009758 Z" id="Path"></path>
                            <path d="M11.4704395,11.7148352 C11.2063885,11.7189274 10.9482276,11.6366564 10.7352326,11.4805385 C10.4276543,11.2542591 10.0086737,11.2542591 9.70109541,11.4805385 C9.26056134,11.7923893 8.67121569,11.7923893 8.23068162,11.4805385 C7.92373746,11.2545994 7.50550839,11.2545994 7.19856424,11.4805385 C6.75803017,11.7923893 6.16868452,11.7923893 5.72815045,11.4805385 C5.42120629,11.2545994 5.00297722,11.2545994 4.69603307,11.4805385 C4.48234792,11.6383174 4.22234421,11.7207229 3.95678657,11.7148352 C3.69260367,11.7198265 3.4341621,11.637466 3.22157968,11.4805385 C3.07402921,11.365892 2.8913012,11.3059344 2.70451109,11.3108753 C2.51772098,11.3059344 2.33499297,11.365892 2.1874425,11.4805385 C1.97486008,11.637466 1.71641851,11.7198265 1.4522356,11.7148352 C1.18803058,11.7199783 0.929541333,11.6376026 0.717028705,11.4805385 C0.5700192,11.3663358 0.388082178,11.3064036 0.201979917,11.3108753 C0.0904294891,11.3108753 -1.88471248e-13,11.2204459 -1.88471248e-13,11.1088954 C-1.88471248e-13,10.997345 0.0904294891,10.9069155 0.201979917,10.9069155 C0.466184936,10.9017724 0.724674187,10.9841481 0.937186815,11.1412122 C1.08419632,11.2554149 1.26613334,11.3153471 1.4522356,11.3108753 C1.63902572,11.3158163 1.82175372,11.2558587 1.96930419,11.1412122 C2.18188661,10.9842847 2.44032818,10.9019242 2.70451109,10.9069155 C2.96662992,10.9032588 3.22273293,10.9855523 3.43365859,11.1412122 C3.74060274,11.3671513 4.15883181,11.3671513 4.46577596,11.1412122 C4.90631004,10.8293614 5.49565569,10.8293614 5.93618976,11.1412122 C6.2435536,11.368144 6.6629631,11.368144 6.97032693,11.1412122 C7.41086101,10.8293614 8.00020666,10.8293614 8.44074073,11.1412122 C8.74810457,11.368144 9.16751407,11.368144 9.4748779,11.1412122 C9.91604307,10.8290147 10.5061463,10.8290147 10.9473115,11.1412122 C11.2548898,11.3674916 11.6738704,11.3674916 11.9814487,11.1412122 C12.1966556,10.9834048 12.4579338,10.9010454 12.7247348,10.9069155 C12.8362852,10.9069155 12.9267147,10.997345 12.9267147,11.1088954 C12.9267147,11.2204459 12.8362852,11.3108753 12.7247348,11.3108753 C12.5379447,11.3059344 12.3552166,11.365892 12.2076662,11.4805385 C11.9941176,11.6370769 11.7351784,11.7193699 11.4704395,11.7148352 L11.4704395,11.7148352 Z" id="Path"></path>
                            <path d="M12.7247348,12.118795 C12.4599959,12.1142603 12.2010566,12.1965533 11.9875081,12.3530917 C11.6799298,12.5793711 11.2609492,12.5793711 10.9533709,12.3530917 C10.7403759,12.1969738 10.482215,12.1147028 10.218164,12.118795 C10.1066136,12.118795 10.0161841,12.2092245 10.0161841,12.3207749 C10.0161841,12.4323254 10.1066136,12.5227549 10.218164,12.5227549 C10.4049541,12.5178139 10.5876821,12.5777715 10.7352326,12.692418 C11.1763978,13.0046155 11.766501,13.0046155 12.2076662,12.692418 C12.3552166,12.5777715 12.5379447,12.5178139 12.7247348,12.5227549 C12.8362852,12.5227549 12.9267147,12.4323254 12.9267147,12.3207749 C12.9267147,12.2092245 12.8362852,12.118795 12.7247348,12.118795 L12.7247348,12.118795 Z" id="Path"></path>
                            <path d="M0.201979917,12.5227549 C0.388082178,12.5182831 0.5700192,12.5782153 0.717028705,12.692418 C0.929541333,12.8494821 1.18803058,12.9318578 1.4522356,12.9267147 C1.71641851,12.931706 1.97486008,12.8493455 2.1874425,12.692418 C2.33499297,12.5777715 2.51772098,12.5178139 2.70451109,12.5227549 C2.8913012,12.5178139 3.07402921,12.5777715 3.22157968,12.692418 C3.4341621,12.8493455 3.69260367,12.931706 3.95678657,12.9267147 C4.22096948,12.931706 4.47941105,12.8493455 4.69199347,12.692418 C4.99893762,12.4664789 5.41716669,12.4664789 5.72411085,12.692418 C6.16464492,13.0042688 6.75399057,13.0042688 7.19452464,12.692418 C7.5014688,12.4664789 7.91969786,12.4664789 8.22664202,12.692418 C8.43977598,12.8497705 8.69899831,12.9321535 8.96386871,12.9267147 C9.089584,12.9286657 9.21487444,12.9116425 9.33551176,12.8762197 C9.43873491,12.8408137 9.49516971,12.7298193 9.46296208,12.6255539 C9.43075444,12.5212885 9.32155217,12.4614594 9.21634361,12.4904381 C9.13436203,12.5143796 9.04926653,12.5259525 8.96386871,12.5247747 C8.7770786,12.5297156 8.5943506,12.469758 8.44680013,12.3551115 C8.00626605,12.0432607 7.41692041,12.0432607 6.97638633,12.3551115 C6.66902249,12.5820433 6.24961299,12.5820433 5.94224916,12.3551115 C5.50190862,12.0426529 4.91217589,12.0426529 4.47183536,12.3551115 C4.16489121,12.5810506 3.74666214,12.5810506 3.43971799,12.3551115 C3.22739118,12.1974645 2.96892706,12.1143868 2.70451109,12.118795 C2.44032818,12.1138037 2.18188661,12.1961642 1.96930419,12.3530917 C1.82175372,12.4677382 1.63902572,12.5276958 1.4522356,12.5227549 C1.26613334,12.5272266 1.08419632,12.4672944 0.937186815,12.3530917 C0.724674187,12.1960276 0.466184936,12.1136519 0.201979917,12.118795 C0.0904294891,12.118795 1.11789319e-13,12.2092245 1.11789319e-13,12.3207749 C1.11789319e-13,12.4323254 0.0904294891,12.5227549 0.201979917,12.5227549 L0.201979917,12.5227549 Z" id="Path"></path>
                            <path d="M12.7247348,9.69503601 C12.4599959,9.69050129 12.2010566,9.77279432 11.9875081,9.92933272 C11.6799298,10.1556121 11.2609492,10.1556121 10.9533709,9.92933272 C10.7633571,9.78937839 10.5366148,9.70794771 10.3009758,9.69503601 L10.3009758,8.68513643 L10.8059256,8.68513643 C10.917476,8.68513643 11.0079055,8.59470694 11.0079055,8.48315651 L11.0079055,7.67523684 C11.0079055,7.56368642 10.917476,7.47325693 10.8059256,7.47325693 L9.2486604,7.47325693 L8.64272065,4.99496335 L7.67523684,0.985661995 L7.67523684,0.201979917 C7.67523684,0.0904294891 7.58480736,-2.67924814e-14 7.47325693,-2.67924814e-14 L5.3524678,-2.67924814e-14 C5.24091737,-2.67924814e-14 5.15048788,0.0904294891 5.15048788,0.201979917 L5.15048788,0.985661995 L3.63563851,7.47325693 L2.12078913,7.47325693 C2.0092387,7.47325693 1.91880921,7.56368642 1.91880921,7.67523684 L1.91880921,8.48315651 C1.91880921,8.59470694 2.0092387,8.68513643 2.12078913,8.68513643 L2.62573892,8.68513643 L2.62573892,9.69503601 C2.38912708,9.70598811 2.16091164,9.78603906 1.96930419,9.92529312 C1.82229658,10.0413855 1.63951696,10.1027881 1.4522356,10.0989958 C1.26613334,10.1034676 1.08419632,10.0435354 0.937186815,9.92933272 C0.724674187,9.77226863 0.466184936,9.68989294 0.201979917,9.69503601 C0.0904294891,9.69503601 -1.92166763e-13,9.7854655 -1.92166763e-13,9.89701593 C-1.92166763e-13,10.0085664 0.0904294891,10.0989958 0.201979917,10.0989958 C0.388082178,10.0945241 0.5700192,10.1544563 0.717028705,10.268659 C0.929541333,10.4257231 1.18803058,10.5080988 1.4522356,10.5029557 C1.71641851,10.507947 1.97486008,10.4255865 2.1874425,10.268659 C2.33499297,10.1540125 2.51772098,10.0940549 2.70451109,10.0989958 C2.8913012,10.0940549 3.07402921,10.1540125 3.22157968,10.268659 C3.4341621,10.4255865 3.69260367,10.507947 3.95678657,10.5029557 C4.22096948,10.507947 4.47941105,10.4255865 4.69199347,10.268659 C4.99893762,10.0427199 5.41716669,10.0427199 5.72411085,10.268659 C5.937796,10.4264379 6.19779971,10.5088434 6.46335734,10.5029557 C6.57490777,10.5029557 6.66533726,10.4125262 6.66533726,10.3009758 C6.66533726,10.1894253 6.57490777,10.0989958 6.46335734,10.0989958 C6.27656723,10.1039368 6.09383922,10.0439792 5.94628876,9.92933272 C5.50594822,9.61687412 4.91621549,9.61687412 4.47587496,9.92933272 C4.16893081,10.1552718 3.75070174,10.1552718 3.44375758,9.92933272 C3.32159322,9.8394861 3.18497367,9.77117632 3.03979775,9.7273528 L3.03979775,8.68513643 L9.89701593,8.68513643 L9.89701593,9.7334122 C9.74759884,9.77594183 9.6067805,9.84430025 9.4809373,9.93539212 C9.17357346,10.1623239 8.75416396,10.1623239 8.44680013,9.93539212 C8.23553668,9.77672844 7.97780724,9.69223862 7.71361303,9.69503601 C7.5201164,9.69058565 7.32854905,9.73431298 7.15614846,9.82228336 C7.09192563,9.85547718 7.05028999,9.920412 7.04692527,9.99262751 C7.04356054,10.064843 7.07897793,10.1333679 7.13983603,10.1723896 C7.20069413,10.2114113 7.27774716,10.2150014 7.34196998,10.1818076 C7.45662321,10.1225791 7.58465989,10.0940492 7.71361303,10.0989958 C7.90040314,10.0940549 8.08313115,10.1540125 8.23068162,10.268659 C8.67121569,10.5805098 9.26056134,10.5805098 9.70109541,10.268659 C10.0086737,10.0423796 10.4276543,10.0423796 10.7352326,10.268659 C11.1763978,10.5808565 11.766501,10.5808565 12.2076662,10.268659 C12.3552166,10.1540125 12.5379447,10.0940549 12.7247348,10.0989958 C12.8362852,10.0989958 12.9267147,10.0085664 12.9267147,9.89701593 C12.9267147,9.7854655 12.8362852,9.69503601 12.7247348,9.69503601 L12.7247348,9.69503601 Z M7.23694042,5.72613065 C7.1801072,5.63142296 7.05773903,5.59993115 6.96224774,5.65543767 L6.43306036,5.95436795 L4.80106263,5.02929993 L6.41690196,4.01940035 L8.04889969,5.03939893 L7.75804861,5.20502246 C7.66099974,5.26079767 7.62754083,5.38468607 7.68331604,5.48173495 C7.73909126,5.57878382 7.86297966,5.61224273 7.96002853,5.55646752 L8.31551318,5.3544876 L8.78410659,7.27127701 L6.84509939,6.17856566 L7.16220786,5.99880353 C7.25718416,5.94340461 7.29039992,5.82221197 7.23694042,5.72613065 L7.23694042,5.72613065 Z M7.7863258,3.1549263 L8.13777085,4.60514211 L6.8047034,3.77096505 L7.7863258,3.1549263 Z M6.42296136,3.53464855 L5.28581443,2.82771884 L6.41488216,2.01979917 L7.5520291,2.82771884 L6.42296136,3.53464855 Z M6.76430742,1.76732427 L7.34802938,1.34922585 L7.59242508,2.35912543 L6.76430742,1.76732427 Z M6.41488216,1.51888898 L5.98466494,1.2118795 L6.84509939,1.2118795 L6.41488216,1.51888898 Z M5.47971515,1.34922585 L6.05939751,1.76732427 L5.25147784,2.35710563 L5.47971515,1.34922585 Z M5.04949792,3.1549263 L6.03717972,3.77298485 L4.71017166,4.60716191 L5.04949792,3.1549263 Z M4.54050853,5.3464084 L6.02102132,6.17856566 L4.09009332,7.27127701 L4.54050853,5.3464084 Z M5.55444772,0.403959834 L7.27127701,0.403959834 L7.27127701,0.807919668 L5.55444772,0.807919668 L5.55444772,0.403959834 Z M2.32276905,7.87721676 L6.46335734,7.87721676 C6.57490777,7.87721676 6.66533726,7.78678727 6.66533726,7.67523684 C6.66533726,7.56368642 6.57490777,7.47325693 6.46335734,7.47325693 L4.55464713,7.47325693 L6.43306036,6.41286236 L8.31955278,7.47325693 L7.24703942,7.47325693 C7.13548899,7.47325693 7.0450595,7.56368642 7.0450595,7.67523684 C7.0450595,7.78678727 7.13548899,7.87721676 7.24703942,7.87721676 L10.6039456,7.87721676 L10.6039456,8.2811766 L2.32276905,8.2811766 L2.32276905,7.87721676 Z" id="Shape"></path>
                        </g>
                    </g>
                </g>
            </g>
        </g>
    </g>
</svg>