<?xml version="1.0" encoding="UTF-8"?>
<svg width="30px" height="30px" viewBox="0 0 30 30" version="1.1" xmlns="http://www.w3.org/2000/svg" xmlns:xlink="http://www.w3.org/1999/xlink">
    <!-- Generator: Sketch 60.1 (88133) - https://sketch.com -->
    <title>3d_seismic</title>
    <desc>Created with Sketch.</desc>
    <g id="Page-1" stroke="none" stroke-width="1" fill="none" fill-rule="evenodd">
        <g id="3d_seismic" transform="translate(0.000000, 0.022698)">
            <g id="Group-84">
                <circle id="Oval-Copy-4" fill="#D4EFF7" cx="15" cy="15" r="15"></circle>
                <g id="oil-rig" transform="translate(7.193230, 7.193230)" fill-rule="nonzero">
                    <path d="M13.8545776,12.4420401 C13.0982967,12.4420401 13.0982967,11.954117 12.3420159,11.954117 C11.585735,11.954117 11.585735,12.4420401 10.8270145,12.4420401 C10.068294,12.4420401 10.0731733,11.954117 9.31689239,11.954117 C8.56061152,11.954117 8.56061152,12.4420401 7.80433065,12.4420401 C7.04804978,12.4420401 7.04804978,11.954117 6.29176891,11.954117 C5.53548804,11.954117 5.53548804,12.4420401 4.77920717,12.4420401 C4.0229263,12.4420401 4.0229263,11.954117 3.26664543,11.954117 C2.51036456,11.954117 2.51036456,12.4420401 1.75408369,12.4420401 C0.997802825,12.4420401 1.00024244,11.954117 0.243961571,11.954117 L0,11.954117 L0,15.6135405 L15.6135405,15.6135405 L15.6135405,11.954117 L15.369579,11.954117 C14.6132981,11.954117 14.6132981,12.4420401 13.8545776,12.4420401 Z" id="Path" fill="#FFDE17"></path>
                    <polygon id="Path" fill="#8DC63F" points="2.56159649 9.27053969 13.051944 9.27053969 13.051944 10.246386 2.56159649 10.246386"></polygon>
                    <polygon id="Path" fill="#8DC63F" points="6.46498163 0.243961571 9.02657812 0.243961571 9.02657812 1.21980785 6.46498163 1.21980785"></polygon>
                    <path d="M13.8545776,12.4420401 C13.0982967,12.4420401 13.0982967,11.954117 12.3420159,11.954117 C11.585735,11.954117 11.585735,12.4420401 10.8270145,12.4420401 C10.068294,12.4420401 10.0731733,11.954117 9.31689239,11.954117 C8.56061152,11.954117 8.56061152,12.4420401 7.80433065,12.4420401 C7.04804978,12.4420401 7.04804978,11.954117 6.29176891,11.954117 C5.53548804,11.954117 5.53548804,12.4420401 4.77920717,12.4420401 C4.0229263,12.4420401 4.0229263,11.954117 3.26664543,11.954117 C2.51036456,11.954117 2.51036456,12.4420401 1.75408369,12.4420401 C0.997802825,12.4420401 1.00024244,11.954117 0.243961571,11.954117 L0,11.954117 L0,13.5227899 C1.26860017,13.2788283 3.31299813,13.0690213 4.63526985,13.7838288 C6.66746973,14.8816558 10.3268933,13.5398672 10.3268933,13.5398672 C10.3268933,13.5398672 12.9299633,12.512789 15.6135405,13.6911234 L15.6135405,11.954117 L15.369579,11.954117 C14.6132981,11.954117 14.6132981,12.4420401 13.8545776,12.4420401 Z" id="Path" fill="#FCE754"></path>
                    <g id="Group" opacity="0.5" transform="translate(0.000000, 13.143430)" fill="#FFFFFF">
                        <path d="M13.8545776,1.00634148 C13.5356434,1.01128432 13.2238237,0.911913196 12.9665575,0.723346057 C12.5950489,0.450034318 12.0889828,0.450034318 11.7174742,0.723346057 C11.1853749,1.10001526 10.4735334,1.10001526 9.94143401,0.723346057 C9.57069132,0.450445345 9.06553307,0.450445345 8.69479038,0.723346057 C8.16269102,1.10001526 7.45084951,1.10001526 6.91875015,0.723346057 C6.54800746,0.450445345 6.04284921,0.450445345 5.67210652,0.723346057 C5.41400678,0.913919396 5.09996113,1.01345299 4.77920717,1.00634148 C4.46011368,1.01237019 4.14795487,0.912891011 3.89118705,0.723346057 C3.71296813,0.584870215 3.49225999,0.512450357 3.26664543,0.518418338 C3.04103088,0.512450357 2.82032274,0.584870215 2.64210381,0.723346057 C2.385336,0.912891011 2.07317718,1.01237019 1.75408369,1.00634148 C1.43496349,1.01255355 1.12274709,0.913056012 0.866063576,0.723346057 C0.688498052,0.585406272 0.468745304,0.513017131 0.243961571,0.518418338 C0.109225316,0.518418338 -5.17326848e-15,0.409193022 -5.17326848e-15,0.274456767 C-5.17326848e-15,0.139720512 0.109225316,0.0304951964 0.243961571,0.0304951964 C0.563081771,0.0242831283 0.875298177,0.123780664 1.13198169,0.313490618 C1.30954721,0.451430404 1.52929996,0.523819545 1.75408369,0.518418338 C1.97969825,0.524386319 2.20040639,0.451966461 2.37862532,0.313490618 C2.63539313,0.123945665 2.94755194,0.0244664826 3.26664543,0.0304951964 C3.58324583,0.0260784129 3.89258001,0.125476654 4.1473467,0.313490618 C4.51808939,0.586391331 5.02324764,0.586391331 5.39399033,0.313490618 C5.92608969,-0.0631785822 6.63793121,-0.0631785822 7.17003057,0.313490618 C7.54128017,0.587590327 8.0478642,0.587590327 8.41911381,0.313490618 C8.95121317,-0.0631785822 9.66305468,-0.0631785822 10.195154,0.313490618 C10.5664037,0.587590327 11.0729877,0.587590327 11.4442373,0.313490618 C11.9770989,-0.0635974037 12.6898555,-0.0635974037 13.2227171,0.313490618 C13.5942257,0.586802358 14.1002918,0.586802358 14.4718004,0.313490618 C14.7317382,0.122882854 15.0473233,0.0234049647 15.369579,0.0304951964 C15.5043152,0.0304951964 15.6135405,0.139720512 15.6135405,0.274456767 C15.6135405,0.409193022 15.5043152,0.518418338 15.369579,0.518418338 C15.1439644,0.512450357 14.9232563,0.584870215 14.7450373,0.723346057 C14.4871026,0.912421061 14.1743426,1.01181875 13.8545776,1.00634148 L13.8545776,1.00634148 Z" id="Path"></path>
                    </g>
                    <g id="Group" fill="#06381F">
                        <path d="M15.369579,14.6376942 C15.0498139,14.632217 14.737054,14.7316147 14.4791192,14.9206897 C14.1076106,15.1940014 13.6015446,15.1940014 13.230036,14.9206897 C12.9727698,14.7321225 12.6609501,14.6327514 12.3420159,14.6376942 C12.2072796,14.6376942 12.0980543,14.7469196 12.0980543,14.8816558 C12.0980543,15.0163921 12.2072796,15.1256174 12.3420159,15.1256174 C12.5676304,15.1196494 12.7883386,15.1920693 12.9665575,15.3305451 C13.4994191,15.7076331 14.2121757,15.7076331 14.7450373,15.3305451 C14.9232563,15.1920693 15.1439644,15.1196494 15.369579,15.1256174 C15.5043152,15.1256174 15.6135405,15.0163921 15.6135405,14.8816558 C15.6135405,14.7469196 15.5043152,14.6376942 15.369579,14.6376942 L15.369579,14.6376942 Z" id="Path"></path>
                        <path d="M0.243961571,15.1256174 C0.468745304,15.1202162 0.688498052,15.1926053 0.866063576,15.3305451 C1.12274709,15.5202551 1.43496349,15.6197526 1.75408369,15.6135405 C2.07317718,15.6195692 2.385336,15.5200901 2.64210381,15.3305451 C2.82032274,15.1920693 3.04103088,15.1196494 3.26664543,15.1256174 C3.49225999,15.1196494 3.71296813,15.1920693 3.89118705,15.3305451 C4.14795487,15.5200901 4.46011368,15.6195692 4.77920717,15.6135405 C5.09830066,15.6195692 5.41045948,15.5200901 5.66722729,15.3305451 C6.03796998,15.0576444 6.54312823,15.0576444 6.91387092,15.3305451 C7.44597028,15.7072143 8.15781179,15.7072143 8.68991115,15.3305451 C9.06065384,15.0576444 9.56581209,15.0576444 9.93655478,15.3305451 C10.1939888,15.5206035 10.5070906,15.6201098 10.8270145,15.6135405 C10.9788598,15.6158971 11.1301919,15.5953356 11.2759038,15.5525501 C11.4005819,15.509785 11.4687468,15.3757203 11.4298447,15.2497832 C11.3909427,15.1238462 11.2590427,15.0515817 11.1319665,15.0865835 C11.032945,15.1155013 10.9301623,15.1294797 10.8270145,15.128057 C10.6014,15.134025 10.3806918,15.0616051 10.2024729,14.9231293 C9.67037353,14.5464601 8.95853202,14.5464601 8.42643266,14.9231293 C8.05518305,15.197229 7.54859902,15.197229 7.17734941,14.9231293 C6.64548382,14.545726 5.93317477,14.545726 5.40130918,14.9231293 C5.03056649,15.19603 4.52540824,15.19603 4.15466555,14.9231293 C3.89820649,14.7327153 3.58602044,14.6323698 3.26664543,14.6376942 C2.94755194,14.6316655 2.63539313,14.7311447 2.37862532,14.9206897 C2.20040639,15.0591655 1.97969825,15.1315854 1.75408369,15.1256174 C1.52929996,15.1310186 1.30954721,15.0586295 1.13198169,14.9206897 C0.875298177,14.7309797 0.563081771,14.6314822 0.243961571,14.6376942 C0.109225316,14.6376942 -2.60017683e-15,14.7469196 -2.60017683e-15,14.8816558 C-2.60017683e-15,15.0163921 0.109225316,15.1256174 0.243961571,15.1256174 L0.243961571,15.1256174 Z" id="Path"></path>
                        <path d="M15.369579,11.7101554 C15.0498139,11.7046781 14.737054,11.8040758 14.4791192,11.9931508 C14.1076106,12.2664626 13.6015446,12.2664626 13.230036,11.9931508 C13.0005277,11.8241069 12.7266569,11.7257508 12.4420401,11.7101554 L12.4420401,10.4903475 L13.051944,10.4903475 C13.1866803,10.4903475 13.2959056,10.3811222 13.2959056,10.246386 L13.2959056,9.27053969 C13.2959056,9.13580344 13.1866803,9.02657812 13.051944,9.02657812 L11.1710003,9.02657812 L10.4391156,6.03316965 L9.27053969,1.19053247 L9.27053969,0.243961571 C9.27053969,0.109225316 9.16131438,-3.68358384e-15 9.02657812,-3.68358384e-15 L6.46498163,-3.68358384e-15 C6.33024537,-3.68358384e-15 6.22102006,0.109225316 6.22102006,0.243961571 L6.22102006,1.19053247 L4.39130827,9.02657812 L2.56159649,9.02657812 C2.42686024,9.02657812 2.31763492,9.13580344 2.31763492,9.27053969 L2.31763492,10.246386 C2.31763492,10.3811222 2.42686024,10.4903475 2.56159649,10.4903475 L3.17150042,10.4903475 L3.17150042,11.7101554 C2.88570866,11.7233839 2.6100585,11.8200735 2.37862532,11.9882716 C2.20106208,12.1284939 1.9802916,12.202659 1.75408369,12.1980785 C1.52929996,12.2034797 1.30954721,12.1310906 1.13198169,11.9931508 C0.875298177,11.8034409 0.563081771,11.7039433 0.243961571,11.7101554 C0.109225316,11.7101554 -8.39640434e-16,11.8193807 -8.39640434e-16,11.954117 C-8.39640434e-16,12.0888532 0.109225316,12.1980785 0.243961571,12.1980785 C0.468745304,12.1926773 0.688498052,12.2650665 0.866063576,12.4030063 C1.12274709,12.5927162 1.43496349,12.6922138 1.75408369,12.6860017 C2.07317718,12.6920304 2.385336,12.5925512 2.64210381,12.4030063 C2.82032274,12.2645304 3.04103088,12.1921106 3.26664543,12.1980785 C3.49225999,12.1921106 3.71296813,12.2645304 3.89118705,12.4030063 C4.14795487,12.5925512 4.46011368,12.6920304 4.77920717,12.6860017 C5.09830066,12.6920304 5.41045948,12.5925512 5.66722729,12.4030063 C6.03796998,12.1301055 6.54312823,12.1301055 6.91387092,12.4030063 C7.17197066,12.5935796 7.48601631,12.6931132 7.80677027,12.6860017 C7.94150652,12.6860017 8.05073184,12.5767764 8.05073184,12.4420401 C8.05073184,12.3073039 7.94150652,12.1980785 7.80677027,12.1980785 C7.58115571,12.2040465 7.36044757,12.1316267 7.18222864,11.9931508 C6.65036305,11.6157475 5.938054,11.6157475 5.40618841,11.9931508 C5.03544572,12.2660515 4.53028747,12.2660515 4.15954478,11.9931508 C4.01198848,11.8846295 3.84697246,11.8021215 3.67162164,11.7491893 L3.67162164,10.4903475 L11.954117,10.4903475 L11.954117,11.7565081 C11.7736434,11.8078775 11.6035559,11.8904443 11.4515561,12.0004697 C11.0803065,12.2745694 10.5737225,12.2745694 10.2024729,12.0004697 C9.9472982,11.8088276 9.63599953,11.7067766 9.31689239,11.7101554 C9.08317737,11.70478 8.85179261,11.7575961 8.64355845,11.8638512 C8.56598688,11.9039444 8.51569723,11.9823759 8.51163315,12.0696015 C8.50756907,12.156827 8.55034798,12.2395949 8.62385548,12.2867273 C8.69736297,12.3338596 8.79043152,12.338196 8.8680031,12.2981028 C9.00648708,12.2265636 9.16113625,12.1921037 9.31689239,12.1980785 C9.54250695,12.1921106 9.76321508,12.2645304 9.94143401,12.4030063 C10.4735334,12.7796755 11.1853749,12.7796755 11.7174742,12.4030063 C12.0889828,12.1296945 12.5950489,12.1296945 12.9665575,12.4030063 C13.4994191,12.7800943 14.2121757,12.7800943 14.7450373,12.4030063 C14.9232563,12.2645304 15.1439644,12.1921106 15.369579,12.1980785 C15.5043152,12.1980785 15.6135405,12.0888532 15.6135405,11.954117 C15.6135405,11.8193807 15.5043152,11.7101554 15.369579,11.7101554 L15.369579,11.7101554 Z M8.74114308,6.91631053 C8.67249703,6.80191779 8.52469457,6.76388039 8.40935535,6.83092398 L7.77017603,7.19198711 L5.79896654,6.07464311 L7.7506591,4.85483526 L9.7218686,6.08684119 L9.37056394,6.28688968 C9.25334339,6.35425781 9.21293003,6.50389649 9.28029815,6.62111703 C9.34766628,6.73833757 9.49730496,6.77875094 9.61452551,6.71138281 L10.0438979,6.46742124 L10.6098887,8.78261655 L8.26785763,7.46278445 L8.6508773,7.24565865 C8.76559449,7.17874503 8.80571416,7.03236243 8.74114308,6.91631053 L8.74114308,6.91631053 Z M9.40471855,3.81067974 L9.82921169,5.56232381 L8.21906532,4.55476253 L9.40471855,3.81067974 Z M7.75797795,4.26932749 L6.38447431,3.41546199 L7.74821949,2.43961571 L9.12172313,3.41546199 L7.75797795,4.26932749 Z M8.17027301,2.13466374 L8.87532195,1.62966329 L9.17051545,2.84947115 L8.17027301,2.13466374 Z M7.74821949,1.83459101 L7.22858134,1.46376942 L8.26785763,1.46376942 L7.74821949,1.83459101 Z M6.61867742,1.62966329 L7.31884712,2.13466374 L6.34300084,2.84703153 L6.61867742,1.62966329 Z M6.09903927,3.81067974 L7.29201135,4.55720214 L5.68918383,5.56476343 L6.09903927,3.81067974 Z M5.48425611,6.45766278 L7.27249443,7.46278445 L4.94022181,8.78261655 L5.48425611,6.45766278 Z M6.7089432,0.487923142 L8.78261655,0.487923142 L8.78261655,0.975846283 L6.7089432,0.975846283 L6.7089432,0.487923142 Z M2.80555806,9.51450126 L7.80677027,9.51450126 C7.94150652,9.51450126 8.05073184,9.40527595 8.05073184,9.27053969 C8.05073184,9.13580344 7.94150652,9.02657812 7.80677027,9.02657812 L5.50133342,9.02657812 L7.77017603,7.74577987 L10.0487771,9.02657812 L8.75334116,9.02657812 C8.61860491,9.02657812 8.50937959,9.13580344 8.50937959,9.27053969 C8.50937959,9.40527595 8.61860491,9.51450126 8.75334116,9.51450126 L12.8079825,9.51450126 L12.8079825,10.0024244 L2.80555806,10.0024244 L2.80555806,9.51450126 Z" id="Shape"></path>
                    </g>
                </g>
            </g>
        </g>
    </g>
</svg>