<?xml version="1.0" encoding="UTF-8"?>
<svg width="22px" height="31px" viewBox="0 0 22 31" version="1.1" xmlns="http://www.w3.org/2000/svg" xmlns:xlink="http://www.w3.org/1999/xlink">
    <!-- Generator: Sketch 60.1 (88133) - https://sketch.com -->
    <title>administrative_pin</title>
    <desc>Created with Sketch.</desc>
    <g id="Page-1" stroke="none" stroke-width="1" fill="none" fill-rule="evenodd">
        <g id="administrative_pin" transform="translate(0.587821, 0.500058)">
            <g id="Group-39-Copy" fill="#13B5C7" stroke="#FFFFFF" stroke-width="0.5">
                <g id="Group-38-Copy">
                    <g id="Group-37-Copy">
                        <path d="M19.5415811,5.6738617 C18.2208273,3.08044461 16.2040434,1.32175115 13.3997218,0.508133056 C10.1182645,-0.629907145 6.26228458,0.18506773 3.55082729,2.53803255 C3.55037503,2.53833406 3.55007353,2.53848482 3.54977202,2.53878632 C2.97766147,3.01034411 2.49178207,3.57099738 2.11595292,4.07149989 C2.05097805,4.13813306 1.99926951,4.22104763 1.94725946,4.30185165 C1.49982227,4.92943959 1.24881724,5.41260542 1.24881724,5.41260542 L1.25529966,5.40928884 C0.624847395,6.55863557 0.220676541,7.79662552 0.0647971441,9.13079637 C-0.025805871,10.0778315 -0.0185696901,11.0248667 0.0688674959,11.9716004 C0.204093627,13.1509471 0.477259456,14.2909471 1.01982227,15.3548165 C1.14132981,15.625721 1.24670669,15.9058215 1.38781222,16.166324 C2.5670082,18.3430577 4.17781222,20.2029069 5.72861624,22.1064748 C7.25469664,24.1886858 8.67268659,26.3275803 9.33117905,28.877731 C9.46067654,29.3789873 9.69540016,29.8564245 10.299772,29.8737612 C10.9422846,29.8923039 11.2137921,29.4082336 11.3545961,28.8801431 C12.1560032,25.8766758 13.9211791,23.4344647 15.8102745,21.0566255 C17.1311791,19.3939622 18.540576,17.7849672 19.4597218,15.844314 C21.0554504,12.4749672 21.2659027,9.07818331 19.5415811,5.6738617" id="Fill-1"></path>
                    </g>
                </g>
            </g>
            <g id="administrative" transform="translate(3.500000, 2.768352)" fill="#FFFFFF" fill-rule="nonzero">
                <path d="M0.935332611,13.4952288 L0.935332611,10.9960932 C0.933183772,10.6161058 1.1022285,10.2553396 1.39560955,10.0138388 C2.17484653,9.3814319 3.00300335,8.81181015 3.87229367,8.31032919 C3.95962321,8.2590891 4.06457312,8.24724617 4.1611254,8.27773637 C4.25767769,8.30822656 4.33679238,8.37819515 4.37885626,8.47029633 L6.06272081,12.1846209 L6.67452494,10.7294813 C6.33018017,10.5451255 6.15535511,10.1501855 6.25038887,9.77133338 C6.34542264,9.39248121 6.68595781,9.12681763 7.0765476,9.12681763 C7.46713739,9.12681763 7.80767256,9.39248121 7.90270633,9.77133338 C7.99774009,10.1501855 7.82291503,10.5451255 7.47857026,10.7294813 L8.08616472,12.1860241 L9.77283572,8.47029633 C9.81436233,8.37770867 9.89324745,8.30710662 9.98985619,8.27606336 C10.0864649,8.24502011 10.1917111,8.25645534 10.2793983,8.30752275 C11.1488517,8.80979707 11.9770194,9.38036472 12.7560824,10.0138388 C13.0494635,10.2553396 13.2185082,10.6161058 13.2163594,10.9960932 L13.2163594,13.496632 C13.2163594,13.6894095 13.1397582,13.8742912 13.003444,14.0106055 C12.8671297,14.1469197 12.682248,14.2235002 12.4894705,14.2235002 L1.66362466,14.2235002 C1.26141146,14.2235002 0.935332611,13.897442 0.935332611,13.4952288 Z" id="Path"></path>
                <path d="M7.33123211,0.471939465 C7.5560958,0.471939465 7.74843868,0.633534956 7.78727877,0.855018868 L7.8925203,1.45419401 C8.15477156,1.52502252 8.40666814,1.62974357 8.64184003,1.76570895 L9.14278973,1.41490383 C9.32843977,1.28286975 9.58254789,1.30548359 9.74196487,1.46822621 L10.1025925,1.82885387 C10.2617934,1.9878242 10.2836956,2.23822065 10.1545117,2.42241613 L9.80370657,2.92336583 C9.93974386,3.15850217 10.0444689,3.41040839 10.1152215,3.67268556 L10.7172031,3.77792709 C10.938687,3.81676718 11.1002823,4.00911006 11.1002823,4.23397375 L11.1002823,4.74474599 C11.1002823,4.96960967 10.938687,5.16195256 10.7172031,5.20079264 L10.1152215,5.30603418 C10.0445689,5.56879031 9.93984178,5.82117321 9.80370657,6.05675713 L10.1545117,6.55770683 C10.2836956,6.74190231 10.2617934,6.99229876 10.1025925,7.15126909 L9.74196487,7.51329997 C9.58299455,7.6725008 9.33259809,7.69440309 9.14840262,7.56521913 L8.64324325,7.20739791 C8.40808556,7.34339201 8.15618513,7.44811466 7.89392352,7.51891285 L7.78868199,8.12089443 C7.7498419,8.34237834 7.55749902,8.50397362 7.33263533,8.50397362 L6.82045987,8.50397362 C6.59559618,8.50397362 6.4032533,8.34237834 6.36441321,8.12089443 L6.25917168,7.51891285 C5.99641555,7.44826022 5.74403265,7.34353311 5.50844873,7.20739791 L5.00749903,7.55820302 C4.82412783,7.691628 4.57110794,7.67262181 4.40972711,7.51329997 L4.04909945,7.15267231 C3.88989862,6.99370198 3.86799633,6.74330553 3.99718029,6.55911005 L4.34798541,6.05816035 C4.21186465,5.8225693 4.10713834,5.57018834 4.03647046,5.3074374 L3.43448889,5.20219587 C3.21300497,5.16335578 3.0514097,4.9710129 3.0514097,4.74614921 L3.0514097,4.23537697 C3.0514097,4.01051328 3.21300497,3.8181704 3.43448889,3.77933031 L4.04208335,3.67268556 C4.11285115,3.41041358 4.21757541,3.15850929 4.35359829,2.92336583 L4.00279317,2.42241613 C3.87360921,2.23822065 3.89551151,1.9878242 4.05471233,1.82885387 L4.40972711,1.46822621 C4.56869743,1.30902539 4.81909389,1.28712309 5.00328936,1.41630705 L5.50423907,1.76711217 C5.74107218,1.6301517 5.99489404,1.52494301 6.25917168,1.45419401 L6.36441321,0.852212427 C6.40445749,0.631844197 6.59648296,0.471724494 6.82045987,0.471939465 L7.33123211,0.471939465 Z M7.07584599,3.04965567 C6.27994434,3.04965567 5.63473789,3.69486144 5.63473789,4.49076309 C5.6341709,5.07236077 5.9849253,5.59827133 6.52338506,5.82176957 C7.06184481,6.04526782 7.68192082,5.92231939 8.09436566,5.51027615 C8.50681049,5.09823292 8.63036293,4.47827698 8.40738936,3.93959975 C8.18441578,3.40092252 7.65884717,3.04965567 7.07584599,3.04965567 Z" id="Combined-Shape"></path>
            </g>
        </g>
    </g>
</svg>