<?xml version="1.0" encoding="UTF-8"?>
<svg width="30px" height="30px" viewBox="0 0 30 30" version="1.1" xmlns="http://www.w3.org/2000/svg" xmlns:xlink="http://www.w3.org/1999/xlink">
    <!-- Generator: Sketch 60.1 (88133) - https://sketch.com -->
    <title>administrative</title>
    <desc>Created with Sketch.</desc>
    <g id="Page-1" stroke="none" stroke-width="1" fill="none" fill-rule="evenodd">
        <g id="administrative">
            <circle id="Oval" fill="#D4EFF7" cx="15" cy="15" r="15"></circle>
            <path d="M6.89631653,22.7689421 L6.89631653,19.6106481 C6.89360092,19.1304374 7.10723196,18.6745175 7.47799359,18.3693198 C8.46275784,17.5701127 9.50934477,16.8502506 10.6079143,16.2165018 C10.7182774,16.1517469 10.8509084,16.1367803 10.9729267,16.1753124 C11.0949451,16.2138446 11.1949267,16.3022677 11.2480851,16.418661 L13.3760765,21.1126554 L14.1492468,19.2737161 C13.7140795,19.0407357 13.4931435,18.5416285 13.6132429,18.0628524 C13.7333422,17.5840763 14.1636951,17.2483427 14.6573047,17.2483427 C15.1509143,17.2483427 15.5812672,17.5840763 15.7013665,18.0628524 C15.8214659,18.5416285 15.6005299,19.0407357 15.1653627,19.2737161 L15.9332129,21.1144287 L18.064751,16.418661 C18.1172304,16.3016529 18.2169219,16.2124292 18.3390116,16.1731982 C18.4611013,16.1339671 18.5941066,16.1484184 18.7049218,16.2129551 C19.8036974,16.8477066 20.8502981,17.568764 21.8348425,18.3693198 C22.2056041,18.6745175 22.4192352,19.1304374 22.4165196,19.6106481 L22.4165196,22.7707154 C22.4165196,23.0143388 22.3197145,23.2479839 22.1474468,23.4202517 C21.9751791,23.5925194 21.7415339,23.6892984 21.4979105,23.6892984 L7.81669889,23.6892984 C7.30840015,23.6892984 6.89631653,23.2772408 6.89631653,22.7689421 Z" id="Path" fill="#7366E3" fill-rule="nonzero"></path>
            <path d="M14.9791634,6.31070134 C15.2633359,6.31070134 15.5064101,6.51491838 15.5554944,6.79481967 L15.6884939,7.55202996 C16.0199151,7.64153981 16.3382505,7.77388151 16.6354501,7.94570838 L17.2685275,7.50237683 C17.5031436,7.33551816 17.8242739,7.3640965 18.0257378,7.56976322 L18.4814827,8.02550805 C18.6826734,8.22640752 18.7103525,8.54284718 18.5470957,8.77562504 L18.1037642,9.40870249 C18.2756819,9.7058571 18.4080287,10.0242047 18.4974426,10.3556587 L19.2581995,10.4886581 C19.5381008,10.5377425 19.7423176,10.7808167 19.7423176,11.0649892 L19.7423176,11.7104799 C19.7423176,11.9946524 19.5381008,12.2377266 19.2581995,12.2868109 L18.4974426,12.4198104 C18.408155,12.7518696 18.2758057,13.0708197 18.1037642,13.3685399 L18.5470957,14.0016173 C18.7103525,14.2343952 18.6826734,14.5508349 18.4814827,14.7517343 L18.0257378,15.2092525 C17.8248384,15.4104433 17.5083987,15.4381224 17.2756208,15.2748656 L16.6372234,14.8226674 C16.3400418,14.9945305 16.0217015,15.1268743 15.6902672,15.2163458 L15.5572678,15.9771027 C15.5081834,16.257004 15.2651092,16.4612208 14.9809367,16.4612208 L14.3336727,16.4612208 C14.0495002,16.4612208 13.806426,16.257004 13.7573417,15.9771027 L13.6243422,15.2163458 C13.292283,15.1270582 12.9733329,14.9947089 12.6756127,14.8226674 L12.0425352,15.2659989 C11.810799,15.4346153 11.491044,15.4105962 11.2870983,15.2092525 L10.8313534,14.7535077 C10.6301627,14.5526082 10.6024836,14.2361685 10.7657404,14.0033907 L11.2090719,13.3703132 C11.0370487,13.072584 10.9047004,12.7536364 10.8153935,12.4215837 L10.0546366,12.2885842 C9.77473526,12.2394999 9.57051851,11.9964257 9.57051851,11.7122532 L9.57051851,11.0667625 C9.57051851,10.78259 9.77473526,10.5395158 10.0546366,10.4904315 L10.8224868,10.3556587 C10.9119199,10.0242113 11.0442657,9.7058661 11.2161652,9.40870249 L10.7728337,8.77562504 C10.6095769,8.54284718 10.637256,8.22640752 10.8384467,8.02550805 L11.2870983,7.56976322 C11.4879977,7.36857246 11.8044374,7.34089334 12.0372153,7.50415015 L12.6702927,7.9474817 C12.9695916,7.77439729 13.2903601,7.64143933 13.6243422,7.55202996 L13.7573417,6.79127302 C13.8079478,6.51278167 14.0506209,6.31042967 14.3336727,6.31070134 L14.9791634,6.31070134 Z M14.656418,9.56830185 C13.6505937,9.56830185 12.8352112,10.3836836 12.8352112,11.3895079 C12.8344946,12.1245046 13.2777621,12.7891264 13.9582431,13.0715733 C14.638724,13.3540202 15.4223479,13.1986436 15.9435769,12.6779221 C16.4648059,12.1572006 16.6209459,11.3737285 16.339162,10.6929727 C16.0573781,10.0122169 15.3931884,9.56830185 14.656418,9.56830185 Z" id="Combined-Shape" fill="#7FA5B9" fill-rule="nonzero"></path>
        </g>
    </g>
</svg>