<?xml version="1.0" encoding="UTF-8"?>
<svg width="30px" height="30px" viewBox="0 0 30 30" version="1.1" xmlns="http://www.w3.org/2000/svg" xmlns:xlink="http://www.w3.org/1999/xlink">
    <!-- Generator: Sketch 60.1 (88133) - https://sketch.com -->
    <title>al_khuwair</title>
    <desc>Created with Sketch.</desc>
    <g id="Page-1" stroke="none" stroke-width="1" fill="none" fill-rule="evenodd">
        <g id="al_khuwair">
            <circle id="Oval" fill="#F7E7D4" cx="15" cy="15" r="15"></circle>
            <g id="Group-47" transform="translate(6.533838, 6.533838)" fill-rule="nonzero">
                <path d="M0.868956151,16.7916709 L3.29725566,16.7916709 L3.29725566,14.1335333 L5.8805927,14.1335333 L5.8805927,16.7916709 L8.3089319,16.7916709 C8.78880616,16.7916709 9.17788805,16.402589 9.17788805,15.9227147 L9.17788805,0.862805443 C9.17788805,0.386304144 8.79162359,-4.24662186e-14 8.3150826,-4.24662186e-14 L0.862805443,-4.24662186e-14 C0.386304144,-4.24662186e-14 2.14100519e-13,0.386264462 2.14100519e-13,0.862805443 L2.14100519e-13,15.9227147 C2.14100519e-13,16.402589 0.389042201,16.7916709 0.868956151,16.7916709 Z M5.4930981,2.91587209 C5.4930981,2.76678686 5.61392975,2.64595521 5.76301497,2.64595521 L6.5148299,2.64595521 C6.66391512,2.64595521 6.78474677,2.76678686 6.78474677,2.91587209 L6.78474677,4.09819689 C6.78474677,4.24728212 6.66391512,4.36815345 6.5148299,4.36815345 L5.76301497,4.36815345 C5.61392975,4.36815345 5.4930981,4.24728212 5.4930981,4.09819689 L5.4930981,2.91587209 Z M5.4930981,6.65701046 C5.4930981,6.50796491 5.61392975,6.38709358 5.76301497,6.38709358 L6.5148299,6.38709358 C6.66391512,6.38709358 6.78474677,6.50792523 6.78474677,6.65701046 L6.78474677,7.83937494 C6.78474677,7.98846017 6.66391512,8.1093315 6.5148299,8.1093315 L5.76301497,8.1093315 C5.61392975,8.1093315 5.4930981,7.98846017 5.4930981,7.83937494 L5.4930981,6.65701046 Z M5.4930981,10.3981488 C5.4930981,10.2491033 5.61392975,10.1281923 5.76301497,10.1281923 L6.5148299,10.1281923 C6.66391512,10.1281923 6.78474677,10.2491033 6.78474677,10.3981488 L6.78474677,11.580553 C6.78474677,11.7295985 6.66391512,11.8504699 6.5148299,11.8504699 L5.76301497,11.8504699 C5.61392975,11.8504699 5.4930981,11.7295985 5.4930981,11.580553 L5.4930981,10.3981488 Z M2.39310159,2.91587209 C2.39310159,2.76678686 2.51393324,2.64595521 2.66301847,2.64595521 L3.41483339,2.64595521 C3.56391862,2.64595521 3.68475027,2.76678686 3.68475027,2.91587209 L3.68475027,4.09819689 C3.68475027,4.24728212 3.56391862,4.36815345 3.41483339,4.36815345 L2.66301847,4.36815345 C2.51393324,4.36815345 2.39310159,4.24728212 2.39310159,4.09819689 L2.39310159,2.91587209 L2.39310159,2.91587209 Z M2.39310159,6.65701046 C2.39310159,6.50796491 2.51393324,6.38709358 2.66301847,6.38709358 L3.41483339,6.38709358 C3.56391862,6.38709358 3.68475027,6.50792523 3.68475027,6.65701046 L3.68475027,7.83937494 C3.68475027,7.98846017 3.56391862,8.1093315 3.41483339,8.1093315 L2.66301847,8.1093315 C2.51393324,8.1093315 2.39310159,7.98846017 2.39310159,7.83937494 L2.39310159,6.65701046 L2.39310159,6.65701046 Z M2.39310159,10.3981488 C2.39310159,10.2491033 2.51393324,10.1281923 2.66301847,10.1281923 L3.41483339,10.1281923 C3.56391862,10.1281923 3.68475027,10.2491033 3.68475027,10.3981488 L3.68475027,11.580553 C3.68475027,11.7295985 3.56391862,11.8504699 3.41483339,11.8504699 L2.66301847,11.8504699 C2.51393324,11.8504699 2.39310159,11.7295985 2.39310159,11.580553 L2.39310159,10.3981488 L2.39310159,10.3981488 Z" id="Shape" fill="#FFA000"></path>
                <path d="M11.0801631,16.7916709 L12.0375308,16.7916709 L12.0375308,14.1335333 L14.9653074,14.1335333 L14.9653074,16.7916709 L15.9226354,16.7916709 C16.4025493,16.7916709 16.7915915,16.402589 16.7915915,15.9227147 L16.7915915,8.97205758 C16.7915915,8.49555628 16.4052874,8.10929182 15.9287464,8.10929182 L11.0740124,8.10929182 C10.5975111,8.10929182 10.2112467,8.49555628 10.2112467,8.97205758 L10.2112467,15.9227147 C10.2112467,16.402589 10.6002889,16.7916709 11.0801631,16.7916709 Z M14.1723026,10.3981488 C14.1723026,10.2491033 14.2931739,10.1281923 14.4422592,10.1281923 L15.1940344,10.1281923 C15.3431593,10.1281923 15.463991,10.2491033 15.463991,10.3981488 L15.463991,11.580553 C15.463991,11.7295985 15.3431593,11.8504699 15.1940344,11.8504699 L14.4422592,11.8504699 C14.2931739,11.8504699 14.1723026,11.7295985 14.1723026,11.580553 L14.1723026,10.3981488 Z M11.5388472,10.3981488 C11.5388472,10.2491033 11.6597186,10.1281923 11.8087641,10.1281923 L12.5605393,10.1281923 C12.7096643,10.1281923 12.8304959,10.2491033 12.8304959,10.3981488 L12.8304959,11.580553 C12.8304959,11.7295985 12.7096643,11.8504699 12.5605393,11.8504699 L11.8087641,11.8504699 C11.6597186,11.8504699 11.5388472,11.7295985 11.5388472,11.580553 L11.5388472,10.3981488 Z" id="Shape" fill="#FF4A4A"></path>
            </g>
        </g>
    </g>
</svg>