<?xml version="1.0" encoding="UTF-8"?>
<svg width="22px" height="31px" viewBox="0 0 22 31" version="1.1" xmlns="http://www.w3.org/2000/svg" xmlns:xlink="http://www.w3.org/1999/xlink">
    <!-- Generator: Sketch 60.1 (88133) - https://sketch.com -->
    <title>al_khuwair_pin</title>
    <desc>Created with Sketch.</desc>
    <g id="Page-1" stroke="none" stroke-width="1" fill="none" fill-rule="evenodd">
        <g id="al_khuwair_pin" transform="translate(0.500000, 0.548714)">
            <path d="M19.5415811,5.6738617 C18.2208273,3.08044461 16.2040434,1.32175115 13.3997218,0.508133056 C10.1182645,-0.629907145 6.26228458,0.18506773 3.55082729,2.53803255 C3.55037503,2.53833406 3.55007353,2.53848482 3.54977202,2.53878632 C2.97766147,3.01034411 2.49178207,3.57099738 2.11595292,4.07149989 C2.05097805,4.13813306 1.99926951,4.22104763 1.94725946,4.30185165 C1.49982227,4.92943959 1.24881724,5.41260542 1.24881724,5.41260542 L1.25529966,5.40928884 C0.624847395,6.55863557 0.220676541,7.79662552 0.0647971441,9.13079637 C-0.025805871,10.0778315 -0.0185696901,11.0248667 0.0688674959,11.9716004 C0.204093627,13.1509471 0.477259456,14.2909471 1.01982227,15.3548165 C1.14132981,15.625721 1.24670669,15.9058215 1.38781222,16.166324 C2.5670082,18.3430577 4.17781222,20.2029069 5.72861624,22.1064748 C7.25469664,24.1886858 8.67268659,26.3275803 9.33117905,28.877731 C9.46067654,29.3789873 9.69540016,29.8564245 10.299772,29.8737612 C10.9422846,29.8923039 11.2137921,29.4082336 11.3545961,28.8801431 C12.1560032,25.8766758 13.9211791,23.4344647 15.8102745,21.0566255 C17.1311791,19.3939622 18.540576,17.7849672 19.4597218,15.844314 C21.0554504,12.4749672 21.2659027,9.07818331 19.5415811,5.6738617" id="Fill-1" stroke="#FFFFFF" stroke-width="0.5" fill="#D28269"></path>
            <g id="Group-47" transform="translate(4.765833, 4.209416)" fill="#FFFFFF" fill-rule="nonzero">
                <path d="M0.636695447,12.3034751 L2.41594201,12.3034751 L2.41594201,10.3558232 L4.30878657,10.3558232 L4.30878657,12.3034751 L6.08806221,12.3034751 C6.43967231,12.3034751 6.72475766,12.0183898 6.72475766,11.6667797 L6.72475766,0.632188744 C6.72475766,0.283050058 6.44173668,-3.11155494e-14 6.09256891,-3.11155494e-14 L0.632188744,-3.11155494e-14 C0.283050058,-3.11155494e-14 1.56874228e-13,0.283020983 1.56874228e-13,0.632188744 L1.56874228e-13,11.6667797 C1.56874228e-13,12.0183898 0.285056268,12.3034751 0.636695447,12.3034751 Z M4.02486425,2.13649731 C4.02486425,2.02726063 4.11339917,1.93872572 4.22263585,1.93872572 L4.7735004,1.93872572 C4.88273708,1.93872572 4.971272,2.02726063 4.971272,2.13649731 L4.971272,3.00280204 C4.971272,3.11203872 4.88273708,3.20060271 4.7735004,3.20060271 L4.22263585,3.20060271 C4.11339917,3.20060271 4.02486425,3.11203872 4.02486425,3.00280204 L4.02486425,2.13649731 Z M4.02486425,4.87767794 C4.02486425,4.76847034 4.11339917,4.67990634 4.22263585,4.67990634 L4.7735004,4.67990634 C4.88273708,4.67990634 4.971272,4.76844126 4.971272,4.87767794 L4.971272,5.74401174 C4.971272,5.85324842 4.88273708,5.94181241 4.7735004,5.94181241 L4.22263585,5.94181241 C4.11339917,5.94181241 4.02486425,5.85324842 4.02486425,5.74401174 L4.02486425,4.87767794 Z M4.02486425,7.61885857 C4.02486425,7.50965096 4.11339917,7.42105789 4.22263585,7.42105789 L4.7735004,7.42105789 C4.88273708,7.42105789 4.971272,7.50965096 4.971272,7.61885857 L4.971272,8.48522144 C4.971272,8.59442905 4.88273708,8.68299304 4.7735004,8.68299304 L4.22263585,8.68299304 C4.11339917,8.68299304 4.02486425,8.59442905 4.02486425,8.48522144 L4.02486425,7.61885857 Z M1.75345659,2.13649731 C1.75345659,2.02726063 1.8419915,1.93872572 1.95122818,1.93872572 L2.50209273,1.93872572 C2.61132941,1.93872572 2.69986433,2.02726063 2.69986433,2.13649731 L2.69986433,3.00280204 C2.69986433,3.11203872 2.61132941,3.20060271 2.50209273,3.20060271 L1.95122818,3.20060271 C1.8419915,3.20060271 1.75345659,3.11203872 1.75345659,3.00280204 L1.75345659,2.13649731 L1.75345659,2.13649731 Z M1.75345659,4.87767794 C1.75345659,4.76847034 1.8419915,4.67990634 1.95122818,4.67990634 L2.50209273,4.67990634 C2.61132941,4.67990634 2.69986433,4.76844126 2.69986433,4.87767794 L2.69986433,5.74401174 C2.69986433,5.85324842 2.61132941,5.94181241 2.50209273,5.94181241 L1.95122818,5.94181241 C1.8419915,5.94181241 1.75345659,5.85324842 1.75345659,5.74401174 L1.75345659,4.87767794 L1.75345659,4.87767794 Z M1.75345659,7.61885857 C1.75345659,7.50965096 1.8419915,7.42105789 1.95122818,7.42105789 L2.50209273,7.42105789 C2.61132941,7.42105789 2.69986433,7.50965096 2.69986433,7.61885857 L2.69986433,8.48522144 C2.69986433,8.59442905 2.61132941,8.68299304 2.50209273,8.68299304 L1.95122818,8.68299304 C1.8419915,8.68299304 1.75345659,8.59442905 1.75345659,8.48522144 L1.75345659,7.61885857 L1.75345659,7.61885857 Z" id="Shape"></path>
                <path d="M8.1185793,12.3034751 L8.82005498,12.3034751 L8.82005498,10.3558232 L10.9652749,10.3558232 L10.9652749,12.3034751 L11.6667215,12.3034751 C12.0183607,12.3034751 12.303417,12.0183898 12.303417,11.6667797 L12.303417,6.573943 C12.303417,6.22480432 12.0203669,5.94178334 11.6711992,5.94178334 L8.1140726,5.94178334 C7.76493391,5.94178334 7.48191293,6.22480432 7.48191293,6.573943 L7.48191293,11.6667797 C7.48191293,12.0183898 7.7669692,12.3034751 8.1185793,12.3034751 Z M10.38423,7.61885857 C10.38423,7.50965096 10.472794,7.42105789 10.5820307,7.42105789 L11.1328662,7.42105789 C11.2421319,7.42105789 11.3306668,7.50965096 11.3306668,7.61885857 L11.3306668,8.48522144 C11.3306668,8.59442905 11.2421319,8.68299304 11.1328662,8.68299304 L10.5820307,8.68299304 C10.472794,8.68299304 10.38423,8.59442905 10.38423,8.48522144 L10.38423,7.61885857 Z M8.45466308,7.61885857 C8.45466308,7.50965096 8.54322708,7.42105789 8.65243468,7.42105789 L9.20327016,7.42105789 C9.31253591,7.42105789 9.40107083,7.50965096 9.40107083,7.61885857 L9.40107083,8.48522144 C9.40107083,8.59442905 9.31253591,8.68299304 9.20327016,8.68299304 L8.65243468,8.68299304 C8.54322708,8.68299304 8.45466308,8.59442905 8.45466308,8.48522144 L8.45466308,7.61885857 Z" id="Shape"></path>
            </g>
        </g>
    </g>
</svg>