<?xml version="1.0" encoding="UTF-8"?>
<svg width="16px" height="16px" viewBox="0 0 16 16" version="1.1" xmlns="http://www.w3.org/2000/svg" xmlns:xlink="http://www.w3.org/1999/xlink">
    <title>al_wafa_centers_icon</title>
    <g id="Page-1" stroke="none" stroke-width="1" fill="none" fill-rule="evenodd">
        <path d="M14.5436611,0.481090687 C13.8112392,0.481090687 5.68032642,0.481090687 5.40303607,0.481090687 C5.07939715,0.481090687 4.81709857,0.743389271 4.81709857,1.06702819 C4.81709857,1.3906671 5.07939715,1.65296569 5.40303607,1.65296569 L5.93037982,1.65296569 L5.93037982,2.82484069 L0.715536068,2.82484069 C0.391897152,2.82484069 0.129598568,3.08713927 0.129598568,3.41077819 L0.129598568,14.8951532 C0.129598568,15.2187921 0.391897152,15.4810907 0.715536068,15.4810907 L13.4303798,15.4810907 C13.7540187,15.4810907 14.0163173,15.2187921 14.0163173,14.8951532 L14.0163173,1.65296569 L14.5436611,1.65296569 C14.8673,1.65296569 15.1295986,1.3906671 15.1295986,1.06702819 C15.1295986,0.743389271 14.8673,0.481090687 14.5436611,0.481090687 Z M5.93037982,14.3092157 L1.30147357,14.3092157 L1.30147357,3.99671569 L5.93037982,3.99671569 L5.93037982,14.3092157 Z M10.5592861,14.3092157 L9.38741107,14.3092157 L9.38741107,12.0240594 L10.5592861,12.0240594 L10.5592861,14.3092157 Z M12.8444423,14.3092157 L11.7311611,14.3092157 L11.7311611,11.4381219 C11.7311611,11.114483 11.4688625,10.8521844 11.1452236,10.8521844 L8.80147357,10.8521844 C8.47783465,10.8521844 8.21553607,11.114483 8.21553607,11.4381219 L8.21553607,14.3092157 L7.10225482,14.3092157 C7.10225482,13.4274484 7.10225482,2.13888184 7.10225482,1.65296569 L12.8444423,1.65296569 L12.8444423,14.3092157 Z M8.30342669,8.8453485 C8.30342669,8.52170958 8.56572528,8.259411 8.88936419,8.259411 L11.0573329,8.259411 C11.3809719,8.259411 11.6432704,8.52170958 11.6432704,8.8453485 C11.6432704,9.16898742 11.3809719,9.431286 11.0573329,9.431286 L8.88936419,9.431286 C8.56572528,9.431286 8.30342669,9.16898742 8.30342669,8.8453485 Z M8.30342669,6.25257506 C8.30342669,5.92893615 8.56572528,5.66663756 8.88936419,5.66663756 L11.0573329,5.66663756 C11.3809719,5.66663756 11.6432704,5.92893615 11.6432704,6.25257506 C11.6432704,6.57621398 11.3809719,6.83851256 11.0573329,6.83851256 L8.88936419,6.83851256 C8.56572528,6.83851256 8.30342669,6.57621398 8.30342669,6.25257506 Z M8.30342669,3.65980162 C8.30342669,3.33616271 8.56572528,3.07386412 8.88936419,3.07386412 L11.0573329,3.07386412 C11.3809719,3.07386412 11.6432704,3.33616271 11.6432704,3.65980162 C11.6432704,3.98344054 11.3809719,4.24573912 11.0573329,4.24573912 L8.88936419,4.24573912 C8.56572528,4.24573912 8.30342669,3.98344054 8.30342669,3.65980162 Z M2.47334857,5.75452819 C2.47334857,5.43088927 2.73564715,5.16859069 3.05928607,5.16859069 L4.17256732,5.16859069 C4.49620623,5.16859069 4.75850482,5.43088927 4.75850482,5.75452819 C4.75850482,6.0781671 4.49620623,6.34046569 4.17256732,6.34046569 L3.05928607,6.34046569 C2.73564715,6.34046569 2.47334857,6.0781671 2.47334857,5.75452819 Z M2.47334857,9.15296569 C2.47334857,8.82932677 2.73564715,8.56702819 3.05928607,8.56702819 L4.17256732,8.56702819 C4.49620623,8.56702819 4.75850482,8.82932677 4.75850482,9.15296569 C4.75850482,9.4766046 4.49620623,9.73890319 4.17256732,9.73890319 L3.05928607,9.73890319 C2.73564715,9.73890319 2.47334857,9.4766046 2.47334857,9.15296569 Z M2.47334857,12.5514032 C2.47334857,12.2277643 2.73564715,11.9654657 3.05928607,11.9654657 L4.17256732,11.9654657 C4.49620623,11.9654657 4.75850482,12.2277643 4.75850482,12.5514032 C4.75850482,12.8750421 4.49620623,13.1373407 4.17256732,13.1373407 L3.05928607,13.1373407 C2.73564715,13.1373407 2.47334857,12.8750421 2.47334857,12.5514032 Z" id="al_wafa_centers_icon" fill="#555B63" fill-rule="nonzero"></path>
    </g>
</svg>