<?xml version="1.0" encoding="UTF-8"?>
<svg width="26px" height="26px" viewBox="0 0 26 26" version="1.1" xmlns="http://www.w3.org/2000/svg" xmlns:xlink="http://www.w3.org/1999/xlink">
    <!-- Generator: Sketch 60.1 (88133) - https://sketch.com -->
    <title>apps</title>
    <desc>Created with Sketch.</desc>
    <g id="Page-1" stroke="none" stroke-width="1" fill="none" fill-rule="evenodd">
        <g id="apps">
            <g id="Group-8-Copy-2">
                <rect id="Rectangle" fill="#E0E0FB" x="6.23501251e-14" y="4.61852778e-15" width="25.7102686" height="25.7102686" rx="4"></rect>
                <g id="app" transform="translate(4.400556, 4.712500)" fill-rule="nonzero">
                    <path d="M6.48050352,7.18061332 L0.700109799,7.18061332 C0.313553448,7.18061332 0,6.86705987 0,6.48050352 L0,0.700109799 C0,0.313553448 0.313553448,0 0.700109799,0 L6.48050352,0 C6.86705987,0 7.18061332,0.313553448 7.18061332,0.700109799 L7.18061332,6.48050352 C7.18061332,6.86705987 6.86705987,7.18061332 6.48050352,7.18061332 Z" id="Path" fill="#FF641A"></path>
                    <path d="M15.4562702,7.18061332 L9.67587645,7.18061332 C9.2893201,7.18061332 8.97576665,6.86705987 8.97576665,6.48050352 L8.97576665,0.700109799 C8.97576665,0.313553448 9.2893201,0 9.67587645,0 L15.4562702,0 C15.8428265,0 16.15638,0.313553448 16.15638,0.700109799 L16.15638,6.48050352 C16.15638,6.86705987 15.8428265,7.18061332 15.4562702,7.18061332 Z" id="Path" fill="#1889C9"></path>
                    <path d="M6.48050352,16.15638 L0.700109799,16.15638 C0.313553448,16.15638 0,15.8428265 0,15.4562702 L0,9.67587645 C0,9.2893201 0.313553448,8.97576665 0.700109799,8.97576665 L6.48050352,8.97576665 C6.86705987,8.97576665 7.18061332,9.2893201 7.18061332,9.67587645 L7.18061332,15.4562702 C7.18061332,15.8428265 6.86705987,16.15638 6.48050352,16.15638 Z" id="Path" fill="#6D61EB"></path>
                    <g id="Group-11" transform="translate(8.975767, 8.975767)" fill="#E42424">
                        <path d="M3.67731353,0 C3.93057946,0 4.14122022,0.155745853 4.18490254,0.361131372 L4.19321439,0.440270562 L4.19321439,6.76309588 C4.19321439,7.0062506 3.96223771,7.20336645 3.67731353,7.20336645 C3.42404759,7.20336645 3.21340683,7.04762059 3.16972451,6.84223507 L3.16141266,6.76309588 L3.16141266,0.440270562 C3.16141266,0.197115845 3.39238935,0 3.67731353,0 Z" id="Path"></path>
                        <path d="M6.76309588,3.16141266 C7.0062506,3.16141266 7.20336645,3.39238935 7.20336645,3.67731353 C7.20336645,3.93057946 7.04762059,4.14122022 6.84223507,4.18490254 L6.76309588,4.19321439 L0.440270562,4.19321439 C0.197115845,4.19321439 0,3.96223771 0,3.67731353 C0,3.42404759 0.155745853,3.21340683 0.361131372,3.16972451 L0.440270562,3.16141266 L6.76309588,3.16141266 Z" id="Path"></path>
                    </g>
                </g>
            </g>
        </g>
    </g>
</svg>