<?xml version="1.0" encoding="UTF-8"?>
<svg width="16px" height="16px" viewBox="0 0 16 16" version="1.1" xmlns="http://www.w3.org/2000/svg" xmlns:xlink="http://www.w3.org/1999/xlink">
    <title>autism_centers_icon</title>
    <g id="Page-1" stroke="none" stroke-width="1" fill="none" fill-rule="evenodd">
        <path d="M12.2474306,0.28907364 C12.5977626,0.28907364 12.884374,0.575684969 12.884374,0.926017 C12.884374,1.27634903 12.5977626,1.56296036 12.2474306,1.56296036 L12.2474306,1.56296036 L11.8334072,1.56296036 L11.8334072,5.40035294 C12.6698036,5.23532364 13.497997,5.00173966 14.2856435,4.74767716 C14.4767177,4.68398575 14.6996669,4.71583145 14.8588954,4.84321427 C15.018124,4.97059708 15.1137197,5.1616713 15.1137197,5.35277481 L15.1137197,5.35277481 L15.1137197,14.6521303 C15.1137197,15.0024623 14.8271083,15.2890736 14.4767763,15.2890736 L14.4767763,15.2890736 L0.782479428,15.2890736 C0.432147397,15.2890736 0.145536068,15.0024623 0.145536068,14.6521303 L0.145536068,14.6521303 L0.145536068,5.38462052 C0.145536068,5.193517 0.241073178,5.00244278 0.400301693,4.87505997 C0.559530209,4.74767716 0.782479428,4.74767716 0.973553647,4.81136856 C0.973553647,4.81136856 1.01066927,4.82514864 1.08199427,4.84942122 L1.21427552,4.89328851 C1.58110287,5.01208966 2.34919427,5.23928751 3.39394427,5.43392716 L3.39394427,5.43392716 L3.39394427,1.56296036 L3.01176654,1.56296036 C2.66143451,1.56296036 2.37482318,1.27634903 2.37482318,0.926017 C2.37482318,0.575684969 2.66143451,0.28907364 3.01176654,0.28907364 L3.01176654,0.28907364 Z M1.38754779,6.21263809 L1.38754779,14.0470326 L3.39391497,14.0470326 L3.39391497,6.67801895 C2.55696185,6.52845841 1.87982318,6.35742325 1.38754779,6.21263809 L1.38754779,6.21263809 Z M8.23469622,10.416476 L7.02450091,10.416476 L7.02450091,14.0470619 L8.23469622,14.0470619 L8.23469622,10.416476 Z M10.5913661,1.56296036 L4.66780169,1.56296036 L4.66780169,14.0470619 L5.7824599,14.0470619 L5.7824599,9.81137833 C5.7824599,9.4610463 6.06907122,9.17443497 6.41940326,9.17443497 L6.41940326,9.17443497 L8.87163958,9.17443497 C9.22197162,9.17443497 9.50858294,9.4610463 9.50858294,9.81137833 L9.50858294,9.81137833 L9.50858294,14.0470619 L10.5913661,14.0470619 L10.5913661,1.56296036 Z M13.8716201,6.21263809 C13.2082216,6.39840958 12.5226161,6.56144669 11.8334072,6.68455216 L11.8334072,6.68455216 L11.8334072,14.0470326 L13.8716201,14.0470326 Z M8.33023333,3.39959566 C8.68056537,3.39959566 8.96717669,3.68623628 8.96717669,4.03653902 C8.96717669,4.38687105 8.68056537,4.67348238 8.33023333,4.67348238 L8.33023333,4.67348238 L6.8971181,4.67348238 C6.54678607,4.67348238 6.26017474,4.38687105 6.26017474,4.03653902 C6.26017474,3.68620698 6.54678607,3.39959566 6.8971181,3.39959566 L6.8971181,3.39959566 Z" id="autism_centers_icon" fill="#555B63" fill-rule="nonzero"></path>
    </g>
</svg>