<?xml version="1.0" encoding="UTF-8"?>
<svg width="30px" height="30px" viewBox="0 0 30 30" version="1.1" xmlns="http://www.w3.org/2000/svg" xmlns:xlink="http://www.w3.org/1999/xlink">
    <!-- Generator: Sketch 60.1 (88133) - https://sketch.com -->
    <title>banks</title>
    <desc>Created with Sketch.</desc>
    <g id="Page-1" stroke="none" stroke-width="1" fill="none" fill-rule="evenodd">
        <g id="banks">
            <circle id="Oval" fill="#8BC34A" cx="15" cy="15" r="15"></circle>
            <polygon id="Path" fill="#FFFFFF" fill-rule="nonzero" points="20.7152309 20.5978412 20.7152309 14.5882353 18.5903697 14.5882353 18.5903697 20.5978412 15.8858106 20.5978412 15.8858106 14.5882353 13.7609494 14.5882353 13.7609494 20.5978412 11.0566891 20.5978412 11.0566891 14.5882353 8.93182788 14.5882353 8.93182788 20.5978412 7 20.5978412 7 22 22.6470588 22 22.6470588 20.5978412"></polygon>
            <path d="M14.8235294,8 L7,12.417812 L7,13.7647059 L22.6470588,13.7647059 L22.6470588,12.417812 L14.8235294,8 Z M14.8235294,12.417812 C14.1299838,12.417812 13.567916,11.8576232 13.567916,11.167061 C13.567916,10.4764988 14.1299838,9.91631004 14.8235294,9.91631004 C15.517075,9.91631004 16.0791428,10.4764988 16.0791428,11.167061 C16.0791428,11.8576232 15.517075,12.417812 14.8235294,12.417812 Z" id="Shape" fill="#FFFFFF" fill-rule="nonzero"></path>
        </g>
    </g>
</svg>