<?xml version="1.0" encoding="UTF-8"?>
<svg width="30px" height="30px" viewBox="0 0 30 30" version="1.1" xmlns="http://www.w3.org/2000/svg" xmlns:xlink="http://www.w3.org/1999/xlink">
    <!-- Generator: Sketch 60.1 (88133) - https://sketch.com -->
    <title>blue_book-basins</title>
    <desc>Created with Sketch.</desc>
    <g id="Page-1" stroke="none" stroke-width="1" fill="none" fill-rule="evenodd">
        <g id="blue_book-basins">
            <g id="petroleum-" fill="#F7E7D4">
                <g id="travel_agencies-copy">
                    <circle id="Oval" cx="15" cy="15" r="15"></circle>
                </g>
            </g>
            <g id="Group-82" transform="translate(5.978744, 7.780990)" fill-rule="nonzero">
                <path d="M8.62031086,2.06929958 C8.62031086,2.01416969 8.58182017,1.94560814 8.53450869,1.9169406 C8.53450869,1.9169406 7.12137913,1.05811707 5.41275333,0.548917313 C3.70412753,0.0397175554 2.10495963,-2.93098879e-14 2.10495963,-2.93098879e-14 C2.04982973,-0.00117880304 2.00472346,0.042925113 2.00472346,0.098055008 L2.00472346,10.3221446 C2.00472346,10.3772745 2.04982973,10.4261898 2.10455868,10.4308006 C2.10455868,10.4308006 3.77569616,10.5727351 6.6155874,11.5504387 C7.37357334,11.8114537 8.52949688,12.3370922 8.52949688,12.3370922 C8.57961497,12.359946 8.6207118,12.3334837 8.6207118,12.2783538 L8.62031086,2.06929958 Z" id="Path" fill="#FF641A"></path>
                <path d="M9.42179929,12.2783538 C9.42179929,12.3334837 9.46289612,12.359946 9.51301421,12.3370922 C9.51301421,12.3370922 10.6689378,11.8114537 11.4269237,11.5504387 C14.2668149,10.5727351 15.9379524,10.4308006 15.9379524,10.4308006 C15.9926814,10.4261898 16.0377876,10.3772745 16.0377876,10.3221446 L16.0377876,0.098055008 C16.0377876,0.042925113 15.9926814,-0.00117880304 15.9375515,0.000191920542 C15.9375515,0.000191920542 14.3383836,0.0399180278 12.6297578,0.549117785 C10.921132,1.05831754 9.5080024,1.91714107 9.5080024,1.91714107 C9.46069093,1.94580862 9.42220024,2.01437016 9.42220024,2.06929958 L9.42179929,12.2783538 Z" id="Path" fill="#FF641A"></path>
                <path d="M1.20283407,10.3221446 C1.20283407,10.3772745 1.20283407,10.4674871 1.20303455,10.522617 L1.20383643,11.0564748 C1.20403691,11.1116047 1.24914318,11.1607205 1.30387214,11.1655318 L1.83572527,11.2124423 C1.89065469,11.2172537 1.9804663,11.2252725 2.03539572,11.2304848 C2.03539572,11.2304848 3.66122645,11.3814405 6.35437194,12.3086251 C6.98205085,12.5245338 8.09888229,13.0207029 8.09888229,13.0207029 C8.14920084,13.0429553 8.15321029,13.0868587 8.10770307,13.1177315 L6.91028175,13.9300454 C6.86557642,13.962522 6.82909045,13.9891848 6.82888998,13.9889854 C6.82888998,13.9889854 6.78679078,13.9723451 6.73546986,13.9518969 C6.73546986,13.9518969 6.21163563,13.7436061 5.89769593,13.6355516 C3.41404404,12.780537 1.90649201,12.6287794 1.90649201,12.6287794 C1.85176306,12.6233667 1.76175097,12.6149468 1.70702202,12.609935 L0.0996347557,12.4680006 C0.0451062777,12.4631893 -1.80300219e-13,12.414274 -1.80300219e-13,12.3589437 L-1.80300219e-13,2.90466785 C-1.80300219e-13,2.84953795 0.0280661284,2.76914854 0.0623468995,2.72584651 C0.0623468995,2.72584651 0.231345087,2.51214299 0.540473443,2.20301464 C0.8496018,1.89388628 1.12565222,1.66554828 1.12565222,1.66554828 C1.16795188,1.63046562 1.20283407,1.64670388 1.20283407,1.70183377 L1.20283407,10.3221446 Z" id="Path" fill="#1889C9"></path>
                <path d="M10.2872384,14.3791035 C10.3415664,14.3696813 10.3485829,14.3366033 10.3026748,14.3059311 L9.10605535,13.5599735 C9.05934529,13.5307045 8.98296533,13.5307045 8.9360548,13.5599735 L7.73963584,14.3059311 C7.69372768,14.3366033 7.70094468,14.3696813 7.75507221,14.3791035 C7.75507221,14.3791035 8.09346953,14.4380424 9.0208546,14.4380424 C9.94823967,14.4380424 10.2872384,14.3791035 10.2872384,14.3791035 Z" id="Path" fill="#BF1E1E"></path>
                <path d="M16.839677,1.70183377 C16.839677,1.64670388 16.8745592,1.63046562 16.9170593,1.66554828 C16.9170593,1.66554828 17.1931098,1.89388628 17.5022381,2.20301464 C17.8113665,2.51214299 17.9803647,2.72584651 17.9803647,2.72584651 C18.014445,2.76914854 18.0425111,2.84953795 18.0425111,2.90466785 L18.0425111,12.3589437 C18.0425111,12.4140736 17.9974048,12.4631893 17.9426759,12.4680006 L16.3352886,12.609935 C16.2805597,12.6147464 16.1905476,12.6231662 16.1358186,12.6287794 C16.1358186,12.6287794 14.6280661,12.7807375 12.1446147,13.6355516 C11.8308755,13.7436061 11.3068408,13.9518969 11.3068408,13.9518969 C11.2555198,13.9723451 11.2134206,13.9889854 11.2134206,13.9889854 C11.2132202,13.9891848 11.1765337,13.962522 11.1320289,13.9300454 L9.93460755,13.1177315 C9.88889986,13.0868587 9.89310978,13.0429553 9.94342834,13.0207029 C9.94342834,13.0207029 11.0602598,12.5245338 11.6879387,12.3086251 C14.3810842,11.3814405 16.0069149,11.2304848 16.0069149,11.2304848 C16.0618443,11.225473 16.1516559,11.2174541 16.2065854,11.2124423 L16.7384385,11.1655318 C16.7931674,11.1607205 16.8382737,11.1116047 16.8384742,11.0564748 L16.8392761,10.522617 C16.839677,10.4674871 16.839677,10.3772745 16.839677,10.3221446 L16.839677,1.70183377 Z" id="Path" fill="#1889C9"></path>
            </g>
        </g>
    </g>
</svg>