<?xml version="1.0" encoding="UTF-8"?>
<svg width="30px" height="31px" viewBox="0 0 30 31" version="1.1" xmlns="http://www.w3.org/2000/svg" xmlns:xlink="http://www.w3.org/1999/xlink">
    <!-- Generator: Sketch 60.1 (88133) - https://sketch.com -->
    <title>blue_book_basins_pin</title>
    <desc>Created with Sketch.</desc>
    <g id="Page-1" stroke="none" stroke-width="1" fill="none" fill-rule="evenodd">
        <g id="blue_book_basins_pin" transform="translate(0.000000, 0.500000)">
            <circle id="Oval-Copy-4" fill="#D4EFF7" cx="15" cy="15" r="15"></circle>
            <g transform="translate(4.500000, 8.500000)" fill="#4DB546" fill-rule="nonzero" id="Group-49">
                <g>
                    <g id="noun_asia_416782" transform="translate(0.809763, 0.555402)">
                        <path d="M14.7563365,13.5201009 L14.5797314,13.3434958 L14.5993542,13.1865135 L14.7759593,13.1668907 L15.1095467,13.1472679 L15.3057746,13.1865135 L15.4627569,13.1472679 L15.6197392,12.95104 L15.5804936,12.9117945 L15.3842657,13.049154 L15.1487923,13.049154 L14.893696,13.0295312 L14.7367137,12.9706628 L14.5601086,13.1080223 L14.5208631,13.2061363 L14.4227491,13.5004781 L14.4031263,13.6574604 L14.3246352,13.7948199 L14.3835035,13.9321794 L14.4619947,13.9321794 L14.5012403,14.1284073 L14.4423719,14.3050124 L14.5208631,14.3638808 L14.6385998,14.344258 C14.6385998,14.1676529 14.618977,13.9910478 14.618977,13.8340655 L14.7563365,13.7751971 L14.7367137,13.971425 L14.8740732,14.0891617 L14.8544505,14.1676529 L14.9133188,14.2265212 L15.1095467,14.1480301 L15.0114328,14.3050124 L15.0899239,14.3835035 L15.1880379,14.3246352 L15.1880379,14.1872757 L15.0114328,13.9321794 L15.0506783,13.8733111 L14.8544505,13.6182148 L15.0310555,13.5397237 L15.1095467,13.4219869 L15.1880379,13.4416097 L15.2076606,13.3434958 L14.8348277,13.4023642 L14.7563365,13.5201009 Z M14.8348277,14.9329416 L14.7170909,14.8740732 L14.5404859,14.9133188 L14.5404859,14.99181 L14.7955821,15.0114328 L15.0899239,14.9525644 L15.1095467,14.8348277 L14.9525644,14.9133188 L14.8348277,14.9329416 Z M14.7955821,8.59478111 L14.9133188,8.24157093 L14.9525644,8.10421141 L14.8544505,8.04534305 L14.6974682,8.20232535 L14.5797314,8.43779881 L14.5993542,8.59478111 L14.6974682,8.7713862 L14.7955821,8.59478111 Z M15.6589848,10.8121561 L15.6001164,10.733665 L15.4038885,10.733665 L15.5216252,10.8906473 L15.5216252,10.9691384 L15.4038885,10.9495157 L15.4431341,11.0672524 L15.5020025,11.0868752 L15.5020025,11.2242347 L15.6001164,11.1849891 L15.5608708,11.0672524 L15.5608708,11.008384 L15.7178531,11.0672524 L15.6589848,10.8121561 Z M14.5404859,10.1449814 L14.5797314,10.2430953 L14.6778454,10.360832 L14.6974682,10.2823409 L14.7563365,10.3215864 L14.6974682,10.3804548 L14.6778454,10.458946 L14.7759593,10.4981915 L14.9525644,10.458946 L15.0703011,10.5766827 L15.1291695,10.4981915 L15.2076606,10.5963055 L15.3646429,10.6944194 L15.3842657,10.5963055 L15.3253974,10.5963055 L15.3450202,10.4785688 L15.0899239,10.360832 L15.0114328,10.4000776 L14.9133188,10.360832 L14.8544505,10.2038497 L14.893696,10.0468674 L15.0114328,9.98799905 L15.0703011,9.81139396 L15.0114328,9.65441166 L15.0506783,9.57592051 L15.0310555,9.51705214 L14.9721872,9.57592051 L14.8544505,9.51705214 L14.7367137,9.51705214 L14.6778454,9.71328002 L14.6582226,10.0272446 L14.5797314,9.96837626 L14.5404859,10.1449814 Z M14.344258,14.8740732 L14.2265212,14.893696 L14.1480301,14.8348277 L14.0891617,14.9133188 L13.971425,14.9133188 L13.9125566,15.0310555 L14.0106706,15.0310555 C14.1284073,15.0114328 14.246144,14.99181 14.3835035,14.9721872 L14.344258,14.8740732 Z M11.75405,14.0891617 L11.8129183,13.8340655 L11.7148044,13.7163288 L11.5774449,13.696706 L11.4989537,13.5789692 L11.4597081,13.4416097 L11.381217,13.4416097 L11.2634803,13.3631186 L11.3419714,13.2061363 L11.1849891,13.1080223 L11.106498,12.95104 L10.9495157,12.8136805 L10.7532878,12.8136805 L10.5570599,12.5978298 L10.4393232,12.5193387 L10.2823409,12.3819792 L10.1057358,12.1857513 C9.96837626,12.1661285 9.81139396,12.1465057 9.67403445,12.1465057 L9.69365723,12.2446197 L9.9095079,12.4604703 L10.0664902,12.5782071 L10.1646041,12.7548121 L10.3412092,12.8725489 L10.4197004,13.0295312 L10.4785688,13.2061363 L10.6551738,13.3631186 L10.8121561,13.6378376 L10.9102701,13.7948199 L11.0672524,13.9518022 L11.1457435,14.0695389 L11.4008398,14.2265212 L11.5578221,14.3835035 L11.7736728,14.3835035 L11.75405,14.0891617 Z M15.2469062,11.5185765 L15.1487923,11.5774449 L15.0310555,11.6363132 L14.9525644,11.8129183 L14.99181,11.8717867 L15.1291695,11.75405 L15.2272834,11.75405 L15.2861518,11.6755588 L15.4038885,11.7736728 L15.3450202,11.8717867 L15.4038885,12.0091462 L15.639362,12.1268829 L15.6982303,12.028769 L15.639362,11.8914095 L15.7374759,11.7932955 L15.8159671,11.9895234 L15.8748354,11.8129183 C15.8552126,11.6755588 15.8355899,11.5381993 15.8159671,11.4008398 L15.6589848,11.3027258 L15.6786075,11.4597081 L15.541248,11.4597081 L15.5020025,11.5578221 L15.3450202,11.6166904 L15.2469062,11.5185765 Z M13.1668907,14.7367137 L13.0883995,14.5993542 L12.7351894,14.5208631 L12.6959438,14.5993542 L12.3231108,14.5797314 L12.2838652,14.5208631 L12.2053741,14.5012403 L12.0483918,14.4227491 L11.8129183,14.4031263 L11.6755588,14.5993542 L11.8521639,14.618977 L11.8914095,14.6974682 L12.2446197,14.7759593 L12.3231108,14.7563365 L12.4604703,14.7759593 L12.6959438,14.8544505 L12.8725489,14.893696 L13.0687768,14.9133188 L13.2453818,14.9133188 L13.4612325,14.99181 L13.696706,14.9133188 L13.4612325,14.7955821 L13.1668907,14.7367137 Z M14.3638808,11.2438575 L14.5012403,11.1261208 L14.4619947,10.9691384 L14.3638808,11.1653663 L14.246144,11.3027258 L14.1087845,11.4204626 L14.0106706,11.5774449 L14.2657668,11.381217 L14.3638808,11.2438575 Z M6.80910741,11.4008398 L6.67174789,11.2831031 L6.57363395,11.6166904 L6.61287953,11.9110323 L6.71099347,12.0680146 L6.88759856,12.028769 L6.96608971,11.9699006 L7.00533529,11.75405 L6.90722135,11.5381993 L6.80910741,11.4008398 Z M14.0695389,13.2257591 L14.1284073,13.0883995 L14.3638808,13.0687768 L14.1480301,12.8921717 L14.1872757,12.7940577 L14.0499162,12.5978298 L14.1676529,12.4212248 L14.3050124,12.3623564 L14.2657668,12.2642425 L14.4031263,12.2446197 L14.4227491,12.1661285 C14.3246352,12.1268829 14.2265212,12.0876374 14.1284073,12.0483918 L14.1284073,11.9699006 L14.0302934,11.8717867 L13.9518022,11.8717867 L13.8536883,12.028769 L13.6574604,12.1661285 L13.4808553,12.2838652 L13.4023642,12.3623564 L13.3042502,12.4800931 L13.1668907,12.6370754 L12.9314172,12.676321 L12.8529261,12.7155666 L12.8136805,12.8921717 L12.6566982,12.9314172 L12.5193387,12.8725489 L12.401602,13.0099084 L12.3819792,13.1472679 L12.401602,13.323873 L12.4997159,13.5004781 L12.5978298,13.5593465 L12.6370754,13.8340655 L12.7940577,13.8536883 L12.9314172,13.8340655 L13.0099084,13.9321794 L13.2453818,13.8536883 L13.3434958,13.9125566 L13.4808553,13.9321794 L13.5593465,14.0499162 L13.7751971,13.9518022 L13.7948199,14.0302934 L13.8733111,13.7359515 L13.8733111,13.5397237 L14.0695389,13.4023642 L14.0695389,13.2257591 Z M12.6959438,9.34044705 L12.7744349,9.24233311 L12.7351894,9.16384196 L12.6174526,9.16384196 L12.401602,9.22271032 L12.303488,9.32082426 L12.303488,9.49742935 L12.4604703,9.55629772 L12.6370754,9.45818378 L12.6959438,9.34044705 Z M14.5404859,15.0899239 L14.3638808,15.1291695 L14.618977,15.266529 L14.6974682,15.266529 L14.7170909,15.2076606 L14.6385998,15.1487923 L14.5404859,15.0899239 Z M17.1895622,6.24004656 L17.2876762,6.1811782 L17.3661673,6.25966935 L17.483904,6.12230983 L17.4642813,6.02419589 L17.3269217,5.96532753 L17.2288078,6.08306426 L17.1110711,6.06344147 L16.9933343,6.20080098 L16.9933343,6.31853771 L17.1306939,6.37740607 L17.1895622,6.24004656 Z M18.7201397,13.7555743 L18.504289,13.7163288 C18.4061751,13.6574604 18.2884383,13.6182148 18.1903244,13.5789692 L18.0137193,13.5789692 L17.7782459,13.696706 L17.6212636,13.9125566 L17.4250357,13.7948199 L17.3661673,13.4808553 L17.3269217,13.4023642 L17.0129571,13.323873 L16.9148432,13.3827414 L16.6401242,13.4219869 L16.7186153,13.5201009 L16.8952204,13.5593465 L16.9737116,13.6770832 L17.2680534,13.6770832 L17.2876762,13.7359515 L17.1503166,13.7359515 L16.934466,13.8144427 L17.0914483,13.9125566 L17.0914483,13.9910478 L17.1306939,14.0695389 L17.209185,14.0499162 L17.2680534,13.9321794 L17.5623952,14.1087845 L17.7193775,14.1284073 L18.1118333,14.3050124 L18.2099472,14.4816175 L18.2688156,14.6974682 L18.1510788,14.7563365 L18.0529649,14.9133188 L18.3080611,14.9133188 L18.3473067,14.8544505 L18.5435346,14.893696 L18.7201397,15.0506783 C18.7201397,14.618977 18.7201397,14.1872757 18.7201397,13.7555743 Z M16.4242735,13.7948199 L16.1888,13.7948199 L16.1495545,13.9125566 L16.286914,13.9125566 L16.4046507,13.8929338 L16.561633,13.9125566 L16.7382381,13.9910478 L16.6597469,13.8340655 L16.4242735,13.7948199 Z M17.3857901,14.3835035 L17.3465445,14.4619947 L17.3661673,14.618977 L17.4642813,14.4816175 L17.4642813,14.3835035 L17.4446585,14.3246352 L17.3857901,14.3835035 Z M18.5827802,4.27776777 L18.504289,4.43475007 L18.5435346,4.72909189 L18.4257979,5.0430565 C18.2884383,5.16079322 18.1510788,5.27852995 18.0137193,5.39626668 L17.8763598,5.27852995 L17.6605091,5.71023129 L17.4642813,5.65136292 L17.0718255,5.72985407 L16.9148432,5.88683638 L16.7186153,6.0045731 L16.6205014,6.16155541 L16.4242735,6.24004656 L16.5027646,6.39702886 L16.6205014,6.45589723 L16.5812558,6.67174789 L16.6793697,6.76986183 L16.8167292,6.67174789 L16.9540888,6.27929214 L16.7578609,6.10268704 L16.9933343,6.10268704 L17.2288078,5.98495032 L17.582018,5.92608195 L17.582018,6.10268704 L17.7193775,6.20080098 L17.9940965,5.92608195 L18.3473067,5.90645916 L18.602403,5.78872244 L18.7005169,5.61211735 L18.6416485,5.49438062 L18.7201397,5.29815274 L18.7201397,5.0430565 L18.8967448,4.78796025 L18.8967448,4.57210959 L18.779008,4.2188994 L18.5827802,4.27776777 Z M19.5835423,3.4143651 L19.4461828,3.53210183 L19.3088233,3.47323346 L19.151841,3.37511952 L18.9163676,3.0807777 L18.8574992,3.29662837 L18.7986308,3.66946134 L18.5827802,3.68908413 L18.4846662,3.9049348 L18.504289,4.17965383 L18.7201397,4.17965383 L18.8182536,3.88531201 L19.1322182,4.0619171 L19.3088233,3.78719807 L19.6031651,3.70870692 L19.5835423,3.4143651 Z M16.2280456,13.3827414 L16.1495545,13.2846274 L16.1888,13.1668907 L16.286914,13.1865135 L16.3065368,13.0099084 L16.286914,12.9314172 L16.1691772,12.9117945 L16.1495545,12.7940577 L16.0906861,12.8725489 L16.0514405,13.0295312 L16.1103089,13.2846274 L16.1888,13.4023642 L16.2280456,13.3827414 Z M14.7367137,10.6944194 L14.8152049,10.7925334 L14.8740732,10.6159283 L14.7955821,10.5374371 L14.618977,10.5374371 L14.7367137,10.6944194 Z M15.7963443,13.9518022 L15.9337038,13.9910478 L16.0121949,13.9321794 L15.9533266,13.8733111 L15.7570987,13.8733111 L15.7963443,13.9518022 Z M15.1487923,11.0672524 L15.1291695,11.1849891 L15.0703011,11.2438575 L15.0310555,11.3027258 L15.1487923,11.4400854 L15.2076606,11.381217 L15.266529,11.2634803 L15.3450202,11.2046119 L15.3646429,11.008384 L15.2272834,11.2046119 L15.266529,11.0672524 L15.1487923,11.0672524 Z M14.9329416,10.8710245 L14.9721872,10.9691384 L14.9525644,11.0672524 L14.9525644,11.1653663 L15.0703011,11.106498 L15.1684151,11.0280068 L15.1684151,10.9495157 L15.0506783,10.9495157 L14.9329416,10.8710245 Z M16.3654051,5.80834522 L16.4438963,5.67098571 L16.4438963,5.39626668 L16.4046507,5.23928438 L16.2280456,4.94494256 L16.1103089,4.82720583 L16.0318177,4.78796025 L16.0514405,4.76833747 L16.0514405,4.65060074 L16.1299317,4.57210959 L16.2672912,4.53286401 L16.3457823,4.45437286 L16.3850279,4.41512728 L16.4831419,4.35625892 L16.4831419,4.16003104 L16.5420102,4.0619171 L16.6205014,3.96380316 L16.6989925,3.98342595 L16.6793697,3.94418037 C16.6793697,3.9049348 16.6793697,3.84606643 16.6793697,3.80682086 L16.7774837,3.80682086 L16.7971065,3.49285625 L16.7382381,3.2573828 L16.9148432,3.15926886 L17.1503166,3.21813722 L17.2876762,2.94341819 L17.3465445,2.62945358 L17.4250357,2.53133964 L17.5231496,2.25662061 L17.1895622,2.33511176 L17.0129571,2.45284849 L16.7186153,2.45284849 L16.6597469,2.15850667 L16.4242735,1.942656 L16.0710633,1.84454206 L15.9925722,1.55020025 L15.914081,1.35397237 L15.8355899,1.21661285 L15.7178531,0.883025456 L15.541248,0.765288729 L15.2469062,0.667174789 L14.99181,0.667174789 L14.7367137,0.726043153 L14.5797314,0.883025456 L14.7170909,0.981139396 L14.7170909,1.15774449 L14.5993542,1.25585843 L14.4227491,1.58944582 L14.4227491,1.72680534 L14.1480301,1.92303322 L13.9125566,1.80529649 L13.6770832,1.82491928 L13.5789692,1.72680534 L13.4612325,1.68755976 L13.1668907,1.90341043 L12.8921717,1.96227879 L12.7155666,2.04076994 L12.4604703,1.98190158 L12.2838652,1.98190158 L12.1661285,1.82491928 L11.9699006,1.66793697 L11.7736728,1.6286914 L11.5185765,1.66793697 L11.3223486,1.72680534 L11.0476296,1.58944582 L11.008384,1.37359515 L10.7729106,1.295104 L10.5963055,1.25585843 L10.3804548,1.11849891 L10.1842269,1.45208631 L10.2627181,1.6286914 L10.0664902,1.84454206 L9.77214839,1.76605091 L9.57592051,1.74642813 L9.43856099,1.60906861 L9.22271032,1.60906861 L9.04610523,1.51095467 L8.75176341,1.64831419 L8.37893044,1.90341043 C8.2808165,1.92303322 8.18270256,1.942656 8.08458862,1.98190158 L7.98647468,1.7856737 L7.73137844,1.82491928 L7.65288729,1.72680534 L7.51552777,1.66793697 L7.41741383,1.49133188 L7.29967711,1.43246352 L7.00533529,1.51095467 L6.73061626,1.33434958 L6.63250232,1.49133188 L6.1811782,0.667174789 L5.92608195,0.412078546 L6.0045731,0.313964607 L5.51400341,0.627929214 L5.31777553,0.647552001 L5.33739831,0.47094691 L5.10192486,0.353210183 L4.88607419,0.431701334 L4.82720583,0.0784911517 L4.47399565,0 L4.29739055,0.137359515 L3.80682086,0.255096243 L3.70870692,0.333587395 L2.96304098,0.451324122 L2.86492704,0.588683638 L3.00228655,0.824157093 L2.80605867,0.902648244 L2.84530425,1.00076218 L2.64907637,1.15774449 L2.96304098,1.37359515 L2.94341819,1.51095467 L2.66869916,1.49133188 L2.60983079,1.58944582 L2.35473455,1.43246352 L2.04076994,1.43246352 L1.82491928,1.56982303 C1.60906861,1.45208631 1.37359515,1.33434958 1.15774449,1.21661285 L0.843779881,1.21661285 L0.431701334,1.56982303 L0.412078546,1.80529649 L0.215850667,1.6286914 L0.0588683638,1.96227879 L0.117736728,2.02114716 L0,2.25662061 L0.176605091,2.45284849 L0.313964607,2.45284849 L0.431701334,2.64907637 L0.412078546,2.80605867 L0.510192486,2.84530425 L0.686797577,2.78643588 L0.922271032,2.66869916 L1.09887612,2.74719031 L1.295104,2.72756752 L1.33434958,2.90417261 L1.295104,3.17889164 L1.11849891,3.13964607 L0.94189382,3.17889164 L0.94189382,3.37511952 L0.745665941,3.35549673 L0.745665941,3.45361067 L0.863402669,3.53210183 L0.961516608,3.78719807 L1.19699006,3.88531201 L1.23623564,3.98342595 L1.17736728,4.04229431 L1.19699006,4.12078546 L1.25585843,4.29739055 L1.27548121,4.10116268 L1.43246352,4.04229431 L1.49133188,4.19927662 L1.6286914,4.35625892 L1.45208631,4.43475007 L1.25585843,4.37588171 L1.21661285,4.59173237 L1.37359515,4.59173237 L1.31472679,4.76833747 L1.47170909,4.84682862 L1.45208631,5.10192486 L1.47170909,5.29815274 L1.64831419,5.25890716 L1.7856737,5.10192486 L1.92303322,5.10192486 L2.00152437,5.06267928 L2.13888388,5.08230207 L2.35473455,5.2000388 L2.51171685,5.21966159 L2.74719031,5.43551225 L2.90417261,5.43551225 L2.9237954,5.65136292 C2.88454982,5.80834522 2.84530425,5.96532753 2.78643588,6.12230983 L2.86492704,6.16155541 L2.78643588,6.29891492 L2.84530425,6.4951428 L2.86492704,6.65212511 L3.02190934,6.69137068 L3.04153213,6.84835298 L2.86492704,7.06420365 L2.96304098,7.18194038 L3.04153213,7.31929989 L3.23776001,7.41741383 L3.23776001,7.61364171 L3.33587395,7.65288729 L3.35549673,7.75100123 L3.06115492,7.84911517 L2.98266376,8.10421141 L3.2573828,8.06496584 L3.5713474,8.06496584 L3.94418037,8.02572026 L4.10116268,8.18270256 L4.16003104,8.33968487 L4.29739055,8.39855323 L4.53286401,8.57515832 L4.59173237,8.65364947 L4.49361843,8.73214063 L4.74871468,8.98723687 L4.88607419,9.00685966 L5.18041601,8.88912293 L5.21966159,9.08535081 L5.21966159,9.34044705 C5.27852995,9.55629772 5.31777553,9.79177117 5.3570211,10.0076218 L5.53362619,10.2823409 L5.57287177,10.4197004 L5.63174013,10.6747966 L5.72985407,10.8710245 L5.80834522,10.9691384 C5.86721359,11.1261208 5.92608195,11.2831031 5.98495032,11.4597081 L6.1811782,11.655936 L6.25966935,11.5970677 L6.31853771,11.4597081 L6.4951428,11.4008398 L6.43627444,11.3419714 L6.53438838,11.1849891 L6.63250232,11.1849891 L6.63250232,10.8514017 L6.71099347,10.6551738 L6.69137068,10.4785688 L6.65212511,10.2038497 L6.71099347,10.0468674 L6.80910741,10.0272446 L6.9857125,9.94875348 L7.08382644,9.88988511 L7.08382644,9.79177117 L7.28005432,9.65441166 L7.43703662,9.51705214 L7.65288729,9.2619559 L7.94722911,9.12459638 L8.04534305,9.00685966 L8.02572026,8.84987735 L8.26119372,8.81063178 L8.39855323,8.81063178 L8.41817602,8.73214063 L8.49666717,8.75176341 L8.55553553,8.7713862 L8.57515832,8.73214063 L8.65364947,8.7713862 L8.71251784,8.65364947 L8.69289505,8.55553553 L8.86950014,8.55553553 L8.94799129,8.67327226 L9.02648244,8.83025456 L9.04610523,8.94799129 L9.1049736,9.06572802 L9.22271032,9.22271032 L9.34044705,9.24233311 L9.32082426,9.32082426 L9.47780657,9.55629772 L9.51705214,9.7525256 L9.45818378,10.0076218 L9.57592051,10.0468674 L9.69365723,10.0664902 L9.9095079,9.92913069 L10.0468674,9.83101675 L10.1253586,10.0076218 L10.1646041,10.2627181 L10.2234725,10.4981915 L10.3019637,10.5963055 L10.2823409,10.8121561 L10.3412092,10.9298929 L10.2823409,11.0868752 L10.3019637,11.2438575 L10.2430953,11.4400854 L10.2430953,11.5774449 L10.2823409,11.6951816 L10.3215864,11.5774449 C10.4000776,11.6363132 10.458946,11.7148044 10.5178143,11.7932955 L10.5570599,11.8914095 L10.6355511,11.9699006 L10.6747966,12.0483918 L10.6551738,12.1857513 L10.733665,12.303488 L10.7532878,12.4604703 L10.8710245,12.5978298 L10.8906473,12.6959438 L11.1261208,12.8529261 L11.3223486,12.9902856 L11.4597081,12.9706628 L11.4597081,12.9117945 L11.381217,12.7351894 L11.3027258,12.676321 L11.2831031,12.5585843 L11.2634803,12.4997159 L11.2831031,12.401602 L11.2634803,12.2642425 L11.1849891,12.1465057 L11.0672524,12.028769 L11.0280068,12.0091462 L10.9298929,11.9110323 L10.8121561,11.8914095 L10.6944194,11.7736728 L10.6551738,11.5970677 L10.5766827,11.4204626 L10.4393232,11.4204626 L10.4197004,11.2831031 C10.4785688,11.1261208 10.5374371,10.9691384 10.5963055,10.8121561 L10.6159283,10.5963055 L10.7925334,10.5963055 L10.7729106,10.7532878 L10.9495157,10.7532878 L11.1261208,10.8514017 L11.2242347,11.0672524 L11.3027258,11.1653663 L11.4597081,11.1849891 L11.5970677,11.3027258 L11.5381993,11.4400854 L11.6166904,11.5774449 L11.8717867,11.381217 L12.028769,11.2046119 L12.2642425,11.0672524 L12.4212248,10.9298929 L12.4408475,10.5766827 L12.3623564,10.1842269 L12.2446197,10.0076218 L12.0680146,9.88988511 C11.9502778,9.73290281 11.8521639,9.55629772 11.7344272,9.39931541 L11.7736728,9.2619559 L11.9306551,9.06572802 L12.1857513,8.88912293 L12.2838652,8.84987735 L12.5585843,8.90874572 L12.5193387,8.98723687 L12.5782071,9.14421917 L12.6959438,9.12459638 L12.7548121,8.90874572 L12.9706628,8.86950014 L13.2453818,8.7713862 L13.3631186,8.67327226 L13.4219869,8.75176341 L13.5397237,8.65364947 L13.7555743,8.63402669 C13.9518022,8.51628996 14.1284073,8.37893044 14.3050124,8.26119372 L14.4816175,8.00609747 C14.5797314,7.82949238 14.6778454,7.65288729 14.7955821,7.4762822 L14.9133188,7.45665941 L14.9721872,7.28005432 L15.0114328,7.10344923 L14.893696,7.02495808 L14.8544505,6.90722135 L14.9721872,6.84835298 L14.9721872,6.67174789 L14.8348277,6.4951428 L14.7170909,6.27929214 L14.6385998,6.04381868 L14.4227491,5.90645916 L14.5208631,5.72985407 L14.7170909,5.61211735 L14.8152049,5.47475783 L15.0899239,5.39626668 L15.0506783,5.25890716 L14.9133188,5.25890716 L14.7170909,5.12154765 L14.5012403,5.29815274 L14.344258,5.21966159 L14.344258,5.10192486 L14.1872757,5.06267928 L14.0695389,4.90569698 L14.1676529,4.78796025 L14.3638808,4.76833747 L14.4816175,4.61135516 L14.6974682,4.43475007 L14.8740732,4.33663613 L14.9721872,4.47399565 L14.8152049,4.65060074 L14.8544505,4.74871468 L14.7563365,4.8664514 L14.9721872,4.78796025 L15.1095467,4.67022353 L15.3842657,4.59173237 L15.4823797,4.67022353 L15.6001164,4.68984631 L15.6197392,4.72909189 L15.5608708,4.8664514 L15.5804936,4.90569698 L15.541248,4.94494256 L15.5020025,5.06267928 L15.5608708,5.10192486 L15.6197392,5.12154765 L15.6197392,5.16079322 L15.6786075,5.14117044 L15.6982303,5.10192486 L15.7963443,5.14117044 L15.9337038,5.3570211 L15.7963443,5.39626668 L15.8748354,5.65136292 L15.8355899,5.82796801 L15.8552126,5.96532753 L16.0318177,5.94570474 L16.1888,5.8475908 L16.3654051,5.80834522 Z M15.8748354,14.9133188 L15.7374759,14.9133188 L15.5608708,14.9525644 L15.541248,14.99181 L15.3450202,15.0703011 L15.266529,15.1880379 L15.2469062,15.2469062 L15.266529,15.266529 L15.4431341,15.2272834 L15.5804936,15.0703011 C15.6982303,15.0310555 15.8355899,14.9721872 15.9533266,14.9329416 L16.0318177,14.8740732 L15.9533266,14.8544505 L15.8748354,14.9133188 Z" id="Shape"></path>
                    </g>
                </g>
            </g>
        </g>
    </g>
</svg>