<?xml version="1.0" encoding="UTF-8"?>
<svg width="24px" height="24px" viewBox="0 0 24 24" version="1.1" xmlns="http://www.w3.org/2000/svg" xmlns:xlink="http://www.w3.org/1999/xlink">
    <!-- Generator: Sketch 60.1 (88133) - https://sketch.com -->
    <title>cart_disabled</title>
    <desc>Created with Sketch.</desc>
    <g id="Page-1" stroke="none" stroke-width="1" fill="none" fill-rule="evenodd">
        <g id="cart_disabled">
            <circle id="Oval-Copy-2" fill="#F2F2F2" cx="12" cy="12" r="12"></circle>
            <path d="M15.6,15.6 C16.2627417,15.6 16.8,16.1372583 16.8,16.8 C16.8,17.4627417 16.2627417,18 15.6,18 C14.934,18 14.4,17.46 14.4,16.8 C14.4,16.134 14.934,15.6 15.6,15.6 M6,6 L7.962,6 L8.526,7.2 L17.4,7.2 C17.7313708,7.2 18,7.46862915 18,7.8 C18,7.902 17.97,8.004 17.928,8.1 L15.78,11.982 C15.576,12.348 15.18,12.6 14.73,12.6 L10.26,12.6 L9.72,13.578 L9.702,13.65 C9.702,13.7328427 9.76915729,13.8 9.852,13.8 L16.8,13.8 L16.8,15 L9.6,15 C8.934,15 8.4,14.46 8.4,13.8 C8.4,13.59 8.454,13.392 8.544,13.224 L9.36,11.754 L7.2,7.2 L6,7.2 L6,6 M9.6,15.6 C10.2627417,15.6 10.8,16.1372583 10.8,16.8 C10.8,17.4627417 10.2627417,18 9.6,18 C8.934,18 8.4,17.46 8.4,16.8 C8.4,16.134 8.934,15.6 9.6,15.6 M15,11.4 L16.668,8.4 L9.084,8.4 L10.5,11.4 L15,11.4 Z" id="Shape" fill="#5C5E5E" fill-rule="nonzero"></path>
        </g>
    </g>
</svg>