<?xml version="1.0" encoding="UTF-8"?>
<svg width="22px" height="31px" viewBox="0 0 22 31" version="1.1" xmlns="http://www.w3.org/2000/svg" xmlns:xlink="http://www.w3.org/1999/xlink">
    <!-- Generator: Sketch 60.1 (88133) - https://sketch.com -->
    <title>chart_group_pin</title>
    <desc>Created with Sketch.</desc>
    <g id="Page-1" stroke="none" stroke-width="1" fill="none" fill-rule="evenodd">
        <g id="chart_group_pin" transform="translate(1.000000, 0.800000)">
            <g id="Group-28">
                <g id="Group-3">
                    <path d="M19.5415477,5.6739196 C18.220794,3.08050251 16.2040101,1.32180905 13.3996884,0.508190955 C10.1182312,-0.629849246 6.26225126,0.185125628 3.55079397,2.53809045 C3.55034171,2.53839196 3.5500402,2.53854271 3.54973869,2.53884422 C2.97762814,3.01040201 2.49174874,3.57105528 2.1159196,4.07155779 C2.05094472,4.13819095 1.99923618,4.22110553 1.94722613,4.30190955 C1.49978894,4.92949749 1.24878392,5.41266332 1.24878392,5.41266332 L1.25526633,5.40934673 C0.62481407,6.55869347 0.220643216,7.79668342 0.0647638191,9.13085427 C-0.025839196,10.0778894 -0.0186030151,11.0249246 0.0688341709,11.9716583 C0.204060302,13.151005 0.477226131,14.291005 1.01978894,15.3548744 C1.14129648,15.6257789 1.24667337,15.9058794 1.38777889,16.1663819 C2.56697487,18.3431156 4.17777889,20.2029648 5.72858291,22.1065327 C7.25466332,24.1887437 8.67265327,26.3276382 9.33114573,28.8777889 C9.46064322,29.3790452 9.69536683,29.8564824 10.2997387,29.8738191 C10.9422513,29.8923618 11.2137588,29.4082915 11.3545628,28.880201 C12.1559698,25.8767337 13.9211457,23.4345226 15.8102412,21.0566834 C17.1311457,19.3940201 18.5405427,17.7850251 19.4596884,15.8443719 C21.0554171,12.4750251 21.2658693,9.07824121 19.5415477,5.6739196" id="Fill-1" stroke="#FFFFFF" stroke-width="0.5" fill="#909CE1"></path>
                    <path d="M9.68959185,3.78644997 L9.68959185,17.4747186 C6.21961574,17.1290899 3.52987095,14.1963783 3.52987095,10.6305843 C3.52987095,7.06479031 6.21961574,4.12865668 9.68959185,3.78644997 Z" id="Path" fill="#FFFFFF" fill-rule="nonzero"></path>
                    <path d="M11.0789511,3.78644997 L11.0789511,9.9427488 L17.2181396,9.9427488 C16.8964653,6.69178499 14.3196487,4.10812428 11.0789511,3.78644997 Z" id="Path" fill="#FFFFFF" fill-rule="nonzero"></path>
                    <path d="M11.0789511,11.3184198 L11.0789511,17.4747186 C14.3196487,17.1530443 16.8964653,14.5693836 17.2181396,11.3184198 L11.0789511,11.3184198 Z" id="Path" fill="#FFFFFF" fill-rule="nonzero"></path>
                </g>
            </g>
        </g>
    </g>
</svg>