<?xml version="1.0" encoding="UTF-8"?>
<svg width="16px" height="16px" viewBox="0 0 16 16" version="1.1" xmlns="http://www.w3.org/2000/svg" xmlns:xlink="http://www.w3.org/1999/xlink">
    <title>childcare_centers_icon</title>
    <g id="Page-1" stroke="none" stroke-width="1" fill="none" fill-rule="evenodd">
        <path d="M0.90918269,15.2213656 C0.558034804,15.2213656 0.270731987,14.9340628 0.270731987,14.5829149 L0.270731987,0.856224818 C0.270731987,0.505076931 0.558034804,0.217774115 0.90918269,0.217774115 L8.31521085,0.217774115 C8.66635874,0.217774115 8.95366155,0.505076931 8.95366155,0.856224818 L8.95338235,3.43608916 C12.4993008,3.74238557 15.2743235,6.71080413 15.2743235,10.3372178 L15.2743235,14.5829149 C15.2743235,14.9340628 14.9870207,15.2213656 14.6358728,15.2213656 L0.90918269,15.2213656 Z M3.94173199,8.35777411 L1.51473199,8.35777411 L1.51571086,13.9763868 L3.94173199,13.9757741 L3.94173199,8.35777411 Z M7.64473199,8.35777411 L5.21773199,8.35777411 L5.21773199,13.9757741 L7.64483761,13.9763868 L7.64473199,8.35777411 Z M8.95296424,4.69013836 L8.95273199,13.9757741 L10.836732,13.9757741 L10.8370911,12.38026 C10.8370911,12.0291121 11.1243939,11.7418093 11.4755418,11.7418093 C11.8266897,11.7418093 12.1139925,12.0291121 12.1139925,12.38026 L12.113732,13.9757741 L14.0293446,13.9763868 L14.0293446,10.3372178 C14.0293446,7.41099284 11.8109418,4.99183143 8.95296424,4.69013836 Z M3.94173199,1.46177411 L1.51571086,1.46275299 L1.51473199,7.08077411 L3.94173199,7.08077411 L3.94173199,1.46177411 Z M7.64483761,1.46275299 L5.21773199,1.46177411 L5.21773199,7.08077411 L7.64473199,7.08077411 L7.64483761,1.46275299 Z" id="childcare_centers_icon" fill="#555B63" fill-rule="nonzero"></path>
    </g>
</svg>