<?xml version="1.0" encoding="UTF-8"?>
<svg width="21px" height="30px" viewBox="0 0 21 30" version="1.1" xmlns="http://www.w3.org/2000/svg" xmlns:xlink="http://www.w3.org/1999/xlink">
    <title>coast_guard</title>
    <g id="Icons" stroke="none" stroke-width="1" fill="none" fill-rule="evenodd">
        <g id="coast_guard">
            <g id="Group-3" fill="#F39B9B">
                <path d="M13.3997218,0.508133056 C10.1182645,-0.629907145 6.26228458,0.18506773 3.55082729,2.53803255 C2.97766147,3.01034411 2.49178207,3.57099738 2.11595292,4.07149989 C2.05097805,4.13813306 1.99926951,4.22104763 1.94725946,4.30185165 C1.49982227,4.92943959 1.24881724,5.41260542 1.24881724,5.41260542 L1.25529966,5.40928884 C0.624847395,6.55863557 0.220676541,7.79662552 0.0647971441,9.13079637 C-0.025805871,10.0778315 -0.0185696901,11.0248667 0.0688674959,11.9716004 C0.204093627,13.1509471 0.477259456,14.2909471 1.01982227,15.3548165 C1.14132981,15.625721 1.24670669,15.9058215 1.38781222,16.166324 C2.5670082,18.3430577 4.17781222,20.2029069 5.72861624,22.1064748 C7.25469664,24.1886858 8.67268659,26.3275803 9.33117905,28.877731 C9.46067654,29.3789873 9.69540016,29.8564245 10.299772,29.8737612 C10.9422846,29.8923039 11.2137921,29.4082336 11.3545961,28.8801431 C12.1560032,25.8766758 13.9211791,23.4344647 15.8102745,21.0566255 C17.1311791,19.3939622 18.540576,17.7849672 19.4597218,15.844314 C21.0554504,12.4749672 21.2659027,9.07818331 19.5415811,5.6738617 C18.2208273,3.08044461 16.2040434,1.32175115 13.3997218,0.508133056 Z" id="Fill-1"></path>
            </g>
            <g id="1872390" transform="translate(5.000000, 4.000000)" fill="#FFFFFF" fill-rule="nonzero">
                <path d="M2.22486512,3.06976744 L4.36103953,3.06976744 C4.19033488,2.79962791 4.09302326,2.48083256 4.09302326,2.14292791 L4.09302326,2.04651163 C4.09302326,1.88657674 4.19222791,1.74337209 4.34200698,1.68722093 L5.36526279,1.3035 C5.45213721,1.27093488 5.54786279,1.27093488 5.63473721,1.3035 L6.65799302,1.68722093 C6.80777209,1.74337209 6.90697674,1.88657674 6.90697674,2.04651163 L6.90697674,2.14292791 C6.90697674,2.48083256 6.80966512,2.79962791 6.63896047,3.06976744 L8.77513488,3.06976744 L8.96512791,2.78476512 C9.35342791,2.20227674 9.21508372,1.42127674 8.65014419,1.00675581 C8.02424419,0.547493023 6.96962558,-1.81766746e-16 5.5,-1.81766746e-16 C4.03037442,-1.81766746e-16 2.97575581,0.547493023 2.34983023,1.00675581 C1.78491628,1.42127674 1.64654651,2.20227674 2.03484651,2.78476512 L2.22486512,3.06976744 Z" id="Path"></path>
                <path d="M6.1256186,2.30721163 L5.5,2.07260465 L4.8743814,2.30721163 C4.9328093,2.64869767 5.17063953,2.9348 5.5,3.05298605 C5.82936047,2.9348 6.0671907,2.64869767 6.1256186,2.30721163 Z" id="Path"></path>
                <path d="M2.79443488,3.92413488 C3.39889767,4.8307907 4.4103093,5.37209302 5.5,5.37209302 C6.5896907,5.37209302 7.60110233,4.8307907 8.20556512,3.9241093 L8.26350698,3.8372093 L2.73649302,3.8372093 L2.79443488,3.92413488 Z" id="Path"></path>
                <polygon id="Path" points="6.45349535 10.7713279 7.31515349 9.39269535 7.05655116 9.1341186 6.02260233 10.3403837"></polygon>
                <polygon id="Path" points="4.97739767 10.3403837 3.94344884 9.1341186 3.68484651 9.39269535 4.54650465 10.7713279"></polygon>
                <path d="M4.47676977,11.7674419 C4.46234186,11.7674419 4.44783721,11.7666233 4.43333256,11.764986 C4.31714186,11.7517349 4.21333256,11.6862465 4.15137442,11.587093 L2.87230465,9.5405814 C2.77760233,9.38906279 2.80001163,9.19221395 2.92635814,9.06586744 L3.03876279,8.95346279 L2.43023256,8.95346279 C1.09020233,8.95346279 0,10.0436651 0,11.3836953 L0,12.7139279 C0,12.9258442 0.171804651,13.0976488 0.38372093,13.0976488 L5.11627907,13.0976488 L5.11627907,11.2868186 L4.74806047,11.6550372 C4.67571628,11.727407 4.57794419,11.7674419 4.47676977,11.7674419 Z M2.94186047,11.8186047 L2.1744186,11.8186047 C1.96250233,11.8186047 1.79069767,11.6468 1.79069767,11.4348837 C1.79069767,11.2229674 1.96250233,11.0511628 2.1744186,11.0511628 L2.94186047,11.0511628 C3.15377674,11.0511628 3.3255814,11.2229674 3.3255814,11.4348837 C3.3255814,11.6468 3.15377674,11.8186047 2.94186047,11.8186047 Z" id="Shape"></path>
                <path d="M8.56976744,8.95348837 L7.96126279,8.95348837 L8.07366744,9.06589302 C8.20001395,9.19223953 8.22242326,9.38906279 8.12772093,9.54060698 L6.84865116,11.5871186 C6.78669302,11.6862721 6.68288372,11.7517605 6.56669302,11.7650116 C6.55218837,11.7666488 6.53768372,11.7674674 6.52325581,11.7674674 C6.4220814,11.7674674 6.3243093,11.7274581 6.25196512,11.6550628 L5.88372093,11.2868442 L5.88372093,13.0976744 L10.6162791,13.0976744 C10.8281953,13.0976744 11,12.9258698 11,12.7139535 L11,11.3837209 C11,10.0436907 9.90979767,8.95348837 8.56976744,8.95348837 L8.56976744,8.95348837 Z M8.8255814,11.8186047 L8.05813953,11.8186047 C7.84622326,11.8186047 7.6744186,11.6468 7.6744186,11.4348837 C7.6744186,11.2229674 7.84622326,11.0511628 8.05813953,11.0511628 L8.8255814,11.0511628 C9.03749767,11.0511628 9.20930233,11.2229674 9.20930233,11.4348837 C9.20930233,11.6468 9.03749767,11.8186047 8.8255814,11.8186047 Z" id="Shape"></path>
                <path d="M5.5,9.08139535 C5.28240465,9.08139535 5.0692093,9.06238837 4.86179535,9.02626744 L5.5,9.77083953 L6.13820465,9.02626744 C5.9307907,9.06238837 5.71759535,9.08139535 5.5,9.08139535 L5.5,9.08139535 Z" id="Path"></path>
                <path d="M8.44186047,5.37209302 L8.44186047,4.85893023 C7.68820698,5.66991163 6.62813953,6.13953488 5.5,6.13953488 C4.37186047,6.13953488 3.31179302,5.66991163 2.55813953,4.85893023 L2.55813953,5.37209302 C2.55813953,6.99684419 3.87524884,8.31395349 5.5,8.31395349 C7.12475116,8.31395349 8.44186047,6.99684419 8.44186047,5.37209302 Z" id="Path"></path>
                <path d="M1.79069767,6.26744186 L1.90021163,6.26744186 C1.82883953,5.98057209 1.79069767,5.68073256 1.79069767,5.37209302 L1.79069767,4.73255814 C1.36683953,4.73255814 1.02325581,5.07614186 1.02325581,5.5 C1.02325581,5.92385814 1.36683953,6.26744186 1.79069767,6.26744186 Z" id="Path"></path>
                <path d="M9.20930233,6.26744186 C9.63316047,6.26744186 9.97674419,5.92385814 9.97674419,5.5 C9.97674419,5.07614186 9.63316047,4.73255814 9.20930233,4.73255814 L9.20930233,5.37209302 C9.20930233,5.68073256 9.17116047,5.98057209 9.09978837,6.26744186 L9.20930233,6.26744186 Z" id="Path"></path>
            </g>
        </g>
    </g>
</svg>