<?xml version="1.0" encoding="UTF-8"?>
<svg width="21px" height="30px" viewBox="0 0 21 30" version="1.1" xmlns="http://www.w3.org/2000/svg" xmlns:xlink="http://www.w3.org/1999/xlink">
    <title>correctional_facilities</title>
    <g id="Icons" stroke="none" stroke-width="1" fill="none" fill-rule="evenodd">
        <g id="coast_guard">
            <g id="correctional">
                <path d="M13.3997218,0.508133056 C10.1182645,-0.629907145 6.26228458,0.18506773 3.55082729,2.53803255 C2.97766147,3.01034411 2.49178207,3.57099738 2.11595292,4.07149989 C2.05097805,4.13813306 1.99926951,4.22104763 1.94725946,4.30185165 C1.49982227,4.92943959 1.24881724,5.41260542 1.24881724,5.41260542 L1.25529966,5.40928884 C0.624847395,6.55863557 0.220676541,7.79662552 0.0647971441,9.13079637 C-0.025805871,10.0778315 -0.0185696901,11.0248667 0.0688674959,11.9716004 C0.204093627,13.1509471 0.477259456,14.2909471 1.01982227,15.3548165 C1.14132981,15.625721 1.24670669,15.9058215 1.38781222,16.166324 C2.5670082,18.3430577 4.17781222,20.2029069 5.72861624,22.1064748 C7.25469664,24.1886858 8.67268659,26.3275803 9.33117905,28.877731 C9.46067654,29.3789873 9.69540016,29.8564245 10.299772,29.8737612 C10.9422846,29.8923039 11.2137921,29.4082336 11.3545961,28.8801431 C12.1560032,25.8766758 13.9211791,23.4344647 15.8102745,21.0566255 C17.1311791,19.3939622 18.540576,17.7849672 19.4597218,15.844314 C21.0554504,12.4749672 21.2659027,9.07818331 19.5415811,5.6738617 C18.2208273,3.08044461 16.2040434,1.32175115 13.3997218,0.508133056 Z" id="Fill-1" fill="#A5DF9C"></path>
                <g id="Group-5" transform="translate(4.000000, 4.000000)" fill-rule="nonzero">
                    <g id="Group">
                        <path d="M0.373493976,11.9879277 L2.90361446,11.9879277 L2.90361446,11.2650361 L1.09638554,11.2650361 L1.09638554,9.81925301 L2.90361446,9.81925301 L2.90361446,9.09638554 L1.09638554,9.09638554 L1.09638554,7.65060241 L2.90361446,7.65060241 L2.90361446,6.92771084 L0.373493976,6.92771084 L0.373493976,11.9879277 Z M10.9036145,7.65062651 L10.9036145,9.09640964 L9.09638554,9.09640964 L9.09638554,9.81927711 L10.9036145,9.81927711 L10.9036145,11.2650602 L9.09638554,11.2650602 L9.09638554,11.9879277 L11.626506,11.9879277 L11.626506,6.92773494 L9.09638554,6.92773494 L9.09638554,7.65062651 L10.9036145,7.65062651 Z" id="Shape" fill="#FFFFFF"></path>
                        <path d="M1.09638554,9.09638554 L2.90361446,9.09638554 L2.90361446,7.65060241 L1.09638554,7.65060241 L1.09638554,9.09638554 Z M9.09638554,9.09640964 L10.9036145,9.09640964 L10.9036145,7.65062651 L9.09638554,7.65062651 L9.09638554,9.09640964 Z M9.09638554,11.2650602 L10.9036145,11.2650602 L10.9036145,9.81927711 L9.09638554,9.81927711 L9.09638554,11.2650602 Z M1.09638554,11.2650361 L2.90361446,11.2650361 L2.90361446,9.81925301 L1.09638554,9.81925301 L1.09638554,11.2650361 Z" id="Shape" fill="#A5DF9C"></path>
                        <polygon id="Path" fill="#A5DF9C" points="2.90361446 11.9879277 4.55421687 11.9879277 4.55421687 9.09638554 4.19277108 9.09638554 4.19277108 8.37349398 7.80722892 8.37349398 7.80722892 9.09638554 7.44578313 9.09638554 7.44578313 11.9879277 9.09638554 11.9879277 9.09638554 7.65062651 2.90361446 7.65062651"></polygon>
                        <polygon id="Path" fill="#FFFFFF" points="4.24578313 9.09638554 7.44578313 9.09638554 7.44578313 11.9879036 4.24578313 11.9879036"></polygon>
                        <path d="M7.80722892,9.09638554 L7.80722892,8.37349398 L4.19277108,8.37349398 L4.19277108,9.09638554 L7.80722892,9.09638554 Z M9.09638554,6.92773494 L11.9879518,6.92773494 L11.9879518,6.20484337 L9.09638554,6.20484337 L9.09638554,6.92773494 Z M9.45783133,1.45785542 L9.45783133,0.0120722892 L2.54216867,0.0120722892 L2.54216867,1.45785542 L9.45783133,1.45785542 Z M2.90361446,6.92773494 L2.90361446,6.20484337 L0.0120481928,6.20484337 L0.0120481928,6.92773494 L2.90361446,6.92773494 Z" id="Shape" fill="#FFFFFF"></path>
                        <path d="M4.40963855,4.53412048 C4.40963855,5.31462651 4.68561446,5.77185542 5.98903614,6.35226506 C7.29245783,5.77187952 7.56843373,5.3146506 7.56843373,4.53412048 L7.56843373,3.50568675 C7.16272289,3.50568675 6.83383133,3.17679518 6.83383133,2.77108434 L5.14426506,2.77108434 C5.14426506,3.17679518 4.81537349,3.50568675 4.40963855,3.50568675 L4.40963855,4.53412048 L4.40963855,4.53412048 Z" id="Path" fill="#A5DF9C"></path>
                        <g id="390973" transform="translate(5.204819, 3.975904)" fill="#FFFFFF">
                            <path d="M1.3454054,0 L0.62525433,0.709816621 C0.605843844,0.728948559 0.574372082,0.728948559 0.554961596,0.709816621 L0.244956043,0.40425977 L0,0.645700597 L0.467625282,1.1066214 C0.500109657,1.13863961 0.544167639,1.15662651 0.590104857,1.15662651 L0.590104857,1.15662651 C0.636038968,1.15662651 0.680100056,1.13863655 0.712581325,1.1066214 L1.59036145,0.241437766 L1.3454054,0 Z" id="Path"></path>
                        </g>
                        <path d="M2.90361446,7.65062651 L9.09638554,7.65062651 L9.09638554,1.45785542 L2.90361446,1.45785542 L2.90361446,7.65062651 Z M6,6.34481928 C4.69657831,5.76443373 4.42060241,5.30720482 4.42060241,4.5266747 L4.42060241,3.49824096 C4.82631325,3.49824096 5.15520482,3.1693494 5.15520482,2.76363855 L6.84477108,2.76363855 C6.84477108,3.1693494 7.17366265,3.49824096 7.57937349,3.49824096 L7.57937349,4.5266747 C7.57937349,5.30720482 7.30342169,5.76443373 6,6.34481928 Z" id="Shape" fill="#FFFFFF"></path>
                        <path d="M0.373493976,11.9879277 L0.915662651,11.9879277 L0.915662651,6.92773494 L0.373493976,6.92773494 L0.373493976,11.9879277 Z M9.45783133,9.09640964 L9.09638554,9.09640964 L9.09638554,9.81927711 L9.45783133,9.81927711 L9.45783133,9.09640964 Z M9.45783133,11.2650602 L9.09638554,11.2650602 L9.09638554,11.9879277 L9.45783133,11.9879277 L9.45783133,11.2650602 Z M9.45783133,6.92773494 L9.09638554,6.92773494 L9.09638554,7.65062651 L9.45783133,7.65062651 L9.45783133,6.92773494 Z" id="Shape" fill="#FFFFFF"></path>
                        <path d="M1.09638554,9.09638554 L1.45783133,9.09638554 L1.45783133,7.65060241 L1.09638554,7.65060241 L1.09638554,9.09638554 Z M9.09638554,9.09640964 L9.45783133,9.09640964 L9.45783133,7.65062651 L9.09638554,7.65062651 L9.09638554,9.09640964 Z M9.09638554,11.2650602 L9.45783133,11.2650602 L9.45783133,9.81927711 L9.09638554,9.81927711 L9.09638554,11.2650602 Z M1.09638554,11.2650361 L1.45783133,11.2650361 L1.45783133,9.81925301 L1.09638554,9.81925301 L1.09638554,11.2650361 Z" id="Shape" fill="#FFFFFF"></path>
                        <polygon id="Path" fill="#FFFFFF" points="2.90361446 7.65062651 3.44578313 7.65062651 3.44578313 11.9879277 2.90361446 11.9879277"></polygon>
                        <polygon id="Path" fill="#FFFFFF" points="2.90361446 1.45785542 3.44578313 1.45785542 3.44578313 7.65062651 2.90361446 7.65062651"></polygon>
                        <path d="M4.55421687,11.9879277 L4.91566265,11.9879277 L4.91566265,9.09638554 L4.55421687,9.09638554 L4.55421687,11.9879277 Z M6,11.9879277 L6.36144578,11.9879277 L6.36144578,9.09638554 L6,9.09638554 L6,11.9879277 Z" id="Shape" fill="#A5DF9C"></path>
                    </g>
                </g>
            </g>
            <g id="3613788" transform="translate(8.000000, 4.000000)">
                <g id="Group" transform="translate(0.940000, 0.420000)"></g>
            </g>
        </g>
    </g>
</svg>