<?xml version="1.0" encoding="UTF-8"?>
<svg width="16px" height="16px" viewBox="0 0 16 16" version="1.1" xmlns="http://www.w3.org/2000/svg" xmlns:xlink="http://www.w3.org/1999/xlink">
    <!-- Generator: Sketch 63.1 (92452) - https://sketch.com -->
    <title>Group 27 Copy</title>
    <desc>Created with Sketch.</desc>
    <g id="Page-1" stroke="none" stroke-width="1" fill="none" fill-rule="evenodd">
        <g id="Group-16-Copy" transform="translate(-56.000000, -143.000000)">
            <g id="Group-22" transform="translate(43.000000, 143.000000)">
                <g id="Group-12-Copy">
                    <g id="Group-27-Copy" transform="translate(13.500000, 0.000000)">
                        <circle id="Oval" fill="#6059F2" cx="7.5" cy="8" r="7.5"></circle>
                        <path d="M11.5,8.00003711 C11.5,7.87803919 11.4333128,7.76571299 11.3263132,7.70737024 L10.3349889,7.1667076 L11.3263132,6.62604497 C11.4333128,6.56737409 11.5,6.45537601 11.5,6.33337809 C11.5,6.21138018 11.4333128,6.09905397 11.3263132,6.04071122 L7.65965563,4.0407454 C7.56065601,3.9864182 7.43932836,3.9864182 7.34032875,4.0407454 L3.6736712,6.04071122 C3.56667161,6.09903835 3.5,6.21138018 3.5,6.33337809 C3.5,6.45537601 3.56667161,6.56737409 3.6736712,6.62604497 L4.66499545,7.1667076 L3.6736712,7.70737024 C3.56667161,7.76569736 3.5,7.87803919 3.5,8.00003711 C3.5,8.12203502 3.56667161,8.23403311 3.6736712,8.29270398 L4.66499545,8.83336662 L3.6736712,9.37402925 C3.56667161,9.43235638 3.5,9.54469821 3.5,9.66669613 C3.5,9.78869404 3.56667161,9.90069213 3.6736712,9.959363 L7.34032875,11.9593288 C7.39000043,11.9863284 7.44500021,12 7.5,12 C7.55499979,12 7.60999957,11.9863284 7.65967125,11.9593288 L11.3263288,9.959363 C11.4333284,9.90069213 11.5,9.78869404 11.5,9.66669613 C11.5,9.54469821 11.4333284,9.43237201 11.3263288,9.37402925 L10.3350046,8.83336662 L11.3263288,8.29270398 C11.4333128,8.23403311 11.5,8.12203502 11.5,8.00003711 Z M10.4706446,9.6666805 L7.5,11.2869809 L4.52933973,9.6666805 L5.36100836,9.21301638 L7.34032875,10.2926698 C7.43932836,10.346997 7.56065601,10.346997 7.65965563,10.2926698 L9.63897602,9.21301638 L10.4706446,9.6666805 Z M7.5,7.95370978 L4.52933973,6.33340934 L7.5,4.71309328 L10.4706603,6.33339372 L7.5,7.95370978 Z" id="Shape" fill="#FFFFFF" fill-rule="nonzero"></path>
                    </g>
                </g>
            </g>
        </g>
    </g>
</svg>