<?xml version="1.0" encoding="UTF-8"?>
<svg width="6px" height="14px" viewBox="0 0 6 14" version="1.1" xmlns="http://www.w3.org/2000/svg" xmlns:xlink="http://www.w3.org/1999/xlink">
    <!-- Generator: Sketch 60.1 (88133) - https://sketch.com -->
    <title>Shape 2</title>
    <desc>Created with Sketch.</desc>
    <g id="Page-1" stroke="none" stroke-width="1" fill="none" fill-rule="evenodd">
        <g id="Shape-2" fill="#C8CAD1" fill-rule="nonzero">
            <path d="M0,0 L2,0 L2,2 L0,2 L0,0 M4,0 L6,0 L6,2 L4,2 L4,0 M0,4 L2,4 L2,6 L0,6 L0,4 M4,4 L6,4 L6,6 L4,6 L4,4 M0,8 L2,8 L2,10 L0,10 L0,8 M4,8 L6,8 L6,10 L4,10 L4,8 M0,12 L2,12 L2,14 L0,14 L0,12 M4,12 L6,12 L6,14 L4,14 L4,12" id="Shape"></path>
        </g>
    </g>
</svg>