<?xml version="1.0" encoding="UTF-8"?>
<svg width="22px" height="32px" viewBox="0 0 22 32" version="1.1" xmlns="http://www.w3.org/2000/svg" xmlns:xlink="http://www.w3.org/1999/xlink">
    <title>embassies_pin</title>
    <g id="Icons" stroke="none" stroke-width="1" fill="none" fill-rule="evenodd">
        <g id="embassies_pin" transform="translate(1.000000, 1.000000)">
            <g id="innovation_pin-copy" fill="#FFC65A" stroke="#FFFFFF" stroke-width="0.5">
                <g id="Group-3">
                    <path d="M13.3996884,0.508190955 C10.1182312,-0.629849246 6.26225126,0.185125628 3.55079397,2.53809045 C2.97762814,3.01040201 2.49174874,3.57105528 2.1159196,4.07155779 C2.05094472,4.13819095 1.99923618,4.22110553 1.94722613,4.30190955 C1.49978894,4.92949749 1.24878392,5.41266332 1.24878392,5.41266332 L1.25526633,5.40934673 C0.62481407,6.55869347 0.220643216,7.79668342 0.0647638191,9.13085427 C-0.025839196,10.0778894 -0.0186030151,11.0249246 0.0688341709,11.9716583 C0.204060302,13.151005 0.477226131,14.291005 1.01978894,15.3548744 C1.14129648,15.6257789 1.24667337,15.9058794 1.38777889,16.1663819 C2.56697487,18.3431156 4.17777889,20.2029648 5.72858291,22.1065327 C7.25466332,24.1887437 8.67265327,26.3276382 9.33114573,28.8777889 C9.46064322,29.3790452 9.69536683,29.8564824 10.2997387,29.8738191 C10.9422513,29.8923618 11.2137588,29.4082915 11.3545628,28.880201 C12.1559698,25.8767337 13.9211457,23.4345226 15.8102412,21.0566834 C17.1311457,19.3940201 18.5405427,17.7850251 19.4596884,15.8443719 C21.0554171,12.4750251 21.2658693,9.07824121 19.5415477,5.6739196 C18.220794,3.08050251 16.2040101,1.32180905 13.3996884,0.508190955 Z" id="Fill-1"></path>
                </g>
            </g>
            <g id="1788611" transform="translate(4.000000, 3.000000)" fill="#FFFFFF" fill-rule="nonzero">
                <polygon id="Path" points="5.61132812 8.9375 7.38867188 8.9375 7.38867188 13 5.61132812 13"></polygon>
                <path d="M3.83398438,6.02838897 C3.83398438,5.82328033 3.99158477,5.64683534 4.19639589,5.63721465 C4.41519165,5.62680054 4.59570312,5.80116271 4.59570312,6.01757812 L4.59570312,6.65234375 L5.35742188,6.65234375 L5.35742188,6.02838897 C5.35742188,5.82328033 5.51502227,5.64683534 5.71983339,5.63721465 C5.93862915,5.62680054 6.11914062,5.80116271 6.11914062,6.01757812 L6.11914062,6.65234375 L6.88085938,6.65234375 L6.88085938,6.02838897 C6.88085938,5.82328033 7.03845977,5.64683534 7.24327089,5.63721465 C7.46206665,5.62680054 7.64257812,5.80116271 7.64257812,6.01757812 L7.64257812,6.65234375 L8.40429688,6.65234375 L8.40429688,6.02838897 C8.40429688,5.82328033 8.56189727,5.64683534 8.76670839,5.63721465 C8.98550415,5.62680054 9.16601562,5.80116271 9.16601562,6.01757812 L9.16601562,6.65234375 L10.7148438,6.65234375 L10.7148438,5.25585938 C10.7148438,5.04549409 10.5443497,4.875 10.3339844,4.875 L2.66601562,4.875 C2.45565034,4.875 2.28515625,5.04549409 2.28515625,5.25585938 L2.28515625,6.65234375 L3.83398438,6.65234375 L3.83398438,6.02838897 Z" id="Path"></path>
                <path d="M9.16601562,3.73242188 C9.16601562,2.39167784 8.17111968,1.27915191 6.88085938,1.09368134 L6.88085938,0.380859375 C6.88085938,0.170494086 6.71036529,0 6.5,0 C6.28963471,0 6.11914062,0.170494086 6.11914062,0.380859375 L6.11914062,1.09368134 C4.82888032,1.27915191 3.83398438,2.39167784 3.83398438,3.73242188 L3.83398438,4.11328125 L9.16601562,4.11328125 L9.16601562,3.73242188 Z" id="Path"></path>
                <path d="M11.0957031,7.4140625 L1.90429688,7.4140625 C1.69789887,7.4140625 1.53018188,7.57840728 1.52403261,7.78331757 L3.34422304,8.51141357 C3.7805252,8.68587495 4.0625,9.10234071 4.0625,9.57226562 L4.0625,13 L4.84960938,13 L4.84960938,8.55664062 C4.84960938,8.34627534 5.02010346,8.17578125 5.23046875,8.17578125 L7.76953125,8.17578125 C7.97989654,8.17578125 8.15039063,8.34627534 8.15039063,8.55664062 L8.15039063,13 L8.9375,13 L8.9375,9.57226562 C8.9375,9.10234071 9.2194748,8.68587495 9.65577696,8.51141357 L11.4759674,7.78331757 C11.4698181,7.57840728 11.3021011,7.4140625 11.0957031,7.4140625 Z" id="Path"></path>
                <path d="M12.9030991,8.3026352 C12.7933044,8.18093872 12.6235046,8.14463807 12.4777069,8.20305634 L9.93864442,9.21868134 C9.79403687,9.2765045 9.69921875,9.4165497 9.69921875,9.57226563 L9.69921875,13 L10.96875,13 L10.96875,10.5987015 C10.96875,10.3935928 11.1263504,10.2171478 11.3311615,10.207428 C11.5499573,10.197113 11.7304687,10.3714752 11.7304687,10.5878906 L11.7304687,13 L13,13 L13,8.5650711 C13,8.46886445 12.9676666,8.37404633 12.9030991,8.3026352 Z" id="Path"></path>
                <path d="M3.06135558,9.21868134 L0.522293078,8.20305634 C0.376495361,8.14463807 0.206695557,8.18093872 0.0969009336,8.3026352 C0.0323333867,8.37404633 0,8.46886445 0,8.5650711 L0,13 L1.26953125,13 L1.26953125,10.5987015 C1.26953125,10.3935928 1.42713165,10.2171478 1.63194276,10.207428 C1.85073853,10.197113 2.03125,10.3714752 2.03125,10.5878906 L2.03125,13 L3.30078125,13 L3.30078125,9.57226563 C3.30078125,9.4165497 3.20596313,9.2765045 3.06135558,9.21868134 L3.06135558,9.21868134 Z" id="Path"></path>
            </g>
        </g>
    </g>
</svg>