<?xml version="1.0" encoding="UTF-8"?>
<svg width="12px" height="12px" viewBox="0 0 12 12" version="1.1" xmlns="http://www.w3.org/2000/svg" xmlns:xlink="http://www.w3.org/1999/xlink">
    <!-- Generator: Sketch 60.1 (88133) - https://sketch.com -->
    <title>filter_disabled</title>
    <desc>Created with Sketch.</desc>
    <g id="Page-1" stroke="none" stroke-width="1" fill="none" fill-rule="evenodd">
        <path d="M7.99963636,4.00036364 L9.33272727,4.00036364 L9.33272727,2.66727273 L12,2.66727273 L12,1.33309091 L9.33272727,1.33309091 L9.33272727,0 L7.99963636,0 L7.99963636,4.00036364 Z M5.33345455,6.66654545 L12,6.66654545 L12,5.33345455 L5.33345455,5.33345455 L5.33345455,6.66654545 Z M2.66618182,4.00036364 L2.66618182,5.33345455 L0,5.33345455 L0,6.66654545 L2.66618182,6.66654545 L2.66618182,8.00072727 L3.99927273,8.00072727 L3.99927273,4.00036364 L2.66618182,4.00036364 L2.66618182,4.00036364 Z M6.66654545,12 L6.66654545,10.6669091 L12,10.6669091 L12,9.33381818 L6.66654545,9.33381818 L6.66654545,8.00072727 L5.33236364,8.00072727 L5.33236364,12 L6.66654545,12 L6.66654545,12 Z M0,2.66727273 L6.66654545,2.66727273 L6.66654545,1.33418182 L0,1.33418182 L0,2.66727273 Z M0,10.6669091 L4.00036364,10.6669091 L4.00036364,9.33381818 L0,9.33381818 L0,10.6669091 Z" id="filter_disabled" fill="#5C5E5E"></path>
    </g>
</svg>