<?xml version="1.0" encoding="UTF-8"?>
<svg width="30px" height="30px" viewBox="0 0 30 30" version="1.1" xmlns="http://www.w3.org/2000/svg" xmlns:xlink="http://www.w3.org/1999/xlink">
    <!-- Generator: Sketch 60.1 (88133) - https://sketch.com -->
    <title>gas_stations</title>
    <desc>Created with Sketch.</desc>
    <g id="Page-1" stroke="none" stroke-width="1" fill="none" fill-rule="evenodd">
        <g id="gas_stations">
            <circle id="Oval" fill="#2196F3" cx="15" cy="15" r="15"></circle>
            <path d="M20.4691349,11.29 L20.480044,11.2783333 L17.770934,8.38890104 L17.0000341,9.21333333 L18.5345725,10.8544323 C17.8509456,11.1344323 17.3636488,11.8383333 17.3636488,12.6666667 C17.3636488,13.74 18.1781852,14.611099 19.1818244,14.611099 C19.4399956,14.611099 19.6872917,14.5527656 19.9090878,14.4477656 L19.9090878,20.0555313 C19.9091219,20.4833333 19.5818482,20.8333333 19.1818585,20.8333333 C18.7818687,20.8333333 18.454595,20.4833333 18.454595,20.0555677 L18.454595,16.5555677 C18.454595,15.6961354 17.8036955,15 17.0000341,15 L16.2727707,15 L16.2727707,9.55556771 C16.2727366,8.69609896 15.621837,8 14.8182097,8 L10.454561,8 C9.65089958,8 9,8.69609896 9,9.55556771 L9,22 L16.2727366,22 L16.2727366,16.1666667 L17.3636488,16.1666667 L17.3636488,20.0555677 C17.3636488,21.128901 18.1781852,22 19.1818244,22 C20.1854636,22 21,21.128901 21,20.0555677 L21,12.6666667 C21,12.13 20.7964085,11.643901 20.4691349,11.29 Z M14.8182097,13.4444323 L10.454561,13.4444323 L10.454561,9.55556771 L14.8182097,9.55556771 L14.8182097,13.4444323 Z M19.1818585,13.4444323 C18.7818687,13.4444323 18.454595,13.0944323 18.454595,12.6666667 C18.454595,12.238901 18.7818687,11.888901 19.1818585,11.888901 C19.5818482,11.888901 19.9091219,12.238901 19.9091219,12.6666667 C19.9091219,13.0944323 19.5818482,13.4444323 19.1818585,13.4444323 Z" id="Shape" fill="#FFFFFF" fill-rule="nonzero"></path>
        </g>
    </g>
</svg>