<?xml version="1.0" encoding="UTF-8"?>
<svg width="18px" height="18px" viewBox="0 0 18 18" version="1.1" xmlns="http://www.w3.org/2000/svg" xmlns:xlink="http://www.w3.org/1999/xlink">
    <!-- Generator: Sketch 60.1 (88133) - https://sketch.com -->
    <title>geo_processign_enable</title>
    <desc>Created with Sketch.</desc>
    <g id="Page-1" stroke="none" stroke-width="1" fill="none" fill-rule="evenodd">
        <g id="geo_processign_enable" transform="translate(-1.000000, 0.000000)" fill="#1979FF" fill-rule="nonzero">
            <path d="M18.6809091,14.7272727 L11.2518182,7.29 C12.0127273,5.37545455 11.6363636,3.11727273 10.0736364,1.56272727 C8.19181818,-0.319090909 5.26272727,-0.490909091 3.17636364,1.03090909 L6.31818182,4.18090909 L5.15636364,5.31818182 L2.02272727,2.20090909 C0.500909091,4.27909091 0.672727273,7.21636364 2.55454545,9.09 C4.07636364,10.6118182 6.29363636,11.0127273 8.19181818,10.3009091 L15.6454545,17.7545455 C15.9645455,18.0736364 16.48,18.0736364 16.7990909,17.7545455 L18.6809091,15.8727273 C19,15.5454545 19,15.0463636 18.6809091,14.7272727 M16.2263636,16.0281818 L8.48636364,8.28818182 C7.98727273,8.65636364 7.43090909,8.87727273 6.85,8.95909091 C5.73727273,9.12272727 4.56727273,8.78727273 3.71636364,7.93636364 C2.93909091,7.16727273 2.57909091,6.13636364 2.63636364,5.12181818 L5.16454545,7.65 L8.63363636,4.18090909 L6.10545455,1.63636364 C7.13636364,1.59545455 8.14272727,1.95545455 8.92,2.72454545 C9.80363636,3.60818182 10.1390909,4.82727273 9.93454545,5.96454545 C9.83636364,6.54545455 9.59090909,7.08545455 9.21454545,7.56818182 L16.9545455,15.3 L16.2263636,16.0281818 Z" id="Shape"></path>
        </g>
    </g>
</svg>