<?xml version="1.0" encoding="UTF-8"?>
<svg width="13px" height="18px" viewBox="0 0 13 18" version="1.1" xmlns="http://www.w3.org/2000/svg" xmlns:xlink="http://www.w3.org/1999/xlink">
    <!-- Generator: Sketch 60.1 (88133) - https://sketch.com -->
    <title>geo_coding_enable</title>
    <desc>Created with Sketch.</desc>
    <g id="Page-1" stroke="none" stroke-width="1" fill="none" fill-rule="evenodd">
        <g id="geo_coding_enable" fill="#1979FF" fill-rule="nonzero">
            <path d="M6.25625,4.05 C7.49026124,4.05 8.490625,5.05735931 8.490625,6.3 C8.490625,6.8967371 8.25521831,7.46903341 7.83619171,7.89099026 C7.41716512,8.31294711 6.84884309,8.55 6.25625,8.55 C5.02223876,8.55 4.021875,7.54264069 4.021875,6.3 C4.021875,5.7032629 4.25728169,5.13096659 4.67630829,4.70900974 C5.09533488,4.28705289 5.66365691,4.05 6.25625,4.05 M6.25625,-7.99360578e-16 C9.71148147,-7.99360578e-16 12.5125,2.82060608 12.5125,6.3 C12.5125,11.025 6.25625,18 6.25625,18 C6.25625,18 0,11.025 0,6.3 C0,2.82060608 2.80101853,-7.99360578e-16 6.25625,-7.99360578e-16 M6.25625,1.8 C3.78822752,1.8 1.7875,3.81471863 1.7875,6.3 C1.7875,7.2 1.7875,9 6.25625,15.039 C10.725,9 10.725,7.2 10.725,6.3 C10.725,3.81471863 8.72427248,1.8 6.25625,1.8 L6.25625,1.8 Z" id="Shape"></path>
        </g>
    </g>
</svg>