<?xml version="1.0" encoding="UTF-8"?>
<svg width="18px" height="19px" viewBox="0 0 18 19" version="1.1" xmlns="http://www.w3.org/2000/svg" xmlns:xlink="http://www.w3.org/1999/xlink">
    <!-- Generator: Sketch 60.1 (88133) - https://sketch.com -->
    <title>geo_processign_disabled</title>
    <desc>Created with Sketch.</desc>
    <g id="Page-1" stroke="none" stroke-width="1" fill="none" fill-rule="evenodd">
        <g id="geo_processign_disabled" transform="translate(0.000000, 0.500000)" fill="#5C5E5E" fill-rule="nonzero">
            <path d="M17.6809091,14.7272727 L10.2518182,7.29 C11.0127273,5.37545455 10.6363636,3.11727273 9.07363636,1.56272727 C7.19181818,-0.319090909 4.26272727,-0.490909091 2.17636364,1.03090909 L5.31818182,4.18090909 L4.15636364,5.31818182 L1.02272727,2.20090909 C-0.499090909,4.27909091 -0.327272727,7.21636364 1.55454545,9.09 C3.07636364,10.6118182 5.29363636,11.0127273 7.19181818,10.3009091 L14.6454545,17.7545455 C14.9645455,18.0736364 15.48,18.0736364 15.7990909,17.7545455 L17.6809091,15.8727273 C18,15.5454545 18,15.0463636 17.6809091,14.7272727 M15.2263636,16.0281818 L7.48636364,8.28818182 C6.98727273,8.65636364 6.43090909,8.87727273 5.85,8.95909091 C4.73727273,9.12272727 3.56727273,8.78727273 2.71636364,7.93636364 C1.93909091,7.16727273 1.57909091,6.13636364 1.63636364,5.12181818 L4.16454545,7.65 L7.63363636,4.18090909 L5.10545455,1.63636364 C6.13636364,1.59545455 7.14272727,1.95545455 7.92,2.72454545 C8.80363636,3.60818182 9.13909091,4.82727273 8.93454545,5.96454545 C8.83636364,6.54545455 8.59090909,7.08545455 8.21454545,7.56818182 L15.9545455,15.3 L15.2263636,16.0281818 Z" id="Shape"></path>
        </g>
    </g>
</svg>