<?xml version="1.0" encoding="UTF-8"?>
<svg width="30px" height="30px" viewBox="0 0 30 30" version="1.1" xmlns="http://www.w3.org/2000/svg" xmlns:xlink="http://www.w3.org/1999/xlink">
    <!-- Generator: Sketch 60.1 (88133) - https://sketch.com -->
    <title>geological_units</title>
    <desc>Created with Sketch.</desc>
    <defs>
        <polygon id="path-1" points="-4.9064796e-14 -8.60785895e-15 14.6118542 -8.60785895e-15 14.6118542 14.5373665 -4.9064796e-14 14.5373665"></polygon>
    </defs>
    <g id="Page-1" stroke="none" stroke-width="1" fill="none" fill-rule="evenodd">
        <g id="geological_units" transform="translate(0.000000, 0.005328)">
            <g id="petroleum-" fill="#D4F29D">
                <g id="travel_agencies-copy">
                    <circle id="Oval" cx="15" cy="15" r="15"></circle>
                </g>
            </g>
            <g id="Group-50" transform="translate(7.367870, 7.731305)">
                <mask id="mask-2" fill="white">
                    <use xlink:href="#path-1"></use>
                </mask>
                <g id="Clip-2"></g>
                <path d="M1.1465168,1.72014757 C1.14046949,1.78239318 1.13080272,1.8356274 1.13075804,1.88887652 C1.12822591,5.23677885 1.12719817,8.58471097 1.12263979,11.9326133 C1.12241692,12.1083428 1.18999489,12.211594 1.35196157,12.2792613 C2.10865015,12.5953451 2.8636556,12.9155697 3.61657578,13.2405606 C3.80471273,13.3217673 3.97853572,13.3169265 4.15898693,13.22647 C4.96993747,12.8199745 5.78565437,12.422818 6.5922854,12.0079813 C7.04708499,11.7740575 7.48900053,11.7629758 7.95598412,11.9691355 C8.94884556,12.4074614 9.94836501,12.8306541 10.9440267,13.2626496 C11.1161219,13.3373176 11.2762565,13.3328193 11.4428108,13.2447609 C11.7495406,13.0826155 12.0595026,12.9264876 12.3700157,12.7716407 C12.6494283,12.6322993 12.9307922,12.4968305 13.2124391,12.3620172 C13.3809595,12.2813466 13.4717883,12.1525806 13.4744545,11.9641606 C13.4749163,11.9319132 13.4764211,11.8996659 13.4764211,11.8674334 C13.4737545,8.55426588 13.4709542,5.24109836 13.4681838,1.92793084 C13.468154,1.8990646 13.4681689,1.87018347 13.4681689,1.83263353 C13.4343129,1.8477965 13.4096023,1.85779095 13.385845,1.86967705 C12.8716894,2.12713467 12.3572359,2.38402628 11.8436612,2.64267549 C11.4584504,2.83669591 11.0683392,2.84755426 10.6732828,2.67751456 C9.64678882,2.23570329 8.61992241,1.79471123 7.59515619,1.34890813 C7.41419856,1.2701888 7.25124881,1.27818734 7.07638318,1.36757138 C6.2753973,1.77697145 5.47059833,2.17890919 4.66868897,2.58652188 C4.19078745,2.82944211 3.71395836,2.8436667 3.22318769,2.6191863 C2.72538664,2.3915035 2.22079353,2.17862619 1.71853892,1.96069952 C1.53251704,1.87998429 1.34470778,1.80335024 1.1465168,1.72014757 M11.2903023,14.5373665 L11.1413538,14.5373665 C11.0787954,14.5153817 11.0147475,14.4968376 10.9538722,14.470846 C9.83324265,13.9926168 8.7120769,13.5155494 7.59345817,13.0326284 C7.39559488,12.9471914 7.21672253,12.9515259 7.02487676,13.0492957 C6.33198286,13.402423 5.6375399,13.7526756 4.93926896,14.095019 C4.62245533,14.2503575 4.31792996,14.4341004 3.97692708,14.5373665 L3.85776821,14.5373665 C3.79014556,14.5149199 3.72063126,14.4969865 3.65521304,14.4693417 C2.80410596,14.1095713 1.95442879,13.7464793 1.10254718,13.3885857 C0.737220995,13.2351091 0.367634884,13.0917907 8.177466e-14,12.9438699 L8.177466e-14,0.210672871 C0.0188419953,0.147444199 0.0376839907,0.084215527 0.056734514,0.0202719017 C0.094701507,0.0387862102 0.12684461,0.0562578786 0.160358041,0.0705420473 C1.33204715,0.570056004 2.50501721,1.06653141 3.67439762,1.57136283 C3.85542972,1.64951615 4.01577287,1.64466043 4.18615515,1.55847878 C4.98014045,1.15686872 5.77574929,0.758446168 6.56958564,0.35652332 C6.7947661,0.242503183 7.01591005,0.120499401 7.23890097,0.00217464926 L7.35805984,0.00217464926 C7.39024763,0.023801983 7.41994797,0.0512383114 7.45498068,0.0662076437 C8.62577609,0.566630187 9.79841847,1.06277791 10.9669648,1.56839875 C11.156055,1.65021621 11.3217603,1.64349863 11.4992772,1.55317621 C12.4267949,1.08124753 13.3557127,0.612059504 14.2840347,0.141709679 C14.3697249,0.0982911677 14.4546851,0.0534725401 14.5579363,-8.60785895e-15 C14.573278,0.116254366 14.5984056,0.218209669 14.5984801,0.320179867 C14.6018314,4.10156725 14.6028294,7.88295463 14.6045125,11.664342 C14.6045423,11.7135695 14.6093086,11.762797 14.6118557,11.8120394 L14.6118557,12.9438699 C14.5112707,12.9846222 14.4076025,13.0191485 14.3105923,13.0671397 C13.6784992,13.3798573 13.0494149,13.6987115 12.4161451,14.0089863 C12.0439226,14.1913589 11.6657868,14.3616369 11.2903023,14.5373665" id="Fill-1" fill="#61729B" mask="url(#mask-2)"></path>
                <path d="M6.48919511,3.69044385 C6.51112034,3.69342282 6.53320941,3.69553789 6.55494101,3.69951482 C6.72338696,3.73034717 6.86408379,3.67828964 6.97740387,3.553292 C7.03229142,3.49275929 7.08394679,3.42868161 7.13164012,3.36231013 C7.3364891,3.07726723 7.614591,2.99400497 7.93828605,3.09669012 C8.21396008,3.18415273 8.47978861,3.30250727 8.75047287,3.4058329 C8.91915713,3.47022337 9.08597954,3.54173359 9.25881947,3.59225694 C9.41490269,3.63789479 9.54542633,3.573549 9.64529635,3.44773214 C9.65453117,3.43606946 9.66454051,3.42452595 9.67119851,3.41141847 C9.8224409,3.11362558 10.0825349,3.0802611 10.3933757,3.1208049 C10.2104371,3.25615447 10.0405612,3.38183729 9.85766724,3.51714218 C9.93765263,3.59020145 10.0100416,3.66037113 10.086765,3.72540208 C10.177579,3.80236381 10.2747084,3.87193769 10.3645095,3.95000164 C10.5022869,4.06981588 10.5880664,4.21903257 10.609515,4.40377349 C10.616307,4.46231028 10.6309338,4.52139818 10.6516227,4.57661342 C10.7054677,4.72042328 10.8107594,4.76454185 10.9472559,4.6948786 C11.0192129,4.65813298 11.0880272,4.60993322 11.1477109,4.55535846 C11.5102964,4.22375424 11.8698881,3.88885825 12.2303436,3.55491554 C12.2576459,3.52960917 12.2833098,3.50253032 12.3108355,3.47746227 C12.4686763,3.33366732 12.6169099,3.33097135 12.7431885,3.50305164 C12.8441161,3.64062055 12.9124983,3.80342135 12.9854087,3.95965351 C13.0259078,4.04646074 13.036215,4.14755214 13.078159,4.233421 C13.1208476,4.32077934 13.1753926,4.40778021 13.2440132,4.47538797 C13.3003753,4.53093089 13.3272159,4.58164789 13.3125295,4.66443351 C13.2884446,4.66616131 13.2620956,4.66939349 13.235687,4.66972118 C13.168675,4.67055529 13.1015588,4.67240225 13.0346362,4.66972118 C12.8305022,4.6615439 12.6689823,4.7423634 12.542525,4.899668 C12.4850159,4.9712229 12.4247811,5.04069251 12.369268,5.11378158 C12.2904146,5.21761364 12.2913083,5.27817613 12.3690892,5.37996759 C12.439244,5.47177949 12.4484639,5.57129204 12.4021707,5.67420061 C12.3727832,5.73954435 12.3306903,5.79913868 12.3010644,5.86440795 C12.2668211,5.93988019 12.2400253,6.01876336 12.2059012,6.1067175 C12.3920869,6.12788309 12.5615308,6.14964448 12.731496,6.16592456 C13.0218266,6.19370347 13.1515906,6.32199288 13.1825719,6.61229366 C13.2040056,6.81329977 13.2105742,7.01359093 13.1641023,7.21185638 C13.1023631,7.47527194 12.9613684,7.68986216 12.7287703,7.82685017 C12.3629377,8.04231919 12.2116804,8.37136149 12.1823226,8.77648674 C12.1803267,8.80399754 12.1562864,8.83846424 12.1323802,8.8527782 C12.1167703,8.86213217 12.076867,8.84802674 12.0580846,8.83225308 C11.9043548,8.7030104 11.7533507,8.57053553 11.6008274,8.43987784 C11.5443461,8.39149934 11.4891159,8.34073767 11.4278683,8.29904696 C11.2731405,8.19368073 11.1627845,8.21508464 11.0833502,8.38315822 C11.0160701,8.52552327 10.9533032,8.67582729 10.9244817,8.82934859 C10.8647533,9.14783044 10.8315377,9.47119781 10.7811186,9.79157131 C10.7699922,9.86232188 10.7409472,9.93368315 10.7049612,9.99600323 C10.6748736,10.048165 10.623814,10.1005949 10.5527656,10.0781931 C10.4748357,10.0536165 10.4059916,10.0038826 10.3942694,9.91685196 C10.3747422,9.77201436 10.3552747,9.62570217 10.3552747,9.48001556 C10.3552598,9.17000888 10.3570918,8.85930215 10.3777957,8.55020405 C10.404383,8.15319651 10.3622901,7.77300526 10.1741532,7.41682452 C10.1615819,7.39303743 10.148966,7.36743317 10.1301687,7.34899334 C10.0117694,7.23296239 9.88054574,7.26065193 9.83839329,7.42054823 C9.81795755,7.49813555 9.82856269,7.58711743 9.83955509,7.66899447 C9.85598412,7.79148978 9.89210415,7.91140828 9.90725222,8.03399296 C9.92949024,8.21402711 9.86724463,8.27913253 9.68467836,8.28462874 C9.65272889,8.28558201 9.62069005,8.28476279 9.58060799,8.28476279 C9.56478965,8.39032265 9.55340997,8.49311206 9.53267633,8.59398004 C9.52143071,8.64865906 9.50483784,8.70785123 9.47257558,8.7516868 C9.20893659,9.11002729 9.05913901,9.51674628 8.95185135,9.9430818 C8.85513903,10.3273393 8.75561159,10.7108968 8.6556522,11.0943501 C8.64008707,11.1540784 8.61635956,11.2117662 8.59517908,11.2699753 C8.49659001,11.5408234 8.488234,11.552069 8.26107252,11.7321032 C8.13069783,11.5816204 8.06928633,11.4073059 8.07272704,11.2071041 C8.07938504,10.8201953 8.06672441,10.432363 8.08903691,10.0464819 C8.11551997,9.58842034 8.02759562,9.15280532 7.88366661,8.72495053 C7.81693764,8.5265957 7.73047299,8.33486909 7.65099403,8.13520352 C7.49190205,8.20577536 7.34889652,8.27332354 7.20248007,8.33250081 C7.12508638,8.36378001 7.04310509,8.38802884 6.96088547,8.40211937 C6.81020909,8.42793216 6.69483352,8.36403322 6.61239048,8.23905047 C6.51380141,8.08964015 6.45685837,7.92299648 6.42805172,7.74823511 C6.35044951,7.27761718 6.42283852,6.83641659 6.72136126,6.45323147 C6.80349151,6.34782056 6.91608174,6.26382846 7.02293745,6.18059599 C7.15562084,6.07725547 7.3000116,5.98898854 7.43364826,5.88678003 C7.60228784,5.75777566 7.68315203,5.74970265 7.86582257,5.85258143 C7.89984242,5.87173622 7.94847413,5.88408406 7.98504101,5.87589188 C8.07874456,5.85484545 8.17052668,5.82335772 8.26046183,5.78915913 C8.2799592,5.78174149 8.30328454,5.74291059 8.29982894,5.72286211 C8.24072614,5.38019101 8.15013562,5.05304035 7.83312835,4.84731257 C7.77761522,4.81128191 7.72286172,4.77407456 7.65963305,4.73201148 C7.63386494,4.94813587 7.61055449,5.15419133 7.58316285,5.35972548 C7.57984129,5.38464457 7.5546094,5.40665917 7.52406005,5.42834609 C7.43259073,5.139505 7.35345435,4.85407484 7.01653266,4.75906054 C6.94362233,4.91016887 6.86372631,5.06751815 6.90355516,5.25701054 C6.91767549,5.32411187 6.92321637,5.39569656 6.91712438,5.46385543 C6.90106772,5.64341294 6.80358088,5.74393834 6.61878037,5.78555457 C6.45864575,5.82160013 6.31934904,5.76435919 6.229965,5.61992375 C6.08868727,5.39161537 6.06780468,5.1432585 6.12747348,4.88809469 C6.19598983,4.59511284 6.35198368,4.3617402 6.62000175,4.21113829 C6.67387645,4.18085705 6.72626167,4.14661377 6.77469975,4.10836377 C6.83757094,4.05871921 6.83776457,4.0231205 6.77747019,3.9689628 C6.73701576,3.93261934 6.68945647,3.90425953 6.64831688,3.86860124 C6.58937792,3.81755657 6.53338815,3.76310097 6.47614721,3.71009017 C6.48049651,3.70355132 6.48484581,3.69699759 6.48919511,3.69044385" id="Fill-4" fill="#FF641A" mask="url(#mask-2)"></path>
                <path d="M4.7512467,12.4663869 C4.58694152,12.3541393 4.45553908,12.218611 4.34851953,12.0589083 C4.16071026,11.7786317 4.07065595,11.4628459 4.02311156,11.1340568 C3.99546671,10.9428813 3.99183236,10.7481012 3.96126811,10.5575364 C3.89881397,10.168155 3.68411949,9.90244565 3.29871504,9.78709987 C3.28948023,9.78434432 3.28060289,9.7803525 3.2640696,9.77412645 C3.2895547,9.69811799 3.31454828,9.62395649 3.33924395,9.54970562 C3.3533047,9.50740423 3.36889961,9.4654752 3.38033886,9.42247375 C3.42517239,9.25392353 3.37085084,9.15082133 3.2076032,9.08963325 C3.15669257,9.07056783 3.1036073,9.05479418 3.05649486,9.02856433 C2.9127148,8.94853426 2.87391369,8.81050361 2.96944931,8.67749253 C3.03382489,8.58787017 3.11328895,8.50553139 3.19865139,8.43530214 C3.35741568,8.30467424 3.52595099,8.18593243 3.68927311,8.06075604 C3.740288,8.02167193 3.79197316,7.98185798 3.83573425,7.93522218 C3.91506426,7.85067896 3.94841385,7.74707033 3.92230317,7.6330204 C3.90255258,7.54673449 3.87866123,7.45943573 3.84172198,7.37946524 C3.78203829,7.25020766 3.67609116,7.18122957 3.53018113,7.17357362 C3.43635842,7.16865831 3.3408377,7.16417496 3.24985991,7.14317321 C2.99082343,7.08338525 2.82982491,6.90515338 2.73278491,6.67042531 C2.67849316,6.53911225 2.58758984,6.45586488 2.47032262,6.38958277 C2.37761702,6.33718266 2.28215588,6.28804452 2.19572102,6.22651386 C1.9620058,6.0601234 1.88577392,5.84687372 1.97697514,5.57578731 C2.02550258,5.4315455 2.1013323,5.29589803 2.17127856,5.15966966 C2.21530776,5.07390507 2.2687803,4.99257914 2.32238689,4.9121767 C2.44754838,4.72444191 2.50642776,4.51408183 2.54329253,4.27980061 C2.37438484,4.24589991 2.2056112,4.21103105 2.03624177,4.17933479 C2.01658056,4.17565576 1.99003793,4.18429478 1.97277479,4.1961064 C1.83821464,4.2882311 1.68804468,4.26034792 1.53641503,4.25932018 C1.52513962,4.06400391 1.5237544,3.88577204 1.68348685,3.73161026 C1.99042519,3.43539622 2.33957556,3.25400664 2.77289677,3.26580336 C3.05534796,3.273504 3.31113735,3.36948647 3.54635695,3.52318651 C3.58579853,3.54895461 3.62437622,3.57610794 3.66460723,3.60053551 C3.90088436,3.74388362 4.08508907,3.73875979 4.30434138,3.57110327 C4.4502663,3.45951099 4.60883696,3.37685942 4.78289827,3.32156971 C4.80412344,3.31480745 4.82540819,3.3079856 4.84705042,3.30275751 C5.02418007,3.26008374 5.13391049,3.34117134 5.12603111,3.52329077 C5.11627498,3.74867976 5.10499957,3.97517097 5.073348,4.19819168 C5.01956267,4.57701261 5.05164619,4.94947342 5.11548555,5.32281304 C5.14387515,5.48889071 5.15917217,5.65715792 5.1831231,5.8240548 C5.20177146,5.95413159 5.17637573,6.07592685 5.12052001,6.19225569 C5.00664883,6.42942651 4.85177209,6.63539261 4.62316581,6.77026555 C4.54173562,6.81831636 4.43857384,6.83720304 4.34268074,6.85087652 C4.25925464,6.86276261 4.20353298,6.81807804 4.18647837,6.73396678 C4.16890243,6.6472936 4.1643595,6.5571946 4.16193164,6.46839146 C4.15327773,6.1510863 4.09436856,6.08176563 3.77841884,6.03243386 C3.72481224,6.02406295 3.66992469,6.01734537 3.61596062,6.0192817 C3.50940281,6.02309479 3.4607562,6.08298701 3.46951438,6.18988741 C3.47012507,6.19730505 3.46952927,6.20518442 3.47186777,6.21205095 C3.55583008,6.45783101 3.62967879,6.70776672 3.72756779,6.94790162 C3.80607859,7.14049214 3.97547781,7.25571876 4.15925057,7.33936828 C4.35978004,7.43062907 4.56279695,7.51855342 4.77080364,7.59034664 C4.87627413,7.62673477 4.9948372,7.62710715 5.10796365,7.63909751 C5.90066799,7.72314919 6.39190041,8.58060148 6.06008766,9.30248077 C5.99818463,9.43716008 5.85681753,9.52481632 5.70850943,9.52036275 C5.69860435,9.52004996 5.68869927,9.51900732 5.67879419,9.51823279 C5.43086928,9.49889926 5.35262659,9.56877104 5.36539148,9.81392551 C5.37887133,10.0728279 5.32066222,10.3174462 5.18802351,10.5330641 C4.98804515,10.8581891 4.91340701,11.2140273 4.87068856,11.5836283 C4.83853056,11.861894 4.79971456,12.1393852 4.76352006,12.4171743 C4.7616731,12.4314138 4.75662374,12.4452362 4.7512467,12.4663869" id="Fill-6" fill="#47568C" mask="url(#mask-2)"></path>
                <path d="M12.961346,11.3333455 C12.9269538,11.3162611 12.9000388,11.304524 12.8747324,11.2900313 C12.6718347,11.1737173 12.4783356,11.2032538 12.2981376,11.3362947 C12.1946481,11.4127053 12.1022851,11.503981 12.002147,11.5851282 C11.9543345,11.6238697 11.9033345,11.6615686 11.8480895,11.6877091 C11.6776774,11.7683349 11.522607,11.6958417 11.4702367,11.5143329 C11.4241222,11.3545707 11.4167642,11.1909358 11.4421003,11.0278073 C11.5140574,10.5645772 11.720798,10.1728126 12.0822962,9.8705364 C12.1719632,9.79557058 12.2788636,9.74121924 12.3942094,9.66683432 C12.4078978,9.80891637 12.4191881,9.92618358 12.432653,10.066091 C12.5905981,9.9504771 12.7359124,9.84409802 12.8836842,9.73593156 C12.9017219,9.86649989 12.9231258,10.0090288 12.940806,10.1520045 C12.9733811,10.4151818 12.9996556,10.6792229 13.0367587,10.9417299 C13.0563603,11.0803117 13.0009961,11.1985172 12.961346,11.3333455" id="Fill-8" fill="#47568C" mask="url(#mask-2)"></path>
                <path d="M5.43158721,3.33148373 C5.43327033,3.11741483 5.49232844,2.92500306 5.65253753,2.77516078 C5.83827641,2.60147185 6.05807983,2.57180129 6.29553365,2.63797914 C6.312201,2.64262634 6.33286017,2.67579719 6.33184732,2.69465408 C6.30914755,3.11760846 6.15226002,3.48779037 5.87801589,3.80746381 C5.78088652,3.92067963 5.67212427,3.91294919 5.57627586,3.79669483 C5.46516022,3.66192615 5.43225748,3.50138937 5.43158721,3.33148373" id="Fill-10" fill="#FFFFFF" mask="url(#mask-2)"></path>
            </g>
        </g>
    </g>
</svg>