<?xml version="1.0" encoding="UTF-8"?>
<svg width="22px" height="31px" viewBox="0 0 22 31" version="1.1" xmlns="http://www.w3.org/2000/svg" xmlns:xlink="http://www.w3.org/1999/xlink">
    <!-- Generator: Sketch 60.1 (88133) - https://sketch.com -->
    <title>geological_units_pin</title>
    <desc>Created with Sketch.</desc>
    <defs>
        <polygon id="path-1" points="-4.20462477e-14 -7.37653469e-15 12.5216793 -7.37653469e-15 12.5216793 12.4578468 -4.20462477e-14 12.4578468"></polygon>
    </defs>
    <g id="Page-1" stroke="none" stroke-width="1" fill="none" fill-rule="evenodd">
        <g id="geological_units_pin" transform="translate(1.000000, 0.305328)">
            <g id="Group-28">
                <g id="Group-3">
                    <path d="M19.5415477,5.6739196 C18.220794,3.08050251 16.2040101,1.32180905 13.3996884,0.508190955 C10.1182312,-0.629849246 6.26225126,0.185125628 3.55079397,2.53809045 C3.55034171,2.53839196 3.5500402,2.53854271 3.54973869,2.53884422 C2.97762814,3.01040201 2.49174874,3.57105528 2.1159196,4.07155779 C2.05094472,4.13819095 1.99923618,4.22110553 1.94722613,4.30190955 C1.49978894,4.92949749 1.24878392,5.41266332 1.24878392,5.41266332 L1.25526633,5.40934673 C0.62481407,6.55869347 0.220643216,7.79668342 0.0647638191,9.13085427 C-0.025839196,10.0778894 -0.0186030151,11.0249246 0.0688341709,11.9716583 C0.204060302,13.151005 0.477226131,14.291005 1.01978894,15.3548744 C1.14129648,15.6257789 1.24667337,15.9058794 1.38777889,16.1663819 C2.56697487,18.3431156 4.17777889,20.2029648 5.72858291,22.1065327 C7.25466332,24.1887437 8.67265327,26.3276382 9.33114573,28.8777889 C9.46064322,29.3790452 9.69536683,29.8564824 10.2997387,29.8738191 C10.9422513,29.8923618 11.2137588,29.4082915 11.3545628,28.880201 C12.1559698,25.8767337 13.9211457,23.4345226 15.8102412,21.0566834 C17.1311457,19.3940201 18.5405427,17.7850251 19.4596884,15.8443719 C21.0554171,12.4750251 21.2658693,9.07824121 19.5415477,5.6739196" id="Fill-1" stroke="#FFFFFF" stroke-width="0.5" fill="#ACB050"></path>
                    <g id="Group-50" transform="translate(4.153125, 5.014201)">
                        <mask id="mask-2" fill="white">
                            <use xlink:href="#path-1"></use>
                        </mask>
                        <g id="Clip-2"></g>
                        <path d="M0.98251156,1.47408645 C0.977329295,1.52742804 0.969045329,1.57304729 0.969007036,1.61867931 C0.966837122,4.48767586 0.965956392,7.35669795 0.962050074,10.2256945 C0.961859084,10.3762865 1.01977026,10.464768 1.15856818,10.5227557 C1.80701508,10.7936248 2.45401964,11.0680424 3.0992372,11.3465445 C3.26046182,11.4161349 3.40942004,11.4119865 3.56405832,11.3344695 C4.25900521,10.9861217 4.95803665,10.6457771 5.64928192,10.2902814 C6.03902401,10.0898196 6.41772508,10.080323 6.81790829,10.2569923 C7.66874435,10.6326172 8.52528602,10.9952737 9.37852176,11.3654738 C9.52599933,11.4294607 9.66322725,11.4256059 9.80595654,11.350144 C10.0688097,11.2111929 10.3344327,11.0773985 10.600528,10.9447019 C10.8399716,10.8252928 11.0810874,10.7092024 11.3224457,10.5936736 C11.4668598,10.5245427 11.5446959,10.4141962 11.5469807,10.2527291 C11.5473764,10.2250946 11.5486659,10.1974601 11.5486659,10.1698384 C11.5463808,7.33060792 11.5439811,4.49137748 11.541607,1.65214704 C11.5415815,1.62741002 11.5415942,1.60266024 11.5415942,1.57048169 C11.5125812,1.58347564 11.4914054,1.59204042 11.4710465,1.60222625 C11.030439,1.82285546 10.5895763,2.04299962 10.1494667,2.26464996 C9.81935895,2.43091643 9.48505178,2.44022154 9.14650689,2.29450543 C8.26684926,1.91589371 7.38687252,1.53798403 6.50869553,1.15595152 C6.35362326,1.08849272 6.21398291,1.09534709 6.0641312,1.17194506 C5.37772356,1.52278187 4.68804828,1.86722382 4.00084926,2.21652893 C3.59130989,2.42470027 3.18268954,2.43689008 2.76212191,2.24452082 C2.33552957,2.04940725 1.90311675,1.8669813 1.47270791,1.68022828 C1.31329581,1.61105908 1.15235201,1.54538727 0.98251156,1.47408645 M9.67526389,12.4578468 L9.54762189,12.4578468 C9.49401225,12.4390069 9.43912618,12.4231154 9.3869589,12.4008419 C8.42663152,11.9910217 7.46584463,11.5821971 6.50724041,11.1683562 C6.33768077,11.0951408 6.18439549,11.0988552 6.01999259,11.1826394 C5.42621475,11.485253 4.83110944,11.7854032 4.23272373,12.0787756 C3.96122918,12.2118934 3.70026511,12.3693526 3.4080415,12.4578468 L3.3059279,12.4578468 C3.24797843,12.4386112 3.18840791,12.4232431 3.13234754,12.3995527 C2.40298836,12.0912462 1.67485455,11.7800933 0.944831641,11.4733951 C0.631764098,11.3418728 0.315045994,11.2190556 7.00770795e-14,11.0922944 L7.00770795e-14,0.18053685 C0.0161467135,0.12635282 0.032293427,0.072168789 0.0486188393,0.0173720767 C0.081154786,0.0332379778 0.10869993,0.0482103849 0.137419381,0.060451253 C1.14150244,0.488511477 2.14668322,0.913967804 3.14878783,1.34658485 C3.30392392,1.41355861 3.44133054,1.40939748 3.58734023,1.33554381 C4.26774869,0.99138268 4.94954845,0.649953084 5.62982928,0.3055239 C5.82279846,0.207813946 6.01230854,0.103262381 6.20340139,0.00186357326 L6.30551499,0.00186357326 C6.33309843,0.0203971922 6.35855024,0.0439088493 6.38857164,0.0567368707 C7.39188885,0.485575711 8.39678882,0.910751226 9.39817863,1.34404477 C9.56022015,1.41415852 9.70222188,1.40840187 9.85434562,1.33099976 C10.6491851,0.926578834 11.4452245,0.524506522 12.2407533,0.121438602 C12.3141857,0.0842309583 12.3869927,0.0458234794 12.4754742,-7.37653469e-15 C12.4886213,0.099624584 12.5101545,0.186995536 12.5102183,0.274379251 C12.5130903,3.51485233 12.5139455,6.75532541 12.5153878,9.99579849 C12.5154134,10.0379842 12.5194979,10.0801699 12.5216806,10.1223683 L12.5216806,11.0922944 C12.4354839,11.1272172 12.3466451,11.1568046 12.2635119,11.1979309 C11.7218375,11.4659153 11.1827415,11.7391585 10.6400587,12.0050496 C10.3210814,12.1613344 9.99703662,12.3072548 9.67526389,12.4578468" id="Fill-1" fill="#FFFFFF" mask="url(#mask-2)"></path>
                        <path d="M5.56093834,3.1625387 C5.57972724,3.16509154 5.59865655,3.16690406 5.61727952,3.1703121 C5.76162986,3.19673399 5.8822005,3.15212311 5.97931053,3.04500594 C6.02634661,2.99313223 6.07061286,2.93822064 6.11148383,2.88134337 C6.28702987,2.63707486 6.52535026,2.56572298 6.80274186,2.65371938 C7.03898168,2.72867077 7.26678437,2.8300951 7.49874818,2.91864036 C7.64330275,2.97382 7.7862618,3.03510092 7.93437758,3.07839709 C8.06813363,3.1175066 8.17998632,3.06236526 8.26557028,2.95454606 C8.27348409,2.94455169 8.28206163,2.93465943 8.28776723,2.92342694 C8.41737492,2.66823228 8.64026339,2.63964047 8.90663948,2.67438462 C8.74986957,2.79037291 8.60429387,2.89807723 8.44756225,3.01402723 C8.51610601,3.07663563 8.57814002,3.13676778 8.64388842,3.19249628 C8.72171175,3.2584489 8.8049471,3.31807048 8.88190246,3.38496766 C8.99997132,3.48764289 9.07348035,3.61551464 9.0918608,3.77382902 C9.09768127,3.82399233 9.11021572,3.87462791 9.12794519,3.9219448 C9.17408777,4.04518316 9.26431791,4.08299072 9.38128904,4.02329255 C9.44295289,3.99180327 9.5019235,3.95049832 9.55306965,3.90373029 C9.86378858,3.6195609 10.1719419,3.33257061 10.4808356,3.04639724 C10.5042323,3.02471087 10.526225,3.00150555 10.5498133,2.9800234 C10.6850755,2.85679781 10.8121048,2.85448749 10.9203197,3.0019523 C11.00681,3.11984245 11.0654104,3.25935516 11.1278912,3.39323886 C11.162597,3.46762862 11.1714299,3.55425925 11.2073738,3.62784486 C11.243956,3.7027069 11.2906985,3.77726259 11.3495032,3.8351993 C11.3978029,3.882797 11.420804,3.9262591 11.4082185,3.99720253 C11.3875788,3.99868318 11.3649989,4.00145301 11.342368,4.00173382 C11.2849419,4.00244862 11.2274264,4.00403138 11.1700768,4.00173382 C10.9951435,3.99472627 10.8567285,4.06398483 10.7483604,4.19878755 C10.6990779,4.26010676 10.6474594,4.31963899 10.5998872,4.38227293 C10.5323136,4.47125217 10.5330794,4.52315141 10.5997341,4.61038195 C10.6598535,4.68906048 10.6677545,4.77433811 10.6280834,4.86252597 C10.6028996,4.91852251 10.566828,4.96959208 10.54144,5.0255248 C10.5120951,5.09020101 10.4891323,5.15780021 10.4598895,5.23317282 C10.619442,5.25131075 10.7646475,5.26995924 10.9102998,5.28391051 C11.1590996,5.30771575 11.2703013,5.4176538 11.2968509,5.66642807 C11.3152186,5.83868095 11.3208476,6.01032116 11.2810233,6.18022543 C11.2281157,6.40596031 11.1072897,6.58985415 10.907964,6.7072465 C10.5944625,6.89189342 10.464842,7.17386737 10.4396838,7.52104086 C10.4379734,7.54461634 10.4173719,7.5741527 10.3968854,7.58641909 C10.3835085,7.59443501 10.3493132,7.58234731 10.3332176,7.56883002 C10.2014783,7.45807506 10.0720748,7.34455026 9.94136939,7.23258269 C9.89296754,7.19112457 9.84563789,7.14762418 9.79315149,7.11189718 C9.66055698,7.02160322 9.56598702,7.03994538 9.49791554,7.18397662 C9.44025965,7.30597685 9.3864713,7.43478039 9.36177258,7.566341 C9.31058813,7.83926514 9.28212397,8.11637593 9.23891715,8.39092111 C9.22938229,8.45155107 9.2044921,8.51270435 9.17365379,8.56610976 C9.14787011,8.61080999 9.10411443,8.65573998 9.04322919,8.63654262 C8.9764469,8.61548169 8.91745076,8.57286203 8.90740534,8.4982808 C8.89067147,8.37416172 8.87398866,8.24877898 8.87398866,8.12393233 C8.8739759,7.85827103 8.87554589,7.59200981 8.89328813,7.32712713 C8.91607223,6.98691013 8.8800006,6.66110391 8.71877598,6.35587359 C8.708003,6.33548916 8.69719172,6.3135475 8.6810833,6.29774542 C8.57962067,6.1983123 8.46716806,6.22204095 8.43104538,6.35906464 C8.41353289,6.42555336 8.42262101,6.50180669 8.43204099,6.5719715 C8.4461199,6.67694429 8.47707308,6.77970886 8.49005428,6.88475823 C8.50911123,7.03903912 8.45576963,7.09483144 8.29931883,7.09954143 C8.27193962,7.10035834 8.24448382,7.09965631 8.21013536,7.09965631 C8.19657978,7.1901162 8.18682793,7.27820195 8.16906016,7.36464111 C8.15942319,7.41149849 8.14520387,7.46222342 8.11755662,7.49978846 C7.89163027,7.8068696 7.76326071,8.15540885 7.67132017,8.52075856 C7.58844222,8.8500494 7.50315183,9.17874033 7.41749128,9.5073419 C7.40415269,9.55852634 7.38381932,9.60796209 7.36566863,9.65784459 C7.28118239,9.88994881 7.27402167,9.89958578 7.07935485,10.0538667 C6.9676298,9.92490995 6.91500301,9.77553051 6.91795154,9.6039669 C6.92365713,9.27240403 6.91280756,8.94004978 6.93192833,8.60936764 C6.95462308,8.21683018 6.87927601,7.84352838 6.75593554,7.47687672 C6.69875192,7.30689587 6.62465574,7.14259508 6.55654597,6.97149097 C6.42021154,7.03196776 6.29766245,7.0898534 6.17219036,7.14056557 C6.10586758,7.16737039 6.03561342,7.18815051 5.96515503,7.20022544 C5.83603238,7.2223458 5.73716089,7.16758738 5.66651104,7.06048298 C5.58202479,6.93244529 5.53322726,6.78963941 5.50854129,6.63987705 C5.44203981,6.23657937 5.50407382,5.85849099 5.75989393,5.53011917 C5.83027573,5.43978693 5.92676032,5.3678096 6.01833069,5.29648325 C6.13203419,5.20792523 6.25577035,5.13228458 6.37029075,5.04469663 C6.51480703,4.93414589 6.58410387,4.9272277 6.74064403,5.01539003 C6.76979746,5.03180479 6.81147258,5.04238631 6.84280869,5.035366 C6.92310827,5.01733019 7.00176128,4.99034667 7.07883152,4.96104006 C7.09553986,4.95468349 7.11552859,4.92140722 7.1125673,4.90422661 C7.06191895,4.61057341 6.98428708,4.33022052 6.71262661,4.15392138 C6.66505443,4.12304478 6.61813323,4.09115981 6.5639492,4.05511371 C6.54186714,4.24032225 6.52189116,4.4169022 6.4984178,4.5930354 C6.49557138,4.61438991 6.47394883,4.6332554 6.44776945,4.65184007 C6.3693845,4.4043167 6.3015683,4.15971633 6.01284209,4.07829349 C5.95036133,4.20778631 5.88189415,4.34262732 5.91602563,4.50501348 C5.92812609,4.5625162 5.93287437,4.62386095 5.92765381,4.68226993 C5.913894,4.83614236 5.83035231,4.92228795 5.67198688,4.95795113 C5.53475896,4.98884049 5.41538816,4.93978767 5.33879019,4.81601322 C5.21772175,4.62036356 5.19982634,4.40753328 5.25095973,4.18886976 C5.30967505,3.93779794 5.44335452,3.73780845 5.67303354,3.60874962 C5.71920166,3.5828 5.76409335,3.5534551 5.80560253,3.52067664 C5.85948022,3.47813356 5.85964615,3.44762712 5.80797667,3.40121648 C5.7733091,3.37007184 5.73255301,3.3457688 5.69729829,3.3152113 C5.64679035,3.27146839 5.59880972,3.22480247 5.5497569,3.17937468 C5.55348404,3.1737712 5.55721119,3.16815495 5.56093834,3.1625387" id="Fill-4" fill="#FFFFFF" mask="url(#mask-2)"></path>
                        <path d="M4.07159739,10.6831137 C3.9307955,10.5869227 3.81818972,10.4707812 3.72647894,10.3339234 C3.56553514,10.0937395 3.48836279,9.82312566 3.44761946,9.54136871 C3.4239291,9.37754019 3.42081464,9.21062275 3.3946225,9.04731757 C3.34110221,8.71363584 3.15711902,8.48593527 2.82684534,8.3870893 C2.81893153,8.38472792 2.81132407,8.38130712 2.79715581,8.37597168 C2.81899535,8.31083597 2.84041368,8.24728301 2.86157673,8.18365347 C2.87362613,8.14740315 2.88699025,8.11147192 2.89679316,8.07462168 C2.9352134,7.93018198 2.88866236,7.84182819 2.74876672,7.78939285 C2.70513869,7.77305468 2.65964708,7.75953739 2.61927391,7.73705963 C2.49606108,7.66847758 2.46281034,7.55019174 2.54467992,7.43620743 C2.5998468,7.35940524 2.66794381,7.28884474 2.74109544,7.22866153 C2.87714905,7.11671949 3.02157598,7.01496329 3.16153544,6.90769295 C3.20525282,6.87419969 3.2495446,6.84008098 3.28704582,6.80011627 C3.35502795,6.72766667 3.38360699,6.63887889 3.36123135,6.54114341 C3.34430602,6.46720039 3.32383224,6.39238941 3.29217703,6.32385842 C3.24103088,6.21309069 3.15023912,6.15397968 3.02520101,6.14741888 C2.94479931,6.14320669 2.8629425,6.13936467 2.78497876,6.12136715 C2.56299655,6.07013165 2.42502831,5.91739523 2.34186954,5.71624419 C2.29534403,5.603715 2.21744412,5.53237588 2.11695157,5.47557519 C2.03750719,5.43067074 1.95570143,5.38856164 1.88163077,5.33583273 C1.6813477,5.19324384 1.61602052,5.01049879 1.69417572,4.77819034 C1.73576149,4.65458182 1.80074403,4.53833825 1.86068472,4.42159687 C1.89841569,4.34810061 1.94423917,4.27840807 1.99017753,4.20950692 C2.09743511,4.04862694 2.14789199,3.86835814 2.17948339,3.66759003 C2.03473735,3.63853871 1.8901062,3.60865772 1.74496448,3.5814955 C1.72811573,3.57834274 1.70536993,3.58574598 1.69057622,3.59586799 C1.57526443,3.67481457 1.44657576,3.65091998 1.3166362,3.65003925 C1.3069737,3.48266229 1.30578663,3.32992587 1.44266992,3.1978164 C1.7057018,2.94397475 2.00490742,2.78853231 2.37624354,2.79864156 C2.61829107,2.80524065 2.83749068,2.88749316 3.03906293,3.01920694 C3.07286254,3.04128901 3.10592181,3.06455815 3.14039792,3.08549144 C3.34287643,3.2083341 3.5007313,3.20394321 3.68862033,3.06026938 C3.8136712,2.96463999 3.94955887,2.89381144 4.09872132,2.84643073 C4.11691031,2.84063578 4.13515035,2.83478978 4.15369673,2.83030954 C4.3054886,2.79374011 4.39952247,2.86322841 4.3927702,3.01929629 C4.38440965,3.21244417 4.37474715,3.4065366 4.34762323,3.59765498 C4.3015317,3.92228688 4.32902579,4.24146848 4.38373315,4.56140316 C4.40806172,4.703724 4.42117055,4.84792117 4.44169538,4.99094403 C4.45767616,5.10241379 4.4359132,5.20678666 4.38804745,5.30647507 C4.29046514,5.50971943 4.15774298,5.68622279 3.96183804,5.80180263 C3.89205615,5.84297994 3.8036513,5.85916494 3.72147538,5.87088248 C3.64998309,5.88106831 3.60223222,5.84277571 3.58761721,5.77069627 C3.57255545,5.69642139 3.56866237,5.61921074 3.56658181,5.54311058 C3.55916581,5.27119482 3.50868339,5.21179023 3.23792917,5.1695152 C3.19199082,5.16234172 3.14495474,5.15658506 3.09871004,5.15824441 C3.00739495,5.16151204 2.96570707,5.21283689 2.97321242,5.30444556 C2.97373576,5.31080213 2.97322519,5.31755439 2.97522917,5.32343869 C3.04718096,5.53406076 3.11046587,5.74824404 3.19435219,5.95402848 C3.26163229,6.11906959 3.40679955,6.21781345 3.56428425,6.28949719 C3.73612868,6.36770345 3.91010473,6.44305053 4.08835679,6.50457397 C4.17874009,6.53575691 4.28034313,6.53607602 4.37728723,6.5463512 C5.05659797,6.61837958 5.4775613,7.35317631 5.19321321,7.97179328 C5.14016519,8.08720718 5.01902017,8.1623245 4.89192702,8.158508 C4.88343883,8.15823995 4.87495064,8.15734646 4.86646244,8.15668272 C4.65400233,8.14011479 4.58695198,8.19999165 4.5978909,8.41007763 C4.60944251,8.63194496 4.55956001,8.84157142 4.44589481,9.02634598 C4.27452265,9.30496295 4.21056124,9.6098997 4.17395352,9.92663057 C4.14639561,10.1650914 4.1131321,10.4028884 4.0821151,10.6409407 C4.08053233,10.6531433 4.07620527,10.6649885 4.07159739,10.6831137" id="Fill-6" fill="#FFFFFF" mask="url(#mask-2)"></path>
                        <path d="M11.1072706,9.71214988 C11.0777981,9.69750934 11.0547331,9.68745115 11.0330468,9.67503158 C10.8591728,9.57535594 10.6933531,9.60066735 10.5389318,9.71467719 C10.4502461,9.78015754 10.3710953,9.85837656 10.2852816,9.92791592 C10.2443085,9.96111561 10.2006039,9.9934218 10.1532615,10.015823 C10.0072263,10.0849156 9.87433819,10.0227922 9.82945926,9.86724768 C9.7899413,9.73033886 9.78363578,9.59011136 9.80534769,9.45031783 C9.86701154,9.0533512 10.0441786,8.7176272 10.3539658,8.45859052 C10.4308063,8.3943483 10.5224149,8.34777173 10.6212609,8.28402732 C10.6329912,8.40578502 10.6426665,8.50627757 10.6542053,8.62617171 C10.7895569,8.52709599 10.9140844,8.43593407 11.0407181,8.34324044 C11.0561755,8.45513142 11.0745177,8.57727206 11.0896688,8.69979562 C11.1175841,8.92532627 11.1401001,9.15159725 11.1718957,9.37655352 C11.1886934,9.49531164 11.1412489,9.59660834 11.1072706,9.71214988" id="Fill-8" fill="#FFFFFF" mask="url(#mask-2)"></path>
                        <path d="M4.65461756,2.85492658 C4.65605992,2.67147949 4.70666997,2.50659155 4.84396171,2.37818369 C5.00313129,2.22934035 5.1914926,2.20391407 5.39497948,2.26062541 C5.40926262,2.26460784 5.42696657,2.29303371 5.4260986,2.30919319 C5.40664596,2.67164542 5.27220064,2.9888741 5.03718618,3.26281937 C4.95395083,3.35984005 4.86074664,3.35321543 4.77860901,3.25359085 C4.68338807,3.13810036 4.65519195,3.00052781 4.65461756,2.85492658" id="Fill-10" fill="#FFFFFF" mask="url(#mask-2)"></path>
                    </g>
                </g>
            </g>
        </g>
    </g>
</svg>