<?xml version="1.0" encoding="UTF-8"?>
<svg width="30px" height="30px" viewBox="0 0 30 30" version="1.1" xmlns="http://www.w3.org/2000/svg" xmlns:xlink="http://www.w3.org/1999/xlink">
    <!-- Generator: Sketch 60.1 (88133) - https://sketch.com -->
    <title>government_school</title>
    <desc>Created with Sketch.</desc>
    <g id="Page-1" stroke="none" stroke-width="1" fill="none" fill-rule="evenodd">
        <g id="government_school">
            <circle id="Oval" fill="#D4EFF7" cx="15" cy="15" r="15"></circle>
            <g id="Shape-9" transform="translate(6.935774, 7.000163)" fill-rule="nonzero">
                <path d="M8.02858505,1.28963507e-12 L11.660564,2.9390356 L11.660564,16.0571701 L9.36668256,16.0571701 L9.36668256,9.94015292 L6.69048754,9.94015292 L6.69048754,16.0571701 L4.3966061,16.0571701 L4.3966061,2.9390356 L8.02858505,1.28963507e-12 Z M8.02858505,4.3966061 C7.07842743,4.3966061 6.30817397,5.1668609 6.30817397,6.11701718 C6.30817397,7.06717155 7.07842743,7.83742826 8.02858505,7.83742826 C8.97874267,7.83742826 9.74899613,7.06717155 9.74899613,6.11701718 C9.74899613,5.1668609 8.97874267,4.3966061 8.02858505,4.3966061 Z" id="Combined-Shape" fill="#1A6389"></path>
                <path d="M0.764627147,7.2639579 C0.341024052,7.2639579 0,7.60498161 0,8.02858505 L0,15.2925429 C0,15.7161464 0.341024052,16.0571701 0.764627147,16.0571701 L3.63197895,16.0571701 L3.63197895,7.2639579 L0.764627147,7.2639579 Z" id="Path" fill="#FD6096"></path>
                <path d="M12.4251911,7.2639579 L12.4251911,16.0571701 L15.2925429,16.0571701 C15.716146,16.0571701 16.0571701,15.7161464 16.0571701,15.2925429 L16.0571701,8.02858505 C16.0571701,7.60498161 15.716146,7.2639579 15.2925429,7.2639579 L12.4251911,7.2639579 Z" id="Path" fill="#FD6096"></path>
            </g>
        </g>
    </g>
</svg>