<?xml version="1.0" encoding="UTF-8"?>
<svg width="22px" height="31px" viewBox="0 0 22 31" version="1.1" xmlns="http://www.w3.org/2000/svg" xmlns:xlink="http://www.w3.org/1999/xlink">
    <!-- Generator: Sketch 60.1 (88133) - https://sketch.com -->
    <title>government_school_pin</title>
    <desc>Created with Sketch.</desc>
    <g id="Page-1" stroke="none" stroke-width="1" fill="none" fill-rule="evenodd">
        <g id="government_school_pin" transform="translate(0.199967, 0.548877)">
            <g id="Group-24-Copy-2" fill="#FF9E67" stroke="#FFFFFF" stroke-width="0.5">
                <g id="Group-22-Copy">
                    <g id="Group-19-Copy-2">
                        <g id="Group-16-Copy">
                            <g id="Group-28">
                                <g id="Group-3">
                                    <path d="M19.5415477,5.6739196 C18.220794,3.08050251 16.2040101,1.32180905 13.3996884,0.508190955 C10.1182312,-0.629849246 6.26225126,0.185125628 3.55079397,2.53809045 C3.55034171,2.53839196 3.5500402,2.53854271 3.54973869,2.53884422 C2.97762814,3.01040201 2.49174874,3.57105528 2.1159196,4.07155779 C2.05094472,4.13819095 1.99923618,4.22110553 1.94722613,4.30190955 C1.49978894,4.92949749 1.24878392,5.41266332 1.24878392,5.41266332 L1.25526633,5.40934673 C0.62481407,6.55869347 0.220643216,7.79668342 0.0647638191,9.13085427 C-0.025839196,10.0778894 -0.0186030151,11.0249246 0.0688341709,11.9716583 C0.204060302,13.151005 0.477226131,14.291005 1.01978894,15.3548744 C1.14129648,15.6257789 1.24667337,15.9058794 1.38777889,16.1663819 C2.56697487,18.3431156 4.17777889,20.2029648 5.72858291,22.1065327 C7.25466332,24.1887437 8.67265327,26.3276382 9.33114573,28.8777889 C9.46064322,29.3790452 9.69536683,29.8564824 10.2997387,29.8738191 C10.9422513,29.8923618 11.2137588,29.4082915 11.3545628,28.880201 C12.1559698,25.8767337 13.9211457,23.4345226 15.8102412,21.0566834 C17.1311457,19.3940201 18.5405427,17.7850251 19.4596884,15.8443719 C21.0554171,12.4750251 21.2658693,9.07824121 19.5415477,5.6739196" id="Fill-1"></path>
                                </g>
                            </g>
                        </g>
                    </g>
                </g>
            </g>
            <g id="government_school" transform="translate(3.866931, 3.282994)" fill="#FFFFFF" fill-rule="nonzero">
                <g id="Shape-9" transform="translate(0.032322, 0.038627)">
                    <path d="M6.58300162,2.15078843e-12 L9.56102616,2.40984881 L9.56102616,13.1660032 L7.68016855,13.1660032 L7.68016855,8.15038295 L5.48583468,8.15038295 L5.48583468,13.1660032 L3.60497708,13.1660032 L3.60497708,2.40984881 L6.58300162,2.15078843e-12 Z M6.58300162,3.60497708 C5.80392422,3.60497708 5.17235841,4.23654398 5.17235841,5.01562028 C5.17235841,5.79469501 5.80392422,6.42626348 6.58300162,6.42626348 C7.36207901,6.42626348 7.99364482,5.79469501 7.99364482,5.01562028 C7.99364482,4.23654398 7.36207901,3.60497708 6.58300162,3.60497708 Z" id="Combined-Shape"></path>
                    <path d="M0.626952535,5.95604908 C0.279621113,5.95604908 0,6.23566991 0,6.58300162 L0,12.5390507 C0,12.8863824 0.279621113,13.1660032 0.626952535,13.1660032 L2.97802454,13.1660032 L2.97802454,5.95604908 L0.626952535,5.95604908 Z" id="Path"></path>
                    <path d="M10.1879787,5.95604908 L10.1879787,13.1660032 L12.5390507,13.1660032 C12.8863821,13.1660032 13.1660032,12.8863824 13.1660032,12.5390507 L13.1660032,6.58300162 C13.1660032,6.23566991 12.8863821,5.95604908 12.5390507,5.95604908 L10.1879787,5.95604908 Z" id="Path"></path>
                </g>
            </g>
        </g>
    </g>
</svg>