<?xml version="1.0" encoding="UTF-8"?>
<svg width="30px" height="30px" viewBox="0 0 30 30" version="1.1" xmlns="http://www.w3.org/2000/svg" xmlns:xlink="http://www.w3.org/1999/xlink">
    <!-- Generator: Sketch 60.1 (88133) - https://sketch.com -->
    <title>groceries</title>
    <desc>Created with Sketch.</desc>
    <g id="Page-1" stroke="none" stroke-width="1" fill="none" fill-rule="evenodd">
        <g id="groceries">
            <circle id="Oval" fill="#00BCD4" cx="15" cy="15" r="15"></circle>
            <path d="M20.9752351,9.23530604 L10.5454464,9.23530604 C10.5140359,9.23530604 10.4853697,9.24677113 10.4559279,9.25536995 L10.1995726,8.43772921 C10.1180484,8.17770897 9.87094025,8 9.59090028,8 L8.31819199,8 C8.14246601,8 8,8.13827599 8,8.30883375 L8,8.92647229 C8,9.09703005 8.14246601,9.23530604 8.31819199,9.23530604 L9.1195633,9.23530604 L11.1075846,15.5761403 L10.3650969,16.416885 C10.0716336,16.74917 9.93948859,17.2070211 10.0745569,17.6245705 C10.2472999,18.158595 10.7328954,18.5 11.2927665,18.5 L20.4090997,18.5 C20.5848257,18.5 20.7272917,18.361724 20.7272917,18.1911663 L20.7272917,17.5735277 C20.7272917,17.40297 20.5848257,17.264694 20.4090997,17.264694 L11.2927367,17.264694 L12.3013639,16.1225852 C12.326719,16.0938646 12.3453625,16.0614381 12.3646025,16.0293879 L18.5304634,16.0293879 C19.0236357,16.0293879 19.4724215,15.7529518 19.6824216,15.3198549 L21.9027556,10.7404761 C21.9664417,10.6086854 22,10.4624186 22,10.3173388 L22,10.229874 C22,9.68062074 21.5411914,9.23530604 20.9752351,9.23530604 Z" id="Path" fill="#FFFFFF" fill-rule="nonzero"></path>
            <circle id="Oval" fill="#FFFFFF" fill-rule="nonzero" cx="11.9375" cy="20.6875" r="1.3125"></circle>
            <circle id="Oval" fill="#FFFFFF" fill-rule="nonzero" cx="19.8125" cy="20.6875" r="1.3125"></circle>
        </g>
    </g>
</svg>