<?xml version="1.0" encoding="UTF-8"?>
<svg width="30px" height="30px" viewBox="0 0 30 30" version="1.1" xmlns="http://www.w3.org/2000/svg" xmlns:xlink="http://www.w3.org/1999/xlink">
    <!-- Generator: Sketch 60.1 (88133) - https://sketch.com -->
    <title>hotels</title>
    <desc>Created with Sketch.</desc>
    <g id="Page-1" stroke="none" stroke-width="1" fill="none" fill-rule="evenodd">
        <g id="hotels">
            <g id="Group-32">
                <circle id="Oval" fill="#E0E0FB" cx="15" cy="15" r="15"></circle>
                <path d="M11.6315789,15.8947368 C12.7929934,15.8947368 13.7368421,14.9508882 13.7368421,13.7894737 C13.7368421,12.6280592 12.7929934,11.6842105 11.6315789,11.6842105 C10.4701645,11.6842105 9.52631579,12.6280592 9.52631579,13.7894737 C9.52631579,14.9508882 10.4701645,15.8947368 11.6315789,15.8947368 Z" id="Path" fill="#FF641A" fill-rule="nonzero"></path>
                <path d="M20.0908905,11.4596605 L14.2727056,11.4596605 L14.2727056,16.5684211 L8.45455475,16.5684211 L8.45455475,10 L7,10 L7,20.9473684 L8.45455475,20.9473684 L8.45455475,18.7578947 L21.5454452,18.7578947 L21.5454452,20.9473684 L23,20.9473684 L23,14.3789474 C23,12.7660579 21.6981723,11.4596605 20.0908905,11.4596605 Z" id="Path" fill="#1889C9" fill-rule="nonzero"></path>
            </g>
        </g>
    </g>
</svg>