<?xml version="1.0" encoding="UTF-8"?>
<svg width="30px" height="30px" viewBox="0 0 30 30" version="1.1" xmlns="http://www.w3.org/2000/svg" xmlns:xlink="http://www.w3.org/1999/xlink">
    <!-- Generator: Sketch 60.1 (88133) - https://sketch.com -->
    <title>hotel_apartments</title>
    <desc>Created with Sketch.</desc>
    <g id="Page-1" stroke="none" stroke-width="1" fill="none" fill-rule="evenodd">
        <g id="hotel_apartments">
            <circle id="Oval" fill="#FFEACB" cx="15" cy="15" r="15"></circle>
            <g id="Group-41" transform="translate(8.500000, 6.039666)" fill-rule="nonzero">
                <path d="M8.25708509,16.3515019 L11.265465,16.3515019 C11.4380035,16.3515019 11.5780348,16.2114707 11.5780348,16.0389322 L11.5780348,0.31292142 C11.5780348,0.140382902 11.4380035,0.000351641002 11.265465,0.000351641002 L1.6085175,0.000351641002 C1.59768175,-0.000117213667 1.586846,-0.000117213667 1.57601024,0.000351641002 C1.4161829,0.0170220292 1.2951142,0.152260554 1.29594344,0.31292142 L1.29594344,16.0391405 C1.29594344,16.2116791 1.43597898,16.3517103 1.6085175,16.3517103 L4.61689744,16.3517103 C4.78943596,16.3517103 4.92946722,16.2116791 4.92946722,16.0391405 L4.92946722,14.6194486 C4.92946722,13.7898884 5.6039928,13.1151544 6.43376137,13.1151544 C7.26332157,13.1151544 7.94451531,13.78968 7.94451531,14.6194486 L7.94451531,16.0391405 C7.94451531,16.2116791 8.08454657,16.3515019 8.25708509,16.3515019 Z M5.01427782,11.5002106 C5.01427782,11.6727491 4.87424656,11.8127804 4.70170804,11.8127804 L3.69898418,11.8127804 C3.52644567,11.8127804 3.38641207,11.6727491 3.38641207,11.5002106 L3.38641207,10.5039465 C3.38578927,10.3409935 3.5106088,10.2049214 3.6729367,10.1913767 C3.68168866,10.19096 3.69023223,10.19096 3.69898418,10.1913767 L4.70170804,10.1913767 C4.87424656,10.1913767 5.01427782,10.331408 5.01427782,10.5039465 L5.01427782,11.5002106 Z M5.01427782,7.33261353 C5.01427782,7.50515204 4.87424656,7.6451833 4.70170804,7.6451833 L3.69898418,7.6451833 C3.52644567,7.6451833 3.38641207,7.50515204 3.38641207,7.33261353 L3.38641207,6.32968129 C3.38578927,6.16672825 3.5106088,6.0306562 3.6729367,6.01711151 C3.68168866,6.01669475 3.69023223,6.01669475 3.69898418,6.01711151 L4.70170804,6.01711151 C4.87424656,6.01711151 5.01427782,6.15714278 5.01427782,6.32968129 L5.01427782,7.33261353 Z M5.01427782,3.15209692 C5.01427782,3.32463543 4.87424656,3.4646667 4.70170804,3.4646667 L3.69898418,3.4646667 C3.52644567,3.4646667 3.38641207,3.32463543 3.38641207,3.15209692 L3.38641207,2.15583284 C3.38578927,1.99287979 3.5106088,1.85680775 3.6729367,1.84326306 C3.68168866,1.8428463 3.69023223,1.8428463 3.69898418,1.84326306 L4.70170804,1.84326306 C4.87424656,1.84326306 5.01427782,1.98329432 5.01427782,2.15583284 L5.01427782,3.15209692 Z M7.85345097,2.15562446 C7.85282817,1.99267141 7.9776477,1.85659937 8.13997561,1.84305468 C8.14872756,1.84263792 8.15727114,1.84263792 8.16602309,1.84305468 L9.16895532,1.84305468 C9.34149384,1.84305468 9.4815251,1.98308594 9.4815251,2.15562446 L9.4815251,3.15188854 C9.4815251,3.32442705 9.34149384,3.46445832 9.16895532,3.46445832 L8.16602309,3.46445832 C7.99348457,3.46445832 7.85345097,3.32442705 7.85345097,3.15188854 L7.85345097,2.15562446 Z M7.85345097,6.32988967 C7.85282817,6.16693663 7.9776477,6.03086458 8.13997561,6.01731989 C8.14872756,6.01690313 8.15727114,6.01690313 8.16602309,6.01731989 L9.16895532,6.01731989 C9.34149384,6.01731989 9.4815251,6.15735115 9.4815251,6.32988967 L9.4815251,7.33282191 C9.4815251,7.50536042 9.34149384,7.64539168 9.16895532,7.64539168 L8.16602309,7.64539168 C7.99348457,7.64539168 7.85345097,7.50536042 7.85345097,7.33282191 L7.85345097,6.32988967 Z M7.85345097,11.5002106 L7.85345097,10.5039465 C7.85282817,10.3409935 7.9776477,10.2049214 8.13997561,10.1913767 C8.14872756,10.19096 8.15727114,10.19096 8.16602309,10.1913767 L9.16895532,10.1913767 C9.34149384,10.1913767 9.4815251,10.331408 9.4815251,10.5039465 L9.4815251,11.5002106 C9.4815251,11.6727491 9.34149384,11.8127804 9.16895532,11.8127804 L8.16602309,11.8127804 C7.99327619,11.8127804 7.85345097,11.6727491 7.85345097,11.5002106 Z" id="Shape" fill="#1889C9"></path>
                <path d="M12.8679396,17.6455863 C12.8704067,17.3425836 12.7324592,17.0930089 12.5597123,17.0889835 C12.556795,17.0889835 12.5538777,17.0889835 12.5509603,17.0889835 L0.316979172,17.0889835 C0.144440654,17.0845922 0.00232559418,17.326848 0,17.6302166 C-0.00246714244,17.9332192 0.1356887,18.1827939 0.308227218,18.1868193 C0.311144536,18.1868193 0.314061854,18.1868193 0.317187552,18.1868193 L12.5511687,18.1868193 C12.7234989,18.1908447 12.8656139,17.9485889 12.8679396,17.6455863 Z" id="Path" fill="#F23051"></path>
            </g>
        </g>
    </g>
</svg>