<?xml version="1.0" encoding="UTF-8"?>
<svg width="22px" height="31px" viewBox="0 0 22 31" version="1.1" xmlns="http://www.w3.org/2000/svg" xmlns:xlink="http://www.w3.org/1999/xlink">
    <!-- Generator: Sketch 60.1 (88133) - https://sketch.com -->
    <title>hotel_apartments_pin</title>
    <desc>Created with Sketch.</desc>
    <g id="Page-1" stroke="none" stroke-width="1" fill="none" fill-rule="evenodd">
        <g id="hotel_apartments_pin" transform="translate(1.000000, 0.488732)">
            <g id="Group-36">
                <g id="Group-34-Copy" fill="#F88181" stroke="#FFFFFF" stroke-width="0.5">
                    <g id="Group-31-Copy">
                        <g id="Group-30-Copy">
                            <g id="Group-24-Copy-3">
                                <g id="Group-22-Copy">
                                    <g id="Group-19-Copy-2">
                                        <g id="Group-16-Copy">
                                            <g id="Group-28">
                                                <g id="Group-3">
                                                    <path d="M19.5415477,5.6739196 C18.220794,3.08050251 16.2040101,1.32180905 13.3996884,0.508190955 C10.1182312,-0.629849246 6.26225126,0.185125628 3.55079397,2.53809045 C3.55034171,2.53839196 3.5500402,2.53854271 3.54973869,2.53884422 C2.97762814,3.01040201 2.49174874,3.57105528 2.1159196,4.07155779 C2.05094472,4.13819095 1.99923618,4.22110553 1.94722613,4.30190955 C1.49978894,4.92949749 1.24878392,5.41266332 1.24878392,5.41266332 L1.25526633,5.40934673 C0.62481407,6.55869347 0.220643216,7.79668342 0.0647638191,9.13085427 C-0.025839196,10.0778894 -0.0186030151,11.0249246 0.0688341709,11.9716583 C0.204060302,13.151005 0.477226131,14.291005 1.01978894,15.3548744 C1.14129648,15.6257789 1.24667337,15.9058794 1.38777889,16.1663819 C2.56697487,18.3431156 4.17777889,20.2029648 5.72858291,22.1065327 C7.25466332,24.1887437 8.67265327,26.3276382 9.33114573,28.8777889 C9.46064322,29.3790452 9.69536683,29.8564824 10.2997387,29.8738191 C10.9422513,29.8923618 11.2137588,29.4082915 11.3545628,28.880201 C12.1559698,25.8767337 13.9211457,23.4345226 15.8102412,21.0566834 C17.1311457,19.3940201 18.5405427,17.7850251 19.4596884,15.8443719 C21.0554171,12.4750251 21.2658693,9.07824121 19.5415477,5.6739196" id="Fill-1"></path>
                                                </g>
                                            </g>
                                        </g>
                                    </g>
                                </g>
                            </g>
                        </g>
                    </g>
                </g>
                <g id="hotel_apartments" transform="translate(4.874005, 4.506436)" fill="#FFFFFF" fill-rule="nonzero">
                    <g id="Group-41" transform="translate(0.950000, 0.227766)">
                        <path d="M5.77995956,11.4460514 L7.88582552,11.4460514 C8.00660248,11.4460514 8.10462436,11.3480295 8.10462436,11.2272525 L8.10462436,0.219044994 C8.10462436,0.0982680315 8.00660248,0.000246148701 7.88582552,0.000246148701 L1.12596225,0.000246148701 C1.11837722,-8.20495673e-05 1.1107922,-8.20495673e-05 1.10320717,0.000246148701 C0.991328027,0.0119154205 0.906579941,0.106582388 0.90716041,0.219044994 L0.90716041,11.2273984 C0.90716041,11.3481753 1.00518529,11.4461972 1.12596225,11.4461972 L3.23182821,11.4461972 C3.35260517,11.4461972 3.45062705,11.3481753 3.45062705,11.2273984 L3.45062705,10.233614 C3.45062705,9.65292189 3.92279496,9.18060811 4.50363296,9.18060811 C5.0843251,9.18060811 5.56116072,9.65277602 5.56116072,10.233614 L5.56116072,11.2273984 C5.56116072,11.3481753 5.6591826,11.4460514 5.77995956,11.4460514 Z M3.50999447,8.05014741 C3.50999447,8.17092437 3.41197259,8.26894625 3.29119563,8.26894625 L2.58928893,8.26894625 C2.46851197,8.26894625 2.37048845,8.17092437 2.37048845,8.05014741 L2.37048845,7.35276255 C2.37005249,7.23869542 2.45742616,7.14344499 2.57105569,7.13396371 C2.57718206,7.13367198 2.58316256,7.13367198 2.58928893,7.13396371 L3.29119563,7.13396371 C3.41197259,7.13396371 3.50999447,7.23198559 3.50999447,7.35276255 L3.50999447,8.05014741 Z M3.50999447,5.13282947 C3.50999447,5.25360643 3.41197259,5.35162831 3.29119563,5.35162831 L2.58928893,5.35162831 C2.46851197,5.35162831 2.37048845,5.25360643 2.37048845,5.13282947 L2.37048845,4.43077691 C2.37005249,4.31670977 2.45742616,4.22145934 2.57105569,4.21197806 C2.57718206,4.21168633 2.58316256,4.21168633 2.58928893,4.21197806 L3.29119563,4.21197806 C3.41197259,4.21197806 3.50999447,4.30999994 3.50999447,4.43077691 L3.50999447,5.13282947 Z M3.50999447,2.20646784 C3.50999447,2.3272448 3.41197259,2.42526669 3.29119563,2.42526669 L2.58928893,2.42526669 C2.46851197,2.42526669 2.37048845,2.3272448 2.37048845,2.20646784 L2.37048845,1.50908299 C2.37005249,1.39501586 2.45742616,1.29976543 2.57105569,1.29028414 C2.57718206,1.28999241 2.58316256,1.28999241 2.58928893,1.29028414 L3.29119563,1.29028414 C3.41197259,1.29028414 3.50999447,1.38830602 3.50999447,1.50908299 L3.50999447,2.20646784 Z M5.49741568,1.50893712 C5.49697972,1.39486999 5.58435339,1.29961956 5.69798293,1.29013828 C5.70410929,1.28984654 5.7100898,1.28984654 5.71621616,1.29013828 L6.41826873,1.29013828 C6.53904569,1.29013828 6.63706757,1.38816016 6.63706757,1.50893712 L6.63706757,2.20632198 C6.63706757,2.32709894 6.53904569,2.42512082 6.41826873,2.42512082 L5.71621616,2.42512082 C5.5954392,2.42512082 5.49741568,2.32709894 5.49741568,2.20632198 L5.49741568,1.50893712 Z M5.49741568,4.43092277 C5.49697972,4.31685564 5.58435339,4.22160521 5.69798293,4.21212393 C5.70410929,4.21183219 5.7100898,4.21183219 5.71621616,4.21212393 L6.41826873,4.21212393 C6.53904569,4.21212393 6.63706757,4.31014581 6.63706757,4.43092277 L6.63706757,5.13297533 C6.63706757,5.2537523 6.53904569,5.35177418 6.41826873,5.35177418 L5.71621616,5.35177418 C5.5954392,5.35177418 5.49741568,5.2537523 5.49741568,5.13297533 L5.49741568,4.43092277 Z M5.49741568,8.05014741 L5.49741568,7.35276255 C5.49697972,7.23869542 5.58435339,7.14344499 5.69798293,7.13396371 C5.70410929,7.13367198 5.7100898,7.13367198 5.71621616,7.13396371 L6.41826873,7.13396371 C6.53904569,7.13396371 6.63706757,7.23198559 6.63706757,7.35276255 L6.63706757,8.05014741 C6.63706757,8.17092437 6.53904569,8.26894625 6.41826873,8.26894625 L5.71621616,8.26894625 C5.59529334,8.26894625 5.49741568,8.17092437 5.49741568,8.05014741 Z" id="Shape"></path>
                        <path d="M9.00755769,12.3519104 C9.00928466,12.1398085 8.91272143,11.9651063 8.7917986,11.9622885 C8.78975648,11.9622885 8.78771436,11.9622885 8.78567224,11.9622885 L0.22188542,11.9622885 C0.101108458,11.9592145 0.00162791592,12.1287936 0,12.3411516 C-0.00172699971,12.5532535 0.09498209,12.7279557 0.215759053,12.7307735 C0.217801175,12.7307735 0.219843298,12.7307735 0.222031286,12.7307735 L8.7858181,12.7307735 C8.9064492,12.7335913 9.00592974,12.5640122 9.00755769,12.3519104 Z" id="Path"></path>
                    </g>
                </g>
            </g>
        </g>
    </g>
</svg>