<?xml version="1.0" encoding="UTF-8"?>
<svg width="22px" height="32px" viewBox="0 0 22 32" version="1.1" xmlns="http://www.w3.org/2000/svg" xmlns:xlink="http://www.w3.org/1999/xlink">
    <!-- Generator: Sketch 60.1 (88133) - https://sketch.com -->
    <title>hotels_pin</title>
    <desc>Created with Sketch.</desc>
    <g id="Page-1" stroke="none" stroke-width="1" fill="none" fill-rule="evenodd">
        <g id="hotels_pin" transform="translate(1.000000, 1.048656)">
            <g id="Group-31-Copy" fill="#EF74B6" stroke="#FFFFFF" stroke-width="0.5">
                <g id="Group-30-Copy">
                    <g id="Group-24-Copy-3">
                        <g id="Group-22-Copy">
                            <g id="Group-19-Copy-2">
                                <g id="Group-16-Copy">
                                    <g id="Group-28">
                                        <g id="Group-3">
                                            <path d="M19.5415477,5.6739196 C18.220794,3.08050251 16.2040101,1.32180905 13.3996884,0.508190955 C10.1182312,-0.629849246 6.26225126,0.185125628 3.55079397,2.53809045 C3.55034171,2.53839196 3.5500402,2.53854271 3.54973869,2.53884422 C2.97762814,3.01040201 2.49174874,3.57105528 2.1159196,4.07155779 C2.05094472,4.13819095 1.99923618,4.22110553 1.94722613,4.30190955 C1.49978894,4.92949749 1.24878392,5.41266332 1.24878392,5.41266332 L1.25526633,5.40934673 C0.62481407,6.55869347 0.220643216,7.79668342 0.0647638191,9.13085427 C-0.025839196,10.0778894 -0.0186030151,11.0249246 0.0688341709,11.9716583 C0.204060302,13.151005 0.477226131,14.291005 1.01978894,15.3548744 C1.14129648,15.6257789 1.24667337,15.9058794 1.38777889,16.1663819 C2.56697487,18.3431156 4.17777889,20.2029648 5.72858291,22.1065327 C7.25466332,24.1887437 8.67265327,26.3276382 9.33114573,28.8777889 C9.46064322,29.3790452 9.69536683,29.8564824 10.2997387,29.8738191 C10.9422513,29.8923618 11.2137588,29.4082915 11.3545628,28.880201 C12.1559698,25.8767337 13.9211457,23.4345226 15.8102412,21.0566834 C17.1311457,19.3940201 18.5405427,17.7850251 19.4596884,15.8443719 C21.0554171,12.4750251 21.2658693,9.07824121 19.5415477,5.6739196" id="Fill-1"></path>
                                        </g>
                                    </g>
                                </g>
                            </g>
                        </g>
                    </g>
                </g>
            </g>
            <g id="Group-32" transform="translate(3.590822, 5.926367)" fill="#FFFFFF" fill-rule="nonzero">
                <path d="M4.09120219,5.19667727 C5.11508101,5.19667727 5.94715836,4.36459992 5.94715836,3.3407211 C5.94715836,2.31684228 5.11508101,1.48476493 4.09120219,1.48476493 C3.06732337,1.48476493 2.23524602,2.31684228 2.23524602,3.3407211 C2.23524602,4.36459992 3.06732337,5.19667727 4.09120219,5.19667727 Z" id="Path"></path>
                <path d="M11.5487551,1.28680633 L6.41956444,1.28680633 L6.41956444,5.79058324 L1.2904038,5.79058324 L1.2904038,-6.18815593e-14 L0.00809861809,-6.18815593e-14 L0.00809861809,9.65097207 L1.2904038,9.65097207 L1.2904038,7.72077766 L12.8310603,7.72077766 L12.8310603,9.65097207 L14.1133655,9.65097207 L14.1133655,3.86038883 C14.1133655,2.43849905 12.9657013,1.28680633 11.5487551,1.28680633 Z" id="Path"></path>
            </g>
        </g>
    </g>
</svg>