<?xml version="1.0" encoding="UTF-8"?>
<svg width="26px" height="26px" viewBox="0 0 26 26" version="1.1" xmlns="http://www.w3.org/2000/svg" xmlns:xlink="http://www.w3.org/1999/xlink">
    <!-- Generator: Sketch 60.1 (88133) - https://sketch.com -->
    <title>incidents</title>
    <desc>Created with Sketch.</desc>
    <g id="Page-1" stroke="none" stroke-width="1" fill="none" fill-rule="evenodd">
        <g id="incidents">
            <rect id="Rectangle-Copy-10" fill="#D4EFF7" x="2.30926389e-15" y="0" width="26" height="26" rx="4"></rect>
            <g id="document-(3)" transform="translate(4.252503, 5.101367)" fill-rule="nonzero">
                <path d="M4.52388502,0.542202971 L4.52388502,15.6309371 L12.1616853,15.6309371 C13.2302366,15.6309371 14.09643,14.7647436 14.09643,13.6961923 L14.09643,0.542202971 C14.09643,0.371070143 13.9577326,0.232372702 13.7865998,0.232372702 L4.83371529,0.232372702 C4.66258246,0.232372702 4.52388502,0.371070143 4.52388502,0.542202971 Z" id="Path" fill="#FFFFFF"></path>
                <path d="M14.09643,0.542202971 L14.09643,13.6963133 C14.09643,14.7646226 13.2301156,15.6309371 12.1615642,15.6309371 L11.2720125,15.6309371 C12.3405638,15.6309371 13.2068783,14.7646226 13.2068783,13.6963133 L13.2068783,0.542202971 C13.2068783,0.371191193 13.0680598,0.232372702 12.897048,0.232372702 L13.7865998,0.232372702 C13.9576116,0.232372702 14.09643,0.371191193 14.09643,0.542202971 Z" id="Path" fill="#E3E5E7"></path>
                <g id="Group" transform="translate(6.072673, 4.895318)" fill="#FD6096">
                    <path d="M1.12579734,0.56604537 C1.12579734,0.876722839 0.873818181,1.128702 0.563019692,1.128702 C0.252342223,1.128702 0.000363090092,0.876722839 0.000363090092,0.56604537 C0.000363090092,0.255246882 0.252342223,0.00326774886 0.563019692,0.00326774886 C0.873818181,0.00326774886 1.12579734,0.255246882 1.12579734,0.56604537 Z" id="Path"></path>
                    <path d="M1.12579734,3.0207241 C1.12579734,3.33152259 0.873818181,3.58338071 0.563019692,3.58338071 C0.252342223,3.58338071 0.000363090092,3.33152259 0.000363090092,3.0207241 C0.000363090092,2.70992561 0.252342223,2.45794645 0.563019692,2.45794645 C0.873818181,2.45794645 1.12579734,2.70992561 1.12579734,3.0207241 Z" id="Path"></path>
                    <path d="M1.12579734,5.47540281 C1.12579734,5.78608027 0.873818181,6.03805941 0.563019692,6.03805941 C0.252342223,6.03805941 0.000363090092,5.78608027 0.000363090092,5.47540281 C0.000363090092,5.16460432 0.252342223,4.91262518 0.563019692,4.91262518 C0.873818181,4.91262518 1.12579734,5.16460432 1.12579734,5.47540281 L1.12579734,5.47540281 Z" id="Path"></path>
                </g>
                <polygon id="Path" fill="#FD6096" points="6.17361015 1.69740996 12.4468259 1.69740996 12.4468259 3.04505061 6.17361015 3.04505061"></polygon>
                <path d="M4.52485324,8.88317271 L5.52260353,9.37914318 C5.63394878,9.43445271 5.75558136,9.32516492 5.71249559,9.20861551 L5.32593393,8.16354348 L4.52485324,8.88317271 Z" id="Path" fill="#4E7693"></path>
                <path d="M4.3103926,8.8219328 L0.30619943,4.36412879 C0.221722286,4.27021149 0.229347023,4.12558368 0.323506363,4.04110653 L0.960715873,3.4687677 C1.05475422,3.38416951 1.19938203,3.39215734 1.28373816,3.48607464 L5.28793129,7.94375763 C5.37252949,8.037917 5.36478373,8.18230274 5.27062436,8.2669009 L4.63341485,8.83923973 C4.53937653,8.92371688 4.39486974,8.91597112 4.3103926,8.8219328 Z" id="Path" fill="#C0FF66"></path>
                <path d="M4.3103926,8.8219328 L0.30619943,4.36412879 C0.221722286,4.27021149 0.229347023,4.12558368 0.323506363,4.04110653 L0.642050608,3.75487659 L4.95208012,8.55300982 L4.63341485,8.83923973 C4.53937653,8.92371688 4.39486974,8.91597112 4.3103926,8.8219328 L4.3103926,8.8219328 Z" id="Path" fill="#9BE058"></path>
                <path d="M0.739961807,4.84702829 L0.30619943,4.36412879 C0.221843306,4.27021149 0.229468043,4.12558368 0.323506363,4.04110653 L0.960715873,3.4687677 C1.05487524,3.38416951 1.19938203,3.39215734 1.28373816,3.48607464 L1.71750053,3.96885312 L0.739961807,4.84702829 Z" id="Path" fill="#FD82AC"></path>
                <path d="M6.63569296,4.6662133 C6.19733156,4.6662133 5.84066366,5.0228812 5.84066366,5.46136362 C5.84066366,5.89972506 6.19733156,6.25639296 6.63569296,6.25639296 C7.07417542,6.25639296 7.43084332,5.89972506 7.43084332,5.46136362 C7.43084332,5.0228812 7.07417542,4.6662133 6.63569296,4.6662133 Z M6.63569296,5.79164755 C6.45354666,5.79164755 6.30540906,5.64350995 6.30540906,5.46136362 C6.30540906,5.27921732 6.45354666,5.1309587 6.63569296,5.1309587 C6.81783927,5.1309587 6.96609792,5.27921732 6.96609792,5.46136362 C6.96609792,5.64350995 6.81783927,5.79164755 6.63569296,5.79164755 Z" id="Shape" fill="#ACBADA"></path>
                <path d="M12.098993,5.83582256 L8.12989786,5.83582256 C8.00160874,5.83582256 7.89752516,5.93978515 7.89752516,6.06819526 C7.89752516,6.19648436 8.00160874,6.30056797 8.12989786,6.30056797 L12.098993,6.30056797 C12.2272821,6.30056797 12.3313657,6.19648436 12.3313657,6.06819526 C12.3313657,5.93978515 12.2272821,5.83582256 12.098993,5.83582256 L12.098993,5.83582256 Z" id="Path" fill="#ACBADA"></path>
                <path d="M8.13110812,5.08690471 L8.13268147,5.08690471 C8.26097057,5.08605751 8.36432802,4.98136877 8.36360565,4.85307968 C8.36275464,4.72515364 8.25879209,4.62215931 8.13122914,4.62215931 C8.13074503,4.62215931 8.13026092,4.62215931 8.12965579,4.62215931 L8.12735626,4.62215931 C7.99894615,4.62288546 7.89679898,4.72757422 7.89764095,4.85598434 C7.89837233,4.98378932 8.00342416,5.08690471 8.13110812,5.08690471 L8.13110812,5.08690471 Z" id="Path" fill="#ACBADA"></path>
                <path d="M6.63569296,7.120892 C6.19733156,7.120892 5.84066366,7.4775599 5.84066366,7.91604235 C5.84066366,8.35440376 6.19733156,8.71107166 6.63569296,8.71107166 C7.07417542,8.71107166 7.43084332,8.35440376 7.43084332,7.91604235 C7.43084332,7.4775599 7.07417542,7.120892 6.63569296,7.120892 Z M6.63569296,8.24632625 C6.45354666,8.24632625 6.30540906,8.09818866 6.30540906,7.91592133 C6.30540906,7.733775 6.45354666,7.5856374 6.63569296,7.5856374 C6.81783927,7.5856374 6.96609792,7.733775 6.96609792,7.91592133 C6.96609792,8.09818866 6.81783927,8.24632625 6.63569296,8.24632625 Z" id="Shape" fill="#ACBADA"></path>
                <path d="M12.098993,8.29050127 L8.12989786,8.29050127 C8.00160874,8.29050127 7.89752516,8.39446385 7.89752516,8.52287397 C7.89752516,8.65116306 8.00160874,8.75524667 8.12989786,8.75524667 L12.098993,8.75524667 C12.2272821,8.75524667 12.3313657,8.65116306 12.3313657,8.52287397 C12.3313657,8.39446385 12.2272821,8.29050127 12.098993,8.29050127 L12.098993,8.29050127 Z" id="Path" fill="#ACBADA"></path>
                <path d="M8.13110812,7.54146239 L8.13268147,7.54146239 C8.26097057,7.54073621 8.36432802,7.43604748 8.36360565,7.30763736 C8.36275464,7.17983237 8.25879209,7.07671699 8.13122914,7.07671699 C8.13074503,7.07671699 8.13026092,7.07671699 8.12965579,7.07671699 L8.12735626,7.07671699 C7.99894615,7.07756419 7.89679898,7.18225292 7.89764095,7.31054202 C7.89837233,7.43846803 8.00342416,7.54146239 8.13110812,7.54146239 L8.13110812,7.54146239 Z" id="Path" fill="#ACBADA"></path>
                <path d="M6.63569296,9.57557073 C6.19733156,9.57557073 5.84066366,9.9322386 5.84066366,10.3707211 C5.84066366,10.8090825 6.19733156,11.1657504 6.63569296,11.1657504 C7.07417542,11.1657504 7.43084332,10.8090825 7.43084332,10.3707211 C7.43084332,9.9322386 7.07417542,9.57557073 6.63569296,9.57557073 Z M6.63569296,10.701005 C6.45354666,10.701005 6.30540906,10.5528674 6.30540906,10.3707211 C6.30540906,10.1885748 6.45354666,10.0403161 6.63569296,10.0403161 C6.81783927,10.0403161 6.96609792,10.1885748 6.96609792,10.3707211 C6.96609792,10.5528674 6.81783927,10.701005 6.63569296,10.701005 Z" id="Shape" fill="#ACBADA"></path>
                <path d="M8.12989786,11.2099254 L12.098993,11.2099254 C12.2272821,11.2099254 12.3313657,11.1058418 12.3313657,10.9775527 C12.3313657,10.8491426 12.2272821,10.74518 12.098993,10.74518 L8.12989786,10.74518 C8.00160874,10.74518 7.89752516,10.8491426 7.89752516,10.9775527 C7.89752516,11.1058418 8.00160874,11.2099254 8.12989786,11.2099254 L8.12989786,11.2099254 Z" id="Path" fill="#ACBADA"></path>
                <path d="M8.13110812,9.99626214 L8.13268147,9.99626214 C8.26097057,9.99541494 8.36432802,9.89072621 8.36360565,9.76243711 C8.36275464,9.63451111 8.25879209,9.53151674 8.13122914,9.53151674 C8.13074503,9.53151674 8.13026092,9.53151674 8.12965579,9.53151674 L8.12735626,9.53151674 C7.99894615,9.53224289 7.89679898,9.63693163 7.89764095,9.76534177 C7.89837233,9.89314676 8.00342416,9.99626214 8.13110812,9.99626214 L8.13110812,9.99626214 Z" id="Path" fill="#ACBADA"></path>
                <path d="M9.79438836,12.9089087 C9.96552116,12.9089087 10.1042186,13.0476062 10.1042186,13.218739 L10.1042186,13.6963133 C10.1042186,14.7647436 10.9704121,15.6309371 12.0388424,15.6309371 L2.46569221,15.6309371 C1.39714087,15.6309371 0.530947426,14.7647436 0.530947426,13.6961923 L0.530947426,13.218739 C0.530947426,13.0476062 0.669644867,12.9089087 0.840777695,12.9089087 L9.79438836,12.9089087 Z" id="Path" fill="#7FA5B9"></path>
            </g>
        </g>
    </g>
</svg>