<?xml version="1.0" encoding="UTF-8"?>
<svg width="18px" height="19px" viewBox="0 0 18 19" version="1.1" xmlns="http://www.w3.org/2000/svg" xmlns:xlink="http://www.w3.org/1999/xlink">
    <!-- Generator: Sketch 60.1 (88133) - https://sketch.com -->
    <title>indentify_features-disabled</title>
    <desc>Created with Sketch.</desc>
    <g id="Page-1" stroke="none" stroke-width="1" fill="none" fill-rule="evenodd">
        <g id="indentify_features-disabled" transform="translate(0.000000, 0.500000)" fill="#5C5E5E" fill-rule="nonzero">
            <path d="M8.1,6.3 L9.9,6.3 L9.9,4.5 L8.1,4.5 M9,16.2 C5.031,16.2 1.8,12.969 1.8,9 C1.8,5.031 5.031,1.8 9,1.8 C12.969,1.8 16.2,5.031 16.2,9 C16.2,12.969 12.969,16.2 9,16.2 M9,0 C4.02943725,0 0,4.02943725 0,9 C0,11.3869484 0.948211563,13.6761336 2.63603897,15.363961 C4.32386638,17.0517884 6.61305159,18 9,18 C11.3869484,18 13.6761336,17.0517884 15.363961,15.363961 C17.0517884,13.6761336 18,11.3869484 18,9 C18,6.61305159 17.0517884,4.32386638 15.363961,2.63603897 C13.6761336,0.948211563 11.3869484,0 9,0 M8.1,13.5 L9.9,13.5 L9.9,8.1 L8.1,8.1 L8.1,13.5 Z" id="Shape"></path>
        </g>
    </g>
</svg>