<?xml version="1.0" encoding="UTF-8"?>
<svg width="26px" height="26px" viewBox="0 0 26 26" version="1.1" xmlns="http://www.w3.org/2000/svg" xmlns:xlink="http://www.w3.org/1999/xlink">
    <!-- Generator: Sketch 60.1 (88133) - https://sketch.com -->
    <title>innovation</title>
    <desc>Created with Sketch.</desc>
    <g id="Page-1" stroke="none" stroke-width="1" fill="none" fill-rule="evenodd">
        <g id="innovation">
            <g id="Group-22-Copy">
                <g id="Group-9-Copy-3">
                    <rect id="Rectangle" fill="#D4F7D6" x="-4.54747351e-13" y="0" width="25.7102686" height="25.7102686" rx="4"></rect>
                    <g id="concept" transform="translate(7.413623, 4.065001)" fill-rule="nonzero">
                        <g id="Group">
                            <g id="Path">
                                <path d="M6.48796309,16.8851737 L4.39505901,16.8851737 C3.89094423,16.8851737 3.48227026,16.4764997 3.48227026,15.9723849 L3.48227026,14.7400311 L7.40075184,14.7400311 L7.40075184,15.9723849 C7.40075184,16.4764997 6.99207787,16.8851737 6.48796309,16.8851737 Z" fill="#426175"></path>
                                <path d="M7.39310074,15.8126024 L3.48992136,15.8126024 C3.22130858,15.8126024 3.0035492,15.594843 3.0035492,15.3262302 L3.0035492,12.0042702 C3.0035492,11.7356574 3.22130858,11.517898 3.48992136,11.517898 L7.39306776,11.517898 C7.66168054,11.517898 7.87943991,11.7356574 7.87943991,12.0042702 L7.87943991,15.3262302 C7.87943991,15.594843 7.66171352,15.8126024 7.39310074,15.8126024 Z" fill="#EBECED"></path>
                                <path d="M7.39310074,11.517898 L6.054522,11.517898 L6.054522,15.8126024 L7.39310074,15.8126024 C7.66171352,15.8126024 7.87947289,15.594843 7.87947289,15.3262302 L7.87947289,12.0042702 C7.87943991,11.7356574 7.66171352,11.517898 7.39310074,11.517898 Z" fill="#AEB8C5"></path>
                                <path d="M10.865972,5.42446098 C10.865972,2.42862883 8.4373432,0 5.44151105,0 C2.4456789,0 0.017050068,2.42862883 0.017050068,5.42446098 C0.017050068,6.55807614 0.364779113,7.64344323 0.959387866,8.55474793 C1.78359541,9.81796998 2.37569777,10.7972771 2.5064919,12.1815975 C2.53825054,12.517652 2.81820804,12.7755467 3.1557796,12.7755467 L7.7272425,12.7755467 C8.06478108,12.7755467 8.34477156,12.517652 8.37653019,12.1815975 C8.50732433,10.7972771 9.09942669,9.81796998 9.92363423,8.55474793 C10.518243,7.64344323 10.865972,6.55807614 10.865972,5.42446098 Z" fill="#FFC107"></path>
                                <path d="M5.44151105,0 C5.13048747,0 4.82572987,0.0265479782 4.52905209,0.0768077529 C7.09038783,0.510710546 9.04105412,2.73961943 9.04105412,5.42446098 C9.04105412,6.55807614 8.69332507,7.64344323 8.09871632,8.5547809 C7.16149024,9.99117493 6.52443771,11.0604813 6.52443771,12.7755796 L7.72727548,12.7755796 C8.06481406,12.7755796 8.34480454,12.517685 8.37656317,12.1816305 C8.50735731,10.7973101 9.09945967,9.81800296 9.92366721,8.5547809 C10.518276,7.64344323 10.866005,6.55807614 10.866005,5.42446098 C10.866005,2.42862883 8.4373432,0 5.44151105,0 Z" fill="#FFCA2C"></path>
                            </g>
                            <path d="M8.51820735,5.54189868 L8.29751286,5.54189868 C8.15247185,5.54189868 8.02322772,5.44787597 7.98117968,5.30906797 C7.92768798,5.13253216 7.85648663,4.96368042 7.76962033,4.8046234 C7.69937537,4.67600587 7.72305419,4.51635523 7.82670673,4.41270269 L7.98493927,4.25447015 C8.11438128,4.12502814 8.11438128,3.91518369 7.98493927,3.78577466 L7.71787651,3.5187119 C7.5884345,3.38926989 7.37859005,3.38926989 7.24918102,3.5187119 L7.09094847,3.67694444 C6.98729593,3.78059698 6.82767828,3.8042758 6.69902776,3.73403084 C6.53997075,3.64716454 6.37115199,3.57596319 6.1945832,3.52247149 C6.0557752,3.48042345 5.96175248,3.35117931 5.96175248,3.20613831 L5.96175248,2.98544381 C5.96175248,2.80241117 5.81338062,2.65400632 5.63031499,2.65400632 L5.25264115,2.65400632 C5.0696085,2.65400632 4.92120366,2.80237819 4.92120366,2.98544381 L4.92120366,3.19179251 C4.92120366,3.33897714 4.82441072,3.46954042 4.68286547,3.50980761 C4.50078921,3.56158441 4.32662788,3.6320932 4.16259106,3.71919036 C4.03473204,3.78709382 3.87732396,3.76219478 3.77492462,3.65979544 L3.6338081,3.51867892 C3.50436609,3.38923691 3.29452164,3.38923691 3.16511261,3.51867892 L2.89804985,3.78574168 C2.76860784,3.91518369 2.76860784,4.12502814 2.89804985,4.25443717 L3.02472163,4.38110895 C3.12923162,4.48561894 3.15264661,4.64711639 3.08022504,4.77596478 C2.98616935,4.94323353 2.90955947,5.12158318 2.85286882,5.30860626 C2.8106229,5.44794193 2.68029047,5.54183273 2.5347218,5.54183273 L2.36481474,5.54183273 C2.1817821,5.54183273 2.03337725,5.69020459 2.03337725,5.87327022 L2.03337725,6.25094406 C2.03337725,6.43397671 2.18174912,6.58238155 2.36481474,6.58238155 L2.52149728,6.58238155 C2.66855,6.58238155 2.79973988,6.67864683 2.83990813,6.82012612 C2.89475196,7.01321731 2.97066929,7.1974372 3.06505477,7.3700815 C3.13510186,7.49817137 3.11040069,7.65742626 3.00717688,7.76068306 L2.89804985,7.86981009 C2.76860784,7.99925209 2.76860784,8.20909655 2.89804985,8.33850557 L3.16511261,8.60556834 C3.29455462,8.73501035 3.50439907,8.73501035 3.6338081,8.60556834 L3.74293513,8.49644131 C3.84615895,8.39321749 4.00541384,8.36851633 4.13353669,8.43856342 C4.30621397,8.53298188 4.49040088,8.60889921 4.68349207,8.66371006 C4.82497136,8.70387831 4.92123664,8.83503521 4.92123664,8.98212091 L4.92123664,9.13880344 C4.92123664,9.32183609 5.0696085,9.47024094 5.25267413,9.47024094 L5.63034797,9.47024094 C5.81338062,9.47024094 5.96178546,9.32186907 5.96178546,9.13880344 L5.96178546,8.96889638 C5.96178546,8.82332772 6.05570924,8.69296231 6.19501192,8.65074937 C6.38203501,8.59405872 6.56041764,8.51741586 6.72765341,8.42339315 C6.8565018,8.3509386 7.01799925,8.37438657 7.12250924,8.47889656 L7.24918102,8.60556834 C7.37859005,8.73501035 7.58846748,8.73501035 7.71787651,8.60556834 L7.98493927,8.33850557 C8.1143483,8.20906357 8.1143483,7.99921912 7.98493927,7.86981009 L7.84382275,7.72869357 C7.74145639,7.6263272 7.71655735,7.46891913 7.78442783,7.34102713 C7.87152499,7.17699031 7.94206676,7.00282897 7.99381058,6.82075272 C8.03404479,6.67917449 8.16464105,6.58238155 8.31182568,6.58238155 L8.51817438,6.58238155 C8.70120702,6.58238155 8.84957891,6.43400969 8.84957891,6.25094406 L8.84957891,5.87327022 C8.84957891,5.69027055 8.70127298,5.54189868 8.51820735,5.54189868 Z M5.44151105,7.66590183 C4.55579794,7.66590183 3.83778232,6.9478862 3.83778232,6.0621731 C3.83778232,5.17645999 4.55579794,4.45844437 5.44151105,4.45844437 C6.32722415,4.45844437 7.04523978,5.17645999 7.04523978,6.0621731 C7.04523978,6.9478862 6.32722415,7.66590183 5.44151105,7.66590183 Z" id="Shape" fill="#FFFFFF"></path>
                        </g>
                        <g id="Group" transform="translate(3.001076, 13.488352)" fill="#AEB8C5">
                            <rect id="Rectangle" x="0.00250639297" y="0.0258554222" width="4.87589071" height="1"></rect>
                            <rect id="Rectangle" x="0.00250639297" y="1.00041356" width="4.87589071" height="1"></rect>
                        </g>
                    </g>
                </g>
            </g>
        </g>
    </g>
</svg>