<?xml version="1.0" encoding="UTF-8"?>
<svg width="21px" height="30px" viewBox="0 0 21 30" version="1.1" xmlns="http://www.w3.org/2000/svg" xmlns:xlink="http://www.w3.org/1999/xlink">
    <title>international_mission</title>
    <g id="Icons" stroke="none" stroke-width="1" fill="none" fill-rule="evenodd">
        <g id="international_mission">
            <g id="Group-3" fill="#75DF98">
                <path d="M13.3997218,0.508133056 C10.1182645,-0.629907145 6.26228458,0.18506773 3.55082729,2.53803255 C2.97766147,3.01034411 2.49178207,3.57099738 2.11595292,4.07149989 C2.05097805,4.13813306 1.99926951,4.22104763 1.94725946,4.30185165 C1.49982227,4.92943959 1.24881724,5.41260542 1.24881724,5.41260542 L1.25529966,5.40928884 C0.624847395,6.55863557 0.220676541,7.79662552 0.0647971441,9.13079637 C-0.025805871,10.0778315 -0.0185696901,11.0248667 0.0688674959,11.9716004 C0.204093627,13.1509471 0.477259456,14.2909471 1.01982227,15.3548165 C1.14132981,15.625721 1.24670669,15.9058215 1.38781222,16.166324 C2.5670082,18.3430577 4.17781222,20.2029069 5.72861624,22.1064748 C7.25469664,24.1886858 8.67268659,26.3275803 9.33117905,28.877731 C9.46067654,29.3789873 9.69540016,29.8564245 10.299772,29.8737612 C10.9422846,29.8923039 11.2137921,29.4082336 11.3545961,28.8801431 C12.1560032,25.8766758 13.9211791,23.4344647 15.8102745,21.0566255 C17.1311791,19.3939622 18.540576,17.7849672 19.4597218,15.844314 C21.0554504,12.4749672 21.2659027,9.07818331 19.5415811,5.6738617 C18.2208273,3.08044461 16.2040434,1.32175115 13.3997218,0.508133056 Z" id="Fill-1"></path>
            </g>
            <g id="3064880" transform="translate(4.000000, 3.000000)" fill="#FFFFFF" fill-rule="nonzero">
                <path d="M12.951345,12.3745809 L10.1131384,7.23877843 C10.0374529,7.10362573 9.91851852,7.03875244 9.75092917,7.02794022 C9.59955815,7.02794022 9.46440546,7.11443795 9.39412606,7.24959064 L8.93460689,8.14700455 L11.0862378,11.9745289 C11.2592333,12.277271 11.2862638,12.6448863 11.1673294,12.9746589 L12.5945419,12.9746589 C12.7405068,12.9746589 12.8702534,12.8989734 12.9459389,12.7746329 C13.0162183,12.6502924 13.0162183,12.4989214 12.951345,12.3745809 L12.951345,12.3745809 Z" id="Path"></path>
                <path d="M10.3780377,12.3691748 L7.78851202,7.75776478 L6.75594542,8.63355426 C6.5397011,8.81736192 6.2585835,8.92007797 5.97205978,8.92007797 C5.66931774,8.92007797 5.38279402,8.81195582 5.1611436,8.61192982 C4.93949318,8.81195582 4.65296946,8.92007797 4.35022742,8.92007797 C4.0637037,8.92007797 3.78258609,8.81736192 3.56093567,8.62814815 L2.57702404,7.79560754 L0.0739961014,12.3745809 C0.00371669916,12.4989214 0.00912280702,12.6502924 0.0794022092,12.7746329 C0.155087719,12.8989734 0.290240416,12.9746589 0.43079922,12.9746589 L10.0266407,12.9746589 C10.1726056,12.9746589 10.3023522,12.8989734 10.3780377,12.7746329 C10.4483171,12.6502924 10.4483171,12.4935153 10.3780377,12.3691748 Z" id="Path"></path>
                <path d="M8.26965562,2.70305393 L5.1611436,2.70305393 C4.93733073,2.70305393 4.75568551,2.52140871 4.75568551,2.29759584 L4.75568551,0.40545809 C4.75568551,0.181645224 4.93733073,0 5.1611436,0 L8.26965562,0 C8.42805458,0 8.57185705,0.0919038337 8.63781157,0.236246914 C8.70430669,0.380049383 8.68051982,0.549260559 8.57726316,0.669816764 L7.9928629,1.35152697 L8.57780377,2.03377778 C8.68106043,2.15433398 8.70430669,2.32354516 8.63835218,2.46734763 C8.57185705,2.6111501 8.42805458,2.70305393 8.26965562,2.70305393 L8.26965562,2.70305393 Z" id="Path"></path>
                <path d="M5.1611436,4.32488629 C4.93733073,4.32488629 4.75568551,4.14324107 4.75568551,3.9194282 L4.75568551,0.40545809 C4.75568551,0.181645224 4.93733073,0 5.1611436,0 C5.38495647,0 5.56660169,0.181645224 5.56660169,0.40545809 L5.56660169,3.9194282 C5.56660169,4.14324107 5.38495647,4.32488629 5.1611436,4.32488629 Z" id="Path"></path>
                <path d="M7.38305393,7.03875244 L6.23155296,8.01185185 C6.15586745,8.07672515 6.06396361,8.10916179 5.97205978,8.10916179 C5.86934373,8.10916179 5.76662768,8.07131904 5.68553606,7.99022742 L5.1611436,7.46583496 L4.63675114,7.99022742 C4.48538012,8.14159844 4.24751137,8.14700455 4.09073424,8.01185185 L2.97166992,7.07118908 L3.3717219,6.34677063 L4.80434048,3.72480832 C4.87461988,3.59506173 5.00977258,3.51397011 5.1611436,3.51397011 C5.2962963,3.49775179 5.44226121,3.58965562 5.51254061,3.71940221 L6.97759584,6.31974009 L7.38305393,7.03875244 Z" id="Path"></path>
            </g>
        </g>
    </g>
</svg>