<?xml version="1.0" encoding="UTF-8"?>
<svg width="26px" height="26px" viewBox="0 0 26 26" version="1.1" xmlns="http://www.w3.org/2000/svg" xmlns:xlink="http://www.w3.org/1999/xlink">
    <!-- Generator: Sketch 60.1 (88133) - https://sketch.com -->
    <title>jobs</title>
    <desc>Created with Sketch.</desc>
    <g id="Page-1" stroke="none" stroke-width="1" fill="none" fill-rule="evenodd">
        <g id="jobs">
            <g id="Group-6">
                <rect id="Rectangle" fill="#F7E7D4" x="-4.54747351e-13" y="-5.68434189e-14" width="25.7102686" height="25.7102686" rx="4"></rect>
                <g id="work" transform="translate(4.940513, 6.525577)" fill-rule="nonzero">
                    <path d="M6.00228306,0.918716795 C5.74501173,0.918716795 5.54292466,1.12080387 5.54292466,1.37807519 L5.54292466,2.75615038 L5.08356627,2.75615038 C4.82629494,2.75615038 4.62420787,2.55400207 4.62420787,2.29679199 L4.62420787,1.37807519 C4.62420787,0.615509629 5.2397175,8.9928065e-14 6.00228306,8.9928065e-14 L9.67715024,8.9928065e-14 C10.4397158,8.9928065e-14 11.0552254,0.615509629 11.0552254,1.37807519 L11.0552254,2.29679199 C11.0552254,2.52542317 10.8955517,2.71054876 10.6793788,2.74886517 L10.595867,2.75615038 L10.595867,2.75615038 L10.1365086,2.75615038 L10.1365086,1.37807519 C10.1365086,1.12080387 9.93442157,0.918716795 9.67715024,0.918716795 L6.00228306,0.918716795 Z" id="Combined-Shape" fill="#5A5A5A"></path>
                    <path d="M1.37807519,13.7807519 C0.615509629,13.7807519 -6.48370246e-13,13.165181 -6.48370246e-13,12.4026767 L-6.48370246e-13,2.29679199 C-6.48370246e-13,2.16817164 0.0551230077,2.05792562 0.137838143,1.97517986 L2.48053535,7.24867551 L13.198898,7.24867551 L15.5416258,1.97517986 C15.6243103,2.05792562 15.6794333,2.16817164 15.6794333,2.29679199 L15.6794333,12.4026767 C15.6794333,13.1203279 15.1342068,13.7078234 14.4343066,13.7744573 L14.3013581,13.7807519 L14.3013581,13.7807519 L1.37807519,13.7807519 Z" id="Combined-Shape" fill="#5A5A5A"></path>
                    <path d="M2.89398853,8.26845115 C2.26919986,8.26845115 1.72718757,7.8550286 1.56181855,7.24867551 L0.137838143,1.97521049 C0.220492031,1.8925566 0.330738046,1.83743359 0.459358397,1.83743359 L15.2200749,1.83743359 C15.3486953,1.83743359 15.4589413,1.8925566 15.5415952,1.97521049 L14.1176147,7.24867551 C13.9640578,7.81168923 13.4857421,8.20840239 12.9179785,8.26220318 L12.7854754,8.26845115 L12.7854754,8.26845115 L2.89398853,8.26845115 Z" id="Combined-Shape" fill="#6E6E6E"></path>
                    <path d="M6.00228306,9.64652635 C5.74501173,9.64652635 5.54292466,9.44437803 5.54292466,9.18716795 L5.54292466,9.18716795 L5.54292466,7.34973436 C5.54292466,7.09246303 5.74501173,6.89037596 6.00228306,6.89037596 L6.00228306,6.89037596 L9.67715024,6.89037596 C9.93442157,6.89037596 10.1365086,7.09246303 10.1365086,7.34973436 L10.1365086,7.34973436 L10.1365086,9.18716795 C10.1365086,9.44437803 9.93442157,9.64652635 9.67715024,9.64652635 L9.67715024,9.64652635 Z" id="Combined-Shape" fill="#FFD400"></path>
                </g>
            </g>
        </g>
    </g>
</svg>