<?xml version="1.0" encoding="UTF-8"?>
<svg width="18px" height="15px" viewBox="0 0 18 15" version="1.1" xmlns="http://www.w3.org/2000/svg" xmlns:xlink="http://www.w3.org/1999/xlink">
    <title>land_investment_icon</title>
    <g id="Page-1" stroke="none" stroke-width="1" fill="none" fill-rule="evenodd">
        <path d="M4.6173477,5.71844791 C7.09189938,5.71844791 9.10509684,7.73164537 9.10509684,10.206197 C9.10509684,12.6807487 7.09189938,14.6939462 4.6173477,14.6939462 C2.14279603,14.6939462 0.129598568,12.6807827 0.129598568,10.206197 C0.129598568,7.73161138 2.14279603,5.71844791 4.6173477,5.71844791 Z M15.5307376,4.08653914 C15.8311789,4.08653914 16.0747072,4.33006752 16.0747072,4.63050873 L16.0747072,4.63050873 L16.0747072,13.606007 L16.4486863,13.606007 C16.7491275,13.606007 16.9926559,13.8495354 16.9926559,14.1499766 C16.9926559,14.4504178 16.7491275,14.6939462 16.4486863,14.6939462 L16.4486863,14.6939462 L8.83311204,14.6939462 C8.53267084,14.6939462 8.28914245,14.4504178 8.28914245,14.1499766 C8.28914245,13.8495354 8.53267084,13.606007 8.83311204,13.606007 L8.83311204,13.606007 L11.1449828,13.606007 L11.1449828,6.8063871 C11.1449828,6.50594589 11.3885112,6.2624175 11.6889524,6.2624175 C11.9893936,6.2624175 12.232922,6.50594589 12.232922,6.8063871 L12.232922,6.8063871 L12.232922,13.606007 L14.9867681,13.606007 L14.9867681,4.63050873 C14.9867681,4.33006752 15.2302964,4.08653914 15.5307376,4.08653914 Z M4.6173477,6.8063871 C2.7426585,6.8063871 1.21753775,8.33150784 1.21753775,10.206197 C1.21753775,12.0808863 2.7426585,13.606007 4.6173477,13.606007 C6.49203691,13.606007 8.01715766,12.0808863 8.01715766,10.206197 C8.01715766,8.33150784 6.49203691,6.8063871 4.6173477,6.8063871 Z M4.61734769,7.8443794 C4.84468637,7.8443794 5.05675562,8.01929122 5.05675562,8.30268187 C5.50566574,8.47072794 5.82618636,8.90398416 5.82618636,9.4108412 C5.82618636,9.65353169 5.62946892,9.85024913 5.38677843,9.85024913 C5.14408794,9.85024913 4.94737051,9.65353169 4.94737051,9.4108412 C4.94737051,9.24320708 4.81096181,9.10679838 4.64332768,9.10679838 L4.59139516,9.10679838 C4.24832742,9.10677092 4.17038744,9.58726348 4.49225374,9.69826891 L5.02890814,9.88331458 C6.06860222,10.2418165 6.10199723,11.7184743 5.05675562,12.1097122 C5.05675562,12.3904389 4.84699326,12.5680146 4.61734769,12.5680146 C4.39000901,12.5680146 4.17793976,12.3931028 4.17793976,12.1097122 C3.72902964,11.9416661 3.40850902,11.5084099 3.40850902,11.0015528 C3.40850902,10.7588623 3.60522645,10.5621449 3.84791694,10.5621449 C4.09060744,10.5621449 4.28732487,10.7588623 4.28732487,11.0015528 C4.28732487,11.169187 4.42373357,11.3055956 4.59136769,11.3055956 L4.64330022,11.3055956 C4.98636796,11.3055956 5.06430794,10.8251031 4.74241417,10.7140977 L4.20575978,10.529052 C3.16609315,10.170605 3.13269815,8.6939197 4.17793976,8.30268187 C4.17793976,8.02195513 4.38770212,7.8443794 4.61734769,7.8443794 Z M15.3737239,0.481838319 C15.5821392,0.483751499 15.6427614,0.489888864 15.6928101,0.506349611 L15.7226683,0.517513658 L15.7226683,0.517513658 L15.738704,0.524116274 C15.9203899,0.59932007 16.0423411,0.764346845 16.0686896,0.94994247 C16.0693777,0.954816438 16.0699942,0.958362684 16.0705462,0.961646311 L16.0720157,0.971774433 C16.0722307,0.973686177 16.0724313,0.975798542 16.0726184,0.978244664 L16.0735863,0.997991596 C16.073723,1.0023053 16.073848,1.00721904 16.0739621,1.01286595 L16.0745237,1.05661056 C16.0745979,1.0657227 16.0746631,1.07583429 16.07472,1.08707846 L16.0747072,2.59062276 C16.0747072,2.89106396 15.8311789,3.13459235 15.5307376,3.13459235 C15.2302964,3.13459235 14.9867681,2.89106396 14.9867681,2.59062276 L14.9867681,2.59062276 L14.9867681,2.33995477 L12.0736069,5.25314992 C11.8611868,5.46557005 11.516752,5.46557005 11.3043319,5.25314992 L11.3043319,5.25314992 L10.4480218,4.39687379 L8.50377245,6.34108911 C8.29135233,6.55350923 7.94698558,6.55354323 7.73449746,6.34105511 C7.52204333,6.12863498 7.52204333,5.78420024 7.73449746,5.57178011 L7.73449746,5.57178011 L10.0633673,3.24291029 C10.2757874,3.03049017 10.6202221,3.03049017 10.8326423,3.24291029 L10.8326423,3.24291029 L11.6889524,4.09918643 L14.2174931,1.57067977 L13.9668251,1.57067977 C13.6663839,1.57067977 13.4228555,1.32715138 13.4228555,1.02671018 C13.4228555,0.726268973 13.6663839,0.482740587 13.9668251,0.482740587 L13.9668251,0.482740587 L14.3518322,0.482491188 C14.4103913,0.482416188 14.4662375,0.482328537 14.5195079,0.482234334 Z" id="land_investment_icon" stroke="#555B63" stroke-width="0.2" fill="#555B63" fill-rule="nonzero"></path>
    </g>
</svg>