<?xml version="1.0" encoding="UTF-8"?>
<svg width="30px" height="30px" viewBox="0 0 30 30" version="1.1" xmlns="http://www.w3.org/2000/svg" xmlns:xlink="http://www.w3.org/1999/xlink">
    <!-- Generator: Sketch 60.1 (88133) - https://sketch.com -->
    <title>layers</title>
    <desc>Created with Sketch.</desc>
    <g id="Page-1" stroke="none" stroke-width="1" fill="none" fill-rule="evenodd">
        <g id="layers">
            <g id="layer-copy" fill="#C5DEF1">
                <g id="hospitals">
                    <circle id="Oval" cx="15" cy="15" r="15"></circle>
                </g>
            </g>
            <g id="noun_layer_2541026" transform="translate(6.000000, 6.642857)">
                <g id="Group">
                    <path d="M9.15825474,0.203516772 L16.959731,3.93465759 C17.3667645,4.13817436 17.3667645,4.74872468 16.959731,4.95224145 L9.15825474,8.68338227 C8.81906012,8.81906012 8.4798655,8.81906012 8.14067088,8.68338227 L0.407033544,4.95224145 C-0.067838924,4.74872468 -0.067838924,4.13817436 0.407033544,3.93465759 L8.14067088,0.203516772 C8.4798655,4.16333634e-17 8.81906012,4.16333634e-17 9.15825474,0.203516772 Z" id="Path" fill="#EF4E4E"></path>
                    <path d="M15.1280801,6.44469778 L16.959731,7.32660379 C17.3667645,7.53012057 17.3667645,8.14067088 16.959731,8.34418765 L9.15825474,12.0753285 C8.81906012,12.2110063 8.4798655,12.2110063 8.14067088,12.0753285 L0.407033544,8.34418765 C-0.067838924,8.14067088 -0.067838924,7.53012057 0.407033544,7.32660379 L2.23868449,6.44469778 L7.93715411,9.15825474 C8.41202658,9.42961044 8.95473797,9.42961044 9.42961044,9.15825474 L15.1280801,6.44469778 Z" id="Path" fill="#AA6AE7"></path>
                    <path d="M15.1280801,9.83664398 L16.959731,10.71855 C17.3667645,10.9220668 17.3667645,11.5326171 16.959731,11.7361339 L9.15825474,15.4672747 C8.81906012,15.6707914 8.4798655,15.6707914 8.14067088,15.4672747 L0.407033544,11.7361339 C-0.067838924,11.5326171 -0.067838924,10.9220668 0.407033544,10.71855 L2.23868449,9.83664398 L7.93715411,12.6180399 C8.41202658,12.8215566 8.95473797,12.8215566 9.42961044,12.6180399 L15.1280801,9.83664398 Z" id="Path" fill="#BC97E0"></path>
                </g>
            </g>
        </g>
    </g>
</svg>