<?xml version="1.0" encoding="UTF-8"?>
<svg width="22px" height="32px" viewBox="0 0 22 32" version="1.1" xmlns="http://www.w3.org/2000/svg" xmlns:xlink="http://www.w3.org/1999/xlink">
    <!-- Generator: Sketch 60.1 (88133) - https://sketch.com -->
    <title>layers_pin</title>
    <desc>Created with Sketch.</desc>
    <g id="Page-1" stroke="none" stroke-width="1" fill="none" fill-rule="evenodd">
        <g id="layers_pin" transform="translate(1.000000, 1.000000)">
            <g id="Group-28">
                <g id="Group-3">
                    <path d="M19.5415477,5.6739196 C18.220794,3.08050251 16.2040101,1.32180905 13.3996884,0.508190955 C10.1182312,-0.629849246 6.26225126,0.185125628 3.55079397,2.53809045 C3.55034171,2.53839196 3.5500402,2.53854271 3.54973869,2.53884422 C2.97762814,3.01040201 2.49174874,3.57105528 2.1159196,4.07155779 C2.05094472,4.13819095 1.99923618,4.22110553 1.94722613,4.30190955 C1.49978894,4.92949749 1.24878392,5.41266332 1.24878392,5.41266332 L1.25526633,5.40934673 C0.62481407,6.55869347 0.220643216,7.79668342 0.0647638191,9.13085427 C-0.025839196,10.0778894 -0.0186030151,11.0249246 0.0688341709,11.9716583 C0.204060302,13.151005 0.477226131,14.291005 1.01978894,15.3548744 C1.14129648,15.6257789 1.24667337,15.9058794 1.38777889,16.1663819 C2.56697487,18.3431156 4.17777889,20.2029648 5.72858291,22.1065327 C7.25466332,24.1887437 8.67265327,26.3276382 9.33114573,28.8777889 C9.46064322,29.3790452 9.69536683,29.8564824 10.2997387,29.8738191 C10.9422513,29.8923618 11.2137588,29.4082915 11.3545628,28.880201 C12.1559698,25.8767337 13.9211457,23.4345226 15.8102412,21.0566834 C17.1311457,19.3940201 18.5405427,17.7850251 19.4596884,15.8443719 C21.0554171,12.4750251 21.2658693,9.07824121 19.5415477,5.6739196" id="Fill-1" stroke="#FFFFFF" stroke-width="0.5" fill="#10BDFF"></path>
                    <g id="noun_layer_2541026" transform="translate(2.884363, 4.130584)" fill="#FFFFFF">
                        <g id="Group">
                            <path d="M7.95714727,0.19726357 L13.9308675,3.05426022 C14.2425399,3.2100964 14.2425399,3.67760494 13.9308675,3.83344112 L7.95714727,6.69043777 C7.69742031,6.79432855 7.43769334,6.79432855 7.17796637,6.69043777 L1.2561915,3.83344112 C0.89257375,3.67760494 0.89257375,3.2100964 1.2561915,3.05426022 L7.17796637,0.19726357 C7.43769334,0.0414273895 7.69742031,0.0414273895 7.95714727,0.19726357 Z" id="Path"></path>
                            <path d="M12.5283419,5.3089283 L13.9308675,5.98421841 C14.2425399,6.14005459 14.2425399,6.60756314 13.9308675,6.76339932 L7.95714727,9.62039596 C7.69742031,9.72428675 7.43769334,9.72428675 7.17796637,9.62039596 L1.2561915,6.76339932 C0.89257375,6.60756314 0.89257375,6.14005459 1.2561915,5.98421841 L2.65871713,5.3089283 L7.02213019,7.38674404 C7.38574795,7.59452561 7.80131109,7.59452561 8.16492885,7.38674404 L12.5283419,5.3089283 Z" id="Path"></path>
                            <path d="M12.5283419,8.23352636 L13.9308675,8.90881648 C14.2425399,9.06465266 14.2425399,9.5321612 13.9308675,9.68799738 L7.95714727,12.544994 C7.69742031,12.7008302 7.43769334,12.7008302 7.17796637,12.544994 L1.2561915,9.68799738 C0.89257375,9.5321612 0.89257375,9.06465266 1.2561915,8.90881648 L2.65871713,8.23352636 L7.02213019,10.3632875 C7.38574795,10.5191237 7.80131109,10.5191237 8.16492885,10.3632875 L12.5283419,8.23352636 Z" id="Path"></path>
                        </g>
                    </g>
                </g>
            </g>
        </g>
    </g>
</svg>