<?xml version="1.0" encoding="UTF-8"?>
<svg width="25px" height="24px" viewBox="0 0 25 24" version="1.1" xmlns="http://www.w3.org/2000/svg" xmlns:xlink="http://www.w3.org/1999/xlink">
    <!-- Generator: Sketch 60.1 (88133) - https://sketch.com -->
    <title>maps_slected</title>
    <desc>Created with Sketch.</desc>
    <g id="Page-1" stroke="none" stroke-width="1" fill="none" fill-rule="evenodd">
        <g id="maps_slected" transform="translate(0.500000, 0.000000)">
            <g id="Group-22-Copy">
                <g id="Group-9-Copy-3">
                    <rect id="Rectangle" fill="#F6E1E1" x="-4.19766785e-13" y="0" width="23.7325556" height="23.7325556" rx="4"></rect>
                    <g id="map-(2)" transform="translate(4.663138, 5.317969)" fill-rule="nonzero">
                        <g id="Group" transform="translate(3.550924, 4.445431)" fill="#44C868">
                            <path d="M10.3242163,7.71675396 L9.23389297,1.70970209 C9.22302334,1.64974298 9.18583352,1.59780733 9.13254255,1.56818015 L6.38824761,0.0418250043 C6.35262995,0.0219832006 6.31270239,0.0140952704 6.27347959,0.0171311748 L6.77275033,6.45780235 L6.75602575,6.46528369 L10.0403322,7.93870025 C10.067059,7.95065413 10.0954664,7.9565633 10.1237382,7.9565633 C10.1684907,7.9565633 10.2128366,7.94184458 10.2492946,7.91330166 C10.3088742,7.86678727 10.3376882,7.79110651 10.3242163,7.71675396 Z" id="Path"></path>
                            <path d="M3.38828616,1.50101077 L0.581565436,0.0391414817 C0.547926531,0.0216037125 0.510628277,0.0144476522 0.473899255,0.0169143245 C0.483630413,0.0163179861 0.493415783,0.0164416841 0.503119835,0.0171311748 L0.00384909307,6.45780235 L3.30488011,7.93872736 C3.33152559,7.95065413 3.35996008,7.9565904 3.38828616,7.9565904 L3.38828616,7.9565904 L3.38828616,1.50101077 L3.38828616,1.50101077 Z" id="Path"></path>
                        </g>
                        <g id="Group" transform="translate(0.000000, 4.445431)" fill="#4CE166">
                            <path d="M4.05401662,0.0171582811 C4.01479382,0.0141223767 3.97486626,0.0220103069 3.93924859,0.0418250043 L1.19492655,1.56818015 C1.14163558,1.59780733 1.10444576,1.64971587 1.09357613,1.70970209 L0.003279861,7.71675396 C-0.010219071,7.7910794 0.0186220207,7.86676016 0.0781745382,7.91332877 C0.11468671,7.94187169 0.159005493,7.9565904 0.20373087,7.9565904 C0.23200273,7.9565904 0.260437227,7.95070834 0.287136922,7.93872736 L3.5535532,6.47333426 L4.05401662,0.0171582811 Z" id="Path"></path>
                            <path d="M9.82437637,0.0170227497 C9.79737851,0.0191099339 9.77067881,0.0262931006 9.74593077,0.0391956943 L6.93921005,1.50103787 L6.93921005,7.95661751 C6.93921005,7.95661751 6.93921005,7.95661751 6.93921005,7.95661751 C6.96756323,7.95661751 6.99602483,7.95070834 7.02264321,7.93875447 L10.3236742,6.45782946 L9.82437637,0.0170227497 Z" id="Path"></path>
                        </g>
                        <polygon id="Path" fill="#FFDB56" points="0.763150468 7.97556481 0.541664978 9.19586284 3.82136334 7.46360832 3.89750491 6.48130351 3.91013644 6.31839471"></polygon>
                        <path d="M3.85088209,7.08271075 L3.82136334,7.46360832 L0.541664978,9.19586284 L0.003279861,12.1621854 C-0.010219071,12.2365108 0.0186220207,12.3121916 0.0781745382,12.3587602 C0.11468671,12.3873031 0.159005493,12.4020218 0.20373087,12.4020218 C0.23200273,12.4020218 0.260437227,12.3961398 0.287136922,12.3841588 L3.5535532,10.9187657 L3.85088209,7.08271075 L3.85088209,7.08271075 Z" id="Path" fill="#A8B4FC"></path>
                        <g id="Group" transform="translate(3.794880, 5.150195)" fill="#FFBB24">
                            <polygon id="Path" points="3.14514274 1.60143957 0.115255942 1.16819975 0.0264828446 2.31341336 3.14432955 7.04831286 3.14432955 5.32657558 1.28383518 2.39698205 3.14514274 2.61960601"></polygon>
                            <polygon id="Path" points="8.67254882 0.743281558 7.35423444 0.010029327 6.10620667 0.301638787 6.1218199 0.503201154 6.1834596 1.29833704"></polygon>
                        </g>
                        <polygon id="Path" fill="#FFDB56" points="10.0890151 7.87643711 9.97083165 6.35173544 9.97083165 6.35173544 9.90108717 5.45183375 6.94002324 6.75163453 6.94002324 7.76980097 8.87421961 6.92869281"></polygon>
                        <path d="M13.8751402,12.1621854 L13.6012854,10.6532867 L9.97834009,6.448532 L10.0890422,7.87643711 L13.8045012,12.3549653 C13.8609908,12.3081528 13.8882868,12.2346405 13.8751402,12.1621854 Z" id="Path" fill="#FFBB24"></path>
                        <path d="M6.95224817,0.0126044245 C5.38108633,0.0126044245 4.10283505,1.28979856 4.10283505,2.85968641 C4.10283505,3.83079633 4.56388592,4.87341264 5.47322061,5.95853161 C6.14109247,6.75553783 6.79988372,7.26814487 6.82761346,7.28958594 C6.86431537,7.31796623 6.90828177,7.33214282 6.95227528,7.33214282 C6.99624168,7.33214282 7.04023519,7.31796623 7.07693711,7.28958594 C7.10463973,7.26814487 7.76345809,6.75553783 8.43132995,5.95853161 C9.34066464,4.87341264 9.80171551,3.83082344 9.80171551,2.85968641 C9.80171551,1.28979856 8.52341002,0.0126044245 6.95224817,0.0126044245 Z M8.00749602,2.8596593 C8.00749602,3.44195661 7.53503339,3.91403974 6.95224817,3.91403974 C6.36946296,3.91403974 5.89700033,3.44198372 5.89700033,2.8596593 C5.89700033,2.27733489 6.36946296,1.80527886 6.95224817,1.80527886 C7.53503339,1.80527886 8.00749602,2.277362 8.00749602,2.8596593 Z" id="Shape" fill="#FF4A4A"></path>
                        <path d="M6.95224817,0.0126044245 C6.82772188,0.0126044245 6.70506592,0.0206820987 6.584714,0.0362411087 C7.98293772,0.216958739 9.06662006,1.41421643 9.06662006,2.85968641 C9.06662006,3.83079633 8.60556918,4.87341264 7.6962345,5.95853161 C7.26673534,6.47105733 6.84130213,6.86569779 6.584714,7.08802358 C6.72715755,7.21141141 6.81774677,7.28194197 6.82761346,7.28958594 C6.86431537,7.31796623 6.90828177,7.33214282 6.95227528,7.33214282 C6.99624168,7.33214282 7.04023519,7.31796623 7.07693711,7.28958594 C7.10463973,7.26814487 7.76345809,6.75553783 8.43132995,5.95853161 C9.34066464,4.87341264 9.80171551,3.83082344 9.80171551,2.85968641 C9.8016613,1.28979856 8.52341002,0.0126044245 6.95224817,0.0126044245 Z" id="Path" fill="#E7343F"></path>
                        <path d="M7.02264321,12.3841588 L8.25015152,11.8334674 L6.93921005,10.4767705 L6.93921005,12.4020218 C6.93921005,12.4020218 6.93921005,12.4020218 6.93923716,12.4020218 C6.96756323,12.4020218 6.99599773,12.3961398 7.02264321,12.3841588 Z" id="Path" fill="#FFDB56"></path>
                        <g id="Group" transform="translate(3.550924, 5.882065)" fill="#1EA4E9">
                            <path d="M9.23386586,0.273068758 C9.22299624,0.213109646 9.18580641,0.161173996 9.13251544,0.131546822 L8.91647832,0.0113846415 L6.4273891,0.566440127 L6.4273891,0.566440127 L10.0503073,4.77119482 L9.23386586,0.273068758 Z" id="Path"></path>
                            <path d="M3.38827938,6.51995707 C3.38827938,6.51995707 3.38827938,6.51995707 3.38827938,6.51995707 L3.38827938,6.31644305 L0.270439448,1.58154355 L0.0037948805,5.02119613 L3.30482589,6.50212114 C3.33147137,6.51407501 3.35990587,6.51995707 3.38827938,6.51995707 Z" id="Path"></path>
                        </g>
                    </g>
                </g>
            </g>
        </g>
    </g>
</svg>