<?xml version="1.0" encoding="UTF-8"?>
<svg width="26px" height="26px" viewBox="0 0 26 26" version="1.1" xmlns="http://www.w3.org/2000/svg" xmlns:xlink="http://www.w3.org/1999/xlink">
    <!-- Generator: Sketch 60.1 (88133) - https://sketch.com -->
    <title>maps</title>
    <desc>Created with Sketch.</desc>
    <g id="Page-1" stroke="none" stroke-width="1" fill="none" fill-rule="evenodd">
        <g id="maps">
            <g id="Group-22-Copy">
                <g id="Group-9-Copy-3">
                    <rect id="Rectangle" fill="#F6E1E1" x="-4.54747351e-13" y="0" width="25.7102686" height="25.7102686" rx="4"></rect>
                    <g id="map-(2)" transform="translate(5.051733, 5.761133)" fill-rule="nonzero">
                        <g id="Group" transform="translate(3.846834, 4.815884)" fill="#44C868">
                            <path d="M11.1845677,8.35981679 L10.003384,1.85217726 C9.99160862,1.78722156 9.95131964,1.73095794 9.89358776,1.69886183 L6.92060158,0.0453104214 C6.88201578,0.023815134 6.83876092,0.0152698763 6.79626955,0.0185587727 L7.33714619,6.99595255 L7.31902789,7.00405733 L10.8770265,8.60025861 C10.9059806,8.61320864 10.9367552,8.61961024 10.9673831,8.61961024 C11.0158649,8.61961024 11.0639063,8.60366496 11.1034024,8.57274347 C11.167947,8.52235287 11.1991622,8.44036538 11.1845677,8.35981679 Z" id="Path"></path>
                            <path d="M3.67064334,1.626095 L0.630029222,0.0424032718 C0.593587075,0.0234040219 0.553180633,0.0156516232 0.51339086,0.0183238515 C0.523932947,0.0176778183 0.534533765,0.0178118244 0.545046488,0.0185587727 L0.00416985083,6.99595255 L3.58028678,8.60028797 C3.60915272,8.61320864 3.63995676,8.6196396 3.67064334,8.6196396 L3.67064334,8.6196396 L3.67064334,1.626095 L3.67064334,1.626095 Z" id="Path"></path>
                        </g>
                        <g id="Group" transform="translate(0.000000, 4.815884)" fill="#4CE166">
                            <path d="M4.39185134,0.0185881379 C4.34935997,0.0152992414 4.30610511,0.0238444991 4.26751931,0.0453104214 L1.29450376,1.69886183 C1.23677188,1.73095794 1.1964829,1.78719219 1.18470748,1.85217726 L0.00355318275,8.35981679 C-0.0110706603,8.44033602 0.0201738558,8.52232351 0.0846890831,8.57277283 C0.124243936,8.60369433 0.172255951,8.6196396 0.220708443,8.6196396 C0.251336291,8.6196396 0.282140329,8.61326737 0.311064999,8.60028797 L3.84968264,7.01277878 L4.39185134,0.0185881379 Z" id="Path"></path>
                            <path d="M10.6430744,0.0184413121 C10.6138267,0.0207024284 10.584902,0.0284841923 10.5580917,0.0424620021 L7.51747755,1.62612436 L7.51747755,8.61966897 C7.51747755,8.61966897 7.51747755,8.61966897 7.51747755,8.61966897 C7.5481935,8.61966897 7.5790269,8.61326737 7.60786348,8.60031734 L11.1839804,6.99598191 L10.6430744,0.0184413121 Z" id="Path"></path>
                        </g>
                        <polygon id="Path" fill="#FFDB56" points="0.82674634 8.64019521 0.586803726 9.96218475 4.13981029 8.08557568 4.22229698 7.02141213 4.23598114 6.8449276"></polygon>
                        <path d="M4.17178893,7.67293664 L4.13981029,8.08557568 L0.586803726,9.96218475 L0.00355318275,13.1757008 C-0.0110706603,13.2562201 0.0201738558,13.3382076 0.0846890831,13.3886569 C0.124243936,13.4195784 0.172255951,13.4355237 0.220708443,13.4355237 C0.251336291,13.4355237 0.282140329,13.4291514 0.311064999,13.416172 L3.84968264,11.8286628 L4.17178893,7.67293664 L4.17178893,7.67293664 Z" id="Path" fill="#A8B4FC"></path>
                        <g id="Group" transform="translate(4.111121, 5.579378)" fill="#FFBB24">
                            <polygon id="Path" points="3.40723797 1.73489287 0.124860604 1.26554973 0.0286897483 2.50619781 3.40635702 7.63567227 3.40635702 5.77045688 1.39082144 2.59673056 3.40723797 2.83790651"></polygon>
                            <polygon id="Path" points="9.39526122 0.805221688 7.96708731 0.0108651043 6.61505723 0.326775352 6.63197156 0.545134583 6.6987479 1.4065318"></polygon>
                        </g>
                        <polygon id="Path" fill="#FFDB56" points="10.9297663 8.53280687 10.8017343 6.88104673 10.8017343 6.88104673 10.7261778 5.90615322 7.51835851 7.31427074 7.51835851 8.41728438 9.61373792 7.50608388"></polygon>
                        <path d="M15.0314019,13.1757008 L14.7347258,11.5410606 L10.8098684,6.98590967 L10.9297957,8.53280687 L14.9548764,13.3845458 C15.0160733,13.3338322 15.045644,13.2541939 15.0314019,13.1757008 Z" id="Path" fill="#FFBB24"></path>
                        <path d="M7.53160219,0.0136547932 C5.82951019,0.0136547932 4.44473797,1.39728178 4.44473797,3.09799361 C4.44473797,4.15002936 4.94420975,5.27953036 5.92932233,6.45507591 C6.65285017,7.31849932 7.3665407,7.87382361 7.39658124,7.89705144 C7.43634165,7.92779675 7.48397192,7.94315472 7.53163155,7.94315472 C7.57926182,7.94315472 7.62692146,7.92779675 7.66668186,7.89705144 C7.69669304,7.87382361 8.41041293,7.31849932 9.13394078,6.45507591 C10.1190534,5.27953036 10.6185251,4.15005872 10.6185251,3.09799361 C10.6185251,1.39728178 9.23369419,0.0136547932 7.53160219,0.0136547932 Z M8.67478735,3.09796425 C8.67478735,3.72878633 8.16295284,4.24020972 7.53160219,4.24020972 C6.90025154,4.24020972 6.38841703,3.72881569 6.38841703,3.09796425 C6.38841703,2.4671128 6.90025154,1.95571877 7.53160219,1.95571877 C8.16295284,1.95571877 8.67478735,2.46714216 8.67478735,3.09796425 Z" id="Shape" fill="#FF4A4A"></path>
                        <path d="M7.53160219,0.0136547932 C7.39669871,0.0136547932 7.26382142,0.0224056069 7.13344017,0.0392612011 C8.64818253,0.235038634 9.82217173,1.5320678 9.82217173,3.09799361 C9.82217173,4.15002936 9.32269995,5.27953036 8.33758737,6.45507591 C7.87229662,7.01031211 7.41141064,7.43783928 7.13344017,7.67869221 C7.28775401,7.81236236 7.38589233,7.88877047 7.39658124,7.89705144 C7.43634165,7.92779675 7.48397192,7.94315472 7.53163155,7.94315472 C7.57926182,7.94315472 7.62692146,7.92779675 7.66668186,7.89705144 C7.69669304,7.87382361 8.41041293,7.31849932 9.13394078,6.45507591 C10.1190534,5.27953036 10.6185251,4.15005872 10.6185251,3.09799361 C10.6184664,1.39728178 9.23369419,0.0136547932 7.53160219,0.0136547932 Z" id="Path" fill="#E7343F"></path>
                        <path d="M7.60786348,13.416172 L8.93766414,12.8195897 L7.51747755,11.3498348 L7.51747755,13.4355237 C7.51747755,13.4355237 7.51747755,13.4355237 7.51750692,13.4355237 C7.5481935,13.4355237 7.57899754,13.4291514 7.60786348,13.416172 Z" id="Path" fill="#FFDB56"></path>
                        <g id="Group" transform="translate(3.846834, 6.372237)" fill="#1EA4E9">
                            <path d="M10.0033547,0.295824488 C9.99157926,0.230868783 9.95129028,0.174605162 9.8935584,0.142509057 L9.65951818,0.0123333616 L6.96300485,0.61364347 L6.96300485,0.61364347 L10.8878329,5.16879439 L10.0033547,0.295824488 Z" id="Path"></path>
                            <path d="M3.670636,7.06328683 C3.670636,7.06328683 3.670636,7.06328683 3.670636,7.06328683 L3.670636,6.84281331 L0.292976069,1.71333885 L0.00411112054,5.43962914 L3.58022805,7.04396456 C3.60909399,7.05691459 3.63989803,7.06328683 3.670636,7.06328683 Z" id="Path"></path>
                        </g>
                    </g>
                </g>
            </g>
        </g>
    </g>
</svg>