<?xml version="1.0" encoding="UTF-8"?>
<svg width="16px" height="16px" viewBox="0 0 16 16" version="1.1" xmlns="http://www.w3.org/2000/svg" xmlns:xlink="http://www.w3.org/1999/xlink">
    <!-- Generator: Sketch 60.1 (88133) - https://sketch.com -->
    <title>measure_distance_enable</title>
    <desc>Created with Sketch.</desc>
    <g id="Page-1" stroke="none" stroke-width="1" fill="none" fill-rule="evenodd">
        <g id="measure_distance_enable" fill="#1979FF" fill-rule="nonzero">
            <path d="M15,3 L15,13 L13,13 L13,15 L3,15 L3,13 L13,13 L13,3 L15,3 Z M3,3 L3,13 L1,13 L1,3 L3,3 Z M13,1 L13,3 L3,3 L3,1 L13,1 Z" id="Combined-Shape"></path>
            <path d="M16,0 L16,4 L12,4 L12,0 L16,0 Z M15,1 L13,1 L13,3 L15,3 L15,1 Z" id="Rectangle-Copy-4"></path>
            <path d="M16,12 L16,16 L12,16 L12,12 L16,12 Z M15,13 L13,13 L13,15 L15,15 L15,13 Z" id="Rectangle-Copy-9"></path>
            <path d="M4,0 L4,4 L0,4 L0,0 L4,0 Z M3,1 L1,1 L1,3 L3,3 L3,1 Z" id="Rectangle-Copy-8"></path>
            <path d="M4,12 L4,16 L0,16 L0,12 L4,12 Z M3,13 L1,13 L1,15 L3,15 L3,13 Z" id="Rectangle-Copy-11"></path>
        </g>
    </g>
</svg>