<?xml version="1.0" encoding="UTF-8"?>
<svg width="17px" height="17px" viewBox="0 0 17 17" version="1.1" xmlns="http://www.w3.org/2000/svg" xmlns:xlink="http://www.w3.org/1999/xlink">
    <title>ministry_departments_icon</title>
    <g id="Page-1" stroke="none" stroke-width="1" fill="none" fill-rule="evenodd">
        <path d="M7.83660954,0.463598155 C7.98776579,0.370066905 8.17879704,0.370066905 8.32995329,0.463598155 L8.32995329,0.463598155 L14.919797,4.54172316 C15.0578595,4.62716066 15.1418595,4.77797316 15.1418595,4.94031691 L15.1418595,4.94031691 L15.1418595,6.50672316 C15.1418595,6.76559816 14.9319845,6.97547316 14.6731095,6.97547316 L14.6731095,6.97547316 L14.2004533,6.97547316 L14.2004533,11.7707232 C14.7482345,11.9644107 15.1418595,12.4872232 15.1418595,13.1004732 L15.1418595,13.1004732 L15.1418595,13.6535357 C15.6896408,13.8472232 16.0832658,14.3700357 16.0832658,14.9832857 L16.0832658,14.9832857 L16.0832658,15.9246919 C16.0832658,16.1835669 15.8733908,16.3934497 15.6145158,16.3934497 L15.6145158,16.3934497 L0.552015795,16.3934497 C0.293140795,16.3934497 0.0832657947,16.1835669 0.0832657947,15.9246919 L0.0832657947,15.9246919 L0.0832657947,14.9832857 C0.0832657947,14.3700357 0.476890795,13.8472232 1.02467204,13.6535357 L1.02467204,13.6535357 L1.02467204,13.1004732 C1.02467204,12.4871919 1.41829704,11.9644107 1.96607829,11.7707232 L1.96607829,11.7707232 L1.96607829,6.97547316 L1.49345329,6.97547316 C1.23457829,6.97547316 1.02470329,6.76559816 1.02470329,6.50672316 L1.02470329,6.50672316 L1.02470329,4.94031691 C1.02470329,4.77797316 1.10870329,4.62716066 1.24676579,4.54172316 L1.24676579,4.54172316 Z M14.6731095,14.5106294 L1.49342204,14.5106294 C1.23279704,14.5106294 1.02076579,14.7226607 1.02076579,14.9832857 L1.02076579,14.9832857 L1.02076579,15.4559419 L15.1457658,15.4559419 L15.1457658,14.9832857 C15.1457658,14.7226607 14.9337345,14.5106294 14.6731095,14.5106294 L14.6731095,14.5106294 Z M13.7317033,12.6278169 L2.43482829,12.6278169 C2.17420329,12.6278169 1.96217204,12.8398482 1.96217204,13.1004732 L1.96217204,13.1004732 L1.96217204,13.5731294 L14.2043595,13.5731294 L14.2043595,13.1004732 C14.2043595,12.8398482 13.9923283,12.6278169 13.7317033,12.6278169 L13.7317033,12.6278169 Z M6.67310954,6.97547316 L4.78639079,6.97547316 L4.78639079,11.6903169 L6.67310954,11.6903169 L6.67310954,6.97547316 Z M8.55592204,6.97547316 L7.61060954,6.97547316 L7.61060954,11.6903169 L8.55592204,11.6903169 L8.55592204,6.97547316 Z M11.3801408,6.97547316 L9.49342204,6.97547316 L9.49342204,11.6903169 L11.3801408,11.6903169 L11.3801408,6.97547316 Z M13.2629533,6.97547316 L12.3176408,6.97547316 L12.3176408,11.6903169 L13.2629533,11.6903169 L13.2629533,6.97547316 Z M3.84889079,6.97547316 L2.90357829,6.97547316 L2.90357829,11.6903169 L3.84889079,11.6903169 L3.84889079,6.97547316 Z M8.08326579,1.41344191 L1.96217204,5.20150441 L1.96217204,6.03797316 L14.2043595,6.03797316 L14.2043595,5.20147316 L8.08326579,1.41344191 Z M8.08326579,2.58875441 C8.86082829,2.58875441 9.49342204,3.22134816 9.49342204,3.99891066 C9.49342204,4.77647316 8.86082829,5.40906691 8.08326579,5.40906691 C7.30570329,5.40906691 6.67310954,4.77647316 6.67310954,3.99891066 C6.67310954,3.22134816 7.30570329,2.58875441 8.08326579,2.58875441 Z M8.08326579,3.52625441 C7.82264079,3.52625441 7.61060954,3.73828566 7.61060954,3.99891066 C7.61060954,4.25953566 7.82264079,4.47156691 8.08326579,4.47156691 C8.34389079,4.47156691 8.55592204,4.25953566 8.55592204,3.99891066 C8.55592204,3.73828566 8.34389079,3.52625441 8.08326579,3.52625441 Z" id="ministry_departments_icon" fill="#555B63" fill-rule="nonzero"></path>
    </g>
</svg>