<?xml version="1.0" encoding="UTF-8"?>
<svg width="15px" height="15px" viewBox="0 0 15 15" version="1.1" xmlns="http://www.w3.org/2000/svg" xmlns:xlink="http://www.w3.org/1999/xlink">
    <title>ministry_directorates_icon</title>
    <g id="Page-1" stroke="none" stroke-width="1" fill="none" fill-rule="evenodd">
        <path d="M11.7579657,0.455318854 C12.3791078,0.455318854 12.8846794,0.960730052 12.8846794,1.58203257 L12.8846794,1.58203257 L12.8838525,13.1703189 L13.6894787,13.1710039 C13.9265522,13.1710039 14.1236793,13.3417895 14.1645585,13.567078 L14.1723369,13.6538889 C14.1723369,13.9205965 13.9561597,14.1367738 13.689452,14.1367738 L13.689452,14.1367738 L1.13473747,14.1367738 C0.868029789,14.1367738 0.651852534,13.9205965 0.651852534,13.6538889 C0.651852534,13.3871812 0.868029789,13.1710039 1.13473747,13.1710039 L1.13473747,13.1710039 L1.93885253,13.1703189 L1.9395368,1.58203257 C1.9395368,1.00215022 2.37980611,0.523222086 2.94365064,0.461942257 L3.06625051,0.455318854 Z M11.7579657,1.42106201 L3.06622379,1.42106201 C2.97900469,1.42106201 2.90527996,1.49478674 2.90527996,1.58203257 L2.90527996,1.58203257 L2.90485253,13.1703189 L4.67485253,13.1703189 L4.67582244,10.5956888 C4.67582244,10.3586153 4.84662916,10.1614671 5.07190354,10.1205832 L5.15870738,10.1128039 L9.50456496,10.1128039 C9.77127264,10.1128039 9.98742318,10.3289544 9.98742318,10.5956621 L9.98742318,10.5956621 L9.98685253,13.1703189 L11.9188525,13.1703189 L11.9189095,1.58203257 C11.9189095,1.51223591 11.8717428,1.45109275 11.8082062,1.42942735 L11.7579657,1.42106201 Z M9.02168002,11.0785738 L5.6415656,11.0785738 L5.64085253,13.1703189 L9.02085253,13.1703189 L9.02168002,11.0785738 Z M6.28539437,6.24980453 C6.55210206,6.24980453 6.76827931,6.46598178 6.76827931,6.73268947 L6.76827931,6.73268947 L6.76827931,8.66417578 C6.76827931,8.93088347 6.55210206,9.14706072 6.28539437,9.14706072 L6.28539437,9.14706072 L4.35390806,9.14706072 C4.08720037,9.14706072 3.87102312,8.93088347 3.87102312,8.66417578 L3.87102312,8.66417578 L3.87102312,6.73268947 C3.87102312,6.46598178 4.08720037,6.24980453 4.35390806,6.24980453 L4.35390806,6.24980453 Z M10.3093643,6.24980453 C10.576072,6.24980453 10.7922492,6.46598178 10.7922492,6.73268947 L10.7922492,6.73268947 L10.7922492,8.66417578 C10.7922492,8.93088347 10.576072,9.14706072 10.3093643,9.14706072 L10.3093643,9.14706072 L8.37787797,9.14706072 C8.11117028,9.14706072 7.89499303,8.93088347 7.89499303,8.66417578 L7.89499303,8.66417578 L7.89499303,6.73268947 C7.89499303,6.46598178 8.11117028,6.24980453 8.37787797,6.24980453 L8.37787797,6.24980453 Z M5.80253616,7.21554769 L4.836793,7.21554769 L4.836793,8.18129084 L5.80253616,8.18129084 L5.80253616,7.21554769 Z M9.82647934,7.21554769 L8.86073619,7.21554769 L8.86073619,8.18129084 L9.82647934,8.18129084 L9.82647934,7.21554769 Z M6.28539437,2.38680517 C6.55210206,2.38680517 6.76827931,2.60298243 6.76827931,2.86969011 L6.76827931,2.86969011 L6.76827931,4.80117643 C6.76827931,5.06788411 6.55210206,5.28406137 6.28539437,5.28406137 L6.28539437,5.28406137 L4.35390806,5.28406137 C4.08720037,5.28406137 3.87102312,5.06788411 3.87102312,4.80117643 L3.87102312,4.80117643 L3.87102312,2.86969011 C3.87102312,2.60298243 4.08720037,2.38680517 4.35390806,2.38680517 L4.35390806,2.38680517 Z M10.3093643,2.38680517 C10.576072,2.38680517 10.7922492,2.60298243 10.7922492,2.86969011 L10.7922492,2.86969011 L10.7922492,4.80117643 C10.7922492,5.06788411 10.576072,5.28406137 10.3093643,5.28406137 L10.3093643,5.28406137 L8.37787797,5.28406137 C8.11117028,5.28406137 7.89499303,5.06788411 7.89499303,4.80117643 L7.89499303,4.80117643 L7.89499303,2.86969011 C7.89499303,2.60298243 8.11117028,2.38680517 8.37787797,2.38680517 L8.37787797,2.38680517 Z M5.80253616,3.35257505 L4.836793,3.35257505 L4.836793,4.31831821 L5.80253616,4.31831821 L5.80253616,3.35257505 Z M9.82647934,3.35257505 L8.86073619,3.35257505 L8.86073619,4.31831821 L9.82647934,4.31831821 L9.82647934,3.35257505 Z" id="ministry_directorates_icon" stroke="#555B63" stroke-width="0.1" fill="#555B63" fill-rule="nonzero"></path>
    </g>
</svg>