<?xml version="1.0" encoding="UTF-8"?>
<svg width="26px" height="26px" viewBox="0 0 26 26" version="1.1" xmlns="http://www.w3.org/2000/svg" xmlns:xlink="http://www.w3.org/1999/xlink">
    <!-- Generator: Sketch 60.1 (88133) - https://sketch.com -->
    <title>more</title>
    <desc>Created with Sketch.</desc>
    <g id="Page-1" stroke="none" stroke-width="1" fill="none" fill-rule="evenodd">
        <g id="more">
            <g id="Group-22-Copy">
                <g id="Group-9-Copy-3">
                    <rect id="Rectangle" fill="#DFE6FC" x="0" y="0" width="25.7102686" height="25.7102686" rx="4"></rect>
                    <g id="Group-57" transform="translate(3.645313, 10.552677)" fill-rule="nonzero">
                        <path d="M17.7452693,0.674372985 C18.6444333,1.57353696 18.6444333,3.03137807 17.7452693,3.93054205 C16.8461053,4.82970603 15.3882642,4.82970603 14.4891002,3.93054205 C13.5899362,3.03137807 13.5899362,1.57353696 14.4891002,0.674372985 C15.3882642,-0.224790995 16.8461053,-0.224790995 17.7452693,0.674372985" id="Path" fill="#620DE9"></path>
                        <path d="M10.8379235,0.674372985 C11.7370875,1.57353696 11.7370875,3.03137807 10.8379235,3.93054205 C9.93875954,4.82970603 8.48091844,4.82970603 7.58175446,3.93054205 C6.68259048,3.03137807 6.68259048,1.57353696 7.58175446,0.674372985 C8.48091844,-0.224790995 9.93875954,-0.224790995 10.8379235,0.674372985" id="Path" fill="#BF1E1E"></path>
                        <path d="M3.93054205,0.674372985 C4.82970603,1.57353696 4.82970603,3.03137807 3.93054205,3.93054205 C3.03137807,4.82970603 1.57353696,4.82970603 0.674372985,3.93054205 C-0.224790995,3.03137807 -0.224790995,1.57353696 0.674372985,0.674372985 C1.57353696,-0.224790995 3.03137807,-0.224790995 3.93054205,0.674372985" id="Path" fill="#620DE9"></path>
                    </g>
                </g>
            </g>
        </g>
    </g>
</svg>