<?xml version="1.0" encoding="UTF-8"?>
<svg width="12px" height="12px" viewBox="0 0 12 12" version="1.1" xmlns="http://www.w3.org/2000/svg" xmlns:xlink="http://www.w3.org/1999/xlink">
    <!-- Generator: Sketch 63.1 (92452) - https://sketch.com -->
    <title>Group 34</title>
    <desc>Created with Sketch.</desc>
    <g id="Page-1" stroke="none" stroke-width="0" fill="none" fill-rule="evenodd">
        <g id="Artboard-Copy-48" transform="translate(-1228.000000, -68.000000)">
            <g id="Group-32" transform="translate(0.000000, 54.000000)">
                <g id="Group-17" transform="translate(1222.000000, 8.000000)">
                    <g id="Group-4-Copy">
                        <g id="Group-34" transform="translate(6.000000, 6.000000)">
                            <g id="Group-33">
                                <path d="M6,12 C2.6916,12 0,9.3084 0,6 C0,2.6916 2.6916,0 6,0 C9.3084,0 12,2.6916 12,6 C12,9.3084 9.3084,12 6,12 Z M6,0.8 C3.1328,0.8 0.8,3.1328 0.8,6 C0.8,8.8672 3.1328,11.2 6,11.2 C8.8672,11.2 11.2,8.8672 11.2,6 C11.2,3.1328 8.8672,0.8 6,0.8 Z" id="Shape" fill="#5C5E5E" fill-rule="nonzero"></path>
                                <line x1="9.95361409" y1="2.16002515" x2="2.1754395" y2="9.93819974" id="Line-2" stroke="#5C5E5E" stroke-width="0.8" stroke-linecap="round"></line>
                                <g id="Group-36" transform="translate(3.000000, 2.000000)" fill="#5C5E5E" fill-rule="nonzero">
                                    <g id="Group-35" transform="translate(0.500000, 0.700000)">
                                        <path d="M0.48,7.3144 C0.21504,7.3144 1.08979492e-13,7.1096 1.08979492e-13,6.85725714 L1.08979492e-13,4.1144 C1.08979492e-13,3.86205714 0.21504,3.65725714 0.48,3.65725714 C0.74496,3.65725714 0.96,3.86205714 0.96,4.1144 L0.96,6.85725714 C0.96,7.1096 0.74496,7.3144 0.48,7.3144 Z" id="Path"></path>
                                        <path d="M5.28,2.74297143 L2.4,2.74297143 C2.13504,2.74297143 1.92,2.53817143 1.92,2.28582857 C1.92,2.03348571 2.13504,1.82868571 2.4,1.82868571 L5.28,1.82868571 C5.54496,1.82868571 5.76,2.03348571 5.76,2.28582857 C5.76,2.53817143 5.54496,2.74297143 5.28,2.74297143 Z" id="Path"></path>
                                        <path d="M0.48,4.57154286 C0.21504,4.57154286 5.46229728e-14,4.36674286 5.46229728e-14,4.1144 C5.46229728e-14,2.85405714 1.07664,1.82868571 2.4,1.82868571 C2.66496,1.82868571 2.88,2.03348571 2.88,2.28582857 C2.88,2.53817143 2.66496,2.74297143 2.4,2.74297143 C1.60608,2.74297143 0.96,3.35828571 0.96,4.1144 C0.96,4.36674286 0.74496,4.57154286 0.48,4.57154286 Z" id="Path"></path>
                                        <path d="M5.28,2.74297143 C5.15712,2.74297143 5.03424,2.69817143 4.94064,2.60902857 L3.02064,0.780457143 C2.83296,0.601714286 2.83296,0.3128 3.02064,0.134057143 C3.20832,-0.0446857143 3.51168,-0.0446857143 3.69936,0.134057143 L5.61936,1.96262857 C5.80704,2.14137143 5.80704,2.43028571 5.61936,2.60902857 C5.52576,2.69817143 5.40288,2.74297143 5.28,2.74297143 Z" id="Path"></path>
                                        <path d="M3.36,4.57154286 C3.23712,4.57154286 3.11424,4.52674286 3.02064,4.4376 C2.83296,4.25885714 2.83296,3.96994286 3.02064,3.7912 L4.94064,1.96262857 C5.12832,1.78388571 5.43168,1.78388571 5.61936,1.96262857 C5.80704,2.14137143 5.80704,2.43028571 5.61936,2.60902857 L3.69936,4.4376 C3.60576,4.52674286 3.48288,4.57154286 3.36,4.57154286 Z" id="Path"></path>
                                    </g>
                                </g>
                            </g>
                        </g>
                    </g>
                </g>
            </g>
        </g>
    </g>
</svg>