<?xml version="1.0" encoding="UTF-8"?>
<svg width="16px" height="16px" viewBox="0 0 16 16" version="1.1" xmlns="http://www.w3.org/2000/svg" xmlns:xlink="http://www.w3.org/1999/xlink">
    <title>Nurseries</title>
    <g id="Page-1" stroke="none" stroke-width="1" fill="none" fill-rule="evenodd">
        <path d="M14.5085927,6.99290177 L12.2156142,6.99290177 L12.2156142,3.45785294 C12.2156142,3.10752091 11.9289736,2.82090958 11.5786708,2.82090958 L10.3586318,2.82090958 C10.2367568,1.4257045 8.98296771,0.304981844 7.47039935,0.304981844 C5.95783099,0.304981844 4.70404193,1.4257045 4.58216693,2.82090958 L3.45766497,2.82090958 C3.10733294,2.82090958 2.82072162,3.10752091 2.82072162,3.45785294 L2.82072162,6.99287247 L0.782479428,6.99287247 C0.432147397,6.99290177 0.145536068,7.27951309 0.145536068,7.62984512 L0.145536068,14.6362221 C0.145536068,14.9865541 0.432147397,15.2731654 0.782479428,15.2731654 L5.59138568,15.2731654 L9.66781146,15.2731654 L14.4767177,15.2731654 C14.8270497,15.2731654 15.1136611,14.9865541 15.1455068,14.6362221 L15.1455068,7.62984512 C15.1455068,7.27951309 14.8589247,6.99290177 14.5085927,6.99290177 Z M7.50221576,1.54702286 C8.34124896,1.54702286 9.0224599,2.09903458 9.14014544,2.82090958 L5.86428607,2.82090958 C5.98200091,2.09903458 6.66318255,1.54702286 7.50221576,1.54702286 Z M4.06273333,4.0947963 L10.9417275,4.0947963 L10.9417275,6.99287247 L4.06273333,6.99287247 L4.06273333,4.0947963 Z M6.22832904,14.0311244 C6.22832904,14.0311244 6.22832904,11.7699623 6.22832904,11.7699916 L9.0308681,11.7699916 L9.0308681,14.0311244 L6.22832904,14.0311244 Z M13.8716493,14.0311244 L10.3047548,14.0311244 L10.3047548,11.133019 C10.3047548,10.7826869 10.0181435,10.4960756 9.66781146,10.4960756 L5.59138568,10.4960756 C5.24105365,10.4960756 4.95444232,10.7826869 4.95444232,11.133019 L4.95444232,14.0311244 L1.38757708,14.0311244 L1.38757708,8.26678848 L13.8716493,8.26678848 L13.8716493,14.0311244 Z" id="Nurseries" fill="#555B63" fill-rule="nonzero"></path>
    </g>
</svg>