<?xml version="1.0" encoding="UTF-8"?>
<svg width="17px" height="12px" viewBox="0 0 17 12" version="1.1" xmlns="http://www.w3.org/2000/svg" xmlns:xlink="http://www.w3.org/1999/xlink">
    <!-- Generator: Sketch 60.1 (88133) - https://sketch.com -->
    <title>on_view</title>
    <desc>Created with Sketch.</desc>
    <g id="Page-1" stroke="none" stroke-width="1" fill="none" fill-rule="evenodd">
        <path d="M8.5,3.61219512 C7.21970353,3.61219512 6.18181818,4.68671172 6.18181818,6.01219512 C6.18181818,7.33767852 7.21970353,8.41219512 8.5,8.41219512 C9.78029647,8.41219512 10.8181818,7.33767852 10.8181818,6.01219512 C10.8181818,4.68671172 9.78029647,3.61219512 8.5,3.61219512 M8.5,10.0121951 C6.36617256,10.0121951 4.63636364,8.22133412 4.63636364,6.01219512 C4.63636364,3.80305612 6.36617256,2.01219512 8.5,2.01219512 C10.6338274,2.01219512 12.3636364,3.80305612 12.3636364,6.01219512 C12.3636364,8.22133412 10.6338274,10.0121951 8.5,10.0121951 M8.5,0.012195122 C4.63636364,0.012195122 1.33681818,2.50019512 0,6.01219512 C1.33681818,9.52419512 4.63636364,12.0121951 8.5,12.0121951 C12.3636364,12.0121951 15.6631818,9.52419512 17,6.01219512 C15.6631818,2.50019512 12.3636364,0.012195122 8.5,0.012195122 Z" id="on_view" fill="#93C0FF" fill-rule="nonzero"></path>
    </g>
</svg>