<?xml version="1.0" encoding="UTF-8"?>
<svg width="16px" height="13px" viewBox="0 0 16 13" version="1.1" xmlns="http://www.w3.org/2000/svg" xmlns:xlink="http://www.w3.org/1999/xlink">
    <title>open_a_nursery__icon</title>
    <g id="Page-1" stroke="none" stroke-width="1" fill="none" fill-rule="evenodd">
        <path d="M13.2868393,6.73314618 L13.8179415,6.73314618 C14.7946727,6.73314618 15.5892902,5.93852864 15.5892902,4.96179752 L15.5892902,3.78567853 L14.1595953,3.78567853 C13.6344508,3.78567853 13.1622069,4.01557335 12.837558,4.37977056 C12.512909,4.01557335 12.0406651,3.78567853 11.5155505,3.78567853 L10.0858257,3.78567853 L10.0858257,4.96179752 C10.0858257,5.93852864 10.8804433,6.73314618 11.8571744,6.73314618 L12.3882766,6.73314618 L12.3882766,7.88908688 L8.37665855,7.88908688 L8.37665855,3.08069572 L8.37713756,3.08069572 L8.90823978,3.08069572 C9.8849709,3.08069572 10.6795884,2.28607817 10.6795884,1.30934705 L10.6795884,0.133228066 L9.24986365,0.133228066 C8.72474905,0.133228066 8.25250517,0.363152817 7.92782627,0.727320091 C7.60317732,0.363122878 7.13093343,0.133228066 6.6057889,0.133228066 L5.1760641,0.133228066 L5.1760641,1.30934705 C5.1760641,2.28607817 5.97068165,3.08069572 6.94741277,3.08069572 L7.47851499,3.08069572 L7.47851499,7.88908688 L3.46692685,7.88908688 L3.46692685,6.73314618 L3.46740586,6.73314618 L3.99850809,6.73314618 C4.9752392,6.73314618 5.76985675,5.93852864 5.76985675,4.96179752 L5.76985675,3.78567853 L4.34013196,3.78567853 C3.81501736,3.78567853 3.34277347,4.01557335 3.01812452,4.37977056 C2.69347556,4.01557335 2.22123168,3.78567853 1.69608714,3.78567853 L0.266362347,3.78567853 L0.266362347,4.96179752 C0.266362347,5.93852864 1.06097989,6.73314618 2.03771101,6.73314618 L2.56881323,6.73314618 L2.56881323,7.88908688 L0.266362347,7.88908688 L0.266362347,12.7440618 L15.5892902,12.7440618 L15.5892902,7.88905694 L13.2863603,7.88905694 L13.2863603,6.73311625 L13.2868393,6.73311625 L13.2868393,6.73314618 Z M9.24983371,1.03137162 L9.78141495,1.03137162 L9.78141495,1.30931712 C9.78141495,1.79081188 9.3897046,2.18252222 8.90820984,2.18252222 L8.37710762,2.18252222 L8.37710762,1.90454679 C8.37710762,1.90146316 8.37689805,1.89840948 8.37686811,1.89532585 C8.38186778,1.41814218 8.77145252,1.03137162 9.24983371,1.03137162 L9.24983371,1.03137162 Z M6.94741277,2.18255216 C6.46591801,2.18255216 6.07420766,1.79084182 6.07420766,1.30934705 L6.07420766,1.03140156 L6.6057889,1.03140156 C7.08417009,1.03140156 7.47375483,1.41814218 7.4787545,1.89538573 C7.47872456,1.89846935 7.47851499,1.90152304 7.47851499,1.90460667 L7.47851499,2.1825821 L6.94741277,2.1825821 L6.94741277,2.18255216 Z M4.34013196,4.68382209 L4.87171319,4.68382209 L4.87171319,4.96179752 C4.87171319,5.44329228 4.48000285,5.83500263 3.99850809,5.83500263 L3.46740586,5.83500263 L3.46740586,5.5570272 C3.46740586,5.55385376 3.46716636,5.55071025 3.46716636,5.54750687 C3.47231571,5.07041302 3.86184057,4.68382209 4.34013196,4.68382209 Z M2.03771101,5.83500263 C1.55621625,5.83500263 1.1645059,5.44329228 1.1645059,4.96179752 L1.1645059,4.68382209 L1.6960572,4.68382209 C2.17434858,4.68382209 2.56387344,5.07041302 2.5690228,5.54750687 C2.56899286,5.55068031 2.56878329,5.55382382 2.56878329,5.5570272 L2.56878329,5.83500263 L2.03771101,5.83500263 Z M1.1645059,11.8458883 L1.1645059,10.9476549 L14.6911167,10.9476549 L14.6911167,11.8458883 L1.1645059,11.8458883 Z M14.6911167,10.0495113 L1.1645059,10.0495113 L1.1645059,8.78723044 L14.6911167,8.78723044 L14.6911167,10.0495113 Z M14.1595654,4.68382209 L14.6911167,4.68382209 L14.6911167,4.96179752 C14.6911167,5.44329228 14.2994064,5.83500263 13.8179116,5.83500263 L13.2868094,5.83500263 L13.2868094,5.5570272 C13.2868094,5.55385376 13.2865699,5.55071025 13.2865699,5.54750687 C13.2917492,5.07041302 13.681274,4.68382209 14.1595654,4.68382209 Z M11.8571145,5.83500263 C11.3756198,5.83500263 10.9839094,5.44329228 10.9839094,4.96179752 L10.9839094,4.68382209 L11.5154907,4.68382209 C11.993782,4.68382209 12.3833069,5.07041302 12.3884263,5.54750687 C12.3883964,5.55068031 12.3881868,5.55382382 12.3881868,5.5570272 L12.3881868,5.83500263 L11.8571145,5.83500263 Z" id="open_a_nursery__icon" stroke="#555B63" stroke-width="0.1" fill="#555B63" fill-rule="nonzero"></path>
    </g>
</svg>