<?xml version="1.0" encoding="UTF-8"?>
<svg width="16px" height="19px" viewBox="0 0 16 19" version="1.1" xmlns="http://www.w3.org/2000/svg" xmlns:xlink="http://www.w3.org/1999/xlink">
    <!-- Generator: Sketch 60.1 (88133) - https://sketch.com -->
    <title>pan_disabled</title>
    <desc>Created with Sketch.</desc>
    <g id="Page-1" stroke="none" stroke-width="1" fill="none" fill-rule="evenodd">
        <path d="M16,4.622 L16,15.503 C16,17.1581974 14.6986215,18.5 13.0932897,18.5 L7.77741408,18.5 C6.99181669,18.5 6.24986361,18.176 5.7086743,17.6 L0,11.624 C0,11.624 0.916530278,10.697 0.942716858,10.688 C1.09983633,10.544 1.30060011,10.463 1.5188216,10.463 C1.67594108,10.463 1.8243317,10.508 1.95526459,10.589 C1.98145117,10.598 5.08892526,12.434 5.08892526,12.434 L5.08892526,3.497 C5.08892526,2.87567966 5.57743071,2.372 6.18003273,2.372 C6.78263475,2.372 7.27114021,2.87567966 7.27114021,3.497 L7.27114021,8.753 L7.99563557,8.753 L7.99563557,1.625 C7.99563557,1.00367966 8.48414103,0.5 9.08674304,0.5 C9.69776323,0.5 10.1778505,1.004 10.1778505,1.625 L10.1778505,8.753 L10.9110747,8.753 L10.9110747,2.372 C10.9110747,1.751 11.391162,1.247 12.0021822,1.247 C12.6047842,1.247 13.0932897,1.75067966 13.0932897,2.372 L13.0932897,8.753 L13.8177851,8.753 L13.8177851,4.622 C13.8177851,4.00067966 14.3062905,3.497 14.9088925,3.497 C15.5114945,3.497 16,4.00067966 16,4.622 Z" id="pan_disabled" fill="#5C5E5E" fill-rule="nonzero"></path>
    </g>
</svg>