<?xml version="1.0" encoding="UTF-8"?>
<svg width="16px" height="18px" viewBox="0 0 16 18" version="1.1" xmlns="http://www.w3.org/2000/svg" xmlns:xlink="http://www.w3.org/1999/xlink">
    <!-- Generator: Sketch 60.1 (88133) - https://sketch.com -->
    <title>pan_enable</title>
    <desc>Created with Sketch.</desc>
    <g id="Page-1" stroke="none" stroke-width="1" fill="none" fill-rule="evenodd">
        <path d="M16,4.122 L16,15.003 C16,16.6581974 14.6986215,18 13.0932897,18 L7.77741408,18 C6.99181669,18 6.24986361,17.676 5.7086743,17.1 L0,11.124 C0,11.124 0.916530278,10.197 0.942716858,10.188 C1.09983633,10.044 1.30060011,9.963 1.5188216,9.963 C1.67594108,9.963 1.8243317,10.008 1.95526459,10.089 C1.98145117,10.098 5.08892526,11.934 5.08892526,11.934 L5.08892526,2.997 C5.08892526,2.37567966 5.57743071,1.872 6.18003273,1.872 C6.78263475,1.872 7.27114021,2.37567966 7.27114021,2.997 L7.27114021,8.253 L7.99563557,8.253 L7.99563557,1.125 C7.99563557,0.503679656 8.48414103,0 9.08674304,0 C9.69776323,0 10.1778505,0.504 10.1778505,1.125 L10.1778505,8.253 L10.9110747,8.253 L10.9110747,1.872 C10.9110747,1.251 11.391162,0.747 12.0021822,0.747 C12.6047842,0.747 13.0932897,1.25067966 13.0932897,1.872 L13.0932897,8.253 L13.8177851,8.253 L13.8177851,4.122 C13.8177851,3.50067966 14.3062905,2.997 14.9088925,2.997 C15.5114945,2.997 16,3.50067966 16,4.122 Z" id="pan_enable" fill="#1979FF" fill-rule="nonzero"></path>
    </g>
</svg>