<?xml version="1.0" encoding="UTF-8"?>
<svg width="30px" height="30px" viewBox="0 0 30 30" version="1.1" xmlns="http://www.w3.org/2000/svg" xmlns:xlink="http://www.w3.org/1999/xlink">
    <!-- Generator: Sketch 60.1 (88133) - https://sketch.com -->
    <title>parking_lots</title>
    <desc>Created with Sketch.</desc>
    <g id="Page-1" stroke="none" stroke-width="1" fill="none" fill-rule="evenodd">
        <g id="parking_lots">
            <circle id="Oval" fill="#9D93FF" cx="15" cy="15" r="15"></circle>
            <g id="Group-18-Copy" transform="translate(7.000000, 8.000000)" fill="#FFFFFF" fill-rule="nonzero">
                <g id="Group-15">
                    <polygon id="Path" points="0.658901514 5.10396137 7.72016634 0.321935357 14.9770833 5.10396137 7.72016634 9.67313756"></polygon>
                    <path d="M0.818980565,5.38066614 C1.61581851,4.84144659 2.41265645,4.30222704 3.2094944,3.76300749 C4.47945487,2.9045132 5.74585804,2.04601892 7.01581851,1.18752464 C7.3039608,0.992412298 7.5921031,0.797299961 7.8838027,0.602187623 C7.77352602,0.602187623 7.66680665,0.602187623 7.55652997,0.602187623 C8.37115448,1.14140717 9.18577898,1.67707923 10.0039608,2.21629878 C11.3094944,3.07834056 12.615028,3.93683484 13.9205616,4.79887663 C14.2193758,4.99398896 14.5181901,5.1926488 14.813447,5.38776114 C14.813447,5.20329129 14.813447,5.01527395 14.813447,4.8308041 C13.9988225,5.34519117 13.184198,5.85603074 12.3695735,6.37041782 C11.0640399,7.19343713 9.75850626,8.01290895 8.45652997,8.83592826 C8.15771574,9.02394561 7.85890151,9.21196295 7.56008728,9.39998029 C7.67036396,9.39998029 7.77708333,9.39998029 7.88736001,9.39998029 C7.09052207,8.88559322 6.29724144,8.37120615 5.50040349,7.85681908 C4.23400033,7.03734726 2.96403985,6.21787544 1.69763669,5.39840363 C1.40593709,5.21038628 1.11423748,5.02236894 0.82609519,4.8343516 C0.477478589,4.60731179 0.150205862,5.16426882 0.498822463,5.39130863 C1.29566041,5.9056957 2.08894104,6.42008277 2.88577898,6.93446985 C4.15218215,7.75394166 5.42214262,8.57341348 6.68854578,9.3928853 C6.98024539,9.58090264 7.27194499,9.76891998 7.56008728,9.95693733 C7.6525774,10.0172448 7.79131258,10.0172448 7.88736001,9.95693733 C8.70198452,9.44255026 9.51660902,8.93171068 10.3312335,8.41732361 C11.6367671,7.5943043 12.9423007,6.77483248 14.244277,5.95181317 C14.5430912,5.76379582 14.8419055,5.57577848 15.1407197,5.38776114 C15.3541584,5.25295625 15.3470438,4.96560899 15.1407197,4.8308041 C14.3260952,4.29158455 13.5114707,3.7559125 12.6932889,3.21669294 C11.3877553,2.35465116 10.0822217,1.49615688 8.77668808,0.634115097 C8.47787385,0.439002759 8.17905962,0.240342925 7.8838027,0.0452305873 C7.79486989,-0.0150768624 7.64902009,-0.0150768624 7.55652997,0.0452305873 C6.75969203,0.584450138 5.96285408,1.12366969 5.16601614,1.66288924 C3.89605566,2.52138352 2.6296525,3.37987781 1.35969203,4.23837209 C1.07154974,4.43348443 0.783407443,4.62859677 0.491707838,4.82370911 C0.150205862,5.05784391 0.473921277,5.61480095 0.818980565,5.38066614 Z" id="Path"></path>
                    <polygon id="Path" points="15.2865695 9.89662988 7.88736001 14.2565037 7.88736001 12.4614702 14.5893363 8.48472605"></polygon>
                    <path d="M15.0944746,9.58445014 C14.2549489,10.0775522 13.4189806,10.5706543 12.5794549,11.0637564 C11.2561347,11.8442058 9.92925725,12.6246551 8.60593709,13.401557 C8.30000823,13.5824793 7.99052207,13.7634017 7.68459321,13.944324 C7.86601614,14.0472014 8.04743906,14.1536263 8.22886199,14.2565037 C8.22886199,13.6569767 8.22886199,13.0609972 8.22886199,12.4614702 C8.16838768,12.5643477 8.10791337,12.6707726 8.05099638,12.77365 C8.80870389,12.3266654 9.56285408,11.8761332 10.3205616,11.4291486 C11.5229331,10.7161017 12.7217474,10.0066023 13.9241189,9.29355538 C14.2015893,9.13037052 14.4790596,8.96363816 14.75653,8.80045329 C14.5928936,8.75788333 14.4256999,8.71531336 14.2620636,8.6727434 C14.4968462,9.1445605 14.7280715,9.61283011 14.9628541,10.0846472 C15.0482296,10.2584746 15.2972414,10.3081395 15.4573205,10.2123571 C15.6351861,10.1094797 15.6743165,9.89308238 15.5853837,9.71925503 C15.3506011,9.24743792 15.1193758,8.77916831 14.8845932,8.3073512 C14.7992177,8.13352385 14.5502059,8.08385889 14.3901268,8.17964131 C13.3193758,8.81464328 12.2450675,9.44964525 11.1743165,10.0846472 C10.416609,10.5351793 9.65890151,10.982164 8.901194,11.4326961 C8.50277503,11.6703784 8.09012681,11.8938707 7.70237977,12.145743 C7.56008728,12.2379779 7.5067276,12.3692353 7.5067276,12.5288727 C7.50317029,12.723985 7.5067276,12.9226449 7.5067276,13.1177572 C7.5067276,13.4973394 7.5067276,13.8804691 7.5067276,14.2600512 C7.5067276,14.5332085 7.81265645,14.7105834 8.05099638,14.572231 C8.89052207,14.0791289 9.72649045,13.5860268 10.5660161,13.0929247 C11.8893363,12.3124754 13.2162138,11.532026 14.5395339,10.7551242 C14.8454628,10.5742018 15.1549489,10.3932795 15.4608778,10.2123571 C15.8592968,9.97112732 15.4964509,9.34676784 15.0944746,9.58445014 Z" id="Path"></path>
                    <polygon id="Path" points="1.04664855 8.41022862 7.74506752 12.3869728 7.74506752 14.1820063 0.342300724 9.81858494"></polygon>
                    <path d="M0.875897562,8.72240836 C1.63360507,9.16939298 2.38775527,9.61992511 3.14546278,10.0669097 C4.34783432,10.7799566 5.54664855,11.4894561 6.74902009,12.202503 C7.02649045,12.3656878 7.3039608,12.5324202 7.58143116,12.695605 C7.52095685,12.5927276 7.46048254,12.4863027 7.40356555,12.3834253 C7.40356555,12.9829523 7.40356555,13.5789318 7.40356555,14.1784588 C7.58498847,14.0755814 7.7664114,13.9691565 7.94783432,13.8662791 C7.10830863,13.373177 6.27234025,12.8800749 5.43281456,12.3869728 C4.1094944,11.6065235 2.78261693,10.8260741 1.45929677,10.0491723 C1.15336792,9.8682499 0.843881751,9.68732755 0.537952897,9.5064052 C0.580640645,9.66959007 0.623328392,9.83632243 0.666016139,9.99950729 C0.900798747,9.52769019 1.13202404,9.05942058 1.36680665,8.58760347 C1.45218215,8.41377611 1.41305171,8.19737879 1.23874341,8.09450138 C1.07866436,8.00226646 0.829652502,8.04838392 0.744277008,8.22221127 C0.509494399,8.69402838 0.278269103,9.16229799 0.0434864943,9.6341151 C-0.0418889997,9.80794245 -0.00275856496,10.0243398 0.171549735,10.1272172 C1.01107543,10.6203193 1.84704381,11.1134214 2.6865695,11.6065235 C4.00988966,12.3869728 5.33676713,13.1674222 6.66008728,13.944324 C6.96601614,14.1252464 7.2755023,14.3061687 7.58143116,14.4870911 C7.81977108,14.6254434 8.12569993,14.4480686 8.12569993,14.1749113 C8.12569993,13.8520891 8.12569993,13.5292669 8.12569993,13.2064446 C8.12569993,13.0006898 8.12569993,12.7913875 8.12569993,12.5856326 C8.12569993,12.3869728 8.13992918,12.1989555 7.94783432,12.0676981 C7.62767622,11.8548482 7.28261693,11.6739259 6.95178689,11.4752661 C5.45771574,10.5919393 3.96720191,9.70506504 2.47313076,8.82173827 C2.06403985,8.57696098 1.65139163,8.33573118 1.24230072,8.09095388 C0.836767127,7.86036657 0.473921277,8.48472605 0.875897562,8.72240836 Z" id="Path"></path>
                </g>
            </g>
        </g>
    </g>
</svg>