<?xml version="1.0" encoding="UTF-8"?>
<svg width="26px" height="26px" viewBox="0 0 26 26" version="1.1" xmlns="http://www.w3.org/2000/svg" xmlns:xlink="http://www.w3.org/1999/xlink">
    <!-- Generator: Sketch 60.1 (88133) - https://sketch.com -->
    <title>people</title>
    <desc>Created with Sketch.</desc>
    <g id="Page-1" stroke="none" stroke-width="1" fill="none" fill-rule="evenodd">
        <g id="people">
            <g id="Group-22-Copy">
                <g id="Group-9-Copy-3">
                    <rect id="Rectangle" fill="#D4EFF7" x="-4.54747351e-13" y="0" width="25.7102686" height="25.7102686" rx="4"></rect>
                    <g id="balance" transform="translate(4.355134, 4.355134)" fill-rule="nonzero">
                        <path d="M6.47164398,5.93234032 L5.39303665,7.28059948 L5.39303665,10.2467696 C5.39303665,10.5447297 5.6343803,10.7860733 5.93234032,10.7860733 L10.2467696,10.7860733 C10.5447297,10.7860733 10.7860733,10.5447297 10.7860733,10.2467696 L10.7860733,7.28059948 L9.70746597,5.93234032" id="Path" fill="#8BD2F5"></path>
                        <polygon id="Path" fill="#C18E59" points="5.93234032 4.85373299 10.2467696 4.85373299 10.2467696 5.93234032 5.93234032 5.93234032"></polygon>
                        <path d="M4.85373299,5.66268848 C4.85373299,7.00304769 3.7672257,8.08955498 2.42686649,8.08955498 C1.08650729,8.08955498 0,7.00304769 0,5.66268848 C0,4.32232928 1.08650729,3.23582199 2.42686649,3.23582199 C3.7672257,3.23582199 4.85373299,4.32232928 4.85373299,5.66268848 Z" id="Path" fill="#D1A339"></path>
                        <path d="M4.04477749,5.66268848 C4.04477749,6.55617349 3.3203515,7.28059948 2.42686649,7.28059948 C1.53338148,7.28059948 0.808955498,6.55617349 0.808955498,5.66268848 C0.808955498,4.76920347 1.53338148,4.04477749 2.42686649,4.04477749 C3.3203515,4.04477749 4.04477749,4.76920347 4.04477749,5.66268848 Z" id="Path" fill="#F0D365"></path>
                        <path d="M10.5164215,2.42686649 C10.5164215,3.7672257 9.42991418,4.85373299 8.08955498,4.85373299 C6.74919577,4.85373299 5.66268848,3.7672257 5.66268848,2.42686649 C5.66268848,1.08650729 6.74919577,0 8.08955498,0 C9.42991418,0 10.5164215,1.08650729 10.5164215,2.42686649 Z" id="Path" fill="#D1A339"></path>
                        <path d="M9.70746597,2.42686649 C9.70746597,3.3203515 8.98303999,4.04477749 8.08955498,4.04477749 C7.19606997,4.04477749 6.47164398,3.3203515 6.47164398,2.42686649 C6.47164398,1.53338148 7.19606997,0.808955498 8.08955498,0.808955498 C8.98303999,0.808955498 9.70746597,1.53338148 9.70746597,2.42686649 Z" id="Path" fill="#F0D365"></path>
                        <path d="M16.17911,5.66268848 C16.17911,7.00304769 15.0926027,8.08955498 13.7522435,8.08955498 C12.4118843,8.08955498 11.325377,7.00304769 11.325377,5.66268848 C11.325377,4.32232928 12.4118843,3.23582199 13.7522435,3.23582199 C15.0926027,3.23582199 16.17911,4.32232928 16.17911,5.66268848 Z" id="Path" fill="#D1A339"></path>
                        <path d="M15.3701545,5.66268848 C15.3701545,6.55617349 14.6457285,7.28059948 13.7522435,7.28059948 C12.8587585,7.28059948 12.1343325,6.55617349 12.1343325,5.66268848 C12.1343325,4.76920347 12.8587585,4.04477749 13.7522435,4.04477749 C14.6457285,4.04477749 15.3701545,4.76920347 15.3701545,5.66268848 Z" id="Path" fill="#F0D365"></path>
                        <path d="M3.50547382,11.325377 L4.31442932,11.325377 C4.61238934,11.325377 4.85373299,11.5667206 4.85373299,11.8646806 C4.85373299,12.1626406 4.61238934,12.4039843 4.31442932,12.4039843 L3.50547382,12.4039843" id="Path" fill="#EFBE9A"></path>
                        <path d="M4.85373299,16.17911 L4.85373299,15.1005026 C4.85373299,14.2068859 4.12943869,13.4825916 3.23582199,13.4825916 L1.617911,13.4825916 C0.724294294,13.4825916 0,14.2068859 0,15.1005026 L0,16.17911" id="Path" fill="#B64F86"></path>
                        <path d="M4.04477749,16.17911 L4.04477749,15.1005026 C4.04477749,14.2068859 3.32048319,13.4825916 2.42686649,13.4825916 L1.617911,13.4825916 C0.724294294,13.4825916 0,14.2068859 0,15.1005026 L0,16.17911" id="Path" fill="#E087A6"></path>
                        <path d="M1.617911,13.4825916 L1.617911,13.7522435 C1.617911,14.1991176 1.97999233,14.561199 2.42686649,14.561199 C2.87374066,14.561199 3.23582199,14.1991176 3.23582199,13.7522435 L3.23582199,13.4825916" id="Path" fill="#DB9B7C"></path>
                        <path d="M1.34825916,11.325377 L0.539303665,11.325377 C0.241343648,11.325377 0,11.5667206 0,11.8646806 C0,12.1626406 0.241343648,12.4039843 0.539303665,12.4039843 L1.34825916,12.4039843" id="Path" fill="#DB9B7C"></path>
                        <path d="M3.77512566,10.2467696 L3.77512566,12.1343325 C3.77512566,12.8789033 3.17143736,13.4825916 2.42686649,13.4825916 C1.68229563,13.4825916 1.07860733,12.8789033 1.07860733,12.1343325 L1.07860733,10.2467696" id="Path" fill="#DB9B7C"></path>
                        <path d="M2.15721466,13.4553368 C2.77262122,13.3305175 3.23582199,12.7866055 3.23582199,12.1343325 L3.23582199,10.2467696 L1.07860733,10.2467696 L1.07860733,12.1343325 C1.07860733,12.7866055 1.5418081,13.3305175 2.15721466,13.4553368 L2.15721466,13.4553368 Z" id="Path" fill="#EFBE9A"></path>
                        <path d="M3.23582199,10.2467696 C3.23582199,10.8424263 2.21356768,11.325377 1.617911,11.325377 L0.539303665,11.325377 L0.539303665,10.2467696 C0.539303665,9.65111295 1.02225431,9.16816231 1.617911,9.16816231 L3.23582199,9.16816231 C3.83147868,9.16816231 4.31442932,9.65111295 4.31442932,10.2467696 L4.31442932,11.325377 C3.71877264,11.325377 3.23582199,10.8424263 3.23582199,10.2467696" id="Path" fill="#A66D43"></path>
                        <path d="M3.23582199,10.2467696 C3.23582199,10.3499957 3.25491354,10.4476919 3.28190508,10.5423597 C3.42436761,10.3335375 3.50547382,10.0954855 3.50547382,9.84229189 C3.50547382,9.60200157 3.43108258,9.37553616 3.30191831,9.17487728 C3.27953508,9.1735606 3.25846853,9.16816231 3.23582199,9.16816231 L1.617911,9.16816231 C1.02225431,9.16816231 0.539303665,9.65111295 0.539303665,10.2467696 L0.539303665,11.0583585 C0.845031947,11.2261009 1.21672489,11.325377 1.617911,11.325377 C2.21356768,11.325377 3.23582199,10.8424263 3.23582199,10.2467696 L3.23582199,10.2467696 Z" id="Path" fill="#C18E59"></path>
                        <path d="M14.8308508,11.325377 L15.6398063,11.325377 C15.9377663,11.325377 16.17911,11.5667206 16.17911,11.8646806 C16.17911,12.1626406 15.9377663,12.4039843 15.6398063,12.4039843 L14.8308508,12.4039843" id="Path" fill="#EFBE9A"></path>
                        <path d="M16.17911,16.17911 L16.17911,15.1005026 C16.17911,14.2068859 15.4548157,13.4825916 14.561199,13.4825916 L12.943288,13.4825916 C12.0496713,13.4825916 11.325377,14.2068859 11.325377,15.1005026 L11.325377,16.17911" id="Path" fill="#AF4A47"></path>
                        <path d="M15.3701545,16.17911 L15.3701545,15.1005026 C15.3701545,14.2068859 14.6458602,13.4825916 13.7522435,13.4825916 L12.943288,13.4825916 C12.0496713,13.4825916 11.325377,14.2068859 11.325377,15.1005026 L11.325377,16.17911" id="Path" fill="#E4725F"></path>
                        <path d="M12.943288,13.4825916 L12.943288,13.7522435 C12.943288,14.1991176 13.3053693,14.561199 13.7522435,14.561199 C14.1991176,14.561199 14.561199,14.1991176 14.561199,13.7522435 L14.561199,13.4825916" id="Path" fill="#DB9B7C"></path>
                        <path d="M12.6736361,11.325377 L11.8646806,11.325377 C11.5667206,11.325377 11.325377,11.5667206 11.325377,11.8646806 C11.325377,12.1626406 11.5667206,12.4039843 11.8646806,12.4039843 L12.6736361,12.4039843" id="Path" fill="#DB9B7C"></path>
                        <path d="M15.1005026,10.2467696 L15.1005026,12.1343325 C15.1005026,12.8789033 14.4968143,13.4825916 13.7522435,13.4825916 C13.0076726,13.4825916 12.4039843,12.8789033 12.4039843,12.1343325 L12.4039843,10.2467696" id="Path" fill="#DB9B7C"></path>
                        <path d="M13.4825916,13.4553368 C14.0979982,13.3305175 14.561199,12.7866055 14.561199,12.1343325 L14.561199,10.2467696 L12.4039843,10.2467696 L12.4039843,12.1343325 C12.4039843,12.7866055 12.8671851,13.3305175 13.4825916,13.4553368 L13.4825916,13.4553368 Z" id="Path" fill="#EFBE9A"></path>
                        <path d="M14.561199,10.2467696 C14.561199,10.8424263 13.5389446,11.325377 12.943288,11.325377 L11.8646806,11.325377 L11.8646806,10.2467696 C11.8646806,9.65111295 12.3476313,9.16816231 12.943288,9.16816231 L14.561199,9.16816231 C15.1568556,9.16816231 15.6398063,9.65111295 15.6398063,10.2467696 L15.6398063,11.325377 C15.0441496,11.325377 14.561199,10.8424263 14.561199,10.2467696" id="Path" fill="#A66D43"></path>
                        <path d="M14.561199,10.2467696 C14.561199,10.3499957 14.5802905,10.4476919 14.6072821,10.5423597 C14.7497446,10.3335375 14.8308508,10.0954855 14.8308508,9.84229189 C14.8308508,9.60200157 14.7564595,9.37553616 14.6272953,9.17487728 C14.604912,9.1735606 14.5838455,9.16816231 14.561199,9.16816231 L12.943288,9.16816231 C12.3476313,9.16816231 11.8646806,9.65111295 11.8646806,10.2467696 L11.8646806,11.0583585 C12.1704089,11.2261009 12.5421019,11.325377 12.943288,11.325377 C13.5389446,11.325377 14.561199,10.8424263 14.561199,10.2467696 L14.561199,10.2467696 Z" id="Path" fill="#C18E59"></path>
                        <polyline id="Path" fill="#568E53" points="8.89851047 7.81990314 8.89851047 8.62885864 9.70746597 8.62885864 8.08955498 9.70746597 6.47164398 8.62885864 7.28059948 8.62885864 7.28059948 7.81990314"></polyline>
                        <g id="Group" transform="translate(1.348259, 0.808955)" fill="#D1A339">
                            <path d="M6.47164398,3.23582199 L7.01094765,3.23582199 L7.01094765,2.69651833 L7.55025131,2.69651833 C7.65913905,2.69651833 7.75788848,2.63094871 7.79936326,2.53009259 C7.84123301,2.42923646 7.8180598,2.31337044 7.74090358,2.23621422 L6.58329669,1.07860733 L7.81990314,1.07860733 L7.81990314,0.539303665 L7.01094765,0.539303665 L7.01094765,0 L6.47164398,0 L6.47164398,0.539303665 L5.93234032,0.539303665 C5.82345258,0.539303665 5.72470315,0.604873283 5.68322837,0.705729406 C5.64135862,0.806585528 5.66453182,0.92245155 5.74168804,0.99960777 L6.89929493,2.15721466 L5.66268848,2.15721466 L5.66268848,2.69651833 L6.47164398,2.69651833 L6.47164398,3.23582199 Z" id="Path"></path>
                            <path d="M13.4825916,3.77512566 L12.6736361,3.77512566 L12.6736361,3.23582199 L12.1343325,3.23582199 L12.1343325,3.77512566 L11.5950288,3.77512566 C11.4861411,3.77512566 11.3873916,3.84069527 11.3459169,3.9415514 C11.3040471,4.04240752 11.3272203,4.15827354 11.4043765,4.23542976 L12.5619834,5.39303665 L11.325377,5.39303665 L11.325377,5.93234032 L12.1343325,5.93234032 L12.1343325,6.47164398 L12.6736361,6.47164398 L12.6736361,5.93234032 L13.2129398,5.93234032 C13.3218275,5.93234032 13.420577,5.8667707 13.4620517,5.76591458 C13.5039215,5.66505845 13.4807483,5.54919243 13.4035921,5.47203621 L12.2459852,4.31442932 L13.4825916,4.31442932 L13.4825916,3.77512566 Z" id="Path"></path>
                            <path d="M1.34825916,3.23582199 L0.808955498,3.23582199 L0.808955498,3.77512566 L0.269651833,3.77512566 C0.160764097,3.77512566 0.0620146633,3.84069527 0.0205398857,3.9415514 C-0.0213298644,4.04240752 0.00184333993,4.15827354 0.0789995603,4.23542976 L1.23660645,5.39303665 L2.03287907e-20,5.39303665 L2.03287907e-20,5.93234032 L0.808955498,5.93234032 L0.808955498,6.47164398 L1.34825916,6.47164398 L1.34825916,5.93234032 L1.88756283,5.93234032 C1.99645056,5.93234032 2.0952,5.8667707 2.13667477,5.76591458 C2.17854452,5.66505845 2.15537132,5.54919243 2.0782151,5.47203621 L0.92060821,4.31442932 L2.15721466,4.31442932 L2.15721466,3.77512566 L1.34825916,3.77512566 L1.34825916,3.23582199 Z" id="Path"></path>
                        </g>
                        <polygon id="Path" fill="#976947" points="8.62885864 15.1005026 11.325377 15.1005026 11.325377 15.6398063 8.62885864 15.6398063"></polygon>
                        <polygon id="Path" fill="#976947" points="4.85373299 15.1005026 7.55025131 15.1005026 7.55025131 15.6398063 4.85373299 15.6398063"></polygon>
                        <polygon id="Path" fill="#976947" points="7.81990314 10.7860733 8.35920681 10.7860733 8.35920681 14.8308508 7.81990314 14.8308508"></polygon>
                        <polygon id="Path" fill="#568E53" points="8.35920681 6.74129581 8.89851047 6.74129581 8.89851047 7.28059948 8.35920681 7.28059948"></polygon>
                        <polygon id="Path" fill="#568E53" points="7.28059948 6.74129581 7.81990314 6.74129581 7.81990314 7.28059948 7.28059948 7.28059948"></polygon>
                        <path d="M8.89851047,15.3701545 C8.89851047,15.816897 8.53629748,16.17911 8.08955498,16.17911 C7.64281247,16.17911 7.28059948,15.816897 7.28059948,15.3701545 C7.28059948,14.923412 7.64281247,14.561199 8.08955498,14.561199 C8.53629748,14.561199 8.89851047,14.923412 8.89851047,15.3701545 Z" id="Path" fill="#8BD2F5"></path>
                    </g>
                </g>
            </g>
        </g>
    </g>
</svg>