<?xml version="1.0" encoding="UTF-8"?>
<svg width="22px" height="32px" viewBox="0 0 22 32" version="1.1" xmlns="http://www.w3.org/2000/svg" xmlns:xlink="http://www.w3.org/1999/xlink">
    <!-- Generator: Sketch 60.1 (88133) - https://sketch.com -->
    <title>permit_pin</title>
    <desc>Created with Sketch.</desc>
    <g id="Page-1" stroke="none" stroke-width="1" fill="none" fill-rule="evenodd">
        <g id="permit_pin" transform="translate(1.000000, 1.105328)">
            <g id="Group-28">
                <g id="Group-3">
                    <path d="M19.5415477,5.6739196 C18.220794,3.08050251 16.2040101,1.32180905 13.3996884,0.508190955 C10.1182312,-0.629849246 6.26225126,0.185125628 3.55079397,2.53809045 C3.55034171,2.53839196 3.5500402,2.53854271 3.54973869,2.53884422 C2.97762814,3.01040201 2.49174874,3.57105528 2.1159196,4.07155779 C2.05094472,4.13819095 1.99923618,4.22110553 1.94722613,4.30190955 C1.49978894,4.92949749 1.24878392,5.41266332 1.24878392,5.41266332 L1.25526633,5.40934673 C0.62481407,6.55869347 0.220643216,7.79668342 0.0647638191,9.13085427 C-0.025839196,10.0778894 -0.0186030151,11.0249246 0.0688341709,11.9716583 C0.204060302,13.151005 0.477226131,14.291005 1.01978894,15.3548744 C1.14129648,15.6257789 1.24667337,15.9058794 1.38777889,16.1663819 C2.56697487,18.3431156 4.17777889,20.2029648 5.72858291,22.1065327 C7.25466332,24.1887437 8.67265327,26.3276382 9.33114573,28.8777889 C9.46064322,29.3790452 9.69536683,29.8564824 10.2997387,29.8738191 C10.9422513,29.8923618 11.2137588,29.4082915 11.3545628,28.880201 C12.1559698,25.8767337 13.9211457,23.4345226 15.8102412,21.0566834 C17.1311457,19.3940201 18.5405427,17.7850251 19.4596884,15.8443719 C21.0554171,12.4750251 21.2658693,9.07824121 19.5415477,5.6739196" id="Fill-1" stroke="#FFFFFF" stroke-width="0.5" fill="#4DB546"></path>
                    <path d="M5.51444092,4.32870828 L5.51444092,17.4965648 L15.2335696,17.4965648 L15.2335696,4.32870828 L5.51444092,4.32870828 Z M6.92528219,5.58278941 L13.8227284,5.58278941 C13.9958856,5.58278941 14.1362487,5.72315244 14.1362487,5.89630969 C14.1362487,6.06946694 13.9958856,6.20982997 13.8227284,6.20982997 L6.92528219,6.20982997 C6.75214061,6.20982997 6.61176191,6.06946694 6.61176191,5.89630969 C6.61176191,5.72315244 6.75214061,5.58278941 6.92528219,5.58278941 Z M6.92528219,6.99363067 L13.8227284,6.99363067 C13.9958856,6.99363067 14.1362487,7.1339937 14.1362487,7.30715095 C14.1362487,7.4803082 13.9958856,7.62067123 13.8227284,7.62067123 L6.92528219,7.62067123 C6.75214061,7.62067123 6.61176191,7.4803082 6.61176191,7.30715095 C6.61176191,7.1339937 6.75214061,6.99363067 6.92528219,6.99363067 Z M6.92528219,8.40447194 L13.8227284,8.40447194 C13.9958856,8.40447194 14.1362487,8.54483497 14.1362487,8.71799222 C14.1362487,8.89114947 13.9958856,9.0315125 13.8227284,9.0315125 L6.92528219,9.0315125 C6.75214061,9.0315125 6.61176191,8.89114947 6.61176191,8.71799222 C6.61176191,8.54483497 6.75214061,8.40447194 6.92528219,8.40447194 Z M10.3740053,10.1288366 C11.3263388,10.1288366 12.0983668,10.9008662 12.0983668,11.8531997 C12.0983668,12.8055333 11.3263388,13.5775613 10.3740053,13.5775613 C9.42167175,13.5775613 8.64964374,12.8055333 8.64964374,11.8531997 C8.64964374,10.9008662 9.42167175,10.1288366 10.3740053,10.1288366 Z M9.2766843,13.5677638 C9.59420196,13.7723201 9.96989332,13.8910816 10.3740053,13.8910816 C10.7781172,13.8910816 11.1538086,13.7723201 11.4713263,13.5677638 L11.4713263,15.7722033 L10.3740053,14.8316424 L9.2766843,15.7722033 L9.2766843,13.5677638 Z" id="Shape" fill="#FCFCFC" fill-rule="nonzero"></path>
                </g>
            </g>
        </g>
    </g>
</svg>