<?xml version="1.0" encoding="UTF-8"?>
<svg width="30px" height="31px" viewBox="0 0 30 31" version="1.1" xmlns="http://www.w3.org/2000/svg" xmlns:xlink="http://www.w3.org/1999/xlink">
    <!-- Generator: Sketch 60.1 (88133) - https://sketch.com -->
    <title>permit</title>
    <desc>Created with Sketch.</desc>
    <g id="Page-1" stroke="none" stroke-width="1" fill="none" fill-rule="evenodd">
        <g id="permit" transform="translate(0.000000, 0.494672)">
            <g id="Group-77">
                <g id="Group-56">
                    <g id="petroleum--copy-2">
                        <g id="travel_agencies-copy">
                            <circle id="Oval" fill="#FFEACB" cx="15" cy="15" r="15"></circle>
                            <rect id="Rectangle" fill="#F23051" x="11.4049102" y="18.3402138" width="7.3906695" height="3.49529646"></rect>
                            <rect id="Rectangle" fill="#FFFFFF" x="10" y="8" width="10" height="5"></rect>
                        </g>
                    </g>
                </g>
            </g>
            <circle id="Oval" fill="#1889C9" cx="15.0997138" cy="16.2801953" r="2.47168815"></circle>
            <path d="M8.90085056,6.73663329 L8.90085056,23.2633667 L21.0991494,23.2633667 L21.0991494,6.73663329 L8.90085056,6.73663329 Z M10.6715714,8.31060734 L19.3284286,8.31060734 C19.5457551,8.31060734 19.7219221,8.48677438 19.7219221,8.70410085 C19.7219221,8.92142732 19.5457551,9.09759436 19.3284286,9.09759436 L10.6715714,9.09759436 C10.4542646,9.09759436 10.2780779,8.92142732 10.2780779,8.70410085 C10.2780779,8.48677438 10.4542646,8.31060734 10.6715714,8.31060734 Z M10.6715714,10.0813281 L19.3284286,10.0813281 C19.5457551,10.0813281 19.7219221,10.2574952 19.7219221,10.4748217 C19.7219221,10.6921481 19.5457551,10.8683152 19.3284286,10.8683152 L10.6715714,10.8683152 C10.4542646,10.8683152 10.2780779,10.6921481 10.2780779,10.4748217 C10.2780779,10.2574952 10.4542646,10.0813281 10.6715714,10.0813281 Z M10.6715714,11.8520489 L19.3284286,11.8520489 C19.5457551,11.8520489 19.7219221,12.028216 19.7219221,12.2455425 C19.7219221,12.4628689 19.5457551,12.639036 19.3284286,12.639036 L10.6715714,12.639036 C10.4542646,12.639036 10.2780779,12.4628689 10.2780779,12.2455425 C10.2780779,12.028216 10.4542646,11.8520489 10.6715714,11.8520489 Z M15,14.0162672 C16.1952562,14.0162672 17.1642143,14.9852273 17.1642143,16.1804835 C17.1642143,17.3757397 16.1952562,18.3446978 15,18.3446978 C13.8047438,18.3446978 12.8357857,17.3757397 12.8357857,16.1804835 C12.8357857,14.9852273 13.8047438,14.0162672 15,14.0162672 Z M13.6227727,18.3324011 C14.0212833,18.589136 14.4928065,18.7381913 15,18.7381913 C15.5071935,18.7381913 15.9787167,18.589136 16.3772273,18.3324011 L16.3772273,21.0991524 L15,19.9186719 L13.6227727,21.0991524 L13.6227727,18.3324011 Z" id="Shape" fill="#3456DA" fill-rule="nonzero"></path>
        </g>
    </g>
</svg>