<?xml version="1.0" encoding="UTF-8"?>
<svg width="30px" height="30px" viewBox="0 0 30 30" version="1.1" xmlns="http://www.w3.org/2000/svg" xmlns:xlink="http://www.w3.org/1999/xlink">
    <!-- Generator: Sketch 60.1 (88133) - https://sketch.com -->
    <title>petroleum_fields</title>
    <desc>Created with Sketch.</desc>
    <g id="Page-1" stroke="none" stroke-width="1" fill="none" fill-rule="evenodd">
        <g id="petroleum_fields">
            <g id="petroleum-" fill="#D4F7D6">
                <g id="travel_agencies-copy">
                    <circle id="Oval" cx="15" cy="15" r="15"></circle>
                </g>
            </g>
            <rect id="Rectangle" fill="#1577FF" x="9.85044698" y="8" width="7.35227764" height="6.51172566"></rect>
            <rect id="Rectangle" fill="#FF4A4A" x="9.85044698" y="15" width="7.35227764" height="6"></rect>
            <g id="noun_Fuel_3097004" transform="translate(8.000000, 7.000000)" fill="#65CE6B" fill-rule="nonzero">
                <path d="M11.2697791,2.70449944 L10.8334697,3.25839577 L11.6132567,3.86489679 L11.6132567,5.17382501 C11.6132567,6.00621671 12.1578699,6.7117383 12.906713,6.95928974 L12.906713,12.7984092 C12.906713,13.1140373 12.6498784,13.3708719 12.3311559,13.3708719 C12.0124334,13.3708719 11.7555988,13.1140373 11.7555988,12.7984092 L11.7555988,9.17178069 C11.7555988,8.34248338 11.1026819,7.66481133 10.2826678,7.62148983 L10.2826678,2.17535824 C10.2826678,1.57504601 10.0382107,1.03043285 9.64212842,0.637444947 C9.24914052,0.244457043 8.70452736,0 8.10421513,0 L2.94895648,0 C2.34864425,0 1.80403109,0.244457043 1.40794879,0.64053934 C1.01186649,1.03352724 0.767409451,1.5781404 0.767409451,2.17845263 L0.767409451,13.7669542 L0.513669229,13.7669542 C0.371327154,13.7669542 0.244457043,13.8257477 0.151625254,13.9185795 C0.058793466,14.0114113 0,14.1413758 0,14.2806234 L0,15.3203395 C0,15.4038881 0.0680766448,15.4719647 0.151625254,15.4719647 L10.9015463,15.4719647 C10.985095,15.4719647 11.0531716,15.4038881 11.0531716,15.3203395 L11.0531716,14.2806234 C11.0531716,14.1382814 10.9943781,14.0114113 10.9015463,13.9185795 C10.8087146,13.8257477 10.6787501,13.7669542 10.536408,13.7669542 L10.2857622,13.7669542 L10.2857622,8.32701142 C10.7158828,8.37033292 11.0531716,8.73237689 11.0531716,9.17178069 L11.0531716,12.7984092 C11.0531716,13.5039308 11.6287287,14.0763935 12.3342503,14.0763935 C13.0397719,14.0763935 13.615329,13.5039308 13.615329,12.7984092 L13.615329,4.53328567 L11.2697791,2.70449944 Z M6.46418686,12.5725185 C6.22282422,12.8107868 5.89172417,12.9593177 5.5265858,12.9593177 C5.16144743,12.9593177 4.83034739,12.8107868 4.58898474,12.5725185 C4.35071648,12.3342503 4.20218562,12.0031502 4.20218562,11.6380119 C4.20218562,11.5235193 4.21765759,11.4090268 4.24860152,11.2976286 C4.27954544,11.1862305 4.32286695,11.0810211 4.38166041,10.9789062 L5.5265858,8.91804047 L6.67460559,10.9820006 C6.73339905,11.0841155 6.77672055,11.1893249 6.80457009,11.2976286 C6.83551402,11.4090268 6.85098598,11.5235193 6.85098598,11.6380119 C6.85098598,12.0031502 6.70245512,12.3342503 6.46418686,12.5725185 Z M9.20272462,6.01549989 C9.20272462,6.29399525 9.08823208,6.54773547 8.9056629,6.73030466 C8.72309372,6.91287384 8.46935349,7.02736638 8.19085813,7.02736638 L2.86231348,7.02736638 C2.58381811,7.02736638 2.33007789,6.91287384 2.1475087,6.73030466 C1.96493952,6.54773547 1.85044698,6.29399525 1.85044698,6.01549989 L1.85044698,2.51264707 C1.85044698,2.23415171 1.96493952,1.98041149 2.1475087,1.7978423 C2.33007789,1.61527312 2.58381811,1.50078058 2.86231348,1.50078058 L8.19085813,1.50078058 C8.46935349,1.50078058 8.72309372,1.61527312 8.9056629,1.7978423 C9.08823208,1.98041149 9.20272462,2.23415171 9.20272462,2.51264707 L9.20272462,6.01549989 L9.20272462,6.01549989 Z M12.3218727,5.17382501 L12.3218727,4.41569873 L12.9098074,4.87366889 L12.9098074,6.18878589 C12.5570466,5.98455596 12.3218727,5.60704002 12.3218727,5.17382501 Z" id="Shape"></path>
            </g>
        </g>
    </g>
</svg>