<?xml version="1.0" encoding="UTF-8"?>
<svg width="22px" height="31px" viewBox="0 0 22 31" version="1.1" xmlns="http://www.w3.org/2000/svg" xmlns:xlink="http://www.w3.org/1999/xlink">
    <!-- Generator: Sketch 60.1 (88133) - https://sketch.com -->
    <title>petroleum_fields_pin</title>
    <desc>Created with Sketch.</desc>
    <g id="Page-1" stroke="none" stroke-width="1" fill="none" fill-rule="evenodd">
        <g id="petroleum_fields_pin" transform="translate(0.587821, 0.548714)">
            <g id="Group-38-Copy" fill="#909CE1" stroke="#FFFFFF" stroke-width="0.5">
                <g id="Group-37-Copy">
                    <path d="M19.5415811,5.6738617 C18.2208273,3.08044461 16.2040434,1.32175115 13.3997218,0.508133056 C10.1182645,-0.629907145 6.26228458,0.18506773 3.55082729,2.53803255 C3.55037503,2.53833406 3.55007353,2.53848482 3.54977202,2.53878632 C2.97766147,3.01034411 2.49178207,3.57099738 2.11595292,4.07149989 C2.05097805,4.13813306 1.99926951,4.22104763 1.94725946,4.30185165 C1.49982227,4.92943959 1.24881724,5.41260542 1.24881724,5.41260542 L1.25529966,5.40928884 C0.624847395,6.55863557 0.220676541,7.79662552 0.0647971441,9.13079637 C-0.025805871,10.0778315 -0.0185696901,11.0248667 0.0688674959,11.9716004 C0.204093627,13.1509471 0.477259456,14.2909471 1.01982227,15.3548165 C1.14132981,15.625721 1.24670669,15.9058215 1.38781222,16.166324 C2.5670082,18.3430577 4.17781222,20.2029069 5.72861624,22.1064748 C7.25469664,24.1886858 8.67268659,26.3275803 9.33117905,28.877731 C9.46067654,29.3789873 9.69540016,29.8564245 10.299772,29.8737612 C10.9422846,29.8923039 11.2137921,29.4082336 11.3545961,28.8801431 C12.1560032,25.8766758 13.9211791,23.4344647 15.8102745,21.0566255 C17.1311791,19.3939622 18.540576,17.7849672 19.4597218,15.844314 C21.0554504,12.4749672 21.2659027,9.07818331 19.5415811,5.6738617" id="Fill-1"></path>
                </g>
            </g>
            <g id="petroleum_fields" transform="translate(5.238123, 4.143246)" fill="#FFFFFF" fill-rule="nonzero">
                <g id="noun_Fuel_3097004">
                    <path d="M9.2524279,2.22037946 L8.89422023,2.67512536 L9.53442117,3.17305943 L9.53442117,4.24768244 C9.53442117,4.93107154 9.98154563,5.51030096 10.5963418,5.71353936 L10.5963418,10.507425 C10.5963418,10.7665539 10.3854819,10.9774138 10.1238125,10.9774138 C9.86214308,10.9774138 9.65128324,10.7665539 9.65128324,10.507425 L9.65128324,7.5299825 C9.65128324,6.84913388 9.11524198,6.29276878 8.4420148,6.25720206 L8.4420148,1.78595739 C8.4420148,1.29310428 8.24131688,0.845979816 7.91613545,0.523338865 C7.5934945,0.200697914 7.14637004,0 6.65351693,0 L2.42107737,0 C1.92822426,0 1.4810998,0.200697914 1.15591837,0.525879345 C0.830736936,0.848520296 0.630039022,1.29564476 0.630039022,1.78849787 L0.630039022,11.3025952 L0.421719668,11.3025952 C0.304857591,11.3025952 0.200697914,11.3508643 0.124483516,11.4270787 C0.0482691186,11.5032931 0,11.6099933 0,11.7243149 L0,12.5779161 C0,12.6465091 0.0558905584,12.7023996 0.124483516,12.7023996 L8.95011078,12.7023996 C9.01870374,12.7023996 9.0745943,12.6465091 9.0745943,12.5779161 L9.0745943,11.7243149 C9.0745943,11.6074528 9.02632518,11.5032931 8.95011078,11.4270787 C8.87389639,11.3508643 8.76719623,11.3025952 8.65033415,11.3025952 L8.44455528,11.3025952 L8.44455528,6.83643148 C8.79768199,6.8719982 9.0745943,7.16923436 9.0745943,7.5299825 L9.0745943,10.507425 C9.0745943,11.0866544 9.54712357,11.5566432 10.126353,11.5566432 C10.7055824,11.5566432 11.1781117,11.0866544 11.1781117,10.507425 L11.1781117,3.72180309 L9.2524279,2.22037946 Z M5.30706257,10.3219699 C5.10890513,10.5175869 4.83707378,10.6395299 4.53729715,10.6395299 C4.23752052,10.6395299 3.96568917,10.5175869 3.76753173,10.3219699 C3.57191478,10.126353 3.44997174,9.85452164 3.44997174,9.55474501 C3.44997174,9.46074725 3.46267414,9.36674949 3.48807894,9.27529221 C3.51348374,9.18383494 3.54905046,9.09745862 3.59731958,9.01362278 L4.53729715,7.32166315 L5.4798152,9.01616326 C5.52808432,9.0999991 5.56365104,9.18637542 5.58651536,9.27529221 C5.61192016,9.36674949 5.62462256,9.46074725 5.62462256,9.55474501 C5.62462256,9.85452164 5.50267952,10.126353 5.30706257,10.3219699 Z M7.5553873,4.93869298 C7.5553873,5.16733617 7.46138955,5.37565553 7.31150123,5.52554384 C7.16161292,5.67543216 6.95329356,5.76942992 6.72465037,5.76942992 L2.34994393,5.76942992 C2.12130074,5.76942992 1.91298139,5.67543216 1.76309307,5.52554384 C1.61320475,5.37565553 1.519207,5.16733617 1.519207,4.93869298 L1.519207,2.0628697 C1.519207,1.83422651 1.61320475,1.62590715 1.76309307,1.47601884 C1.91298139,1.32613052 2.12130074,1.23213276 2.34994393,1.23213276 L6.72465037,1.23213276 C6.95329356,1.23213276 7.16161292,1.32613052 7.31150123,1.47601884 C7.46138955,1.62590715 7.5553873,1.83422651 7.5553873,2.0628697 L7.5553873,4.93869298 L7.5553873,4.93869298 Z M10.1161911,4.24768244 L10.1161911,3.62526486 L10.5988823,4.00125589 L10.5988823,5.08095985 C10.3092675,4.91328818 10.1161911,4.60334963 10.1161911,4.24768244 Z" id="Shape"></path>
                </g>
            </g>
        </g>
    </g>
</svg>