<?xml version="1.0" encoding="UTF-8"?>
<svg width="22px" height="31px" viewBox="0 0 22 31" version="1.1" xmlns="http://www.w3.org/2000/svg" xmlns:xlink="http://www.w3.org/1999/xlink">
    <!-- Generator: Sketch 60.1 (88133) - https://sketch.com -->
    <title>pipelines_pin</title>
    <desc>Created with Sketch.</desc>
    <g id="Page-1" stroke="none" stroke-width="1" fill="none" fill-rule="evenodd">
        <g id="pipelines_pin" transform="translate(0.199967, 0.500000)">
            <g id="Group-19-Copy-2" fill="#EA4335" stroke="#FFFFFF" stroke-width="0.5">
                <g id="Group-16-Copy">
                    <g id="Group-28">
                        <g id="Group-3">
                            <path d="M19.5415477,5.6739196 C18.220794,3.08050251 16.2040101,1.32180905 13.3996884,0.508190955 C10.1182312,-0.629849246 6.26225126,0.185125628 3.55079397,2.53809045 C3.55034171,2.53839196 3.5500402,2.53854271 3.54973869,2.53884422 C2.97762814,3.01040201 2.49174874,3.57105528 2.1159196,4.07155779 C2.05094472,4.13819095 1.99923618,4.22110553 1.94722613,4.30190955 C1.49978894,4.92949749 1.24878392,5.41266332 1.24878392,5.41266332 L1.25526633,5.40934673 C0.62481407,6.55869347 0.220643216,7.79668342 0.0647638191,9.13085427 C-0.025839196,10.0778894 -0.0186030151,11.0249246 0.0688341709,11.9716583 C0.204060302,13.151005 0.477226131,14.291005 1.01978894,15.3548744 C1.14129648,15.6257789 1.24667337,15.9058794 1.38777889,16.1663819 C2.56697487,18.3431156 4.17777889,20.2029648 5.72858291,22.1065327 C7.25466332,24.1887437 8.67265327,26.3276382 9.33114573,28.8777889 C9.46064322,29.3790452 9.69536683,29.8564824 10.2997387,29.8738191 C10.9422513,29.8923618 11.2137588,29.4082915 11.3545628,28.880201 C12.1559698,25.8767337 13.9211457,23.4345226 15.8102412,21.0566834 C17.1311457,19.3940201 18.5405427,17.7850251 19.4596884,15.8443719 C21.0554171,12.4750251 21.2658693,9.07824121 19.5415477,5.6739196" id="Fill-1"></path>
                        </g>
                    </g>
                </g>
            </g>
            <g id="Group-46" transform="translate(2.719304, 5.877296)" fill="#FFFFFF" fill-rule="nonzero">
                <path d="M7.4034718,2.05660389e-13 C5.39712841,2.05660389e-13 3.77050794,0.70684718 3.77050794,1.57936606 C3.77050794,2.45160367 5.39712841,3.15873213 7.4034718,3.15873213 C9.40981519,3.15873213 11.0367169,2.45160367 11.0367169,1.57936606 C11.0367169,0.70684718 9.40981519,2.05660389e-13 7.4034718,2.05660389e-13 Z M8.74712838,0.664937021 L7.6827791,1.15238874 C7.57870689,1.13635599 7.46929044,1.12566749 7.35340463,1.12566749 C7.23751882,1.12566749 7.12810236,1.13635599 7.02403016,1.15238874 L5.99062127,0.679000833 C6.39903436,0.596586896 6.87129716,0.543706963 7.4034718,0.543706963 C7.90554988,0.543706963 8.35474803,0.590398819 8.74712838,0.664937021 Z M4.3142149,1.57936606 C4.3142149,1.39203609 4.62502514,1.12454239 5.18504613,0.908240965 L6.37118801,1.45166665 C6.33630976,1.49948361 6.31296383,1.54955078 6.31296383,1.60271199 C6.31296383,1.6558732 6.33630976,1.70594037 6.37118801,1.75347605 L5.2410201,2.27102433 C4.64640214,2.05134759 4.3142149,1.77288411 4.3142149,1.57936606 Z M6.06037777,2.49351383 L7.0234676,2.05219142 C7.12753981,2.06822416 7.23723754,2.07891266 7.35340463,2.07891266 C7.46929044,2.07891266 7.57898817,2.06822416 7.68306038,2.05219142 L8.67596549,2.50701509 C8.30102427,2.57367756 7.87489077,2.61446387 7.4034718,2.61446387 C6.90167499,2.61474389 6.45247685,2.56805203 6.06037777,2.49351383 Z M9.5102308,2.29155749 L8.33533997,1.75347605 C8.37021822,1.70594037 8.39356415,1.65559192 8.39356415,1.60271199 C8.39356415,1.54955078 8.37021822,1.49948361 8.33533997,1.45166665 L9.55832904,0.891364391 L9.55495372,0.883488656 C10.1566036,1.10372795 10.4927287,1.38472291 10.4927287,1.57936606 C10.4927287,1.77879091 10.1405708,2.06878671 9.5102308,2.29155749 Z" id="Shape"></path>
                <path d="M13.2025439,0.819584925 C12.8231023,0.819584925 12.481633,0.812325768 12.002057,0.967871527 L11.4364105,1.14226279 C11.5120738,1.28261963 11.5562341,1.42888328 11.5562341,1.57964734 C11.5562341,2.63921492 9.58054986,3.49795127 7.14357256,3.49795127 C6.26936602,3.49795127 5.45619642,3.38600332 4.77072623,3.19529804 L2.27664985,3.96346344 C1.12285473,4.35640634 2.38831419e-13,5.24045755 2.38831419e-13,6.81701085 C2.38831419e-13,8.39300159 0.972934499,9.53048269 2.23023927,9.53048269 C2.60968091,9.53048269 2.87436185,9.46016363 3.32777914,9.34652803 L13.052905,6.3512174 C14.2578924,5.84182614 15.4879134,5.24495797 15.3129595,3.15873213 C15.1877916,1.66487404 14.1223172,0.819584925 13.2025439,0.819584925 Z M2.23023927,9.05568841 C1.2747439,9.05568841 0.474513009,8.09653644 0.474513009,6.82291765 C0.474513009,5.54929885 1.36250209,4.57945839 2.27664985,4.50660785 C3.54239291,4.40562968 4.10185134,5.76897559 4.10185134,7.04259439 C4.10185134,8.31649446 3.18573464,9.05568841 2.23023927,9.05568841 Z" id="Shape"></path>
            </g>
        </g>
    </g>
</svg>