<?xml version="1.0" encoding="UTF-8"?>
<svg width="30px" height="31px" viewBox="0 0 30 31" version="1.1" xmlns="http://www.w3.org/2000/svg" xmlns:xlink="http://www.w3.org/1999/xlink">
    <!-- Generator: Sketch 60.1 (88133) - https://sketch.com -->
    <title>pipelines</title>
    <desc>Created with Sketch.</desc>
    <g id="Page-1" stroke="none" stroke-width="1" fill="none" fill-rule="evenodd">
        <g id="pipelines" transform="translate(0.000000, 0.511431)">
            <circle id="Oval-Copy-4" fill="#F6E1E1" cx="15" cy="15" r="15"></circle>
            <g id="Group-46" transform="translate(5.680219, 9.181784)" fill-rule="nonzero">
                <path d="M8.83682179,1.74767639e-13 C6.44204006,1.74767639e-13 4.50049755,0.843696408 4.50049755,1.88513941 C4.50049755,2.92624667 6.44204006,3.77027881 8.83682179,3.77027881 C11.2316035,3.77027881 13.1734818,2.92624667 13.1734818,1.88513941 C13.1734818,0.843696408 11.2316035,1.74767639e-13 8.83682179,1.74767639e-13 Z M10.4406171,0.793672228 L9.17020441,1.37549709 C9.04598329,1.35636032 8.91538325,1.34360248 8.77706136,1.34360248 C8.63873946,1.34360248 8.50813942,1.35636032 8.3839183,1.37549709 L7.15043617,0.810458865 C7.63792013,0.712089169 8.20161542,0.648971411 8.83682179,0.648971411 C9.43610475,0.648971411 9.97226996,0.704703048 10.4406171,0.793672228 Z M5.14946896,1.88513941 C5.14946896,1.66154139 5.52045366,1.34225955 6.18889757,1.08408106 L7.60468259,1.73271674 C7.56305172,1.78979131 7.53518591,1.84955174 7.53518591,1.91300523 C7.53518591,1.97645872 7.56305172,2.03621915 7.60468259,2.09295798 L6.25570838,2.71070625 C5.54596934,2.44849897 5.14946896,2.11612354 5.14946896,1.88513941 Z M7.23369789,2.97627085 L8.38324684,2.44950616 C8.50746796,2.46864293 8.63840373,2.48140078 8.77706136,2.48140078 C8.91538325,2.48140078 9.04631903,2.46864293 9.17054014,2.44950616 L10.3556768,2.99238603 C9.908145,3.07195469 9.39950988,3.12063745 8.83682179,3.12063745 C8.23787456,3.12097167 7.70170935,3.06524003 7.23369789,2.97627085 Z M11.3514601,2.73521474 L9.9491044,2.09295798 C9.99073526,2.03621915 10.0186011,1.97612298 10.0186011,1.91300523 C10.0186011,1.84955174 9.99073526,1.78979131 9.9491044,1.73271674 L11.4088704,1.06393709 L11.4048416,1.05453658 C12.122974,1.31741532 12.5241746,1.65281234 12.5241746,1.88513941 C12.5241746,2.12317393 12.1038372,2.4693144 11.3514601,2.73521474 Z" id="Shape" fill="#1EA4E9"></path>
                <path d="M15.758624,0.978260756 C15.3057205,0.978260756 14.8981409,0.96959619 14.3257166,1.1552564 L13.650558,1.36341071 C13.7408701,1.53094135 13.7935802,1.70552238 13.7935802,1.88547514 C13.7935802,3.15018042 11.4353933,4.17517251 8.52660472,4.17517251 C7.48314733,4.17517251 6.51254394,4.04155088 5.69436322,3.81392407 L2.7174209,4.73081022 C1.34024515,5.19982888 2.02955968e-13,6.25503692 2.02955968e-13,8.136819 C2.02955968e-13,10.0179296 1.16129959,11.3756329 2.662025,11.3756329 C3.11492848,11.3756329 3.430853,11.2916997 3.9720542,11.1560636 L15.5800141,7.58084556 C17.0182932,6.97283354 18.4864526,6.26040864 18.2776268,3.77027881 C18.1282257,1.98720216 16.8564701,0.978260756 15.758624,0.978260756 Z M2.662025,10.808916 C1.52154084,10.808916 0.566381154,9.66406729 0.566381154,8.14386939 C0.566381154,6.62367148 1.62628945,5.46606495 2.7174209,5.37911017 C4.22821829,5.25858211 4.89599074,6.88587876 4.89599074,8.40607667 C4.89599074,9.9266103 3.80250916,10.808916 2.662025,10.808916 Z" id="Shape" fill="#E7343F"></path>
            </g>
        </g>
    </g>
</svg>