<?xml version="1.0" encoding="UTF-8"?>
<svg width="22px" height="32px" viewBox="0 0 22 32" version="1.1" xmlns="http://www.w3.org/2000/svg" xmlns:xlink="http://www.w3.org/1999/xlink">
    <title>police_station_pin</title>
    <g id="Icons" stroke="none" stroke-width="1" fill="none" fill-rule="evenodd">
        <g id="Group-3" transform="translate(1.000000, 1.000000)">
            <path d="M13.3996884,0.508190955 C10.1182312,-0.629849246 6.26225126,0.185125628 3.55079397,2.53809045 C2.97762814,3.01040201 2.49174874,3.57105528 2.1159196,4.07155779 C2.05094472,4.13819095 1.99923618,4.22110553 1.94722613,4.30190955 C1.49978894,4.92949749 1.24878392,5.41266332 1.24878392,5.41266332 L1.25526633,5.40934673 C0.62481407,6.55869347 0.220643216,7.79668342 0.0647638191,9.13085427 C-0.025839196,10.0778894 -0.0186030151,11.0249246 0.0688341709,11.9716583 C0.204060302,13.151005 0.477226131,14.291005 1.01978894,15.3548744 C1.14129648,15.6257789 1.24667337,15.9058794 1.38777889,16.1663819 C2.56697487,18.3431156 4.17777889,20.2029648 5.72858291,22.1065327 C7.25466332,24.1887437 8.67265327,26.3276382 9.33114573,28.8777889 C9.46064322,29.3790452 9.69536683,29.8564824 10.2997387,29.8738191 C10.9422513,29.8923618 11.2137588,29.4082915 11.3545628,28.880201 C12.1559698,25.8767337 13.9211457,23.4345226 15.8102412,21.0566834 C17.1311457,19.3940201 18.5405427,17.7850251 19.4596884,15.8443719 C21.0554171,12.4750251 21.2658693,9.07824121 19.5415477,5.6739196 C18.220794,3.08050251 16.2040101,1.32180905 13.3996884,0.508190955 Z" id="Fill-1" stroke="#FFFFFF" stroke-width="0.5" fill="#FF826E"></path>
            <g id="2167552" transform="translate(4.000000, 5.000000)" fill="#FFFFFF" fill-rule="nonzero">
                <polygon id="Path" points="2.6 9.6 9.4 9.6 9.4 10 2.6 10"></polygon>
                <path d="M6,6.4 C5.228,6.4 4.6,7.0282 4.6,7.8 L4.6,9.2 L7.4,9.2 L7.4,7.8 C7.4,7.0282 6.772,6.4 6,6.4 Z" id="Path"></path>
                <path d="M7.4,2.248 L7.4,1.8394 C6.9546,1.8908 6.5072,1.7848 6.1286,1.5386 L6.3836,2.3638 L7.395,2.3638 C7.3964,2.325 7.4,2.288 7.4,2.248 L7.4,2.248 Z" id="Path"></path>
                <path d="M2.6,9.2 L4.2,9.2 L4.2,7.8 C4.2,6.8074 5.0076,6 6,6 C6.9924,6 7.8,6.8074 7.8,7.8 L7.8,9.2 L9.4,9.2 L9.4,5.6 L2.6,5.6 L2.6,9.2 Z" id="Path"></path>
                <path d="M0.2624,4 L4.8144,4 C4.4042,3.5326 4.2,2.9566 4.2,2.248 L4.2,1.3438 L4.4486,1.4062 C4.8982,1.5182 5.3688,1.4234 5.7398,1.1454 L6,0.95 L6.2604,1.1454 C6.6312,1.4234 7.102,1.5182 7.5516,1.4062 L7.8,1.3438 L7.8,2.248 C7.8,2.9566 7.5958,3.5326 7.1856,4 L11.7378,4 C11.772,4 11.8,3.972 11.8,3.9376 C11.8,3.917 11.79,3.8982 11.7732,3.8866 L6.251,0.0782 C6.1028,-0.0242 5.8972,-0.0242 5.7486,0.0782 L0.227,3.8866 C0.21,3.8982 0.2,3.9172 0.2,3.9376 C0.2,3.972 0.228,4 0.2624,4 Z" id="Path"></path>
                <path d="M6,4.3764 L6.0742,4.3392 C6.2858,4.2334 6.448,4.1334 6.584,4.0256 L6,3.5796 L5.416,4.0256 C5.5522,4.1334 5.7142,4.2334 5.9258,4.3392 L6,4.3764 Z" id="Path"></path>
                <path d="M5.8714,1.5386 C5.4928,1.7848 5.0458,1.8908 4.6,1.8394 L4.6,2.248 C4.6,2.288 4.6036,2.325 4.605,2.3638 L5.6164,2.3638 L5.8714,1.5386 Z" id="Path"></path>
                <path d="M7.3882,2.5188 L6.6142,3.1102 L6.8278,3.801 C7.1594,3.4536 7.3428,3.0372 7.3882,2.5188 Z" id="Path"></path>
                <path d="M5.3858,3.1104 L4.6118,2.519 C4.6572,3.0374 4.8408,3.4538 5.1722,3.8014 L5.3858,3.1104 Z" id="Path"></path>
                <polygon id="Path" points="6.0884 2.7638 6 2.4776 5.9116 2.7638 5.5912 2.7638 5.8504 2.962 5.7578 3.2614 6 3.0762 6.2422 3.2614 6.1496 2.962 6.4088 2.7638"></polygon>
                <path d="M10.6,11 L10.6,4.4 L6.7518,4.4 C6.6116,4.502 6.451,4.5982 6.253,4.697 L6,4.8236 L5.747,4.697 C5.5492,4.5982 5.3884,4.502 5.2482,4.4 L1.4,4.4 L1.4,11 L0,11 L0,11.8 L12,11.8 L12,11 L10.6,11 Z M2.2,5.2 L9.8,5.2 L9.8,10.4 L2.2,10.4 L2.2,5.2 Z" id="Shape"></path>
            </g>
        </g>
    </g>
</svg>