<?xml version="1.0" encoding="UTF-8"?>
<svg width="22px" height="32px" viewBox="0 0 22 32" version="1.1" xmlns="http://www.w3.org/2000/svg" xmlns:xlink="http://www.w3.org/1999/xlink">
    <title>post_office</title>
    <g id="Icons" stroke="none" stroke-width="1" fill="none" fill-rule="evenodd">
        <g id="post_office" transform="translate(1.000000, 1.000000)">
            <path d="M13.3997218,0.508133056 C10.1182645,-0.629907145 6.26228458,0.18506773 3.55082729,2.53803255 C2.97766147,3.01034411 2.49178207,3.57099738 2.11595292,4.07149989 C2.05097805,4.13813306 1.99926951,4.22104763 1.94725946,4.30185165 C1.49982227,4.92943959 1.24881724,5.41260542 1.24881724,5.41260542 L1.25529966,5.40928884 C0.624847395,6.55863557 0.220676541,7.79662552 0.0647971441,9.13079637 C-0.025805871,10.0778315 -0.0185696901,11.0248667 0.0688674959,11.9716004 C0.204093627,13.1509471 0.477259456,14.2909471 1.01982227,15.3548165 C1.14132981,15.625721 1.24670669,15.9058215 1.38781222,16.166324 C2.5670082,18.3430577 4.17781222,20.2029069 5.72861624,22.1064748 C7.25469664,24.1886858 8.67268659,26.3275803 9.33117905,28.877731 C9.46067654,29.3789873 9.69540016,29.8564245 10.299772,29.8737612 C10.9422846,29.8923039 11.2137921,29.4082336 11.3545961,28.8801431 C12.1560032,25.8766758 13.9211791,23.4344647 15.8102745,21.0566255 C17.1311791,19.3939622 18.540576,17.7849672 19.4597218,15.844314 C21.0554504,12.4749672 21.2659027,9.07818331 19.5415811,5.6738617 C18.2208273,3.08044461 16.2040434,1.32175115 13.3997218,0.508133056 Z" id="Fill-1" stroke="#FFFFFF" stroke-width="0.5" fill="#854837"></path>
            <g id="3720360" transform="translate(4.000000, 4.000000)" fill="#FFFFFF" fill-rule="nonzero">
                <polygon id="Path" points="7.19595322 0.00477192982 4.83529825 0.00477192982 6.01562573 0.807064327"></polygon>
                <path d="M7.77894737,0.457005848 L6.2128655,1.52149708 C6.15335673,1.56196491 6.08449123,1.58219883 6.01562573,1.58219883 C5.94676023,1.58219883 5.87789474,1.56196491 5.81838596,1.52149708 L4.25230409,0.456982456 L4.25230409,2.1771462 L7.77894737,2.1771462 L7.77894737,0.457005848 Z" id="Path"></path>
                <path d="M7.44388304,4.54750877 L4.53861988,4.54750877 L4.53861988,7.71642105 L7.44388304,7.71642105 L7.44388304,4.54750877 L7.44388304,4.54750877 Z M6.36650292,6.63473684 C6.36650292,6.82851462 6.20940351,6.98561404 6.01562573,6.98561404 C5.82184795,6.98561404 5.66474854,6.82851462 5.66474854,6.63473684 L5.66474854,5.58259649 C5.66474854,5.38881871 5.82184795,5.2317193 6.01562573,5.2317193 C6.20940351,5.2317193 6.36650292,5.38881871 6.36650292,5.58259649 L6.36650292,6.63473684 Z" id="Shape"></path>
                <path d="M11.6352749,10.5778713 L10.9067836,10.5778713 L10.9067836,4.54750877 L8.14563743,4.54750877 L8.14563743,7.71642105 L9.44821053,7.71642105 C9.6419883,7.71642105 9.79908772,7.87352047 9.79908772,8.06729825 L9.79908772,10.5778713 L9.09733333,10.5778713 L9.09733333,8.41817544 L8.14563743,8.41817544 L8.14563743,10.5778713 L7.44388304,10.5778713 L7.44388304,8.41817544 L6.36650292,8.41817544 L6.36650292,10.5778713 L5.66474854,10.5778713 L5.66474854,8.41817544 L4.53861988,8.41817544 L4.53861988,10.5778713 L3.8368655,10.5778713 L3.8368655,8.41817544 L2.88516959,8.41817544 L2.88516959,10.5778713 L2.1834152,10.5778713 L2.1834152,8.06729825 C2.1834152,7.87352047 2.34051462,7.71642105 2.5342924,7.71642105 L3.8368655,7.71642105 L3.8368655,4.54750877 L1.0757193,4.54750877 L1.0757193,3.84575439 L10.9067836,3.84575439 L10.9067836,2.87892398 L11.6286784,2.87892398 C11.8224561,2.87892398 11.9795556,2.72182456 11.9795556,2.52804678 C11.9795556,2.33426901 11.8224561,2.17716959 11.6286784,2.17716959 L10.3970292,2.17716959 L8.48070175,0.973263158 L8.48070175,2.52804678 C8.48070175,2.72182456 8.32360234,2.87892398 8.12982456,2.87892398 L3.9014269,2.87892398 C3.70764912,2.87892398 3.55054971,2.72182456 3.55054971,2.52804678 L3.55054971,0.973263158 L1.63422222,2.17716959 L0.354643275,2.17716959 C0.160865497,2.17716959 0.00376608187,2.33426901 0.00376608187,2.52804678 C0.00376608187,2.72182456 0.160865497,2.87892398 0.354643275,2.87892398 L1.0757193,2.87892398 L1.0757193,3.84575439 L0.353824561,3.84575439 C0.160046784,3.84575439 0.00294736842,4.0028538 0.00294736842,4.19663158 C0.00294736842,4.39040936 0.160046784,4.54750877 0.353824561,4.54750877 L1.0757193,4.54750877 L1.0757193,10.5778713 L0.350877193,10.5778713 C0.157099415,10.5778713 -1.32967062e-15,10.7349708 -1.32967062e-15,10.9287485 C-1.32967062e-15,11.1225263 0.157099415,11.2796257 0.350877193,11.2796257 L11.6352749,11.2796257 C11.8290526,11.2796257 11.986152,11.1225263 11.986152,10.9287485 C11.986152,10.7349708 11.8290526,10.5778713 11.6352749,10.5778713 L11.6352749,10.5778713 Z M2.1834152,5.58259649 C2.1834152,5.38881871 2.34051462,5.2317193 2.5342924,5.2317193 C2.72807018,5.2317193 2.88516959,5.38881871 2.88516959,5.58259649 L2.88516959,6.63473684 C2.88516959,6.82851462 2.72807018,6.98561404 2.5342924,6.98561404 C2.34051462,6.98561404 2.1834152,6.82851462 2.1834152,6.63473684 L2.1834152,5.58259649 Z M9.79908772,6.63473684 C9.79908772,6.82851462 9.6419883,6.98561404 9.44821053,6.98561404 C9.25443275,6.98561404 9.09733333,6.82851462 9.09733333,6.63473684 L9.09733333,5.58259649 C9.09733333,5.38881871 9.25443275,5.2317193 9.44821053,5.2317193 C9.6419883,5.2317193 9.79908772,5.38881871 9.79908772,5.58259649 L9.79908772,6.63473684 Z" id="Shape"></path>
                <path d="M11.6286784,4.54750877 C11.8224561,4.54750877 11.9795556,4.39040936 11.9795556,4.19663158 C11.9795556,4.0028538 11.8224561,3.84575439 11.6286784,3.84575439 L10.9067836,3.84575439 L10.9067836,4.54750877 L11.6286784,4.54750877 Z" id="Path"></path>
            </g>
        </g>
    </g>
</svg>