<?xml version="1.0" encoding="UTF-8"?>
<svg width="22px" height="31px" viewBox="0 0 22 31" version="1.1" xmlns="http://www.w3.org/2000/svg" xmlns:xlink="http://www.w3.org/1999/xlink">
    <!-- Generator: Sketch 60.1 (88133) - https://sketch.com -->
    <title>powerlines_pin</title>
    <desc>Created with Sketch.</desc>
    <g id="Page-1" stroke="none" stroke-width="1" fill="none" fill-rule="evenodd">
        <g id="powerlines_pin" transform="translate(0.199967, 0.571576)">
            <g id="Group-22-Copy" fill="#7B9EB0" stroke="#FFFFFF" stroke-width="0.5">
                <g id="Group-19-Copy-2">
                    <g id="Group-16-Copy">
                        <g id="Group-28">
                            <g id="Group-3">
                                <path d="M19.5415477,5.6739196 C18.220794,3.08050251 16.2040101,1.32180905 13.3996884,0.508190955 C10.1182312,-0.629849246 6.26225126,0.185125628 3.55079397,2.53809045 C3.55034171,2.53839196 3.5500402,2.53854271 3.54973869,2.53884422 C2.97762814,3.01040201 2.49174874,3.57105528 2.1159196,4.07155779 C2.05094472,4.13819095 1.99923618,4.22110553 1.94722613,4.30190955 C1.49978894,4.92949749 1.24878392,5.41266332 1.24878392,5.41266332 L1.25526633,5.40934673 C0.62481407,6.55869347 0.220643216,7.79668342 0.0647638191,9.13085427 C-0.025839196,10.0778894 -0.0186030151,11.0249246 0.0688341709,11.9716583 C0.204060302,13.151005 0.477226131,14.291005 1.01978894,15.3548744 C1.14129648,15.6257789 1.24667337,15.9058794 1.38777889,16.1663819 C2.56697487,18.3431156 4.17777889,20.2029648 5.72858291,22.1065327 C7.25466332,24.1887437 8.67265327,26.3276382 9.33114573,28.8777889 C9.46064322,29.3790452 9.69536683,29.8564824 10.2997387,29.8738191 C10.9422513,29.8923618 11.2137588,29.4082915 11.3545628,28.880201 C12.1559698,25.8767337 13.9211457,23.4345226 15.8102412,21.0566834 C17.1311457,19.3940201 18.5405427,17.7850251 19.4596884,15.8443719 C21.0554171,12.4750251 21.2658693,9.07824121 19.5415477,5.6739196" id="Fill-1"></path>
                            </g>
                        </g>
                    </g>
                </g>
            </g>
            <g id="Group-75" transform="translate(4.419498, 3.659889)" fill="#FFFFFF" fill-rule="nonzero">
                <path d="M8.84582088,3.6187449 C8.84582088,3.48200996 8.75736267,3.34530182 8.66893127,3.28096857 L6.75501729,2.01041384 L8.66893127,0.739805486 L8.21854496,0.0643064372 L6.03124151,1.52788771 L3.84393806,0.0643064372 L3.39355175,0.739832292 L5.30746572,2.01041384 L3.4015934,3.28096857 L3.39355175,3.28096857 C3.27295372,3.36141193 3.22470379,3.49005161 3.22470379,3.61070325 C3.22470379,3.74738458 3.28099538,3.87610468 3.39355175,3.95649443 L5.30746572,5.22710278 L3.39355175,6.49765752 L3.84393806,7.17318337 L6.03124151,5.7096021 L8.21854496,7.17318337 L8.66893127,6.49765752 L6.75501729,5.22707597 L8.66893127,3.95646762 C8.75736267,3.89213438 8.84582088,3.75542624 8.84582088,3.6187449 Z M6.03124151,4.74454985 L4.94564484,4.02082767 L7.11686498,4.02082767 L6.03124151,4.74454985 Z M4.94564484,3.21666214 L6.03124151,2.49288635 L7.11683817,3.21666214 L4.94564484,3.21666214 Z" id="Shape"></path>
                <path d="M8.66893127,3.95646762 L6.75501729,5.22707597 L8.66893127,6.49763071 L8.21854496,7.17315657 L6.03124151,5.70954849 L6.03124151,4.74454985 L7.11683817,4.02082767 L6.03124151,4.02082767 L6.03124151,3.21666214 L7.11683817,3.21666214 L6.03124151,2.49288635 L6.03124151,1.52788771 L8.21854496,0.0643064372 L8.66893127,0.739832292 L6.75501729,2.01041384 L8.66893127,3.28096857 C8.75738948,3.34532862 8.84582088,3.48200996 8.84582088,3.6187449 C8.84582088,3.75542624 8.75736267,3.89213438 8.66893127,3.95646762 Z" id="Path"></path>
                <polygon id="Path" points="10.2933188 11.3923183 9.81081952 12.0356507 6.03124151 9.14336213 2.2516635 12.0356507 1.76916418 11.3923183 5.36375731 8.64477949 3.37749524 7.15704645 3.85999457 6.51371402 6.03124151 8.14619686 8.20248845 6.51371402 8.68498777 7.15704645 6.69872571 8.64477949"></polygon>
                <polygon id="Path" points="10.2933188 11.3923183 9.81081952 12.0356507 6.03124151 9.14336213 6.03124151 8.14619686 8.20248845 6.51371402 8.68498777 7.15704645 6.69872571 8.64477949"></polygon>
                <path d="M8.44373811,-7.87543556e-14 L3.6187449,-7.87543556e-14 C3.39355175,-7.87543556e-14 3.21666214,0.176889612 3.21666214,0.402082767 L3.21666214,6.83540704 C3.21666214,7.06054659 3.39355175,7.23748981 3.6187449,7.23748981 L8.44373811,7.23748981 C8.66893127,7.23748981 8.84582088,7.06054659 8.84582088,6.83540704 L8.84582088,0.402082767 C8.84582088,0.176889612 8.66893127,-7.87543556e-14 8.44373811,-7.87543556e-14 Z M8.04165534,6.43332428 L4.02082767,6.43332428 L4.02082767,0.804165534 L8.04165534,0.804165534 L8.04165534,6.43332428 Z" id="Shape"></path>
                <path d="M8.84582088,0.402082767 L8.84582088,6.83540704 C8.84582088,7.06054659 8.66893127,7.23748981 8.44373811,7.23748981 L6.03124151,7.23748981 L6.03124151,6.43332428 L8.04165534,6.43332428 L8.04165534,0.804165534 L6.03124151,0.804165534 L6.03124151,-7.87543556e-14 L8.44373811,-7.87543556e-14 C8.66893127,-7.87543556e-14 8.84582088,0.176889612 8.84582088,0.402082767 Z" id="Path"></path>
                <path d="M10.1807089,12.0919423 C10.1405274,12.1080524 10.0922775,12.1160941 10.0520692,12.1160941 C9.88316761,12.1160941 9.73037616,12.0115525 9.67413818,11.842651 L8.15423852,7.23748981 L3.9082445,7.23748981 L2.38837164,11.842651 C2.3240652,12.051734 2.09887204,12.164344 1.88180096,12.0919423 C1.67271792,12.0276358 1.56010794,11.794401 1.63250965,11.585318 L3.24084071,6.70671375 C3.28906384,6.54590745 3.44185529,6.43332428 3.6187449,6.43332428 L8.44373811,6.43332428 C8.62062772,6.43332428 8.77341917,6.54590745 8.82166911,6.70671375 L10.4300002,11.585318 C10.5024019,11.794401 10.3897919,12.0276358 10.1807089,12.0919423 Z" id="Path"></path>
                <path d="M10.1807089,12.0919423 C10.1405274,12.1080524 10.0922775,12.1160941 10.0520692,12.1160941 C9.88316761,12.1160941 9.73037616,12.0115525 9.67413818,11.842651 L8.15423852,7.23748981 L6.03124151,7.23748981 L6.03124151,6.43332428 L8.44373811,6.43332428 C8.62062772,6.43332428 8.77341917,6.54590745 8.82166911,6.70671375 L10.4300002,11.585318 C10.5024019,11.794401 10.3897919,12.0276358 10.1807089,12.0919423 Z" id="Path"></path>
                <path d="M11.2583175,3.6187449 C11.2583175,3.84388445 11.0814279,4.02082767 10.8562347,4.02082767 L1.2062483,4.02082767 C0.981055146,4.02082767 0.804165534,3.84388445 0.804165534,3.6187449 C0.804165534,3.39355175 0.981055146,3.21666214 1.2062483,3.21666214 L10.8562347,3.21666214 C11.0814279,3.21666214 11.2583175,3.39355175 11.2583175,3.6187449 Z" id="Path"></path>
                <path d="M11.2583175,3.6187449 C11.2583175,3.84388445 11.0814279,4.02082767 10.8562347,4.02082767 L6.03124151,4.02082767 L6.03124151,3.21666214 L10.8562347,3.21666214 C11.0814279,3.21666214 11.2583175,3.39355175 11.2583175,3.6187449 Z" id="Path"></path>
                <path d="M11.2583175,6.83540704 C11.2583175,7.06054659 11.0814279,7.23748981 10.8562347,7.23748981 L1.2062483,7.23748981 C0.981055146,7.23748981 0.804165534,7.06054659 0.804165534,6.83540704 C0.804165534,6.61021389 0.981055146,6.43332428 1.2062483,6.43332428 L10.8562347,6.43332428 C11.0814279,6.43332428 11.2583175,6.61021389 11.2583175,6.83540704 Z" id="Path"></path>
                <path d="M11.2583175,6.83540704 C11.2583175,7.06054659 11.0814279,7.23748981 10.8562347,7.23748981 L6.03124151,7.23748981 L6.03124151,6.43332428 L10.8562347,6.43332428 C11.0814279,6.43332428 11.2583175,6.61021389 11.2583175,6.83540704 Z" id="Path"></path>
                <path d="M1.2062483,7.23748981 C0.541096183,7.23748981 1.37580018e-13,6.69639363 1.37580018e-13,6.03124151 C1.37580018e-13,5.36608939 0.541096183,4.82499321 1.2062483,4.82499321 C1.87140042,4.82499321 2.4124966,5.36608939 2.4124966,6.03124151 C2.4124966,6.69639363 1.87140042,7.23748981 1.2062483,7.23748981 Z" id="Path"></path>
                <path d="M10.8562347,7.23748981 C10.1910826,7.23748981 9.64998641,6.69639363 9.64998641,6.03124151 C9.64998641,5.36608939 10.1910826,4.82499321 10.8562347,4.82499321 C11.5213868,4.82499321 12.062483,5.36608939 12.062483,6.03124151 C12.062483,6.69639363 11.5213868,7.23748981 10.8562347,7.23748981 Z" id="Path"></path>
                <path d="M1.2062483,4.02082767 C0.541096183,4.02082767 1.37580018e-13,3.47973149 1.37580018e-13,2.81457937 C1.37580018e-13,2.14942725 0.541096183,1.60833107 1.2062483,1.60833107 C1.87140042,1.60833107 2.4124966,2.14942725 2.4124966,2.81457937 C2.4124966,3.47973149 1.87140042,4.02082767 1.2062483,4.02082767 Z" id="Path"></path>
                <path d="M10.8562347,4.02082767 C10.1910826,4.02082767 9.64998641,3.47973149 9.64998641,2.81457937 C9.64998641,2.14942725 10.1910826,1.60833107 10.8562347,1.60833107 C11.5213868,1.60833107 12.062483,2.14942725 12.062483,2.81457937 C12.062483,3.47973149 11.5213868,4.02082767 10.8562347,4.02082767 Z" id="Path"></path>
                <path d="M10.0520692,11.3119285 L2.01041384,11.3119285 C1.34292964,11.3119285 0.804165534,11.8506926 0.804165534,12.5181768 L0.804165534,13.3223424 C0.804165534,13.5474819 0.981055146,13.7244251 1.2062483,13.7244251 L10.8562347,13.7244251 C11.0814279,13.7244251 11.2583175,13.5474819 11.2583175,13.3223424 L11.2583175,12.5181768 C11.2583175,11.8506926 10.7195534,11.3119285 10.0520692,11.3119285 Z" id="Path"></path>
                <path d="M11.2583175,12.5181768 L11.2583175,13.3223424 C11.2583175,13.5474819 11.0814279,13.7244251 10.8562347,13.7244251 L6.03124151,13.7244251 L6.03124151,11.3119285 L10.0520692,11.3119285 C10.7195534,11.3119285 11.2583175,11.8506926 11.2583175,12.5181768 Z" id="Path"></path>
            </g>
        </g>
    </g>
</svg>