<?xml version="1.0" encoding="UTF-8"?>
<svg width="30px" height="30px" viewBox="0 0 30 30" version="1.1" xmlns="http://www.w3.org/2000/svg" xmlns:xlink="http://www.w3.org/1999/xlink">
    <!-- Generator: Sketch 60.1 (88133) - https://sketch.com -->
    <title>powerlines</title>
    <desc>Created with Sketch.</desc>
    <g id="Page-1" stroke="none" stroke-width="1" fill="none" fill-rule="evenodd">
        <g id="powerlines" transform="translate(0.000000, 0.000163)">
            <circle id="Oval-Copy-3" fill="#FFEACB" cx="15" cy="15" r="15"></circle>
            <g id="Group-75" transform="translate(7.876723, 6.764493)" fill-rule="nonzero">
                <path d="M10.3184653,4.22119035 C10.3184653,4.06169189 10.2152807,3.9022247 10.1121273,3.82718132 L7.87958659,2.34510575 L10.1121273,0.862967649 L9.58676105,0.075012116 L7.03531726,1.7822491 L4.48387347,0.075012116 L3.95850724,0.862998917 L6.19104792,2.34510575 L3.96788766,3.82718132 L3.95850724,3.82718132 C3.81783216,3.92101682 3.76154963,4.07107232 3.76154963,4.21180993 C3.76154963,4.37124585 3.82721259,4.52139516 3.95850724,4.61516812 L6.19104792,6.09730622 L3.95850724,7.57938179 L4.48387347,8.36736859 L7.03531726,6.6601316 L9.58676105,8.36736859 L10.1121273,7.57938179 L7.87958659,6.09727495 L10.1121273,4.61513685 C10.2152807,4.54009347 10.3184653,4.38062628 10.3184653,4.22119035 Z M7.03531726,5.53441831 L5.76899142,4.6902115 L8.30167436,4.6902115 L7.03531726,5.53441831 Z M5.76899142,3.7521692 L7.03531726,2.90789986 L8.30164309,3.7521692 L5.76899142,3.7521692 Z" id="Shape" fill="#0D70B2"></path>
                <path d="M10.1121273,4.61513685 L7.87958659,6.09727495 L10.1121273,7.57935052 L9.58676105,8.36733732 L7.03531726,6.66006907 L7.03531726,5.53441831 L8.30164309,4.6902115 L7.03531726,4.6902115 L7.03531726,3.7521692 L8.30164309,3.7521692 L7.03531726,2.90789986 L7.03531726,1.7822491 L9.58676105,0.075012116 L10.1121273,0.862998917 L7.87958659,2.34510575 L10.1121273,3.82718132 C10.2153119,3.90225597 10.3184653,4.06169189 10.3184653,4.22119035 C10.3184653,4.38062628 10.2152807,4.54009347 10.1121273,4.61513685 Z" id="Path" fill="#095C92"></path>
                <polygon id="Path" fill="#0D70B2" points="12.0069414 13.2889013 11.4441161 14.0393352 7.03531726 10.665541 2.62651844 14.0393352 2.06369306 13.2889013 6.25671088 10.0839547 3.93977766 8.34854521 4.50260304 7.59811137 7.03531726 9.50236851 9.56803147 7.59811137 10.1308568 8.34854521 7.81392363 10.0839547"></polygon>
                <polygon id="Path" fill="#095C92" points="12.0069414 13.2889013 11.4441161 14.0393352 7.03531726 10.665541 7.03531726 9.50236851 9.56803147 7.59811137 10.1308568 8.34854521 7.81392363 10.0839547"></polygon>
                <path d="M9.84944416,-6.76732312e-14 L4.22119035,-6.76732312e-14 C3.95850724,-6.76732312e-14 3.7521692,0.206338038 3.7521692,0.46902115 L3.7521692,7.97335956 C3.7521692,8.23598013 3.95850724,8.44238071 4.22119035,8.44238071 L9.84944416,8.44238071 C10.1121273,8.44238071 10.3184653,8.23598013 10.3184653,7.97335956 L10.3184653,0.46902115 C10.3184653,0.206338038 10.1121273,-6.76732312e-14 9.84944416,-6.76732312e-14 Z M9.38042301,7.50433841 L4.6902115,7.50433841 L4.6902115,0.938042301 L9.38042301,0.938042301 L9.38042301,7.50433841 Z" id="Shape" fill="#0D70B2"></path>
                <path d="M10.3184653,0.46902115 L10.3184653,7.97335956 C10.3184653,8.23598013 10.1121273,8.44238071 9.84944416,8.44238071 L7.03531726,8.44238071 L7.03531726,7.50433841 L9.38042301,7.50433841 L9.38042301,0.938042301 L7.03531726,0.938042301 L7.03531726,-6.76732312e-14 L9.84944416,-6.76732312e-14 C10.1121273,-6.76732312e-14 10.3184653,0.206338038 10.3184653,0.46902115 Z" id="Path" fill="#095C92"></path>
                <path d="M11.8755843,14.1049981 C11.8287134,14.1237902 11.7724309,14.1331707 11.7255288,14.1331707 C11.5285086,14.1331707 11.3502806,14.0112252 11.2846801,13.814205 L9.51174893,8.44238071 L4.55888558,8.44238071 L2.78598563,13.814205 C2.71097352,14.058096 2.4482904,14.1894532 2.19508152,14.1049981 C1.95119052,14.029986 1.81983333,13.7579225 1.90428841,13.5140315 L3.78037301,7.82324152 C3.83662428,7.63566433 4.01485232,7.50433841 4.22119035,7.50433841 L9.84944416,7.50433841 C10.0557822,7.50433841 10.2340102,7.63566433 10.2902928,7.82324152 L12.1663774,13.5140315 C12.2508324,13.7579225 12.1194753,14.029986 11.8755843,14.1049981 Z" id="Path" fill="#0D70B2"></path>
                <path d="M11.8755843,14.1049981 C11.8287134,14.1237902 11.7724309,14.1331707 11.7255288,14.1331707 C11.5285086,14.1331707 11.3502806,14.0112252 11.2846801,13.814205 L9.51174893,8.44238071 L7.03531726,8.44238071 L7.03531726,7.50433841 L9.84944416,7.50433841 C10.0557822,7.50433841 10.2340102,7.63566433 10.2902928,7.82324152 L12.1663774,13.5140315 C12.2508324,13.7579225 12.1194753,14.029986 11.8755843,14.1049981 Z" id="Path" fill="#095C92"></path>
                <path d="M13.1325922,4.22119035 C13.1325922,4.48381093 12.9262542,4.6902115 12.6635711,4.6902115 L1.40706345,4.6902115 C1.14438034,4.6902115 0.938042301,4.48381093 0.938042301,4.22119035 C0.938042301,3.95850724 1.14438034,3.7521692 1.40706345,3.7521692 L12.6635711,3.7521692 C12.9262542,3.7521692 13.1325922,3.95850724 13.1325922,4.22119035 Z" id="Path" fill="#0D70B2"></path>
                <path d="M13.1325922,4.22119035 C13.1325922,4.48381093 12.9262542,4.6902115 12.6635711,4.6902115 L7.03531726,4.6902115 L7.03531726,3.7521692 L12.6635711,3.7521692 C12.9262542,3.7521692 13.1325922,3.95850724 13.1325922,4.22119035 Z" id="Path" fill="#095C92"></path>
                <path d="M13.1325922,7.97335956 C13.1325922,8.23598013 12.9262542,8.44238071 12.6635711,8.44238071 L1.40706345,8.44238071 C1.14438034,8.44238071 0.938042301,8.23598013 0.938042301,7.97335956 C0.938042301,7.71067644 1.14438034,7.50433841 1.40706345,7.50433841 L12.6635711,7.50433841 C12.9262542,7.50433841 13.1325922,7.71067644 13.1325922,7.97335956 Z" id="Path" fill="#0D70B2"></path>
                <path d="M13.1325922,7.97335956 C13.1325922,8.23598013 12.9262542,8.44238071 12.6635711,8.44238071 L7.03531726,8.44238071 L7.03531726,7.50433841 L12.6635711,7.50433841 C12.9262542,7.50433841 13.1325922,7.71067644 13.1325922,7.97335956 Z" id="Path" fill="#095C92"></path>
                <path d="M1.40706345,8.44238071 C0.631177396,8.44238071 1.18221834e-13,7.81120331 1.18221834e-13,7.03531726 C1.18221834e-13,6.2594312 0.631177396,5.6282538 1.40706345,5.6282538 C2.18294951,5.6282538 2.8141269,6.2594312 2.8141269,7.03531726 C2.8141269,7.81120331 2.18294951,8.44238071 1.40706345,8.44238071 Z" id="Path" fill="#FD4343"></path>
                <path d="M12.6635711,8.44238071 C11.887685,8.44238071 11.2565076,7.81120331 11.2565076,7.03531726 C11.2565076,6.2594312 11.887685,5.6282538 12.6635711,5.6282538 C13.4394571,5.6282538 14.0706345,6.2594312 14.0706345,7.03531726 C14.0706345,7.81120331 13.4394571,8.44238071 12.6635711,8.44238071 Z" id="Path" fill="#FD4343"></path>
                <path d="M1.40706345,4.6902115 C0.631177396,4.6902115 1.18221834e-13,4.05903411 1.18221834e-13,3.28314805 C1.18221834e-13,2.507262 0.631177396,1.8760846 1.40706345,1.8760846 C2.18294951,1.8760846 2.8141269,2.507262 2.8141269,3.28314805 C2.8141269,4.05903411 2.18294951,4.6902115 1.40706345,4.6902115 Z" id="Path" fill="#FD4343"></path>
                <path d="M12.6635711,4.6902115 C11.887685,4.6902115 11.2565076,4.05903411 11.2565076,3.28314805 C11.2565076,2.507262 11.887685,1.8760846 12.6635711,1.8760846 C13.4394571,1.8760846 14.0706345,2.507262 14.0706345,3.28314805 C14.0706345,4.05903411 13.4394571,4.6902115 12.6635711,4.6902115 Z" id="Path" fill="#FD4343"></path>
                <path d="M11.7255288,13.1951284 L2.34510575,13.1951284 C1.56649937,13.1951284 0.938042301,13.8235854 0.938042301,14.6021918 L0.938042301,15.5402341 C0.938042301,15.8028547 1.14438034,16.0092553 1.40706345,16.0092553 L12.6635711,16.0092553 C12.9262542,16.0092553 13.1325922,15.8028547 13.1325922,15.5402341 L13.1325922,14.6021918 C13.1325922,13.8235854 12.5041351,13.1951284 11.7255288,13.1951284 Z" id="Path" fill="#7BCC29"></path>
                <path d="M13.1325922,14.6021918 L13.1325922,15.5402341 C13.1325922,15.8028547 12.9262542,16.0092553 12.6635711,16.0092553 L7.03531726,16.0092553 L7.03531726,13.1951284 L11.7255288,13.1951284 C12.5041351,13.1951284 13.1325922,13.8235854 13.1325922,14.6021918 Z" id="Path" fill="#6EB825"></path>
            </g>
        </g>
    </g>
</svg>