<?xml version="1.0" encoding="UTF-8"?>
<svg width="30px" height="30px" viewBox="0 0 30 30" version="1.1" xmlns="http://www.w3.org/2000/svg" xmlns:xlink="http://www.w3.org/1999/xlink">
    <!-- Generator: Sketch 60.1 (88133) - https://sketch.com -->
    <title>private_school</title>
    <desc>Created with Sketch.</desc>
    <g id="Page-1" stroke="none" stroke-width="1" fill="none" fill-rule="evenodd">
        <g id="private_school">
            <g id="Group-51">
                <circle id="Oval" fill="#D4F7D6" cx="15" cy="15" r="15"></circle>
                <g id="Group-35" transform="translate(6.307067, 6.094064)" fill-rule="nonzero">
                    <path d="M16.7095448,7.6573065 L15.1245359,5.31906139 C14.9591333,5.07631228 14.5831102,4.87640125 14.2885984,4.87640125 L11.3845337,4.87640125 L8.82852835,3.04685832 C8.81781883,3.03912367 8.80651434,3.03436388 8.79461487,3.0272242 L8.79461487,2.73449733 L11.8289788,2.73449733 L11.8289788,0.401012011 L8.79461487,0.401012011 C8.79461487,0.17968194 8.61493293,-2.45701563e-13 8.39300789,-2.45701563e-13 C8.17108284,-2.45701563e-13 7.9914009,0.17968194 7.9914009,0.401012011 L7.9914009,3.02662923 C7.98009641,3.03376891 7.96819694,3.03912367 7.95748743,3.04626335 L5.40207706,4.87580628 L2.49920228,4.87580628 C2.20469049,4.87580628 1.82866736,5.07571731 1.66385975,5.31846642 L0.0782558811,7.65671153 C-0.0871466991,7.90065058 0.0181635768,8.10056294 0.313865312,8.10056294 L5.02486398,8.10056294 L8.39479281,5.74446731 L11.8509928,8.10056294 L16.4751253,8.10056294 C16.7690421,8.10115659 16.8749474,7.90124556 16.7095448,7.6573065 Z" id="Path" fill="#1577FF"></path>
                    <path d="M15.8569481,16.0601146 L15.4023885,16.0601146 L15.4023885,8.94304382 L11.3839387,8.94304382 L8.39419783,6.88265125 L5.40326701,8.94304382 L1.38481727,8.94304382 L1.38481727,16.0601146 L0.930257661,16.0601146 C0.60659218,16.0601146 0.344803924,16.3224978 0.344803924,16.6455683 C0.344803924,16.9692338 0.60659218,17.231022 0.930257661,17.231022 L15.8569481,17.231022 C16.1806135,17.231022 16.4429968,16.9692338 16.4429968,16.6455683 C16.4429968,16.3224978 16.1806135,16.0601146 15.8569481,16.0601146 Z M4.95882194,15.2503559 L2.98708039,15.2503559 L2.98708039,13.2792093 L4.95822697,13.2792093 L4.95822697,15.2503559 L4.95882194,15.2503559 Z M4.95882194,12.4004337 L2.98708039,12.4004337 L2.98708039,10.4286922 L4.95822697,10.4286922 L4.95822697,12.4004337 L4.95882194,12.4004337 Z M10.0387041,16.0601146 L6.74909663,16.0601146 L6.74909663,12.1428103 C6.74909663,11.234881 7.48507862,10.4983041 8.39479281,10.4983041 C9.30212711,10.4983041 10.039299,11.234286 10.039299,12.1428103 L10.039299,16.0601146 L10.0387041,16.0601146 Z M13.8001253,15.2503559 L11.8289788,15.2503559 L11.8289788,13.2792093 L13.8001253,13.2792093 L13.8001253,15.2503559 Z M13.8001253,12.4004337 L11.8289788,12.4004337 L11.8289788,10.4286922 L13.8001253,10.4286922 L13.8001253,12.4004337 Z" id="Shape" fill="#65CE6B"></path>
                </g>
            </g>
        </g>
    </g>
</svg>