<?xml version="1.0" encoding="UTF-8"?>
<svg width="22px" height="32px" viewBox="0 0 22 32" version="1.1" xmlns="http://www.w3.org/2000/svg" xmlns:xlink="http://www.w3.org/1999/xlink">
    <!-- Generator: Sketch 60.1 (88133) - https://sketch.com -->
    <title>private_school_pin</title>
    <desc>Created with Sketch.</desc>
    <g id="Page-1" stroke="none" stroke-width="1" fill="none" fill-rule="evenodd">
        <g id="private_school_pin" transform="translate(0.199967, 1.048714)">
            <g id="Group-24-Copy-3" fill="#9D7BB0" stroke="#FFFFFF" stroke-width="0.5">
                <g id="Group-22-Copy">
                    <g id="Group-19-Copy-2">
                        <g id="Group-16-Copy">
                            <g id="Group-28">
                                <g id="Group-3">
                                    <path d="M19.5415477,5.6739196 C18.220794,3.08050251 16.2040101,1.32180905 13.3996884,0.508190955 C10.1182312,-0.629849246 6.26225126,0.185125628 3.55079397,2.53809045 C3.55034171,2.53839196 3.5500402,2.53854271 3.54973869,2.53884422 C2.97762814,3.01040201 2.49174874,3.57105528 2.1159196,4.07155779 C2.05094472,4.13819095 1.99923618,4.22110553 1.94722613,4.30190955 C1.49978894,4.92949749 1.24878392,5.41266332 1.24878392,5.41266332 L1.25526633,5.40934673 C0.62481407,6.55869347 0.220643216,7.79668342 0.0647638191,9.13085427 C-0.025839196,10.0778894 -0.0186030151,11.0249246 0.0688341709,11.9716583 C0.204060302,13.151005 0.477226131,14.291005 1.01978894,15.3548744 C1.14129648,15.6257789 1.24667337,15.9058794 1.38777889,16.1663819 C2.56697487,18.3431156 4.17777889,20.2029648 5.72858291,22.1065327 C7.25466332,24.1887437 8.67265327,26.3276382 9.33114573,28.8777889 C9.46064322,29.3790452 9.69536683,29.8564824 10.2997387,29.8738191 C10.9422513,29.8923618 11.2137588,29.4082915 11.3545628,28.880201 C12.1559698,25.8767337 13.9211457,23.4345226 15.8102412,21.0566834 C17.1311457,19.3940201 18.5405427,17.7850251 19.4596884,15.8443719 C21.0554171,12.4750251 21.2658693,9.07824121 19.5415477,5.6739196" id="Fill-1"></path>
                                </g>
                            </g>
                        </g>
                    </g>
                </g>
            </g>
            <g id="private_school" transform="translate(3.019586, 2.708523)" fill="#FFFFFF" fill-rule="nonzero">
                <g id="Group-51">
                    <g id="Group-35" transform="translate(0.478005, 0.306245)">
                        <path d="M13.4741879,6.17467369 L12.1960736,4.28916727 C12.0626969,4.09342004 11.7594806,3.93221644 11.5219931,3.93221644 L9.18022292,3.93221644 L7.11911972,2.45691562 C7.11048382,2.45067857 7.10136814,2.44684039 7.09177268,2.44108312 L7.09177268,2.20503499 L9.53861307,2.20503499 L9.53861307,0.32336675 L7.09177268,0.32336675 C7.09177268,0.144891333 6.94688135,-2.83040029e-13 6.76792616,-2.83040029e-13 C6.58897097,-2.83040029e-13 6.44407964,0.144891333 6.44407964,0.32336675 L6.44407964,2.44060335 C6.43496396,2.44636062 6.42536851,2.45067857 6.4167326,2.45643584 L4.35610917,3.93173667 L2.01529853,3.93173667 C1.77781108,3.93173667 1.47459478,4.09294027 1.34169777,4.2886875 L0.0631037206,6.17419392 C-0.0702730693,6.37090069 0.0146466854,6.53210536 0.25309368,6.53210536 L4.05193333,6.53210536 L6.76936548,4.6322047 L9.55636466,6.53210536 L13.2851575,6.53210536 C13.5221652,6.53258407 13.6075647,6.37138047 13.4741879,6.17467369 Z" id="Path"></path>
                        <path d="M12.7866737,12.9505025 L12.4201275,12.9505025 L12.4201275,7.21146233 L9.17974315,7.21146233 L6.76888571,5.55000973 L4.35706872,7.21146233 L1.11668441,7.21146233 L1.11668441,12.9505025 L0.75013812,12.9505025 C0.489141812,12.9505025 0.278041857,13.1620822 0.278041857,13.4225987 C0.278041857,13.6835951 0.489141812,13.894695 0.75013812,13.894695 L12.7866737,13.894695 C13.0476701,13.894695 13.2592498,13.6835951 13.2592498,13.4225987 C13.2592498,13.1620822 13.0476701,12.9505025 12.7866737,12.9505025 Z M3.99867857,12.2975319 L2.40871209,12.2975319 L2.40871209,10.7080452 L3.99819879,10.7080452 L3.99819879,12.2975319 L3.99867857,12.2975319 Z M3.99867857,9.99942106 L2.40871209,9.99942106 L2.40871209,8.40945458 L3.99819879,8.40945458 L3.99819879,9.99942106 L3.99867857,9.99942106 Z M8.09497724,12.9505025 L5.4423144,12.9505025 L5.4423144,9.79167951 C5.4423144,9.05954649 6.03579314,8.46558798 6.76936548,8.46558798 C7.50101873,8.46558798 8.09545702,9.05906671 8.09545702,9.79167951 L8.09545702,12.9505025 L8.09497724,12.9505025 Z M11.1280998,12.2975319 L9.53861307,12.2975319 L9.53861307,10.7080452 L11.1280998,10.7080452 L11.1280998,12.2975319 Z M11.1280998,9.99942106 L9.53861307,9.99942106 L9.53861307,8.40945458 L11.1280998,8.40945458 L11.1280998,9.99942106 Z" id="Shape"></path>
                    </g>
                </g>
            </g>
        </g>
    </g>
</svg>