<?xml version="1.0" encoding="UTF-8"?>
<svg width="26px" height="26px" viewBox="0 0 26 26" version="1.1" xmlns="http://www.w3.org/2000/svg" xmlns:xlink="http://www.w3.org/1999/xlink">
    <!-- Generator: Sketch 60.1 (88133) - https://sketch.com -->
    <title>projects</title>
    <desc>Created with Sketch.</desc>
    <g id="Page-1" stroke="none" stroke-width="1" fill="none" fill-rule="evenodd">
        <g id="projects">
            <g id="Group-6">
                <rect id="Rectangle" fill="#D4F7D6" x="-4.54747351e-13" y="0" width="25.7102686" height="25.7102686" rx="4"></rect>
                <g id="project" transform="translate(4.308180, 4.783010)" fill-rule="nonzero">
                    <path d="M6.73876376,15.2863386 C6.73876376,15.7464747 7.11170049,16.1195471 7.57197227,16.1195471 L8.68291697,16.1195471 C9.14305311,16.1195471 9.51612548,15.7464747 9.51612548,15.2863386 L9.51612548,13.6199215 L6.73876376,13.6199215 L6.73876376,15.2863386 Z" id="Path" fill="#A5A5A5"></path>
                    <path d="M5.42995916,10.6083555 C5.18707561,10.4518577 4.95802464,10.2744754 4.7456541,10.0785141 C4.56433904,10.7757024 3.87908471,11.217802 3.16914873,11.09575 C2.45907715,10.9736979 1.96083366,10.3283139 2.02253772,9.61051239 C2.08424181,8.89271085 2.68541585,8.34184934 3.40592968,8.34293425 C3.44837666,8.34293425 3.48919627,8.35174911 3.52974468,8.35541068 C3.26651914,7.73660688 3.13077017,7.07115212 3.13090578,6.39878104 L2.77736173,6.39878104 L2.58546881,7.31159461 C2.56634733,7.40259115 2.50301588,7.47799222 2.41676578,7.512438 C2.33038007,7.54701942 2.23260285,7.53603471 2.15611691,7.48328112 L1.38868086,6.95425339 L0.555472345,7.7874619 L1.08314396,8.55476231 C1.13589755,8.63138389 1.14688222,8.72916111 1.11230081,8.81541121 C1.07785503,8.90179692 1.002454,8.96512837 0.911593026,8.98411424 L0,9.17614277 L0,10.2870875 L0.912677933,10.4789804 C1.00353891,10.4981019 1.07893994,10.5614333 1.11352135,10.6476834 C1.14796713,10.7339335 1.13698246,10.8318463 1.08422887,10.9083323 L0.555472345,11.6757683 L1.38868086,12.5089768 L2.15611691,11.9811696 C2.23260285,11.928416 2.33051568,11.9172957 2.41690142,11.9518771 C2.50328712,11.9863229 2.56661857,12.0618596 2.58574005,12.1528562 L2.77736173,13.0644492 L3.88830642,13.0644492 L4.07992809,12.1515 C4.09904957,12.0603678 4.16238102,11.9849668 4.24876673,11.950521 C4.33515247,11.9159396 4.4330653,11.9269243 4.50955124,11.9798135 L5.27698728,12.5089768 L6.1488456,11.6371185 C6.05744221,11.2114282 5.79828506,10.8405256 5.42995916,10.6083555 Z" id="Path" fill="#8C9FBB"></path>
                    <path d="M13.1266965,6.39878104 C13.1264245,4.0018148 11.4248836,1.9422546 9.0710424,1.48984842 C6.71720122,1.03744223 4.37339542,2.3192598 3.48458544,4.54535316 C2.59577542,6.77144657 3.41189667,9.31514646 5.42995916,10.6083555 C5.89240072,10.8950422 6.17651073,11.3980321 6.18329141,11.942113 L6.18329141,13.0644492 C6.18329141,13.5245853 6.55622815,13.8976577 7.01649993,13.8976577 L9.23838931,13.8976577 C9.69852545,13.8976577 10.0715978,13.5245853 10.0715978,13.0644492 L10.0715978,11.9651673 C10.0786497,11.4082032 10.3684555,10.8931436 10.8409324,10.5980489 C12.2667714,9.67750537 13.127645,8.09598232 13.1266965,6.39878104 L13.1266965,6.39878104 Z" id="Path" fill="#FFB41F"></path>
                    <path d="M14.8466801,3.46058188 L15.7198945,2.80570491 L14.7200172,1.47248991 L13.8468027,2.12736687 C13.667115,2.26203094 13.4239602,2.27518543 13.2307112,2.16072774 C13.0374621,2.04627006 12.9322261,1.82671205 12.963824,1.60444174 L13.1180165,0.524281254 L11.4682799,0.288585242 L11.3140875,1.36861009 C11.2824896,1.59115161 11.1198891,1.77260231 10.9022297,1.82833938 C10.6845702,1.88421212 10.4547056,1.80338652 10.3199059,1.62356321 L9.66516458,0.750348743 L8.33208518,1.75022608 L8.9866909,2.62344055 C9.12135497,2.80326389 9.13450946,3.04628304 9.02005177,3.23953208 C8.90559409,3.43278111 8.68603605,3.53801709 8.46376577,3.50641918 L7.38360532,3.35222679 L7.14777367,5.00196338 L8.22820532,5.15615576 C8.45061124,5.18788931 8.63206194,5.35048974 8.68779905,5.56814919 C8.74353611,5.78580863 8.66271058,6.01567329 8.48288724,6.15047296 L7.60994402,6.80534993 L8.60982135,8.13842929 L9.48276458,7.48382357 C9.66245228,7.3490239 9.90574267,7.33573377 10.0991274,7.45019145 C10.2923764,7.56464914 10.397748,7.78434279 10.3660145,8.00674871 L10.2104659,9.08663795 L11.8602025,9.3224696 L12.015751,8.24203791 C12.0474845,8.01963199 12.210085,7.83831692 12.4277444,7.78257982 C12.6454039,7.72670712 12.8752685,7.80766829 13.0099326,7.98735599 L13.6649452,8.86029925 L14.9980245,7.86042188 L14.3428764,6.98747865 C14.2080767,6.80779095 14.1947866,6.56450059 14.3092443,6.37111591 C14.423702,6.17786688 14.6433956,6.07249527 14.8658015,6.10436442 L15.945962,6.25869244 L16.1817936,4.60895582 L15.1016332,4.45462783 C14.8793629,4.42275868 14.6980478,4.26029389 14.6421751,4.04263441 C14.586438,3.82511061 14.6671279,3.59538155 14.8466801,3.46058188 L14.8466801,3.46058188 Z M11.6649193,6.74947719 C10.5911326,6.74947719 9.72076604,5.87911062 9.72076604,4.80532398 C9.72076604,3.73167297 10.5911326,2.86117077 11.6649193,2.86117077 C12.7387059,2.86117077 13.6090725,3.73167297 13.6090725,4.80532398 C13.6090725,5.87911062 12.7387059,6.74947719 11.6649193,6.74947719 Z" id="Shape" fill="#1C73EB"></path>
                    <polygon id="Path" fill="#FFFFFF" points="6.73876376 14.45313 9.51612548 14.45313 9.51612548 15.0086024 6.73876376 15.0086024"></polygon>
                    <g id="Group" transform="translate(0.034717, 0.000000)">
                        <polygon id="Path" fill="#FFCD68" points="7.81499143 12.2312407 8.37046377 12.2312407 8.37046377 13.0644492 7.81499143 13.0644492"></polygon>
                        <path d="M8.37046435,11.6757683 L7.81499143,11.6757683 C7.81472018,10.9414219 7.36190718,10.2831547 6.676246,10.020336 C5.30939888,9.48588369 4.35983408,8.22739166 4.22123724,6.76629328 C4.08264036,5.30519486 4.77847255,3.89061184 6.02041973,3.10866519 L6.3151076,3.57856549 C5.25027146,4.24863112 4.65343701,5.46128585 4.77223435,6.7139465 C4.89089602,7.96647155 5.70484746,9.04541148 6.87668254,9.50351345 C7.77688404,9.84783576 8.37114183,10.7119641 8.37046435,11.6757683 L8.37046435,11.6757683 Z" id="Path" fill="#FFCD68"></path>
                        <path d="M13.6474511,10.2870875 L15.0361319,10.2870875 C15.1895106,10.2870875 15.3138681,10.4113093 15.3138681,10.5648236 C15.3138681,10.7182024 15.1895106,10.8425598 15.0361319,10.8425598 L13.6474511,10.8425598 C13.4940723,10.8425598 13.3697149,10.7182024 13.3697149,10.5648236 C13.3697149,10.4113093 13.4940723,10.2870875 13.6474511,10.2870875 Z" id="Path" fill="#FFAA00"></path>
                        <path d="M13.0919787,11.9536401 C13.1901628,11.8357921 13.3652396,11.8197897 13.4830877,11.9179738 L14.722865,12.9509408 C14.840713,13.0491249 14.8567154,13.2242017 14.7585313,13.3420498 C14.6602117,13.4598978 14.4851348,13.4759001 14.3672868,13.3777161 L13.1275094,12.344749 C13.0096614,12.246565 12.9937946,12.0714881 13.0919787,11.9536401 L13.0919787,11.9536401 Z" id="Path" fill="#FFAA00"></path>
                        <path d="M11.981034,12.5089768 C12.1344127,12.5089768 12.2587702,12.6331987 12.2587702,12.786713 L12.2587702,14.1753939 C12.2587702,14.3287726 12.1344127,14.45313 11.981034,14.45313 C11.8276553,14.45313 11.7032978,14.3287726 11.7032978,14.1753939 L11.7032978,12.786713 C11.7032978,12.6331987 11.8276553,12.5089768 11.981034,12.5089768 Z" id="Path" fill="#FFAA00"></path>
                        <path d="M0.240578128,4.67296533 L1.92353998,4.25256393 C2.07244344,4.21540585 2.22310989,4.30585998 2.26026797,4.45462783 C2.29742602,4.60339569 2.20697189,4.75406214 2.05806844,4.79122019 L0.375106586,5.21162166 C0.226203094,5.2487797 0.0755366359,5.15832558 0.0383785911,5.00955772 C0.00122051161,4.86078987 0.0916746351,4.71012341 0.240578128,4.67296533 Z" id="Path" fill="#FFAA00"></path>
                        <path d="M0.593715297,1.67740171 C0.682813304,1.55263741 0.856262773,1.52388738 0.981027069,1.61298539 L2.47304533,2.6787708 C2.59794524,2.76786877 2.62683087,2.94131828 2.5377329,3.06608257 C2.44863493,3.19084687 2.27518543,3.21973254 2.15042113,3.13049893 L0.658402898,2.06471348 C0.533502997,1.97561551 0.504617325,1.80216601 0.593715297,1.67740171 Z" id="Path" fill="#FFAA00"></path>
                        <path d="M3.08113567,0.0105778599 C3.22976791,-0.0273938825 3.38097683,0.0622465435 3.41894857,0.210878792 L3.84938537,1.8945187 C3.88735712,2.04315095 3.79771669,2.1944955 3.64908444,2.23246724 C3.50045219,2.27043898 3.34924328,2.18066292 3.31127154,2.03216627 L2.88083473,0.348526332 C2.84286299,0.199894083 2.93250342,0.0485496022 3.08113567,0.0105778599 Z" id="Path" fill="#FFAA00"></path>
                    </g>
                </g>
            </g>
        </g>
    </g>
</svg>