<?xml version="1.0" encoding="UTF-8"?>
<svg width="27px" height="38px" viewBox="0 0 27 38" version="1.1" xmlns="http://www.w3.org/2000/svg" xmlns:xlink="http://www.w3.org/1999/xlink">
    <!-- Generator: Sketch 60.1 (88133) - https://sketch.com -->
    <title>public_hospital_pin</title>
    <desc>Created with Sketch.</desc>
    <g id="Page-1" stroke="none" stroke-width="1" fill="none" fill-rule="evenodd">
        <g id="public_hospital_pin" transform="translate(0.000000, 0.598409)" fill-rule="nonzero">
            <path d="M13.5,0 C6.04415588,0 0,5.79791249 0,12.95 C0,22.6492857 13.5,37 13.5,37 C13.5,37 27,22.6492857 27,12.95 C27,5.79791249 20.9558441,0 13.5,0 L13.5,0 Z" id="Path" fill="#F44336"></path>
            <g id="Group-28" transform="translate(7.000000, 7.000000)" fill="#FFFFFF">
                <g id="Group-22" transform="translate(0.000000, 0.425595)">
                    <path d="M12.7695312,2.275 L1.23046875,2.275 C0.551988281,2.275 0,2.799862 0,3.445 L0,10.205 C0,10.850138 0.551988281,11.375 1.23046875,11.375 L12.7695312,11.375 C13.4480117,11.375 14,10.850138 14,10.205 L14,3.445 C14,2.799862 13.4480117,2.275 12.7695312,2.275 Z M10.1445313,7.605 C10.1445313,7.820384 9.96089063,7.995 9.734375,7.995 L8.23046875,7.995 L8.23046875,9.425 C8.23046875,9.640384 8.04682813,9.815 7.8203125,9.815 L6.1796875,9.815 C5.95317188,9.815 5.76953125,9.640384 5.76953125,9.425 L5.76953125,7.995 L4.265625,7.995 C4.03910938,7.995 3.85546875,7.820384 3.85546875,7.605 L3.85546875,6.045 C3.85546875,5.829616 4.03910938,5.655 4.265625,5.655 L5.76953125,5.655 L5.76953125,4.225 C5.76953125,4.009616 5.95317188,3.835 6.1796875,3.835 L7.8203125,3.835 C8.04682813,3.835 8.23046875,4.009616 8.23046875,4.225 L8.23046875,5.655 L9.734375,5.655 C9.96089063,5.655 10.1445313,5.829616 10.1445313,6.045 L10.1445313,7.605 Z" id="Shape"></path>
                    <path d="M11.2424242,0 L2.75757576,0 C2.52328081,0 2.33333333,0.299586275 2.33333333,0.669117647 L2.33333333,2.275 L3.18181818,2.275 L3.18181818,1.33823529 L10.8181818,1.33823529 L10.8181818,2.275 L11.6666667,2.275 L11.6666667,0.669117647 C11.6666667,0.299586275 11.4767192,0 11.2424242,0 Z" id="Path"></path>
                </g>
            </g>
        </g>
    </g>
</svg>