<?xml version="1.0" encoding="UTF-8"?>
<svg width="16px" height="16px" viewBox="0 0 16 16" version="1.1" xmlns="http://www.w3.org/2000/svg" xmlns:xlink="http://www.w3.org/1999/xlink">
    <!-- Generator: Sketch 60.1 (88133) - https://sketch.com -->
    <title>public_hospital_disabled</title>
    <desc>Created with Sketch.</desc>
    <g id="Page-1" stroke="none" stroke-width="1" fill="none" fill-rule="evenodd">
        <g id="public_hospital_disabled" transform="translate(0.142857, 0.000000)">
            <circle id="Oval" fill="#B4B4B4" cx="7.5" cy="8" r="7.5"></circle>
            <g id="Group-6" transform="translate(4.000000, 5.000000)" fill="#FFFFFF" fill-rule="nonzero">
                <path d="M6.38476562,1 L0.615234375,1 C0.275994141,1 0,1.28838571 0,1.64285714 L0,5.35714286 C0,5.71161429 0.275994141,6 0.615234375,6 L6.38476562,6 C6.72400586,6 7,5.71161429 7,5.35714286 L7,1.64285714 C7,1.28838571 6.72400586,1 6.38476562,1 Z M5.07226563,3.92857143 C5.07226563,4.04691429 4.98044531,4.14285714 4.8671875,4.14285714 L4.11523438,4.14285714 L4.11523438,4.92857143 C4.11523438,5.04691429 4.02341406,5.14285714 3.91015625,5.14285714 L3.08984375,5.14285714 C2.97658594,5.14285714 2.88476563,5.04691429 2.88476563,4.92857143 L2.88476563,4.14285714 L2.1328125,4.14285714 C2.01955469,4.14285714 1.92773438,4.04691429 1.92773438,3.92857143 L1.92773438,3.07142857 C1.92773438,2.95308571 2.01955469,2.85714286 2.1328125,2.85714286 L2.88476563,2.85714286 L2.88476563,2.07142857 C2.88476563,1.95308571 2.97658594,1.85714286 3.08984375,1.85714286 L3.91015625,1.85714286 C4.02341406,1.85714286 4.11523438,1.95308571 4.11523438,2.07142857 L4.11523438,2.85714286 L4.8671875,2.85714286 C4.98044531,2.85714286 5.07226563,2.95308571 5.07226563,3.07142857 L5.07226563,3.92857143 Z" id="Shape"></path>
                <path d="M5.77272727,0 L1.22727273,0 C1.10175758,0 1,0.131686275 1,0.294117647 L1,1 L1.45454545,1 L1.45454545,0.588235294 L5.54545455,0.588235294 L5.54545455,1 L6,1 L6,0.294117647 C6,0.131686275 5.89824242,0 5.77272727,0 Z" id="Path"></path>
            </g>
        </g>
    </g>
</svg>