<?xml version="1.0" encoding="UTF-8"?>
<svg width="30px" height="30px" viewBox="0 0 30 30" version="1.1" xmlns="http://www.w3.org/2000/svg" xmlns:xlink="http://www.w3.org/1999/xlink">
    <!-- Generator: Sketch 60.1 (88133) - https://sketch.com -->
    <title>restaurants</title>
    <desc>Created with Sketch.</desc>
    <g id="Page-1" stroke="none" stroke-width="1" fill="none" fill-rule="evenodd">
        <g id="restaurants">
            <g>
                <circle id="Oval" fill="#D4F7D6" cx="15" cy="15" r="15"></circle>
                <path d="M21.6397496,19.903429 L16.1461738,14.4137412 L9.72785821,8 L9.22626312,8 L9.12384261,8.26006605 C8.85352141,8.94650261 8.73802128,9.64857977 8.78987457,10.2903094 C8.84897912,11.0218084 9.12707147,11.6551161 9.59413418,12.1218459 L14.6046124,17.1287531 L15.2654888,16.4683478 L19.8976705,21.6443211 C20.3584671,22.1047893 21.1515898,22.132133 21.6397496,21.6443211 C22.1200835,21.1643296 22.1200835,20.3833932 21.6397496,19.903429 Z" id="Path" fill="#FFB41F" fill-rule="nonzero"></path>
                <path d="M12.4235381,15.7777778 L8.37190774,19.8312793 C7.87603075,20.3273853 7.87603075,21.1346599 8.37190774,21.630766 C8.84297958,22.1020554 9.65790505,22.1436613 10.1705637,21.630766 L14.2222222,17.5772361 L12.4235381,15.7777778 Z" id="Path" fill="#1C73EB" fill-rule="nonzero"></path>
                <path d="M21.4430959,10.2275116 L19.3083973,12.3621839 L18.7514931,11.805306 L20.8861917,9.67060744 L20.3293138,9.11372955 L18.1946415,11.2484019 L17.6377636,10.691524 L19.7724622,8.55685165 L19.2156105,8 L16.4312211,10.7843895 C16.0905919,11.1250186 15.8872011,11.5773015 15.8584414,12.0579767 C15.8511727,12.1797593 15.8235676,12.2995476 15.7777778,12.4134843 L17.5865157,14.2222222 C17.7004524,14.1763799 17.8202669,14.148801 17.9420233,14.1415324 C18.4226985,14.1128514 18.8749814,13.9094081 19.2156105,13.5687789 L22,10.7844157 L21.4430959,10.2275116 Z" id="Path" fill="#1C73EB" fill-rule="nonzero"></path>
            </g>
        </g>
    </g>
</svg>