<?xml version="1.0" encoding="UTF-8"?>
<svg width="22px" height="32px" viewBox="0 0 22 32" version="1.1" xmlns="http://www.w3.org/2000/svg" xmlns:xlink="http://www.w3.org/1999/xlink">
    <!-- Generator: Sketch 60.1 (88133) - https://sketch.com -->
    <title>restaurants_pin</title>
    <desc>Created with Sketch.</desc>
    <g id="Page-1" stroke="none" stroke-width="1" fill="none" fill-rule="evenodd">
        <g id="restaurants_pin" transform="translate(0.199967, 1.000000)">
            <g id="Group-37-Copy" fill="#4DB546" stroke="#FFFFFF" stroke-width="0.5">
                <path d="M19.5415811,5.6738617 C18.2208273,3.08044461 16.2040434,1.32175115 13.3997218,0.508133056 C10.1182645,-0.629907145 6.26228458,0.18506773 3.55082729,2.53803255 C3.55037503,2.53833406 3.55007353,2.53848482 3.54977202,2.53878632 C2.97766147,3.01034411 2.49178207,3.57099738 2.11595292,4.07149989 C2.05097805,4.13813306 1.99926951,4.22104763 1.94725946,4.30185165 C1.49982227,4.92943959 1.24881724,5.41260542 1.24881724,5.41260542 L1.25529966,5.40928884 C0.624847395,6.55863557 0.220676541,7.79662552 0.0647971441,9.13079637 C-0.025805871,10.0778315 -0.0185696901,11.0248667 0.0688674959,11.9716004 C0.204093627,13.1509471 0.477259456,14.2909471 1.01982227,15.3548165 C1.14132981,15.625721 1.24670669,15.9058215 1.38781222,16.166324 C2.5670082,18.3430577 4.17781222,20.2029069 5.72861624,22.1064748 C7.25469664,24.1886858 8.67268659,26.3275803 9.33117905,28.877731 C9.46067654,29.3789873 9.69540016,29.8564245 10.299772,29.8737612 C10.9422846,29.8923039 11.2137921,29.4082336 11.3545961,28.8801431 C12.1560032,25.8766758 13.9211791,23.4344647 15.8102745,21.0566255 C17.1311791,19.3939622 18.540576,17.7849672 19.4597218,15.844314 C21.0554504,12.4749672 21.2659027,9.07818331 19.5415811,5.6738617" id="Fill-1"></path>
            </g>
            <g id="restaurants" transform="translate(3.544899, 4.225762)" fill="#FFFFFF" fill-rule="nonzero">
                <g id="Path">
                    <path d="M12.3991462,10.9140767 L7.70050824,6.21876411 L2.21094322,0.733111571 L1.78193053,0.733111571 L1.69433059,0.95554524 C1.46312573,1.54265225 1.36433884,2.14313663 1.40868879,2.69200591 C1.45924072,3.31765469 1.69709223,3.85932078 2.09656948,4.25851332 L6.38201564,8.54090519 L6.9472611,7.97606259 L10.9091515,12.4030562 C11.3032693,12.7968931 11.9816247,12.8202801 12.3991462,12.4030562 C12.8099742,11.992521 12.8099742,11.3245885 12.3991462,10.9140767 Z"></path>
                    <path d="M4.51654966,7.38542027 L1.05120309,10.8523673 C0.627081066,11.2766852 0.627081066,11.9671446 1.05120309,12.3914625 C1.45410934,12.7945549 2.15111251,12.8301403 2.5895878,12.3914625 L6.05495853,8.92449131 L4.51654966,7.38542027 Z"></path>
                    <path d="M12.2309489,2.63829517 L10.4051479,4.46407367 L9.9288296,3.98777777 L11.7546305,2.16197683 L11.2783347,1.68568093 L9.45255615,3.51145943 L8.97626025,3.03516353 L10.8020612,1.20938503 L10.3257877,0.733111571 L7.94430824,3.11459107 C7.6529692,3.40593011 7.47900966,3.79276622 7.45441158,4.20388621 C7.44819474,4.30804648 7.42458418,4.41050104 7.38542027,4.50795071 L8.9324281,6.05495853 C9.02987776,6.01574974 9.13235477,5.99216163 9.2364926,5.98594478 C9.64761258,5.96141404 10.0344487,5.7874096 10.3257877,5.49607056 L12.7072672,3.11461351 L12.2309489,2.63829517 Z"></path>
                </g>
            </g>
        </g>
    </g>
</svg>