<?xml version="1.0" encoding="UTF-8"?>
<svg width="16px" height="16px" viewBox="0 0 16 16" version="1.1" xmlns="http://www.w3.org/2000/svg" xmlns:xlink="http://www.w3.org/1999/xlink">
    <title>rightofway__icon</title>
    <g id="Page-1" stroke="none" stroke-width="1" fill="none" fill-rule="evenodd">
        <path d="M12.2850694,2.36205563 C13.1738194,2.36205563 13.9088194,3.02768063 13.9944444,3.91018063 L14.9950694,13.7514306 C15.0438194,14.2339306 14.8856944,14.7164306 14.5613194,15.0764306 C14.2356944,15.4364306 13.7700694,15.6433056 13.2850694,15.6433056 L1.98506944,15.6433056 C1.50006944,15.6433056 1.03444444,15.4364306 0.708819444,15.0758056 C0.383819444,14.7158056 0.226319444,14.2333056 0.275069444,13.7514306 L1.27506944,3.90893063 C1.36131944,3.02768063 2.09631944,2.36205563 2.98506944,2.36205563 C3.24381944,2.36205563 3.45381944,2.57205563 3.45381944,2.83080563 C3.45381944,3.08955563 3.24381944,3.29955563 2.98506944,3.29955563 C2.58131944,3.29955563 2.24694444,3.60080563 2.20819444,4.00143063 L1.72236235,8.77430563 L5.57194444,8.76830563 L5.57256944,8.76830563 C5.83131944,8.76830563 6.04069444,8.97768063 6.04132084,9.23643063 C6.04194444,9.49518063 5.83194444,9.70580563 5.57319444,9.70580563 L1.62736235,9.71130563 L1.20756944,13.8476806 C1.18506944,14.0689306 1.25506944,14.2820556 1.40444444,14.4476806 C1.55506944,14.6139306 1.76131944,14.7058056 1.98506944,14.7058056 L5.32636235,14.7053056 L9.31256944,8.97018063 C9.40006944,8.84393063 9.54381944,8.76830563 9.69694444,8.76830563 L13.5453623,8.76230563 L13.0625694,4.00268063 C13.0231944,3.60080563 12.6894444,3.29955563 12.2850694,3.29955563 C12.0263194,3.29955563 11.8163194,3.08955563 11.8163194,2.83080563 C11.8163194,2.57205563 12.0263194,2.36205563 12.2850694,2.36205563 Z M13.6413623,9.69930563 L9.94256944,9.70580563 L6.46836235,14.7053056 L13.2850694,14.7058056 C13.5088194,14.7058056 13.7150694,14.6139306 13.8656944,14.4476806 C14.0150694,14.2820556 14.0856944,14.0689306 14.0625694,13.8470556 L13.6413623,9.69930563 Z M7.63506944,0.643305634 C9.35819444,0.643305634 10.7600694,2.06268063 10.7600694,3.80768063 C10.7600694,6.21580563 8.05506944,8.55768063 7.93944444,8.65580563 C7.85256944,8.73080563 7.74381944,8.76830563 7.63506944,8.76830563 C7.52631944,8.76830563 7.41756944,8.73080563 7.33069444,8.65580563 C7.21506944,8.55705563 4.51006944,6.21518063 4.51006944,3.80768063 C4.51006944,2.06268063 5.91194444,0.643305634 7.63506944,0.643305634 Z M7.63506944,1.58080563 C6.42881944,1.58080563 5.44756944,2.57955563 5.44756944,3.80768063 C5.44756944,5.35893063 6.97006944,7.01143063 7.63506944,7.66018063 C8.30006944,7.01205563 9.82256944,5.35893063 9.82256944,3.80768063 C9.82256944,2.57955563 8.84131944,1.58080563 7.63506944,1.58080563 Z M7.63506944,2.98933351 C8.06467257,2.98933351 8.41404156,3.33870251 8.41404156,3.76830563 C8.41404156,4.19790876 8.06467257,4.54727775 7.63506944,4.54727775 C7.20546632,4.54727775 6.85609732,4.19790876 6.85609732,3.76830563 C6.85609732,3.33870251 7.20546632,2.98933351 7.63506944,2.98933351 Z M7.63506944,3.5735626 C7.52796078,3.5735626 7.44032641,3.66080748 7.44032641,3.76830563 C7.44032641,3.87580379 7.52796078,3.96304866 7.63506944,3.96304866 C7.74217811,3.96304866 7.82981247,3.87580379 7.82981247,3.76830563 C7.82981247,3.66080748 7.74217811,3.5735626 7.63506944,3.5735626 Z" id="rightofway__icon" stroke="#555B63" stroke-width="0.3" fill="#555B63" fill-rule="nonzero"></path>
    </g>
</svg>