<?xml version="1.0" encoding="UTF-8"?>
<svg width="13px" height="14px" viewBox="0 0 13 14" version="1.1" xmlns="http://www.w3.org/2000/svg" xmlns:xlink="http://www.w3.org/1999/xlink">
    <!-- Generator: Sketch 60.1 (88133) - https://sketch.com -->
    <title>search</title>
    <desc>Created with Sketch.</desc>
    <g id="Page-1" stroke="none" stroke-width="1" fill="none" fill-rule="evenodd">
        <g id="search" fill="#727677" fill-rule="nonzero">
            <path d="M12.8175442,12.8781181 L10.3975737,10.3251539 C11.3286842,9.19138148 11.8368563,7.75875659 11.8368563,6.24368577 C11.8368563,4.57593488 11.2212285,3.00801574 10.1033841,1.82872214 C8.98553964,0.64946068 7.49928422,-2.39808173e-14 5.91839766,-2.39808173e-14 C4.33752634,-2.39808173e-14 2.85128615,0.64946068 1.73345695,1.82873822 C0.615612543,3.00801572 1.94511074e-13,4.57595094 1.94511074e-13,6.24368577 C1.94511074e-13,7.9114206 0.61562777,9.4793558 1.73347219,10.6586494 C2.85130138,11.8379269 4.33755681,12.4873876 5.9184129,12.4873876 C7.22448385,12.4873876 8.46573103,12.0437124 9.48824369,11.2246036 L11.9365898,13.8075029 C12.0582258,13.9358236 12.2176502,14 12.3770746,14 C12.536499,14 12.6959235,13.9358236 12.8175594,13.8075029 C13.0608161,13.5508455 13.0608161,13.1347594 12.8175442,12.8781181 Z M1.24586222,6.24368577 C1.24586222,3.5256368 3.34195758,1.31434683 5.91839766,1.31434683 C8.49485298,1.31434683 10.5909636,3.52563682 10.5909636,6.24368577 C10.5909636,8.96173472 8.49485298,11.1730086 5.91839766,11.1730086 C3.34195758,11.1730086 1.24586222,8.96173472 1.24586222,6.24368577 Z"></path>
        </g>
    </g>
</svg>