<?xml version="1.0" encoding="UTF-8"?>
<svg width="26px" height="26px" viewBox="0 0 26 26" version="1.1" xmlns="http://www.w3.org/2000/svg" xmlns:xlink="http://www.w3.org/1999/xlink">
    <!-- Generator: Sketch 60.1 (88133) - https://sketch.com -->
    <title>sustainability</title>
    <desc>Created with Sketch.</desc>
    <g id="Page-1" stroke="none" stroke-width="1" fill="none" fill-rule="evenodd">
        <g id="sustainability">
            <rect id="Rectangle-Copy-3" fill="#D4F7D6" x="0" y="0" width="26" height="26" rx="4"></rect>
            <g id="global" transform="translate(4.573159, 4.607595)" fill-rule="nonzero">
                <path d="M15.1063291,6.99367089 C15.1063291,10.7016824 12.1004166,13.7075949 8.39240506,13.7075949 C4.68439356,13.7075949 1.67848101,10.7016824 1.67848101,6.99367089 C1.67848101,3.28565938 4.68439356,0.279746835 8.39240506,0.279746835 C12.1004166,0.279746835 15.1063291,3.28565938 15.1063291,6.99367089 Z" id="Path" fill="#65CE6B"></path>
                <path d="M11.8332365,1.22894642 C14.3493189,3.56513301 14.6973633,7.42312599 12.640104,10.1718299 C10.5828446,12.9205338 6.78331438,13.6744023 3.83258627,11.9191548 C5.71500384,13.6670262 8.42969553,14.1877268 10.8251644,13.2601093 C13.2206333,12.3326283 14.8769859,10.1196505 15.0914403,7.55972112 C15.3058946,4.9999283 14.0410237,2.54217206 11.8332365,1.22894642 L11.8332365,1.22894642 Z" id="Path" fill="#45A64B"></path>
                <path d="M10.4267164,7.36766835 L9.73513525,6.87360375 C9.58829547,6.76883528 9.41768813,6.70217685 9.23861193,6.67977528 L7.79794304,6.49960629 C7.46683643,6.45835455 7.17315688,6.26712136 7.0014568,5.98095454 L6.74192604,5.54658205 C6.55082948,5.22817878 6.535804,4.83423841 6.70190368,4.50231222 L6.9928513,3.92014377 C7.04926511,3.80731618 7.16277568,3.73410118 7.28885296,3.72932038 C7.41479369,3.72453954 7.53349486,3.78873924 7.59851414,3.89692258 C7.67432445,4.02327311 7.82198378,4.08760939 7.96622824,4.0571487 C8.11047271,4.02682456 8.21961223,3.90825999 8.23805258,3.76210321 L8.37560385,2.66210257 C8.38735105,2.5662128 8.38653146,2.46923024 8.37314516,2.37361364 L8.14762658,0.79621303 C8.12536157,0.640357991 8.13724535,0.48149784 8.18232176,0.330696812 L8.19625445,0.284800847 C5.87413716,0.351595894 3.75185857,1.6148277 2.58601909,3.62414211 L2.6901046,4.4555967 C2.75280174,4.95840338 3.1550744,5.35097782 3.65938367,5.40138141 L5.03790173,5.53920589 C5.38744869,5.57417425 5.69847584,5.77592525 5.87277119,6.08080559 L6.57213828,7.30278568 C6.66543277,7.46697302 6.71433384,7.6527424 6.71392405,7.84151689 L6.71392405,8.67857188 C6.71406064,9.0260699 6.88043353,9.35253225 7.1615463,9.55674199 L9.11977415,10.9817024 C9.27016538,11.0911151 9.46508665,11.1187074 9.63992842,11.0551906 C9.81477019,10.9916739 9.94658449,10.8455171 9.9916609,10.6650749 L10.2770081,9.52341278 C10.324953,9.33286256 10.4237113,9.15884037 10.5626286,9.01992309 C10.7886935,8.79426797 10.9039798,8.48050892 10.8777535,8.16224227 C10.8515273,7.84397559 10.6865204,7.55330114 10.4267164,7.36766835 Z" id="Path" fill="#1577FF"></path>
                <path d="M4.20398845,9.70303539 L3.56540622,9.27726836 C3.43809952,9.19244276 3.28156151,9.16348459 3.13226304,9.19708701 C2.98296456,9.23068939 2.85401876,9.32398388 2.77533996,9.45511521 L2.41650453,10.0529921 C2.77697907,10.7557741 3.25834036,11.3895755 3.83845987,11.9255748 C4.30780075,11.8004537 4.66035282,11.4118405 4.73930479,10.9323916 C4.81812017,10.4530793 4.60871984,9.9719912 4.20398845,9.70303539 L4.20398845,9.70303539 Z" id="Path" fill="#1577FF"></path>
                <path d="M11.3420404,14.4315491 L14.09252,13.6980333 C14.33443,13.6335604 14.5927314,13.6851933 14.7912041,13.8377701 C14.9898135,13.9903469 15.1061925,14.2265199 15.1063296,14.4768987 C15.1067389,14.8472082 14.8551307,15.1701191 14.4958855,15.2601353 L11.7493671,15.9455696 L2.23797468,15.9455696 L2.23797468,13.1481013 L3.9164557,13.1481013 L5.20331845,12.780797 C5.64902838,12.6533537 6.11044676,12.5887442 6.57405063,12.5886076 C7.0376545,12.5887442 7.49907288,12.6533537 7.94478282,12.780797 L9.23164557,13.1481013 L10.6303797,13.1481013 C11.093847,13.1481013 11.4696203,13.5238745 11.4696203,13.9873418 C11.4696203,14.4508091 11.093847,14.8265823 10.6303797,14.8265823 L7.83291139,14.8265823" id="Path" fill="#FFC895"></path>
                <polygon id="Path" fill="#354468" points="0.279746835 12.3088608 2.51772152 12.3088608 2.51772152 16.5050633 0.279746835 16.5050633"></polygon>
                <path d="M12.5917493,1.75675002 L12.4949033,2.19207872 C12.3726507,2.74296689 12.3801634,3.31475414 12.5170317,3.86222744 L12.8504605,5.1966253 C13.0434694,5.968661 13.4846717,6.65600771 14.1061796,7.15307742 C14.3982199,7.3867917 14.6524235,7.66407981 14.8599115,7.97524351 L14.9997849,8.18396087 C15.4390749,5.76240233 14.5154185,3.29481123 12.5939348,1.75675002 L12.5917493,1.75675002 Z" id="Path" fill="#1577FF"></path>
                <path d="M1.93582625,15.5595518 C1.92967947,15.5416578 1.92121056,15.52472 1.91069274,15.5091482 L1.87709036,15.4672134 L1.83515564,15.4336111 C1.81958378,15.4230932 1.80264598,15.4146243 1.78475201,15.4084776 C1.76890701,15.4004184 1.75196918,15.3946815 1.734485,15.3916763 C1.67998357,15.3802023 1.62315999,15.3860759 1.57221002,15.4084776 C1.53833442,15.4226834 1.50705411,15.4424897 1.47987167,15.4672134 C1.4678513,15.4804632 1.45665051,15.4945325 1.44626928,15.5091482 C1.43575147,15.52472 1.42728255,15.5416578 1.42113578,15.5595518 C1.41307666,15.5753968 1.40733968,15.5923346 1.40433457,15.6098188 C1.40119287,15.6283957 1.39928056,15.6471093 1.39873418,15.6658228 C1.39914397,15.7024303 1.4067933,15.7384914 1.42113578,15.7720938 C1.44654249,15.8424403 1.50186351,15.8977613 1.57221002,15.923168 C1.6058124,15.9375105 1.64187352,15.9451598 1.67848101,15.9455696 C1.69719454,15.9450232 1.71590806,15.9431109 1.734485,15.9399692 C1.75196918,15.9369641 1.76890701,15.9312271 1.78475201,15.923168 C1.80264598,15.9170212 1.81958378,15.9085523 1.83515564,15.8980345 C1.84977133,15.8876533 1.8638406,15.8764525 1.87709036,15.8644321 C1.92817692,15.8107502 1.95713509,15.7398574 1.95822785,15.6658228 C1.95768147,15.6471093 1.95576915,15.6283957 1.95262746,15.6098188 C1.94962235,15.5923346 1.94388537,15.5753968 1.93582625,15.5595518 Z" id="Path" fill="#000000"></path>
            </g>
        </g>
    </g>
</svg>