<?xml version="1.0" encoding="UTF-8"?>
<svg width="20px" height="20px" viewBox="0 0 20 20" version="1.1" xmlns="http://www.w3.org/2000/svg" xmlns:xlink="http://www.w3.org/1999/xlink">
    <!-- Generator: Sketch 60.1 (88133) - https://sketch.com -->
    <title>target_oil_service</title>
    <desc>Created with Sketch.</desc>
    <g id="Page-1" stroke="none" stroke-width="1" fill="none" fill-rule="evenodd">
        <g id="target_oil_service">
            <circle id="Oval-Copy" fill="#ECEEEF" cx="10" cy="10" r="10"></circle>
            <path d="M9.79524411,16.0988915 C9.60826451,16.0741886 9.42028072,16.0557115 9.23450614,16.0233767 C8.99611217,15.9820042 8.75651317,15.9418367 8.5235418,15.8783721 C8.2967964,15.816715 8.07768281,15.726539 7.84651898,15.6454007 C10.1469104,11.6983436 12.4392683,7.7649435 14.7316262,3.83154335 C14.7406638,3.83576093 14.7497015,3.83997852 14.7587392,3.84399527 C13.2944338,7.29558653 11.8301285,10.7471778 10.344936,14.2471709 C10.5606354,14.2130285 10.7393807,14.1935473 10.9141092,14.155589 C12.4031175,13.8330442 13.5989033,12.5436682 13.8346864,11.0295552 C13.9393227,10.3569508 13.8760589,9.70543429 13.6348532,9.07359989 C13.5635559,8.88682112 13.5695811,8.73217633 13.6513219,8.55102102 C13.8861008,8.03125387 14.102001,7.50305155 14.3363782,6.95235545 C14.3839766,7.00678238 14.4219349,7.04574483 14.4542697,7.08872403 C15.2730837,8.17204087 15.6390095,9.39313216 15.5948252,10.7487845 C15.5136869,13.2387664 13.6151711,15.4795091 11.1639509,15.953887 C10.8930213,16.0065064 10.6158657,16.0273934 10.3417226,16.0647492 C10.2977392,16.0707743 10.2551617,16.0870421 10.2119817,16.0988915 L9.79524411,16.0988915 Z" id="Fill-1" fill="#29377B"></path>
            <path d="M4.90738438,13.350914 C5.0154349,13.5055588 5.11846447,13.6640195 5.23274095,13.8138441 C5.3791514,14.0062464 5.52536101,14.2002553 5.68904348,14.3779963 C5.84830752,14.5509173 6.02946284,14.7033529 6.20780644,14.871253 C8.65059153,11.0107568 11.0849415,7.16351587 13.5190905,3.3164758 C13.5112579,3.31045067 13.5034252,3.30442555 13.4955926,3.29799876 C11.1074352,6.18845037 8.71907708,9.07870116 6.29717908,12.0095211 C6.22829185,11.8026586 6.16322054,11.6349594 6.11622459,11.4624401 C5.71615653,9.99210957 6.30943016,8.33660703 7.54458006,7.42982624 C8.09326779,7.02694645 8.70060004,6.78272819 9.37240109,6.70560664 C9.5712301,6.68291201 9.70559031,6.60619213 9.82850278,6.45014148 C10.1817757,6.00227412 10.5509149,5.56705951 10.9317025,5.10533437 C10.8614094,5.08846403 10.8093926,5.07259787 10.7563715,5.06356019 C9.4175895,4.83621227 8.16516758,5.07440541 6.98243623,5.7383738 C4.81017909,6.95765755 3.6965358,9.67538902 4.40509009,12.0693706 C4.48341667,12.3342751 4.5926722,12.5897403 4.68565991,12.8502264 C4.70052188,12.8920006 4.70574365,12.937189 4.71518301,12.9809715 C4.77925013,13.1042857 4.84331726,13.2275998 4.90738438,13.350914" id="Fill-4" fill="#94C23D"></path>
        </g>
    </g>
</svg>