<?xml version="1.0" encoding="UTF-8"?>
<svg width="30px" height="31px" viewBox="0 0 30 31" version="1.1" xmlns="http://www.w3.org/2000/svg" xmlns:xlink="http://www.w3.org/1999/xlink">
    <!-- Generator: Sketch 60.1 (88133) - https://sketch.com -->
    <title>tourism_attractions</title>
    <desc>Created with Sketch.</desc>
    <g id="Page-1" stroke="none" stroke-width="1" fill="none" fill-rule="evenodd">
        <g id="tourism_attractions" transform="translate(0.000000, 0.500000)">
            <circle id="Oval" fill="#D4F29D" cx="15" cy="15" r="15"></circle>
            <g id="Group-45" transform="translate(3.695423, 8.405663)" fill-rule="nonzero">
                <path d="M13.5466568,8.86817223 L16.40961,8.86817223 L16.40961,10.6371515 L17.6432403,10.6371515 L17.6432403,8.86817223 L20.4829175,8.86817223 C21.1113706,8.86817223 21.4372352,8.12333886 21.0182665,7.65781801 L19.1794591,5.60952626 L19.691532,5.60952626 C20.1803289,5.60952626 20.4363654,5.0276252 20.1105008,4.67848456 L18.6441101,3.07243762 L19.0165268,3.07243762 C19.3889435,3.07243762 19.5751518,2.63019281 19.3191154,2.37415634 L17.3406517,0.139656256 C17.1777194,-0.0465520852 16.8751309,-0.0465520852 16.7121986,0.139656256 L14.7104589,2.3508803 C14.4776985,2.63019281 14.6639068,3.04916158 15.0130475,3.04916158 L15.3854642,3.04916158 L13.9190735,4.65520852 C13.5932089,5.0276252 13.8492453,5.58625022 14.3380422,5.58625022 L14.8501152,5.58625022 L13.0113078,7.63454197 C12.592339,8.12333886 12.9182036,8.86817223 13.5466568,8.86817223 Z" id="Path" fill="#FF641A"></path>
                <path d="M21.4837873,11.6612973 L12.7552713,11.6612973 L7.8673024,3.53795847 L8.58885972,2.3508803 C8.77506806,2.04829175 8.68196389,1.67587507 8.37937533,1.48966673 C8.07678678,1.30345839 7.7043701,1.39656256 7.51816176,1.69915111 L7.14574508,2.32760426 L6.77332839,1.69915111 C6.58712005,1.39656256 6.21470337,1.30345839 5.91211482,1.48966673 C5.60952626,1.67587507 5.51642209,2.04829175 5.70263043,2.3508803 L6.42418776,3.53795847 L1.51294277,11.6612973 L0.62845315,11.6612973 C0.279312511,11.6612973 1.10257487e-13,11.9406098 1.10257487e-13,12.2897505 C1.10257487e-13,12.6388911 0.279312511,12.9182036 0.62845315,12.9182036 L21.5070634,12.9182036 C21.856204,12.9182036 22.1355165,12.6388911 22.1355165,12.2897505 C22.1122405,11.9406098 21.832928,11.6612973 21.4837873,11.6612973 Z M5.00434916,11.6612973 L7.12246903,7.93713052 L9.24058891,11.6612973 L5.00434916,11.6612973 Z" id="Shape" fill="#4BB9EC"></path>
            </g>
        </g>
    </g>
</svg>