<?xml version="1.0" encoding="UTF-8"?>
<svg width="22px" height="32px" viewBox="0 0 22 32" version="1.1" xmlns="http://www.w3.org/2000/svg" xmlns:xlink="http://www.w3.org/1999/xlink">
    <!-- Generator: Sketch 60.1 (88133) - https://sketch.com -->
    <title>tourism_attractions_pin</title>
    <desc>Created with Sketch.</desc>
    <g id="Page-1" stroke="none" stroke-width="1" fill="none" fill-rule="evenodd">
        <g id="tourism_attractions_pin" transform="translate(0.199967, 1.000000)">
            <g id="Group-30-Copy" fill="#909CE1" stroke="#FFFFFF" stroke-width="0.5">
                <g id="Group-24-Copy-3">
                    <g id="Group-22-Copy">
                        <g id="Group-19-Copy-2">
                            <g id="Group-16-Copy">
                                <g id="Group-28">
                                    <g id="Group-3">
                                        <path d="M19.5415477,5.6739196 C18.220794,3.08050251 16.2040101,1.32180905 13.3996884,0.508190955 C10.1182312,-0.629849246 6.26225126,0.185125628 3.55079397,2.53809045 C3.55034171,2.53839196 3.5500402,2.53854271 3.54973869,2.53884422 C2.97762814,3.01040201 2.49174874,3.57105528 2.1159196,4.07155779 C2.05094472,4.13819095 1.99923618,4.22110553 1.94722613,4.30190955 C1.49978894,4.92949749 1.24878392,5.41266332 1.24878392,5.41266332 L1.25526633,5.40934673 C0.62481407,6.55869347 0.220643216,7.79668342 0.0647638191,9.13085427 C-0.025839196,10.0778894 -0.0186030151,11.0249246 0.0688341709,11.9716583 C0.204060302,13.151005 0.477226131,14.291005 1.01978894,15.3548744 C1.14129648,15.6257789 1.24667337,15.9058794 1.38777889,16.1663819 C2.56697487,18.3431156 4.17777889,20.2029648 5.72858291,22.1065327 C7.25466332,24.1887437 8.67265327,26.3276382 9.33114573,28.8777889 C9.46064322,29.3790452 9.69536683,29.8564824 10.2997387,29.8738191 C10.9422513,29.8923618 11.2137588,29.4082915 11.3545628,28.880201 C12.1559698,25.8767337 13.9211457,23.4345226 15.8102412,21.0566834 C17.1311457,19.3940201 18.5405427,17.7850251 19.4596884,15.8443719 C21.0554171,12.4750251 21.2658693,9.07824121 19.5415477,5.6739196" id="Fill-1"></path>
                                    </g>
                                </g>
                            </g>
                        </g>
                    </g>
                </g>
            </g>
            <g id="tourism_attractions" transform="translate(1.354671, 4.000000)" fill="#FFFFFF" fill-rule="nonzero">
                <g id="Group-45" transform="translate(0.623699, 0.939556)">
                    <path d="M10.0790102,6.59811494 L12.2091103,6.59811494 L12.2091103,7.91427435 L13.1269583,7.91427435 L13.1269583,6.59811494 L15.2397405,6.59811494 C15.7073235,6.59811494 15.9497739,6.04394256 15.6380519,5.69758482 L14.2699389,4.17361076 L14.6509324,4.17361076 C15.014608,4.17361076 15.2051048,3.74066359 14.9626543,3.48089528 L13.8716275,2.28596108 L14.1487137,2.28596108 C14.4257999,2.28596108 14.5643429,1.95692123 14.3738462,1.76642447 L12.9018258,0.103907322 C12.7806006,-0.034635774 12.5554681,-0.034635774 12.4342429,0.103907322 L10.9449046,1.74910658 C10.7717257,1.95692123 10.9102688,2.26864319 11.1700371,2.26864319 L11.4471233,2.26864319 L10.3560964,3.4635774 C10.113646,3.74066359 10.3041428,4.15629287 10.6678184,4.15629287 L11.0488119,4.15629287 L9.68069882,5.68026693 C9.36897686,6.04394256 9.61142727,6.59811494 10.0790102,6.59811494 Z" id="Path"></path>
                    <path d="M15.9844097,8.67626138 L9.49020206,8.67626138 L5.8534458,2.63231882 L6.3903003,1.74910658 C6.52884339,1.52397405 6.45957184,1.24688786 6.23443931,1.10834477 C6.00930678,0.969801671 5.73222059,1.03907322 5.59367749,1.26420575 L5.3165913,1.7317887 L5.03950511,1.26420575 C4.90096201,1.03907322 4.62387582,0.969801671 4.39874329,1.10834477 C4.17361076,1.24688786 4.10433921,1.52397405 4.24288231,1.74910658 L4.77973681,2.63231882 L1.12566265,8.67626138 L0.467582948,8.67626138 C0.207814644,8.67626138 1.18768192e-13,8.88407602 1.18768192e-13,9.14384432 C1.18768192e-13,9.40361263 0.207814644,9.61142727 0.467582948,9.61142727 L16.0017276,9.61142727 C16.2614959,9.61142727 16.4693105,9.40361263 16.4693105,9.14384432 C16.4519926,8.88407602 16.244178,8.67626138 15.9844097,8.67626138 Z M3.7233457,8.67626138 L5.29927342,5.90539946 L6.87520113,8.67626138 L3.7233457,8.67626138 Z" id="Shape"></path>
                </g>
            </g>
        </g>
    </g>
</svg>