<?xml version="1.0" encoding="UTF-8"?>
<svg width="30px" height="30px" viewBox="0 0 30 30" version="1.1" xmlns="http://www.w3.org/2000/svg" xmlns:xlink="http://www.w3.org/1999/xlink">
    <!-- Generator: Sketch 60.1 (88133) - https://sketch.com -->
    <title>travel_agencies</title>
    <desc>Created with Sketch.</desc>
    <g id="Page-1" stroke="none" stroke-width="1" fill="none" fill-rule="evenodd">
        <g id="travel_agencies">
            <g fill="#D4EFF7" id="Oval">
                <circle cx="15" cy="15" r="15"></circle>
            </g>
            <g id="Group-79" transform="translate(5.000000, 11.000000)">
                <path d="M4.40320873,0.0898186378 L10.4666625,1.87686976 L6.90920993,3.11117228 L3.30397155,0.692417855 C3.05458744,0.264377725 3.88369388,-0.199026506 4.40320873,0.0898186378 L4.40320873,0.0898186378 Z" id="Path" fill="#BC685B"></path>
                <path d="M-1.81188398e-13,3.22958798 L1.36107581,5.7564012 C0.781320706,6.18653891 0.768866247,6.73512509 1.72055092,6.72886509 C2.6722683,6.72263786 6.48113703,6.42966308 7.81936874,5.99329813 L6.73881325,11.5788284 C6.6245272,12.171038 8.28064261,11.8011733 8.39702626,11.269204 L11.6116207,4.79639177 L18.9509683,2.47946897 C19.335385,2.35685809 19.5847364,1.89138904 19.2273262,1.6088039 C19.1504363,1.55062846 15.9358419,0.57606698 14.7763317,0.958386123 L4.60267674,4.31637067 C4.17047421,4.45766324 3.79644711,4.26858487 3.3663094,4.11274025 L0.957944612,3.2379128 C0.590144748,3.10284746 0.315851657,3.12985397 -1.81188398e-13,3.22958798 Z" id="Path" fill="#E4725F"></path>
            </g>
        </g>
    </g>
</svg>