<?xml version="1.0" encoding="UTF-8"?>
<svg width="22px" height="32px" viewBox="0 0 22 32" version="1.1" xmlns="http://www.w3.org/2000/svg" xmlns:xlink="http://www.w3.org/1999/xlink">
    <!-- Generator: Sketch 60.1 (88133) - https://sketch.com -->
    <title>travel_agencies_pin</title>
    <desc>Created with Sketch.</desc>
    <g id="Page-1" stroke="none" stroke-width="1" fill="none" fill-rule="evenodd">
        <g id="travel_agencies_pin" transform="translate(0.199967, 1.048714)">
            <path d="M19.5415811,5.6738617 C18.2208273,3.08044461 16.2040434,1.32175115 13.3997218,0.508133056 C10.1182645,-0.629907145 6.26228458,0.18506773 3.55082729,2.53803255 C3.55037503,2.53833406 3.55007353,2.53848482 3.54977202,2.53878632 C2.97766147,3.01034411 2.49178207,3.57099738 2.11595292,4.07149989 C2.05097805,4.13813306 1.99926951,4.22104763 1.94725946,4.30185165 C1.49982227,4.92943959 1.24881724,5.41260542 1.24881724,5.41260542 L1.25529966,5.40928884 C0.624847395,6.55863557 0.220676541,7.79662552 0.0647971441,9.13079637 C-0.025805871,10.0778315 -0.0185696901,11.0248667 0.0688674959,11.9716004 C0.204093627,13.1509471 0.477259456,14.2909471 1.01982227,15.3548165 C1.14132981,15.625721 1.24670669,15.9058215 1.38781222,16.166324 C2.5670082,18.3430577 4.17781222,20.2029069 5.72861624,22.1064748 C7.25469664,24.1886858 8.67268659,26.3275803 9.33117905,28.877731 C9.46067654,29.3789873 9.69540016,29.8564245 10.299772,29.8737612 C10.9422846,29.8923039 11.2137921,29.4082336 11.3545961,28.8801431 C12.1560032,25.8766758 13.9211791,23.4344647 15.8102745,21.0566255 C17.1311791,19.3939622 18.540576,17.7849672 19.4597218,15.844314 C21.0554504,12.4749672 21.2659027,9.07818331 19.5415811,5.6738617" id="Fill-1" stroke="#FFFFFF" stroke-width="0.5" fill="#F88181"></path>
            <g id="travel_agencies" transform="translate(1.874039, 5.847807)" fill="#FFFFFF">
                <g id="Group-79" transform="translate(0.587583, 0.822616)">
                    <path d="M3.62214826,0.073886214 L8.61004002,1.54394237 L5.68362398,2.5592989 L2.71789859,0.56959374 C2.51275133,0.217481245 3.19478723,-0.163722312 3.62214826,0.073886214 L3.62214826,0.073886214 Z" id="Path"></path>
                    <path d="M-2.09101639e-13,2.6567095 L1.11964222,4.73530551 C0.642726614,5.08914351 0.632481381,5.54041907 1.41535205,5.5352695 C2.19824963,5.53014688 5.33148453,5.28914125 6.43233483,4.93018063 L5.54345301,9.52492505 C5.44943952,10.0120859 6.81178592,9.70782943 6.90752492,9.27022317 L9.55190048,3.94558677 L15.5893625,2.03964989 C15.9055897,1.93878827 16.11071,1.55588616 15.8166988,1.32342721 C15.753448,1.27557119 13.1090724,0.473881693 12.1552412,0.78838339 L3.78623376,3.55071391 C3.43069721,3.66694339 3.12301668,3.51140457 2.76917868,3.38320435 L0.788020197,2.66355763 C0.485462285,2.55245077 0.259824505,2.57466675 -2.09101639e-13,2.6567095 Z" id="Path"></path>
                </g>
            </g>
        </g>
    </g>
</svg>