<?xml version="1.0" encoding="UTF-8"?>
<svg width="17px" height="12px" viewBox="0 0 17 12" version="1.1" xmlns="http://www.w3.org/2000/svg" xmlns:xlink="http://www.w3.org/1999/xlink">
    <!-- Generator: Sketch 60.1 (88133) - https://sketch.com -->
    <title>view_enable</title>
    <desc>Created with Sketch.</desc>
    <g id="Page-1" stroke="none" stroke-width="1" fill="none" fill-rule="evenodd">
        <path d="M8.5,3.6 C7.21970353,3.6 6.18181818,4.6745166 6.18181818,6 C6.18181818,7.3254834 7.21970353,8.4 8.5,8.4 C9.78029647,8.4 10.8181818,7.3254834 10.8181818,6 C10.8181818,4.6745166 9.78029647,3.6 8.5,3.6 M8.5,10 C6.36617256,10 4.63636364,8.209139 4.63636364,6 C4.63636364,3.790861 6.36617256,2 8.5,2 C10.6338274,2 12.3636364,3.790861 12.3636364,6 C12.3636364,8.209139 10.6338274,10 8.5,10 M8.5,0 C4.63636364,0 1.33681818,2.488 0,6 C1.33681818,9.512 4.63636364,12 8.5,12 C12.3636364,12 15.6631818,9.512 17,6 C15.6631818,2.488 12.3636364,0 8.5,0 Z" id="view_enable" fill="#1979FF" fill-rule="nonzero"></path>
    </g>
</svg>