<?xml version="1.0" encoding="UTF-8"?>
<svg width="18px" height="15px" viewBox="0 0 18 15" version="1.1" xmlns="http://www.w3.org/2000/svg" xmlns:xlink="http://www.w3.org/1999/xlink">
    <!-- Generator: Sketch 60.1 (88133) - https://sketch.com -->
    <title>view_disabled</title>
    <desc>Created with Sketch.</desc>
    <g id="Page-1" stroke="none" stroke-width="1" fill="none" fill-rule="evenodd">
        <path d="M9.07142857,5.61280488 L10.9603175,7.48780488 C10.9603175,7.45813716 10.9603175,7.42253589 10.9603175,7.39286817 C10.9603175,6.40976636 10.1599853,5.61280488 9.17272545,5.61280488 C9.13697361,5.61280488 9.10718041,5.61280488 9.07142857,5.61280488 M4.76633598,5.61280488 L5.98624339,6.82374238 C5.94689153,6.98780488 5.92328042,7.15186738 5.92328042,7.33155488 C5.92328042,8.62597226 6.98038588,9.67530488 8.28439153,9.67530488 C8.45753968,9.67530488 8.63068783,9.65186738 8.79596561,9.61280488 L10.015873,10.8237424 C9.4885582,11.0815549 8.90615079,11.2378049 8.28439153,11.2378049 C6.11104877,11.2378049 4.34920635,9.48891718 4.34920635,7.33155488 C4.34920635,6.71436738 4.50661376,6.13624238 4.76633598,5.61280488 M1.37420635,0.990436457 L3.20453968,2.79043646 L3.56578968,3.14569961 C2.24120635,4.1720154 1.19759524,5.51412067 0.571428571,7.09306804 C1.96023413,10.5588575 5.38809524,13.0141207 9.40198413,13.0141207 C10.6462897,13.0141207 11.8344008,12.7772786 12.9181508,12.3509628 L13.2633452,12.6825417 L15.6074563,14.9878049 L16.6269841,13.9851733 L2.39373413,-0.012195122 M9.26031746,2.83857018 C11.3467265,2.83857018 13.0380952,4.55176629 13.0380952,6.6651008 C13.0380952,7.15489671 12.939873,7.62938651 12.7660952,8.05795794 L14.979873,10.3003049 C16.1132063,9.34367222 17.019873,8.08857018 17.5714286,6.6651008 C16.2643175,3.30540692 13.0380952,0.925304878 9.26031746,0.925304878 C8.20253968,0.925304878 7.19009524,1.11663141 6.23809524,1.46101916 L7.87765079,3.10642733 C8.30831746,2.93805998 8.76920635,2.83857018 9.26031746,2.83857018 Z" id="view_disabled" fill="#B4B4B4" fill-rule="nonzero"></path>
    </g>
</svg>