<?xml version="1.0" encoding="UTF-8"?>
<svg width="22px" height="31px" viewBox="0 0 22 31" version="1.1" xmlns="http://www.w3.org/2000/svg" xmlns:xlink="http://www.w3.org/1999/xlink">
    <!-- Generator: Sketch 60.1 (88133) - https://sketch.com -->
    <title>water_pin</title>
    <desc>Created with Sketch.</desc>
    <g id="Page-1" stroke="none" stroke-width="1" fill="none" fill-rule="evenodd">
        <g id="water_pin" transform="translate(0.587821, 0.548714)">
            <g id="Group-40-Copy" fill="#679EB5" stroke="#FFFFFF" stroke-width="0.5">
                <g id="Group-39-Copy">
                    <g id="Group-38-Copy">
                        <g id="Group-37-Copy">
                            <path d="M19.5415811,5.6738617 C18.2208273,3.08044461 16.2040434,1.32175115 13.3997218,0.508133056 C10.1182645,-0.629907145 6.26228458,0.18506773 3.55082729,2.53803255 C3.55037503,2.53833406 3.55007353,2.53848482 3.54977202,2.53878632 C2.97766147,3.01034411 2.49178207,3.57099738 2.11595292,4.07149989 C2.05097805,4.13813306 1.99926951,4.22104763 1.94725946,4.30185165 C1.49982227,4.92943959 1.24881724,5.41260542 1.24881724,5.41260542 L1.25529966,5.40928884 C0.624847395,6.55863557 0.220676541,7.79662552 0.0647971441,9.13079637 C-0.025805871,10.0778315 -0.0185696901,11.0248667 0.0688674959,11.9716004 C0.204093627,13.1509471 0.477259456,14.2909471 1.01982227,15.3548165 C1.14132981,15.625721 1.24670669,15.9058215 1.38781222,16.166324 C2.5670082,18.3430577 4.17781222,20.2029069 5.72861624,22.1064748 C7.25469664,24.1886858 8.67268659,26.3275803 9.33117905,28.877731 C9.46067654,29.3789873 9.69540016,29.8564245 10.299772,29.8737612 C10.9422846,29.8923039 11.2137921,29.4082336 11.3545961,28.8801431 C12.1560032,25.8766758 13.9211791,23.4344647 15.8102745,21.0566255 C17.1311791,19.3939622 18.540576,17.7849672 19.4597218,15.844314 C21.0554504,12.4749672 21.2659027,9.07818331 19.5415811,5.6738617" id="Fill-1"></path>
                        </g>
                    </g>
                </g>
            </g>
            <g id="water" transform="translate(4.000000, 3.078784)">
                <g id="water-2">
                    <g id="water">
                        <g id="water-drop" transform="translate(0.110203, 0.550569)"></g>
                        <path d="M4.35062965,7.6644921 C4.79157527,7.22354648 5.07084083,6.60622262 5.07084083,5.91540782 C5.07084083,5.66553864 4.99734989,5.38627308 4.87976439,5.09230934 C4.74748071,4.78364741 4.57110246,4.47498548 4.36532784,4.15162536 C4.36532784,4.13692717 4.35062965,4.13692717 4.35062965,4.12222899 C3.92438222,3.47550875 3.36585111,2.8434867 2.89550912,2.29965377 L2.60154538,1.96159547 L2.30758163,2.29965377 C1.39629403,3.35792325 0.13224993,4.81304378 0.13224993,5.91540782 C0.13224993,6.59152443 0.411515486,7.2088483 0.852461102,7.6644921 C1.29340672,8.10543771 1.91073058,8.38470327 2.60154538,8.38470327 C3.27766199,8.38470327 3.89498585,8.10543771 4.35062965,7.6644921 Z" id="Path" fill="#FFFFFF" fill-rule="nonzero"></path>
                        <path d="M10.0945334,0.984166021 L10.0210424,0.895976898 L9.9475515,0.984166021 C9.40371857,1.61618807 8.65411103,2.48338111 8.65411103,3.10070498 C8.65411103,3.48285784 8.8010929,3.82091615 9.05096208,4.07078533 C9.30083126,4.32065451 9.63888957,4.46763639 10.0210424,4.46763639 C10.4031953,4.46763639 10.7412536,4.32065451 10.9911228,4.07078533 C11.240992,3.82091615 11.3879738,3.48285784 11.3879738,3.10070498 C11.3879738,2.48338111 10.6383663,1.61618807 10.0945334,0.984166021 Z" id="Path" fill="#FFFFFF" fill-rule="nonzero"></path>
                        <path d="M6.23199761,2.68180664 C6.01152481,2.94637401 5.76165562,3.22563957 5.51178644,3.5343015 L5.12963357,3.97524711 C5.30601182,4.25451267 5.45299369,4.53377823 5.57057919,4.81304378 C5.73225925,5.19519665 5.82044837,5.56265133 5.82044837,5.91540782 C5.82044837,6.79729905 5.46769188,7.60569935 4.87976439,8.19362684 C4.2918369,8.78155433 3.4981348,9.13431082 2.60154538,9.13431082 C2.39577076,9.13431082 2.20469432,9.11961263 2.01361789,9.07551807 C1.94012695,9.06081988 1.88133421,9.04612169 1.80784327,9.03142351 C1.77844689,9.14900901 1.74905052,9.2665945 1.71965415,9.38418 C1.67555958,9.60465281 1.64616321,9.81042743 1.64616321,10.0309002 C1.64616321,11.2949443 2.16059976,12.4414029 2.98369824,13.2791996 C3.82149491,14.1169963 4.96795352,14.6167346 6.23199761,14.6167346 C7.49604171,14.6167346 8.64250031,14.1022981 9.48029698,13.2791996 C10.3180937,12.4561011 10.817832,11.2949443 10.817832,10.0309002 C10.817832,8.01724859 8.56900938,5.43036765 6.95220879,3.54899969 C6.7023396,3.22563957 6.46716861,2.94637401 6.23199761,2.68180664 Z" id="Path" fill="#FFFFFF" fill-rule="nonzero"></path>
                    </g>
                </g>
            </g>
        </g>
    </g>
</svg>