<?xml version="1.0" encoding="UTF-8"?>
<svg width="30px" height="30px" viewBox="0 0 30 30" version="1.1" xmlns="http://www.w3.org/2000/svg" xmlns:xlink="http://www.w3.org/1999/xlink">
    <!-- Generator: Sketch 60.1 (88133) - https://sketch.com -->
    <title>water</title>
    <desc>Created with Sketch.</desc>
    <g id="Page-1" stroke="none" stroke-width="1" fill="none" fill-rule="evenodd">
        <g id="water">
            <g id="water-2">
                <g id="water">
                    <g id="petroleum--copy" fill="#F6E1E1">
                        <g id="travel_agencies-copy">
                            <circle id="Oval" cx="15" cy="15" r="15"></circle>
                        </g>
                    </g>
                    <g id="water-drop" transform="translate(8.447584, 6.361324)"></g>
                    <path d="M13.4309998,14.7217153 C13.9492059,14.2035092 14.2774031,13.4780207 14.2774031,12.6661644 C14.2774031,12.3725143 14.1910354,12.0443171 14.0528471,11.6988464 C13.8973853,11.3361021 13.6901029,10.9733578 13.4482734,10.59334 C13.4482734,10.5760665 13.4309998,10.5760665 13.4309998,10.5587929 C12.9300673,9.79875732 12.2736729,9.05599524 11.7209197,8.41687438 L11.3754489,8.01958303 L11.0299782,8.41687438 C9.95901893,9.66056903 8.47349476,11.3706492 8.47349476,12.6661644 C8.47349476,13.4607471 8.80169196,14.1862357 9.31989807,14.7217153 C9.83810417,15.2399214 10.5635927,15.5681186 11.3754489,15.5681186 C12.1700316,15.5681186 12.8955202,15.2399214 13.4309998,14.7217153 Z" id="Path" fill="#4CE166" fill-rule="nonzero"></path>
                    <path d="M20.1813243,6.87089284 L20.0949566,6.76725162 L20.0085889,6.87089284 C19.369468,7.61365492 18.4885177,8.63279359 18.4885177,9.35828214 C18.4885177,9.80739409 18.661253,10.2046854 18.9549032,10.4983356 C19.2485533,10.7919857 19.6458446,10.9647211 20.0949566,10.9647211 C20.5440685,10.9647211 20.9413599,10.7919857 21.23501,10.4983356 C21.5286601,10.2046854 21.7013955,9.80739409 21.7013955,9.35828214 C21.7013955,8.63279359 20.8204451,7.61365492 20.1813243,6.87089284 Z" id="Path" fill="#1EA4E9" fill-rule="nonzero"></path>
                    <path d="M15.6420125,8.86598634 C15.3829095,9.17691 15.0892594,9.5051072 14.7956092,9.86785147 L14.3464973,10.3860576 C14.5537797,10.7142548 14.7265151,11.042452 14.8647034,11.3706492 C15.0547123,11.8197611 15.1583535,12.2515995 15.1583535,12.6661644 C15.1583535,13.7025766 14.7437886,14.6526212 14.0528471,15.3435626 C13.3619057,16.0345041 12.4291347,16.449069 11.3754489,16.449069 C11.1336194,16.449069 10.9090635,16.4317955 10.6845075,16.3799748 C10.5981398,16.3627013 10.5290456,16.3454278 10.442678,16.3281542 C10.4081309,16.4663425 10.3735838,16.6045308 10.3390367,16.7427191 C10.2872161,17.0018222 10.2526691,17.2436517 10.2526691,17.5027547 C10.2526691,18.9882789 10.8572428,20.3356148 11.8245609,21.3202064 C12.8091525,22.304798 14.1564884,22.8920982 15.6420125,22.8920982 C17.1275367,22.8920982 18.4748726,22.2875244 19.4594642,21.3202064 C20.4440558,20.3528883 21.031356,18.9882789 21.031356,17.5027547 C21.031356,15.1362802 18.3885049,12.0961377 16.4884158,9.88512501 C16.1947657,9.5051072 15.9183891,9.17691 15.6420125,8.86598634 Z" id="Path" fill="#E7343F" fill-rule="nonzero"></path>
                </g>
            </g>
        </g>
    </g>
</svg>