<?xml version="1.0" encoding="UTF-8"?>
<svg width="30px" height="31px" viewBox="0 0 30 31" version="1.1" xmlns="http://www.w3.org/2000/svg" xmlns:xlink="http://www.w3.org/1999/xlink">
    <!-- Generator: Sketch 60.1 (88133) - https://sketch.com -->
    <title>wells</title>
    <desc>Created with Sketch.</desc>
    <g id="Page-1" stroke="none" stroke-width="1" fill="none" fill-rule="evenodd">
        <g id="wells" transform="translate(0.000000, 0.500163)">
            <circle id="Oval-Copy-4" fill="#D4F7D6" cx="15" cy="15" r="15"></circle>
            <g id="Group-87" transform="translate(5.000000, 5.351761)" stroke-linecap="round" stroke-linejoin="round">
                <path d="M5.03594482,5.17980496 C5.03594482,5.17980496 0.557540247,9.90998594 5.03594482,14.3883254" id="Stroke-1" stroke="#65CE6B"></path>
                <path d="M13.9532821,14.3883384 C13.9532821,14.3883384 18.4316866,9.65822255 13.9532821,5.17981798" id="Stroke-3" stroke="#65CE6B"></path>
                <path d="M12.3380531,13.048996 C12.3380531,13.048996 15.5137035,9.69479783 12.3380531,6.51914742" id="Stroke-5" stroke="#65CE6B"></path>
                <path d="M6.39254971,6.51915393 C6.39254971,6.51915393 3.2168993,9.87335209 6.39254971,13.0490025" id="Stroke-7" stroke="#65CE6B"></path>
                <path d="M19.3883459,9.69417294 C19.3883459,15.0480668 15.0481319,19.3883459 9.69417294,19.3883459 C4.34021395,19.3883459 7.00621774e-14,15.0480668 7.00621774e-14,9.69417294 C7.00621774e-14,4.34021395 4.34021395,7.00621774e-14 9.69417294,7.00621774e-14 C15.0481319,7.00621774e-14 19.3883459,4.34021395 19.3883459,9.69417294 Z" id="Stroke-9" stroke="#FF641A"></path>
                <line x1="9.73343027" y1="0.359712204" x2="9.73343027" y2="7.48196437" id="Stroke-11" stroke="#FF641A"></line>
                <path d="M11.9243665,9.71216441 C11.9243665,10.943838 10.9259181,11.9423514 9.69417945,11.9423514 C8.46244082,11.9423514 7.46399243,10.943838 7.46399243,9.71216441 C7.46399243,8.48042578 8.46244082,7.48197739 9.69417945,7.48197739 C10.9259181,7.48197739 11.9243665,8.48042578 11.9243665,9.71216441 Z" id="Stroke-13" stroke="#FF641A"></path>
            </g>
        </g>
    </g>
</svg>