<?xml version="1.0" encoding="UTF-8"?>
<svg width="19px" height="19px" viewBox="0 0 19 19" version="1.1" xmlns="http://www.w3.org/2000/svg" xmlns:xlink="http://www.w3.org/1999/xlink">
    <!-- Generator: Sketch 63.1 (92452) - https://sketch.com -->
    <title>wells_card</title>
    <desc>Created with Sketch.</desc>
    <g id="Fluxble-maps-wf-v1.04-Copy" stroke="none" stroke-width="1" fill="none" fill-rule="evenodd">
        <g id="wells_card" transform="translate(0.000000, 0.500000)">
            <circle id="Oval" fill="#D1E9FC" cx="9.06751582" cy="9.06751582" r="9.06751582"></circle>
            <g id="Group-25" transform="translate(2.715880, 2.715880)" fill-rule="nonzero">
                <path d="M5.28289539,4.99233614 L5.28289539,4.70177689 L4.99233614,4.70177689 C4.74051813,4.70177689 4.70177689,4.69825496 4.70177689,4.67360145 C4.70177689,4.64894794 4.51159266,3.12043021 4.18229218,0.501875062 C4.14883384,0.230686432 4.1206584,0.00704386051 4.1206584,0.00528289539 C4.1206584,0.00176096513 4.90604885,1.54636627e-14 5.86577484,1.54636627e-14 L7.61089129,1.54636627e-14 L7.60032549,0.0669166749 C7.58271584,0.174335548 7.02625086,4.64542601 7.02625086,4.67536242 C7.02625086,4.69825496 6.9839877,4.70177689 6.73569162,4.70177689 L6.44513237,4.70177689 L6.44513237,4.99233614 L6.44513237,5.28289539 L5.86401388,5.28289539 L5.28289539,5.28289539 L5.28289539,4.99233614 Z" id="Path" fill="#EF4E4E" transform="translate(5.865775, 2.641448) scale(-1, 1) rotate(-180.000000) translate(-5.865775, -2.641448) "></path>
                <path d="M1.7574432,9.3472029 L1.7521603,8.76080151 L1.16751988,8.75551862 L0.581118492,8.75199669 L0.581118492,8.1708782 L0.581118492,7.5897597 L1.7521603,7.5897597 L2.92320211,7.5897597 L2.92320211,7.13366974 L2.92320211,6.67757977 L2.99187975,6.59129248 C3.14860565,6.39054245 3.48318902,6.12287575 3.72796318,5.99960819 C3.83538205,5.94325731 4.0449369,5.86401388 4.07839524,5.86401388 C4.09952682,5.86401388 4.10304875,6.00489109 4.10304875,6.72688679 L4.10304875,7.5897597 L5.86401388,7.5897597 L7.62497901,7.5897597 L7.62497901,6.72688679 C7.62497901,6.07709066 7.6302619,5.86401388 7.64611059,5.86401388 C7.70246147,5.86401388 7.98773782,5.98552047 8.12685407,6.0700468 C8.35577953,6.20916304 8.59703176,6.41695693 8.73790897,6.59129248 L8.80482564,6.67757977 L8.80482564,7.13366974 L8.80482564,7.5897597 L9.97586745,7.5897597 L11.1469093,7.5897597 L11.1469093,8.1708782 L11.1469093,8.75199669 L10.5622688,8.75551862 L9.97586745,8.76080151 L9.97058456,9.3472029 L9.96706263,9.93184332 L5.86401388,9.93184332 L1.76096513,9.93184332 L1.7574432,9.3472029 Z" id="Path" fill="#AA6AE7" transform="translate(5.864014, 7.897929) scale(-1, 1) rotate(-180.000000) translate(-5.864014, -7.897929) "></path>
                <path d="M-2.41019847e-13,11.1369435 L-2.41019847e-13,10.5470202 L0.0493070236,10.5012351 C0.14087721,10.4131869 0.369802677,10.2599829 0.505396992,10.1965881 C0.699103156,10.103257 0.857590018,10.052189 1.08123259,10.0099258 C1.24676331,9.97822847 1.31544095,9.97294557 1.54084449,9.9817504 C1.83844759,9.99407716 1.99693446,10.0257745 2.25755729,10.1279105 C2.50585338,10.2265246 2.63264287,10.3004851 2.82811,10.4642548 C2.87741702,10.506518 2.92496308,10.5399763 2.9337679,10.5399763 C2.94257273,10.5399763 2.98307493,10.508279 3.02533809,10.4695377 C3.51312543,10.0169697 4.37071545,9.85496091 5.0751015,10.0838864 C5.3374853,10.1684127 5.64389324,10.3409873 5.77420466,10.4765816 C5.80766299,10.5118009 5.84640423,10.5399763 5.86049195,10.5399763 C5.87457967,10.5399763 5.92564766,10.5029961 5.97671565,10.457211 C6.21444594,10.2423732 6.54374642,10.0909302 6.94700743,10.0099258 C7.11429912,9.9764675 7.17769386,9.97294557 7.40485837,9.9817504 C7.91729922,10.001121 8.37162822,10.1719346 8.69916773,10.4677768 C8.74319186,10.506518 8.78369406,10.5399763 8.79249889,10.5399763 C8.79954275,10.5399763 8.85589363,10.4977132 8.91752741,10.4484062 C9.14293095,10.2617439 9.4634266,10.105018 9.77863936,10.0275355 C9.99523807,9.97470654 10.3879333,9.96237978 10.6115759,10.002882 C11.0201198,10.0750816 11.3899225,10.2458952 11.6681549,10.4906693 L11.7280278,10.5434983 L11.7280278,11.1316606 L11.7280278,11.719823 L11.6012383,11.6124041 C11.2208698,11.2936694 10.6327074,11.114051 10.1132227,11.1563141 C9.66241566,11.1932944 9.22569631,11.364108 8.91752741,11.6247309 C8.85589363,11.6775598 8.80130371,11.719823 8.79425985,11.719823 C8.78897696,11.719823 8.74319186,11.6828427 8.69212387,11.6388186 C8.35930146,11.3394545 7.83101193,11.1492703 7.33441976,11.1510312 C6.81141312,11.1527922 6.33419157,11.3253668 5.95734503,11.6458624 L5.86401388,11.7233449 L5.77244369,11.6458624 C5.2265445,11.1827286 4.46052467,11.0312856 3.75613862,11.2461234 C3.48847192,11.3288887 3.2067175,11.4803317 3.03942581,11.6335357 C2.98659686,11.6810817 2.9390508,11.719823 2.9337679,11.719823 C2.92848501,11.719823 2.86861219,11.6740379 2.80169552,11.619448 C2.50057048,11.365869 2.09378754,11.2038602 1.6359366,11.1563141 C1.09355934,11.0982023 0.452568038,11.3095181 0.0581118492,11.6740379 L-2.41019847e-13,11.7268668 L-2.41019847e-13,11.1369435 Z" id="Path" fill="#BC97E0" transform="translate(5.864014, 10.852248) scale(-1, 1) rotate(-180.000000) translate(-5.864014, -10.852248) "></path>
            </g>
        </g>
    </g>
</svg>