<?xml version="1.0" encoding="UTF-8"?>
<svg width="22px" height="31px" viewBox="0 0 22 31" version="1.1" xmlns="http://www.w3.org/2000/svg" xmlns:xlink="http://www.w3.org/1999/xlink">
    <!-- Generator: Sketch 60.1 (88133) - https://sketch.com -->
    <title>wells_pin</title>
    <desc>Created with Sketch.</desc>
    <g id="Page-1" stroke="none" stroke-width="1" fill="none" fill-rule="evenodd">
        <g id="wells_pin" transform="translate(0.387855, 0.488732)" stroke="#FFFFFF">
            <g id="Group-28" fill="#4DB546" stroke-width="0.5">
                <g id="Group-3">
                    <path d="M19.5415477,5.6739196 C18.220794,3.08050251 16.2040101,1.32180905 13.3996884,0.508190955 C10.1182312,-0.629849246 6.26225126,0.185125628 3.55079397,2.53809045 C3.55034171,2.53839196 3.5500402,2.53854271 3.54973869,2.53884422 C2.97762814,3.01040201 2.49174874,3.57105528 2.1159196,4.07155779 C2.05094472,4.13819095 1.99923618,4.22110553 1.94722613,4.30190955 C1.49978894,4.92949749 1.24878392,5.41266332 1.24878392,5.41266332 L1.25526633,5.40934673 C0.62481407,6.55869347 0.220643216,7.79668342 0.0647638191,9.13085427 C-0.025839196,10.0778894 -0.0186030151,11.0249246 0.0688341709,11.9716583 C0.204060302,13.151005 0.477226131,14.291005 1.01978894,15.3548744 C1.14129648,15.6257789 1.24667337,15.9058794 1.38777889,16.1663819 C2.56697487,18.3431156 4.17777889,20.2029648 5.72858291,22.1065327 C7.25466332,24.1887437 8.67265327,26.3276382 9.33114573,28.8777889 C9.46064322,29.3790452 9.69536683,29.8564824 10.2997387,29.8738191 C10.9422513,29.8923618 11.2137588,29.4082915 11.3545628,28.880201 C12.1559698,25.8767337 13.9211457,23.4345226 15.8102412,21.0566834 C17.1311457,19.3940201 18.5405427,17.7850251 19.4596884,15.8443719 C21.0554171,12.4750251 21.2658693,9.07824121 19.5415477,5.6739196" id="Fill-1"></path>
                </g>
            </g>
            <g id="Group-87" transform="translate(3.500000, 3.999837)" stroke-linecap="round" stroke-linejoin="round">
                <path d="M3.52516137,3.62586347 C3.52516137,3.62586347 0.390278173,6.93699016 3.52516137,10.0718278" id="Stroke-1"></path>
                <path d="M9.76729746,10.0718369 C9.76729746,10.0718369 12.9021807,6.76075579 9.76729746,3.62587259" id="Stroke-3"></path>
                <path d="M8.63663716,9.13429719 C8.63663716,9.13429719 10.8595924,6.78635848 8.63663716,4.56340319" id="Stroke-5"></path>
                <path d="M4.4747848,4.56340775 C4.4747848,4.56340775 2.25182951,6.91134646 4.4747848,9.13430175" id="Stroke-7"></path>
                <path d="M13.5718421,6.78592106 C13.5718421,10.5336468 10.5336924,13.5718421 6.78592106,13.5718421 C3.03814976,13.5718421 7.00621774e-14,10.5336468 7.00621774e-14,6.78592106 C7.00621774e-14,3.03814976 3.03814976,7.00621774e-14 6.78592106,7.00621774e-14 C10.5336924,7.00621774e-14 13.5718421,3.03814976 13.5718421,6.78592106 Z" id="Stroke-9"></path>
                <line x1="6.81340119" y1="0.251798543" x2="6.81340119" y2="5.23737506" id="Stroke-11"></line>
                <path d="M8.34705653,6.79851509 C8.34705653,7.66068657 7.64814266,8.359646 6.78592562,8.359646 C5.92370857,8.359646 5.2247947,7.66068657 5.2247947,6.79851509 C5.2247947,5.93629804 5.92370857,5.23738417 6.78592562,5.23738417 C7.64814266,5.23738417 8.34705653,5.93629804 8.34705653,6.79851509 Z" id="Stroke-13"></path>
            </g>
        </g>
    </g>
</svg>