<?xml version="1.0" encoding="UTF-8"?>
<svg width="26px" height="26px" viewBox="0 0 26 26" version="1.1" xmlns="http://www.w3.org/2000/svg" xmlns:xlink="http://www.w3.org/1999/xlink">
    <!-- Generator: Sketch 60.1 (88133) - https://sketch.com -->
    <title>workspaces</title>
    <desc>Created with Sketch.</desc>
    <g id="Page-1" stroke="none" stroke-width="1" fill="none" fill-rule="evenodd">
        <g id="workspaces">
            <rect id="Rectangle-Copy-10" fill="#F6E1E1" x="0" y="0" width="26" height="26" rx="4"></rect>
            <g id="group" transform="translate(4.000000, 3.500000)">
                <path d="M2.77658502,2.88141283 L2.79321341,2.8840347 C2.80600242,2.88604473 2.8187514,2.88817547 2.83145916,2.89042565 C2.87043756,2.89719774 2.9092176,2.90524412 2.9475714,2.91438925 C2.96272305,2.91817433 2.97812012,2.92204625 2.99344568,2.92609434 C3.02118725,2.93322134 3.04840912,2.94102864 3.07538797,2.94938861 C3.13534309,2.96821506 3.19435969,2.98964247 3.25202344,3.01366406 L3.15351287,2.97537589 C3.18250521,2.98568893 3.21119109,2.99664841 3.23955316,3.00823698 L3.25202344,3.01366406 C3.25168209,3.01380627 3.25134079,3.01394857 3.25099954,3.01409096 C3.97897191,3.31596893 4.49033203,4.03352606 4.49033203,4.87051172 L4.49033203,5.63758594 C4.49026172,5.78858203 4.36788281,5.91099609 4.21685156,5.91099609 L0.7419375,5.91099609 C0.590941406,5.91099609 0.468527344,5.78858203 0.468527344,5.63758594 L0.468527344,4.87051172 C0.468527344,3.81040696 1.28885696,2.94189076 2.32935428,2.86512504 L2.47942969,2.85960938 C2.53229849,2.85960938 2.58469078,2.86164965 2.63653213,2.86565577 L2.64204731,2.86611694 L2.77658502,2.88141283 L2.77658502,2.88141283 Z" id="Combined-Shape" fill="#C3DA40" fill-rule="nonzero"></path>
                <path d="M8.38972266,8.38420313 C9.34955859,8.38420313 10.1304492,9.19037109 10.1304492,10.18125 C10.1304492,10.2976783 10.1196685,10.4115559 10.0990835,10.5218748 C10.0960528,10.5378917 10.0929156,10.5535467 10.0895818,10.5691264 C10.0824447,10.6026969 10.0743029,10.6361069 10.0652674,10.6691337 C10.0584541,10.6938659 10.0511665,10.7184438 10.0433873,10.7427932 C10.0373842,10.7617506 10.0310091,10.7806333 10.0243399,10.7993706 C10.0094139,10.8411406 9.99307659,10.882199 9.97534076,10.9224681 C9.95950387,10.9585854 9.94245367,10.9941107 9.92432249,11.028951 C9.89578998,11.0836072 9.86479635,11.13639 9.83133984,11.1873164 L9.90478442,11.0654708 C9.88717635,11.0974986 9.8686429,11.1289163 9.84922188,11.1596849 L9.83133984,11.1873164 C9.5170523,11.6648976 8.98818142,11.9782617 8.38972266,11.9782617 L6.67177734,11.9782617 C6.65701172,12.1265508 6.66298828,12.2809219 6.68953125,12.437332 L6.76916016,12.9069492 C6.78012891,12.9716367 6.70865625,13.0182188 6.65391797,12.9820781 L6.25637109,12.7196719 C5.86680469,12.4624688 5.6165625,12.1676484 5.5125,11.843332 C4.85683594,11.5649297 4.43358984,10.9134141 4.43358984,10.18125 C4.43358984,9.40789998 4.90923348,8.7470632 5.57440124,8.49418536 C5.58708513,8.48987766 5.59921931,8.48541736 5.61141379,8.48109256 C5.63759114,8.47132983 5.66494198,8.46241424 5.69257301,8.45418787 C5.71167665,8.44888469 5.7307504,8.44354959 5.74994964,8.43854448 C5.77632552,8.43136634 5.80251982,8.42523762 5.82892889,8.41972796 C5.84727462,8.41612759 5.8660804,8.41251314 5.88498905,8.40921541 C5.97928516,8.39268508 6.07585904,8.38420313 6.17431641,8.38420313 L8.38972266,8.38420313 Z" id="Combined-Shape" fill="#FF62A7" fill-rule="nonzero"></path>
                <path d="M12.4958539,6.58244092 L12.5343102,6.60314145 C12.5470804,6.61002371 12.559777,6.61702543 12.5723984,6.6241451 C12.6142835,6.64722228 12.6553641,6.67212815 12.6955559,6.69828033 C12.702292,6.70328547 12.7092511,6.70787329 12.7161831,6.71249845 C13.3022427,7.10254106 13.6940369,7.75984938 13.7028516,8.51206641 C13.7135391,9.42169922 13.174418,10.2337383 12.3347109,10.5781289 C12.1539375,11.1255117 11.639707,11.5157461 11.2391367,11.7470742 L10.8264727,11.9853633 C10.7696602,12.0181992 10.7010703,11.9673633 10.7159063,11.9034492 L10.8237656,11.4392461 C10.879207,11.2005703 10.8953789,10.9662891 10.8719648,10.7426953 L8.72103516,10.7426953 C7.51148438,10.7426953 6.50211328,9.78219141 6.48369141,8.57274609 C6.46491797,7.34178516 7.46082422,6.33438281 8.68756641,6.33438281 L11.4680039,6.33438281 C11.5289178,6.33438281 11.5893174,6.3368215 11.6491026,6.3416076 C11.6658325,6.34296283 11.6826119,6.34449825 11.69934,6.34621794 C11.7400081,6.35036742 11.7803795,6.35562774 11.8204177,6.36194617 C11.8417775,6.36537995 11.8628002,6.36901598 11.8837251,6.37294249 C11.9252005,6.38063004 11.9665242,6.38958928 12.0074236,6.39966679 C12.0210103,6.40314828 12.0345886,6.4066361 12.0481183,6.41024694 C12.1636992,6.44088918 12.2757053,6.48062779 12.383316,6.5285432 C12.3890947,6.53148231 12.3951674,6.5342222 12.4012258,6.53698813 L12.383316,6.5285432 C12.4213916,6.54549698 12.4589169,6.56347444 12.4958539,6.58244092 Z" id="Combined-Shape" fill="#22C1E6" fill-rule="nonzero"></path>
                <path d="M13.7667305,5.91099609 C13.6157344,5.91099609 13.4933203,5.78858203 13.4933203,5.63758594 L13.4933203,4.87051172 C13.4933203,4.51714347 13.584468,4.18506283 13.7445353,3.89649803 L13.81722,3.77555645 C14.1758298,3.22420032 14.7974158,2.85960937 15.5041523,2.85960937 L15.5041523,2.85960937 C15.5574511,2.85960937 15.6101966,2.86167751 15.662383,2.8657378 C15.6765901,2.86690296 15.6863553,2.86775924 15.6961001,2.86868523 C15.736674,2.87247629 15.7773508,2.87758443 15.8176311,2.88388827 C15.8307602,2.88604473 15.8435092,2.88817547 15.856217,2.89042565 C15.8952305,2.89719774 15.9340106,2.90524412 15.9723644,2.91438925 C15.9874809,2.91817433 16.0028779,2.92204625 16.0182035,2.92609434 C16.0459802,2.93322134 16.0732021,2.94102864 16.1001809,2.94938861 C16.1601009,2.96821506 16.2191175,2.98964247 16.2767812,3.01366406 L16.1783058,2.97537589 C16.2072982,2.98568893 16.2359841,2.99664841 16.2643461,3.00823698 L16.2767812,3.01366406 C16.2764399,3.01380627 16.2760986,3.01394857 16.2757574,3.01409096 C17.0037649,3.31596893 17.515125,4.03352606 17.515125,4.87051172 L17.515125,5.63758594 C17.5150547,5.78858203 17.3926406,5.91099609 17.2416445,5.91099609 L13.7667305,5.91099609 Z" id="Combined-Shape" fill="#E5B43D" fill-rule="nonzero"></path>
                <path d="M2.77658502,13.6226316 L2.79321341,13.6252183 C2.80600242,13.6272283 2.8187514,13.6293591 2.83145916,13.6316092 C2.87043756,13.6384165 2.9092176,13.6464629 2.9475714,13.655608 C2.96272305,13.6593579 2.97812012,13.6632298 2.99344568,13.6672779 C3.02118725,13.6744401 3.04840912,13.6822474 3.07538797,13.6906074 C3.13534309,13.7093987 3.19435969,13.7308261 3.25202344,13.7548477 L3.15351287,13.7165946 C3.18250521,13.7269077 3.21119109,13.7378672 3.23955316,13.7494557 L3.25202344,13.7548477 C3.25168209,13.7549898 3.25134079,13.7551321 3.25099954,13.7552745 C3.97897191,14.0571877 4.49033203,14.7747448 4.49033203,15.6117305 L4.49033203,16.3788047 C4.49026172,16.5298008 4.36788281,16.65225 4.21685156,16.65225 L0.7419375,16.65225 C0.590941406,16.65225 0.468527344,16.5298359 0.468527344,16.3788047 L0.468527344,15.6117305 C0.468527344,15.1069187 0.65454313,14.645551 0.961769399,14.2924328 L1.05747363,14.1897744 C1.42137598,13.8258721 1.92410156,13.600793 2.47939453,13.600793 L2.47939453,13.600793 C2.53229849,13.6008281 2.58469078,13.6028684 2.63653213,13.6068745 L2.64204731,13.6073005 L2.77658502,13.6226316 L2.77658502,13.6226316 Z" id="Combined-Shape" fill="#FF62A7" fill-rule="nonzero"></path>
                <path d="M15.801378,13.6226316 L15.8179712,13.6252183 C15.8307602,13.6272283 15.8435092,13.6293591 15.856217,13.6316092 C15.8952305,13.6384165 15.9340106,13.6464629 15.9723644,13.655608 C15.9874809,13.6593579 16.0028779,13.6632298 16.0182035,13.6672779 C16.0459802,13.6744401 16.0732021,13.6822474 16.1001809,13.6906074 C16.1601009,13.7093987 16.2191175,13.7308261 16.2767812,13.7548477 L16.1783058,13.7165946 C16.2072982,13.7269077 16.2359841,13.7378672 16.2643461,13.7494557 L16.2767812,13.7548477 C16.2764399,13.7549898 16.2760986,13.7551321 16.2757574,13.7552745 C17.0037649,14.0571877 17.515125,14.7747448 17.515125,15.6117305 L17.515125,16.3788047 C17.5150547,16.5298008 17.3926406,16.65225 17.2416445,16.65225 L13.7667305,16.65225 C13.6157344,16.65225 13.4933203,16.5298359 13.4933203,16.3788047 L13.4933203,15.6117305 C13.4933203,15.1069187 13.6793361,14.645551 13.9865624,14.2924328 L14.0822314,14.1897744 C14.4461338,13.8258721 14.9488594,13.600793 15.5041523,13.600793 L15.5041523,13.600793 C15.5570915,13.6008281 15.6094838,13.6028684 15.6613251,13.6068745 L15.6668051,13.6073005 L15.801378,13.6226316 L15.801378,13.6226316 Z" id="Combined-Shape" fill="#22C1E6" fill-rule="nonzero"></path>
                <path d="M8.49874219,17.9928633 C8.49315234,17.9928633 8.48752734,17.9927227 8.48190234,17.9923711 C8.13392578,17.9726133 7.78426172,17.9323594 7.44254297,17.8726992 C7.28321484,17.8448906 7.17662109,17.6931914 7.20442969,17.5338633 C7.23227344,17.3745352 7.38369141,17.2678711 7.54330078,17.29575 C7.86273047,17.3515078 8.18968359,17.3891602 8.51508984,17.4076172 C8.6765625,17.4167578 8.80003125,17.5550977 8.79089062,17.7165703 C8.78199609,17.872418 8.65286719,17.9928633 8.49874219,17.9928633 Z M9.51046875,17.9923359 C9.35644922,17.9923359 9.22739062,17.8721016 9.21839062,17.7164297 C9.20903906,17.554957 9.33236719,17.4165117 9.49380469,17.4071953 C9.81917578,17.3883516 10.1461289,17.3503828 10.4655937,17.2943086 C10.6247812,17.2662539 10.7766914,17.3727773 10.8046406,17.5320703 C10.8326602,17.6913984 10.7261719,17.843168 10.5668789,17.8711523 C10.2251953,17.9311641 9.87556641,17.9718047 9.52766016,17.9919141 C9.52192969,17.9921953 9.51619922,17.9923359 9.51046875,17.9923359 Z M6.50770312,17.6452031 C6.47996484,17.6452031 6.45180469,17.6412305 6.42389063,17.6328984 C6.09053906,17.5334766 5.7594375,17.413207 5.43969141,17.2753594 C5.29119141,17.2113047 5.22270703,17.0390391 5.28676172,16.8905391 C5.35078125,16.7420039 5.52311719,16.6735898 5.67158203,16.7375742 C5.97033984,16.8663867 6.27978516,16.9787812 6.59123437,17.0717344 C6.74623828,17.1179648 6.83441016,17.2810547 6.78817969,17.4360586 C6.75031641,17.5630078 6.63384375,17.6452031 6.50770312,17.6452031 Z M11.5012969,17.6425664 C11.3752617,17.6425664 11.2588945,17.5605469 11.2208555,17.4336328 C11.1744492,17.2786992 11.2624453,17.1154688 11.4173789,17.0690977 C11.728582,16.9759336 12.0377461,16.8632578 12.336293,16.7341641 C12.484793,16.6699688 12.6571289,16.7382773 12.7212891,16.886707 C12.7855195,17.0351367 12.7171758,17.207543 12.5687461,17.2717031 C12.2492813,17.409832 11.9184609,17.530418 11.5853906,17.6301563 C11.5573711,17.6385234 11.5291055,17.6425664 11.5012969,17.6425664 Z M0.8184375,12.2862656 C0.698871094,12.2862656 0.5866875,12.2125781 0.543339844,12.0937852 C0.424054687,11.7671484 0.322910156,11.4298594 0.242578125,11.0913047 C0.205277344,10.9339453 0.302589844,10.7760938 0.459949219,10.7387578 C0.617660156,10.701457 0.775160156,10.7987695 0.812496094,10.9561289 C0.887484375,11.2725 0.982054687,11.5876758 1.0935,11.8928672 C1.14897656,12.0447773 1.07078906,12.2129297 0.91884375,12.2683711 C0.885726562,12.2805352 0.851800781,12.2862656 0.8184375,12.2862656 Z M17.1845156,12.2781445 C17.1512578,12.2781445 17.1174727,12.2724492 17.0843906,12.2604258 C16.9324102,12.205125 16.8540469,12.0370781 16.9093125,11.8850977 C17.0205469,11.5794492 17.1147656,11.263957 17.1895078,10.9475156 C17.226668,10.7900508 17.384625,10.692668 17.5418086,10.729793 C17.6992031,10.766918 17.7966914,10.9246641 17.7595664,11.0820586 C17.6796211,11.4207539 17.5787578,11.7583242 17.4596836,12.085418 C17.4164766,12.2042461 17.3041172,12.2781445 17.1845156,12.2781445 Z M0.351527344,10.3196953 C0.204996094,10.3196953 0.0784335937,10.2098672 0.0610664062,10.0607695 C0.0208828125,9.71648438 0.0003515625,9.36520313 -1.13149033e-07,9.01659375 C-0.000140625,8.854875 0.130816406,8.72363672 0.292535156,8.72346094 C0.292640625,8.72346094 0.292746094,8.72346094 0.292851562,8.72346094 C0.454464844,8.72346094 0.585527344,8.85438281 0.585667969,9.01599609 C0.586019531,9.34221094 0.605179687,9.67085156 0.642726562,9.99288281 C0.6615,10.1535117 0.54646875,10.2989531 0.385804687,10.3176914 C0.37434375,10.3190625 0.362847656,10.3196953 0.351527344,10.3196953 Z M17.6495273,10.3104844 C17.6382773,10.3104844 17.626957,10.3098516 17.6154961,10.3085156 C17.4548672,10.2899531 17.3396602,10.1446523 17.3582578,9.98398828 C17.3954883,9.66192188 17.414332,9.33324609 17.414332,9.00706641 L17.414332,8.98853906 C17.414332,8.82682031 17.5454297,8.69572266 17.7071484,8.69572266 C17.8688672,8.69572266 17.9999648,8.82682031 17.9999648,8.98853906 L17.9999648,9.00706641 C17.9999648,9.35560547 17.9797852,9.70695703 17.9399883,10.0512422 C17.9227969,10.2004805 17.7961992,10.3104844 17.6495273,10.3104844 Z M0.350191406,8.29863281 C0.339046875,8.29863281 0.327832031,8.298 0.316476562,8.29669922 C0.155777344,8.2783125 0.0404648437,8.13315234 0.0588867187,7.97245312 C0.0984726562,7.62658594 0.158835937,7.27973437 0.23821875,6.94156641 C0.275203125,6.78406641 0.432878906,6.68633203 0.590308594,6.72342187 C0.747773437,6.76037109 0.845402344,6.91801172 0.808453125,7.07544141 C0.734203125,7.39153125 0.6778125,7.71574219 0.640792969,8.03907422 C0.623671875,8.18838281 0.497003906,8.29863281 0.350191406,8.29863281 Z M17.6466445,8.27103516 C17.5002187,8.27103516 17.3737617,8.16138281 17.3562188,8.01239062 C17.3181797,7.68919922 17.2607344,7.36519922 17.1855,7.04928516 C17.1480234,6.89196094 17.2451602,6.73400391 17.4024844,6.69652734 C17.5598086,6.65898047 17.7177305,6.7561875 17.7552422,6.91351172 C17.83575,7.25150391 17.8972031,7.59814453 17.9378789,7.94387109 C17.956793,8.1045 17.8419023,8.25001172 17.6813086,8.26892578 C17.6696367,8.27036719 17.6580703,8.27103516 17.6466445,8.27103516 Z M4.63608984,1.76378906 C4.53512109,1.76378906 4.43689453,1.71151172 4.38257813,1.61789063 C4.30136719,1.47800391 4.34893359,1.29877734 4.48885547,1.21763672 C4.78972266,1.04301563 5.10384375,0.884425781 5.42257031,0.746226563 C5.57092969,0.681890625 5.74340625,0.750023438 5.80770703,0.898382813 C5.87207812,1.04674219 5.80394531,1.21921875 5.65555078,1.28355469 C5.35770703,1.41271875 5.06408203,1.56097266 4.78286719,1.72416797 C4.73656641,1.75102734 4.68597656,1.76378906 4.63608984,1.76378906 Z M13.3410234,1.75060547 C13.291418,1.75060547 13.2411445,1.73798438 13.1950547,1.71144141 C12.9130312,1.54891406 12.6187031,1.40146875 12.3202266,1.27314844 C12.1716562,1.20926953 12.1029609,1.03703906 12.1668047,0.88846875 C12.2306484,0.739898438 12.4028437,0.6710625 12.5514844,0.735082031 C12.8708789,0.872367188 13.1857734,1.03011328 13.4874844,1.20399609 C13.6276172,1.28475 13.6757109,1.46380078 13.5949922,1.60393359 C13.5408164,1.69797656 13.4423086,1.75060547 13.3410234,1.75060547 Z M6.48970313,0.960152344 C6.36380859,0.960152344 6.24751172,0.878308594 6.20936719,0.751535156 C6.16278516,0.596636719 6.25060547,0.433335937 6.40550391,0.386789062 C6.73836328,0.286734375 7.08096094,0.2053125 7.42369922,0.144738281 C7.58309766,0.116648437 7.73486719,0.222890625 7.76302734,0.382183594 C7.7911875,0.541441406 7.684875,0.693351562 7.52558203,0.721511719 C7.20527344,0.778078125 6.88514063,0.854191406 6.57411328,0.947707031 C6.54602344,0.956144531 6.51758203,0.960152344 6.48970313,0.960152344 Z M11.4837188,0.952136719 C11.4560859,0.952136719 11.4280664,0.948234375 11.4001875,0.9399375 C11.0887383,0.847441406 10.7683945,0.772382812 10.4479805,0.716835937 C10.2886172,0.689203125 10.1818125,0.537644531 10.2094805,0.37828125 C10.2371133,0.218917969 10.3888125,0.112183594 10.5480352,0.13978125 C10.8908789,0.199195312 11.2336523,0.2795625 11.5669688,0.378527344 C11.7220078,0.424582031 11.8103555,0.587601562 11.7643008,0.742605469 C11.726543,0.869835937 11.61,0.952136719 11.4837188,0.952136719 Z M8.47975781,0.608027344 C8.32587891,0.608027344 8.19685547,0.488003906 8.18767969,0.3324375 C8.17815234,0.171 8.30133984,0.0323789062 8.46277734,0.0228867187 C8.64038672,0.012375 8.82080859,0.0071015625 8.99905078,0.0071015625 C8.99940234,0.0071015625 8.99968359,0.0071015625 9.00003516,0.0071015625 C9.1693125,0.0071015625 9.34045312,0.0118476562 9.50860547,0.0212695312 C9.67007812,0.0303046875 9.7936875,0.16846875 9.78465234,0.329976562 C9.7756875,0.491449219 9.63826172,0.615269531 9.47594531,0.606023437 C9.31862109,0.597269531 9.15844922,0.592769531 8.99996484,0.592769531 C8.99968359,0.592769531 8.99940234,0.592769531 8.99908594,0.592769531 C8.83226953,0.592769531 8.66341406,0.597726562 8.49719531,0.607535156 C8.49139453,0.607886719 8.48552344,0.608027344 8.47975781,0.608027344 Z" id="Shape" fill="#E38620" fill-rule="nonzero"></path>
                <g id="Group" transform="translate(1.125000, 1.371094)" fill="#FFF0C8" fill-rule="nonzero">
                    <path d="M1.33702734,0.0270703125 C1.49175897,0.0270703125 1.64027798,0.054176996 1.77808511,0.103891118 C1.8383775,0.125810398 1.8965842,0.151889417 1.95236719,0.181898438 C1.95202345,0.182083377 1.95167981,0.182268466 1.95133626,0.182453705 C2.36120917,0.401395759 2.64016406,0.833834318 2.64016406,1.33020703 C2.64016406,1.82657974 2.36120917,2.2590183 1.95183345,2.47898865 C1.89657351,2.50853534 1.83836262,2.53461855 1.77810663,2.55638225 C1.76027101,2.5629494 1.74227792,2.56899809 1.72411555,2.57465927 C1.65455454,2.59604858 1.58630445,2.61133386 1.51629295,2.62102845 C1.45722748,2.62918922 1.3976035,2.63334375 1.33702734,2.63334375 C0.618503906,2.63334375 0.0339257813,2.04876563 0.0339257813,1.33020703 C0.0339257813,0.611648438 0.618503906,0.0270703125 1.33702734,0.0270703125 Z" id="Combined-Shape"></path>
                    <path d="M14.3617852,0.0270703125 C14.5165168,0.0270703125 14.6650358,0.054176996 14.8028429,0.103891118 C14.8631556,0.125810398 14.9213665,0.151889417 14.9771602,0.181898438 C14.9768164,0.182083377 14.9764728,0.182268466 14.9761292,0.182453705 C15.385967,0.401395759 15.6649219,0.833834318 15.6649219,1.33020703 C15.6649219,1.82657974 15.385967,2.2590183 14.9765913,2.47898865 C14.9213665,2.50853534 14.8631556,2.53461855 14.8028996,2.55638225 C14.7850288,2.5629494 14.7670357,2.56899809 14.7488734,2.57465927 C14.6793475,2.59604858 14.6110974,2.61133386 14.5410859,2.62102845 C14.4819853,2.62918922 14.4223613,2.63334375 14.3617852,2.63334375 C13.6432617,2.63334375 13.0586836,2.04876563 13.0586836,1.33020703 C13.0586836,0.611648438 13.6432617,0.0270703125 14.3617852,0.0270703125 Z" id="Combined-Shape"></path>
                    <path d="M1.33702734,10.7683242 C1.49175897,10.7683242 1.64027798,10.7954309 1.77808511,10.845145 C1.8383775,10.8670291 1.8965842,10.8931082 1.95236719,10.9231172 C1.95202345,10.9233021 1.95167981,10.9234872 1.95133626,10.9236725 C2.36120917,11.1426497 2.64016406,11.5750882 2.64016406,12.0714609 C2.64016406,12.5678337 2.36120917,13.0002722 1.95183345,13.2202426 C1.89657351,13.2497541 1.83836262,13.2758373 1.77810663,13.297601 C1.76027101,13.3042033 1.74227792,13.310252 1.72411555,13.3159132 C1.65455454,13.3372673 1.58630445,13.3525526 1.51629295,13.3622472 C1.45722748,13.3704431 1.3976035,13.3745977 1.33702734,13.3745977 C0.618503906,13.3745977 0.0339257813,12.7899844 0.0339257813,12.0714609 C0.0339257813,11.3529375 0.618503906,10.7683242 1.33702734,10.7683242 Z" id="Combined-Shape"></path>
                    <path d="M14.3617852,10.7683242 C14.5165168,10.7683242 14.6650358,10.7954309 14.8028429,10.845145 C14.8631556,10.8670291 14.9213665,10.8931082 14.9771602,10.9231172 C14.9768164,10.9233021 14.9764728,10.9234872 14.9761292,10.9236725 C15.385967,11.1426497 15.6649219,11.5750882 15.6649219,12.0714609 C15.6649219,12.5678337 15.385967,13.0002722 14.9765913,13.2202426 C14.9213665,13.2497541 14.8631556,13.2758373 14.8028996,13.297601 C14.7850288,13.3042033 14.7670357,13.310252 14.7488734,13.3159132 C14.6793475,13.3372673 14.6110974,13.3525526 14.5410859,13.3622472 C14.4819853,13.3704431 14.4223613,13.3745977 14.3617852,13.3745977 C13.6432617,13.3745977 13.0586836,12.7899844 13.0586836,12.0714609 C13.0586836,11.3529375 13.6432617,10.7683242 14.3617852,10.7683242 Z" id="Combined-Shape"></path>
                </g>
                <g id="Group" transform="translate(1.125000, 11.371094)"></g>
            </g>
        </g>
    </g>
</svg>