<svg id="Capa_1" enable-background="new 0 0 512 512" height="512" viewBox="0 0 512 512" width="512" xmlns="http://www.w3.org/2000/svg"><g><g><path d="m84.272 310.136c4.142 0 7.5-3.358 7.5-7.5v-196.721h328.455v116.75c0 4.142 3.358 7.5 7.5 7.5s7.5-3.358 7.5-7.5v-124.25c0-4.142-3.358-7.5-7.5-7.5h-43.007v-22.805c0-4.142-3.358-7.5-7.5-7.5h-22.805v-22.805-30.305c0-4.142-3.358-7.5-7.5-7.5s-7.5 3.358-7.5 7.5v22.805h-21.366v-22.805c0-4.142-3.358-7.5-7.5-7.5s-7.5 3.358-7.5 7.5v22.805h-21.366v-22.805c0-4.142-3.358-7.5-7.5-7.5s-7.5 3.358-7.5 7.5v22.805h-21.366v-22.805c0-4.142-3.358-7.5-7.5-7.5s-7.5 3.358-7.5 7.5v22.805h-21.366v-22.805c0-4.142-3.358-7.5-7.5-7.5s-7.5 3.358-7.5 7.5v22.805h-21.366v-22.805c0-4.142-3.358-7.5-7.5-7.5s-7.5 3.358-7.5 7.5v30.305 22.805h-22.805c-4.142 0-7.5 3.358-7.5 7.5v22.805h-43.008c-4.142 0-7.5 3.358-7.5 7.5v204.221c0 4.142 3.358 7.5 7.5 7.5zm88.313-264.831h166.829v15.305h-166.829zm-30.305 30.305h227.44v15.305h-227.44z"/><path d="m114.577 196.829h30.305c4.142 0 7.5-3.358 7.5-7.5v-60.609c0-4.142-3.358-7.5-7.5-7.5h-30.305c-4.142 0-7.5 3.358-7.5 7.5v60.609c0 4.142 3.358 7.5 7.5 7.5zm7.5-60.609h15.305v45.609h-15.305z"/><path d="m215.517 128.72c0-4.142-3.358-7.5-7.5-7.5h-30.305c-4.142 0-7.5 3.358-7.5 7.5v60.609c0 4.142 3.358 7.5 7.5 7.5h30.305c4.142 0 7.5-3.358 7.5-7.5zm-15 53.109h-15.305v-45.609h15.305z"/><path d="m278.652 128.72c0-4.142-3.358-7.5-7.5-7.5h-30.305c-4.142 0-7.5 3.358-7.5 7.5v60.609c0 4.142 3.358 7.5 7.5 7.5h30.305c4.142 0 7.5-3.358 7.5-7.5zm-15 53.109h-15.305v-45.609h15.305z"/><path d="m303.983 196.829h30.305c4.142 0 7.5-3.358 7.5-7.5v-60.609c0-4.142-3.358-7.5-7.5-7.5h-30.305c-4.142 0-7.5 3.358-7.5 7.5v60.609c0 4.142 3.358 7.5 7.5 7.5zm7.5-60.609h15.305v45.609h-15.305z"/><path d="m404.923 128.72c0-4.142-3.358-7.5-7.5-7.5h-30.305c-4.142 0-7.5 3.358-7.5 7.5v60.609c0 4.142 3.358 7.5 7.5 7.5h30.305c4.142 0 7.5-3.358 7.5-7.5zm-15 53.109h-15.305v-45.609h15.305z"/><path d="m107.077 283.274c0 4.142 3.358 7.5 7.5 7.5h30.305c4.142 0 7.5-3.358 7.5-7.5v-60.61c0-4.142-3.358-7.5-7.5-7.5h-30.305c-4.142 0-7.5 3.358-7.5 7.5zm15-53.109h15.305v45.61h-15.305z"/><path d="m215.517 222.665c0-4.142-3.358-7.5-7.5-7.5h-30.305c-4.142 0-7.5 3.358-7.5 7.5v60.61c0 4.142 3.358 7.5 7.5 7.5h30.305c4.142 0 7.5-3.358 7.5-7.5zm-15 53.109h-15.305v-45.61h15.305z"/><path d="m278.652 222.665c0-4.142-3.358-7.5-7.5-7.5h-30.305c-4.142 0-7.5 3.358-7.5 7.5v60.61c0 4.142 3.358 7.5 7.5 7.5h30.305c4.142 0 7.5-3.358 7.5-7.5zm-15 53.109h-15.305v-45.61h15.305z"/><path d="m296.483 283.274c0 4.142 3.358 7.5 7.5 7.5h30.305c4.142 0 7.5-3.358 7.5-7.5v-60.61c0-4.142-3.358-7.5-7.5-7.5h-30.305c-4.142 0-7.5 3.358-7.5 7.5zm15-53.109h15.305v45.61h-15.305z"/><path d="m404.923 222.665c0-4.142-3.358-7.5-7.5-7.5h-30.305c-4.142 0-7.5 3.358-7.5 7.5v60.61c0 4.142 3.358 7.5 7.5 7.5h30.305c4.142 0 7.5-3.358 7.5-7.5zm-15 53.109h-15.305v-45.61h15.305z"/><path d="m107.077 377.22c0 4.142 3.358 7.5 7.5 7.5h30.305c4.142 0 7.5-3.358 7.5-7.5v-60.61c0-4.142-3.358-7.5-7.5-7.5h-30.305c-4.142 0-7.5 3.358-7.5 7.5zm15-53.11h15.305v45.61h-15.305z"/><path d="m215.517 377.22v-60.61c0-4.142-3.358-7.5-7.5-7.5h-30.305c-4.142 0-7.5 3.358-7.5 7.5v60.61c0 4.142 3.358 7.5 7.5 7.5h30.305c4.142 0 7.5-3.358 7.5-7.5zm-15-7.5h-15.305v-45.61h15.305z"/><path d="m271.152 309.11h-30.305c-4.142 0-7.5 3.358-7.5 7.5v60.61c0 4.142 3.358 7.5 7.5 7.5h30.305c4.142 0 7.5-3.358 7.5-7.5v-60.61c0-4.142-3.358-7.5-7.5-7.5zm-7.5 60.61h-15.305v-45.61h15.305z"/><path d="m296.483 377.22c0 4.142 3.358 7.5 7.5 7.5h30.305c4.142 0 7.5-3.358 7.5-7.5v-60.61c0-4.142-3.358-7.5-7.5-7.5h-30.305c-4.142 0-7.5 3.358-7.5 7.5zm15-53.11h15.305v45.61h-15.305z"/><path d="m404.923 316.61c0-4.142-3.358-7.5-7.5-7.5h-30.305c-4.142 0-7.5 3.358-7.5 7.5v60.61c0 4.142 3.358 7.5 7.5 7.5h30.305c4.142 0 7.5-3.358 7.5-7.5zm-15 53.11h-15.305v-45.61h15.305z"/><path d="m326.711 479.675h70.711c4.142 0 7.5-3.358 7.5-7.5v-60.61c0-4.142-3.358-7.5-7.5-7.5h-70.711c-4.142 0-7.5 3.358-7.5 7.5v60.61c0 4.142 3.358 7.5 7.5 7.5zm7.5-60.61h55.711v45.61h-55.711z"/><path d="m107.077 472.175c0 4.142 3.358 7.5 7.5 7.5h70.711c4.142 0 7.5-3.358 7.5-7.5v-60.61c0-4.142-3.358-7.5-7.5-7.5h-70.711c-4.142 0-7.5 3.358-7.5 7.5zm15-53.11h55.711v45.61h-55.711z"/><path d="m504.5 497h-1.591v-22.805c0-4.142-3.358-7.5-7.5-7.5h-7.653v-76.818c13.895-3.38 24.244-15.921 24.244-30.841 0-17.504-14.24-31.744-31.744-31.744-17.503 0-31.744 14.24-31.744 31.744 0 14.92 10.349 27.461 24.244 30.841v76.818h-7.652c-4.142 0-7.5 3.358-7.5 7.5v22.805h-22.376v-239.353c0-4.142-3.358-7.5-7.5-7.5s-7.5 3.358-7.5 7.5v239.353h-116.321v-85.435c0-4.142-3.358-7.5-7.5-7.5h-40.407-40.407c-4.142 0-7.5 3.358-7.5 7.5v85.435h-116.321v-159.354c0-4.142-3.358-7.5-7.5-7.5s-7.5 3.358-7.5 7.5v159.354h-22.376v-22.805c0-4.142-3.358-7.5-7.5-7.5h-7.652v-76.818c13.895-3.38 24.244-15.921 24.244-30.841 0-17.504-14.24-31.744-31.744-31.744s-31.744 14.241-31.744 31.745c0 14.92 10.349 27.461 24.244 30.841v76.818h-7.653c-4.142 0-7.5 3.358-7.5 7.5v22.804h-1.591c-4.142 0-7.5 3.358-7.5 7.5s3.358 7.5 7.5 7.5h497c4.142 0 7.5-3.358 7.5-7.5s-3.358-7.5-7.5-7.5zm-40.988-137.963c0-9.233 7.511-16.744 16.744-16.744s16.744 7.511 16.744 16.744c0 9.232-7.511 16.744-16.744 16.744-9.233-.001-16.744-7.512-16.744-16.744zm-448.512 0c0-9.233 7.511-16.744 16.744-16.744 9.232 0 16.744 7.511 16.744 16.744 0 9.232-7.511 16.744-16.744 16.744-9.233-.001-16.744-7.512-16.744-16.744zm9.091 137.963v-15.305h15.305v15.305zm199.002-77.935h25.407v77.935h-25.407zm40.407 77.935v-77.935h25.407v77.935zm209.104 0v-15.305h15.305v15.305z"/></g></g></svg>