<svg xmlns="http://www.w3.org/2000/svg" width="21.87" height="21.87" viewBox="0 0 21.87 21.87"><title>hand</title><g id="Layer_2" data-name="Layer 2"><g id="Layer_1-2" data-name="Layer 1"><path d="M11.6,4.81a.77.77,0,0,0-.84-.2.72.72,0,0,0-.51.59.85.85,0,0,0,.29.77l2.24,2.24a3.2,3.2,0,0,1,.25.27A.36.36,0,0,1,13,9a.76.76,0,0,1-.52.08c-.11,0-.21-.15-.31-.24q-2-2-4-4a.78.78,0,0,0-1.17-.11A.82.82,0,0,0,7.13,6l3.93,3.93c.1.1.24.19.27.32a.6.6,0,0,1,0,.48c-.07.1-.31.12-.46.09s-.24-.17-.35-.27L5.94,6a2,2,0,0,0-.35-.3.7.7,0,0,0-1,.08.72.72,0,0,0-.1,1c.09.12.2.23.3.34l4.55,4.55a.75.75,0,0,1,.28.39.52.52,0,0,1-.12.44.63.63,0,0,1-.47,0c-.1,0-.18-.16-.27-.24L4.92,8.38a1.71,1.71,0,0,0-.44-.32.76.76,0,0,0-.93.23.75.75,0,0,0,.05,1c.38.4.78.79,1.18,1.19C6,11.72,7.3,13,8.54,14.24a.81.81,0,0,1,.22.52c0,.24-.24.36-.56.33L6,14.8a.79.79,0,0,0-.84,1.13.84.84,0,0,0,.73.43c2.21.29,4.43.57,6.65.88a5,5,0,0,0,2.74-.3,4.43,4.43,0,0,0,2.41-5.36,4.56,4.56,0,0,0-1.12-1.83L14.21,7.42h0Z" fill="#9e9e9e"/><path d="M14.76,18c.33.32.59.6.88.85,0,0,.22-.05.3-.12l1.62-1.61c.54-.55,1.08-1.1,1.64-1.64.19-.18.19-.32,0-.5s-.4-.39-.66-.65A5.42,5.42,0,0,1,14.76,18Z" fill="#9e9e9e"/><rect width="21.87" height="21.87" fill="none"/></g></g></svg>