<svg xmlns="http://www.w3.org/2000/svg" width="21.87" height="21.87" viewBox="0 0 21.87 21.87"><title>rotate</title><g id="Layer_2" data-name="Layer 2"><g id="Layer_1-2" data-name="Layer 1"><rect width="21.87" height="21.87" fill="none"/><path d="M14.13,13.63l1.1,1.08a6.1,6.1,0,0,0,1.26-3H14.92a4.76,4.76,0,0,1-.79,2m-3,1.87v1.57a6.12,6.12,0,0,0,3-1.25L13,14.7a4.52,4.52,0,0,1-1.91.8m5.39-5.37a6.1,6.1,0,0,0-1.26-3l-1.1,1.1a4.58,4.58,0,0,1,.79,1.93M13.08,5.88,9.54,2.34V4.73a6.22,6.22,0,0,0,0,12.35V15.51a4.67,4.67,0,0,1,0-9.21V9.35Z" fill="#9e9e9e"/></g></g></svg>