<svg xmlns="http://www.w3.org/2000/svg" width="21.87" height="21.87" viewBox="0 0 21.87 21.87"><title>arrow</title><g id="Layer_2" data-name="Layer 2"><g id="Layer_1-2" data-name="Layer 1"><rect width="21.87" height="21.87" fill="none"/><path d="M14.63,11.88,8.19,4.43a.52.52,0,0,0-.59-.15.52.52,0,0,0-.35.49L7.1,14.62a.55.55,0,0,0,.36.52A.54.54,0,0,0,8.05,15l1.68-1.83,1.5,4.12a.54.54,0,0,0,.51.35.57.57,0,0,0,.18,0l.93-.34a.54.54,0,0,0,.32-.69l-1.5-4.12,2.45.32a.54.54,0,0,0,.57-.26A.53.53,0,0,0,14.63,11.88Z" fill="#9e9e9e"/></g></g></svg>