<svg xmlns="http://www.w3.org/2000/svg" width="21.87" height="21.87" viewBox="0 0 21.87 21.87"><title>square</title><g id="Layer_2" data-name="Layer 2"><g id="Layer_1-2" data-name="Layer 1"><rect width="21.87" height="21.87" fill="none"/><path d="M5.44,4.41H9.22V5.67h5V4.41H18V8.19H16.78v5H18V17H14.26V15.75h-5V17H5.44V13.23H6.7v-5H5.44V4.41m8.82,3.78V6.93h-5V8.19H8v5H9.22v1.26h5V13.23h1.26v-5H14.26M6.7,5.67V6.93H8V5.67H6.7m8.82,0V6.93h1.26V5.67H15.52M6.7,14.49v1.26H8V14.49H6.7m8.82,0v1.26h1.26V14.49Z" fill="#9e9e9e"/></g></g></svg>